<svg xmlns="http://www.w3.org/2000/svg" width="679" height="718" viewBox="0 0 679 718">
<path d="M 241,513 L 241,520 L 244,525 L 267,538 L 295,548 L 303,549 L 308,551 L 323,552 L 324,553 L 363,552 L 364,551 L 370,551 L 374,549 L 380,549 L 387,546 L 391,546 L 394,544 L 397,544 L 407,539 L 409,539 L 434,526 L 438,520 L 438,513 L 434,508 L 431,506 L 423,506 L 397,520 L 383,525 L 380,525 L 377,527 L 372,527 L 361,530 L 353,530 L 352,531 L 323,531 L 316,529 L 310,529 L 302,526 L 298,526 L 291,523 L 288,523 L 263,511 L 255,506 L 246,507 Z M 241,515 L 246,508 L 248,507 L 256,507 L 265,513 L 277,519 L 279,519 L 281,521 L 284,521 L 287,523 L 290,523 L 293,525 L 299,526 L 303,528 L 308,528 L 319,531 L 358,531 L 359,530 L 364,530 L 374,527 L 378,527 L 405,517 L 407,515 L 409,515 L 423,507 L 431,507 L 436,511 L 438,515 L 437,521 L 431,527 L 410,538 L 389,546 L 381,547 L 377,549 L 371,549 L 366,551 L 361,551 L 360,552 L 330,553 L 329,552 L 320,552 L 319,551 L 311,551 L 307,549 L 301,549 L 293,546 L 289,546 L 286,544 L 283,544 L 273,540 L 245,525 L 241,519 Z M 94,209 L 94,222 L 93,223 L 93,233 L 92,234 L 92,259 L 91,260 L 92,272 L 99,270 L 135,254 L 138,254 L 141,252 L 147,251 L 150,249 L 153,249 L 156,247 L 162,246 L 172,242 L 176,242 L 180,240 L 184,240 L 201,235 L 221,232 L 226,230 L 237,229 L 238,228 L 244,228 L 245,227 L 255,227 L 256,226 L 273,225 L 274,224 L 282,224 L 283,223 L 310,223 L 311,222 L 323,222 L 324,221 L 357,221 L 361,223 L 394,223 L 395,224 L 413,225 L 419,227 L 435,228 L 441,230 L 447,230 L 452,232 L 458,232 L 459,233 L 473,235 L 482,238 L 486,238 L 489,240 L 493,240 L 501,243 L 504,243 L 533,253 L 553,262 L 555,262 L 557,264 L 559,264 L 577,273 L 579,273 L 580,262 L 581,261 L 581,232 L 580,231 L 581,227 L 580,226 L 580,216 L 579,215 L 578,202 L 573,194 L 549,180 L 547,180 L 536,174 L 511,164 L 505,163 L 493,158 L 489,158 L 466,151 L 462,151 L 448,147 L 442,147 L 437,145 L 424,144 L 419,142 L 409,142 L 408,141 L 391,140 L 390,139 L 358,138 L 357,137 L 316,137 L 315,138 L 301,138 L 300,139 L 290,139 L 289,140 L 273,140 L 260,143 L 250,143 L 245,145 L 238,145 L 237,146 L 231,146 L 227,148 L 221,148 L 213,151 L 207,151 L 203,153 L 195,154 L 191,156 L 187,156 L 183,158 L 173,160 L 123,178 L 99,190 L 97,192 L 95,208 Z M 139,145 L 139,147 L 141,147 L 160,140 L 163,140 L 166,138 L 169,138 L 183,133 L 187,133 L 191,131 L 200,130 L 204,128 L 209,128 L 229,123 L 237,123 L 243,121 L 258,120 L 265,118 L 279,118 L 280,117 L 289,117 L 290,116 L 299,116 L 300,115 L 374,115 L 375,116 L 385,116 L 386,117 L 411,118 L 412,119 L 426,120 L 431,122 L 438,122 L 444,124 L 460,126 L 469,129 L 473,129 L 476,131 L 481,131 L 488,134 L 492,134 L 495,136 L 498,136 L 516,142 L 519,144 L 525,145 L 533,149 L 539,150 L 537,143 L 529,126 L 513,102 L 499,87 L 473,67 L 448,54 L 434,49 L 431,49 L 425,46 L 422,46 L 419,44 L 414,44 L 410,42 L 405,42 L 395,39 L 388,39 L 382,37 L 366,37 L 365,36 L 356,36 L 355,35 L 332,35 L 331,36 L 320,36 L 319,37 L 311,37 L 310,38 L 299,38 L 294,40 L 282,41 L 262,46 L 244,52 L 214,66 L 190,82 L 165,106 L 152,123 Z" fill="#fc7960" stroke="none" fill-rule="evenodd"/>
<path d="M 80,364 L 69,375 L 62,390 L 61,408 L 62,409 L 63,417 L 68,428 L 72,434 L 78,440 L 92,449 L 104,452 L 105,450 L 100,431 L 98,411 L 88,393 L 81,369 L 81,364 Z M 593,360 L 589,361 L 589,363 L 585,370 L 585,400 L 584,401 L 584,408 L 583,409 L 583,419 L 582,420 L 580,435 L 576,450 L 577,452 L 586,450 L 594,446 L 601,441 L 609,433 L 615,422 L 619,409 L 619,397 L 618,396 L 617,388 L 614,381 L 607,371 L 601,365 Z M 562,384 L 554,384 L 549,382 L 539,381 L 537,379 L 534,379 L 519,373 L 505,365 L 488,351 L 469,329 L 455,302 L 449,282 L 448,282 L 442,293 L 431,309 L 407,334 L 404,335 L 398,341 L 385,350 L 376,353 L 368,352 L 362,348 L 359,342 L 359,333 L 358,333 L 332,351 L 306,363 L 289,367 L 276,367 L 273,366 L 262,355 L 261,344 L 264,334 L 277,315 L 249,328 L 215,337 L 190,337 L 186,335 L 180,334 L 178,332 L 175,332 L 174,337 L 169,348 L 169,351 L 155,381 L 139,404 L 130,413 L 122,417 L 122,421 L 123,422 L 124,434 L 126,438 L 126,442 L 133,465 L 149,498 L 169,527 L 199,557 L 219,572 L 238,583 L 257,592 L 262,593 L 265,595 L 268,595 L 271,597 L 277,598 L 280,600 L 284,600 L 293,603 L 298,603 L 303,605 L 317,606 L 318,607 L 338,607 L 339,608 L 342,607 L 357,607 L 358,606 L 367,606 L 368,605 L 385,603 L 398,599 L 402,599 L 405,597 L 410,596 L 413,594 L 416,594 L 431,587 L 433,587 L 462,571 L 483,555 L 505,533 L 527,504 L 529,499 L 534,492 L 548,462 L 553,447 L 553,443 L 555,440 L 556,432 L 559,422 L 559,415 L 561,408 L 561,398 L 562,397 Z M 240,513 L 246,506 L 255,505 L 283,520 L 298,525 L 302,525 L 310,528 L 316,528 L 323,530 L 352,530 L 353,529 L 361,529 L 372,526 L 377,526 L 380,524 L 383,524 L 397,519 L 423,505 L 431,505 L 438,511 L 439,513 L 439,520 L 434,527 L 409,540 L 407,540 L 397,545 L 394,545 L 391,547 L 387,547 L 380,550 L 374,550 L 370,552 L 364,552 L 363,553 L 324,554 L 323,553 L 315,553 L 314,552 L 308,552 L 303,550 L 295,549 L 267,539 L 244,526 L 240,520 Z M 409,371 L 413,370 L 427,370 L 436,373 L 449,385 L 455,398 L 455,413 L 453,416 L 452,421 L 443,432 L 436,437 L 429,440 L 416,441 L 415,440 L 410,440 L 403,437 L 390,425 L 385,415 L 384,402 L 387,390 L 391,384 L 399,376 Z M 251,370 L 268,370 L 277,374 L 289,386 L 294,398 L 294,413 L 291,421 L 281,433 L 269,440 L 256,441 L 255,440 L 249,440 L 244,437 L 242,437 L 229,425 L 224,415 L 223,400 L 224,399 L 224,395 L 227,389 L 236,378 L 243,373 Z M 608,261 L 622,268 L 624,267 L 623,264 L 624,257 L 617,253 Z" fill="#f7d8bd" stroke="none" fill-rule="evenodd"/>
<path d="M 183,669 L 183,673 L 185,663 L 188,657 L 199,645 L 207,640 L 217,637 L 464,637 L 478,642 L 491,653 L 495,659 L 498,668 L 498,672 L 500,675 L 496,662 L 497,659 L 495,655 L 494,656 L 487,648 L 488,647 L 486,648 L 484,646 L 485,644 L 483,645 L 481,643 L 482,642 L 479,643 L 474,640 L 469,639 L 465,636 L 215,636 L 213,638 L 201,643 L 187,657 L 186,656 L 187,659 L 185,661 L 184,660 L 185,661 L 185,665 Z M 42,386 L 41,393 L 39,395 L 39,409 L 42,414 L 42,419 L 46,431 L 52,442 L 66,457 L 74,462 L 77,465 L 76,466 L 79,465 L 84,468 L 93,471 L 102,472 L 104,474 L 109,474 L 112,472 L 116,476 L 118,483 L 120,485 L 120,487 L 125,497 L 124,500 L 125,499 L 127,501 L 134,514 L 147,533 L 165,554 L 164,555 L 170,561 L 171,560 L 184,572 L 201,585 L 229,602 L 231,602 L 254,613 L 257,613 L 259,615 L 262,615 L 269,618 L 278,620 L 269,618 L 257,613 L 254,613 L 252,611 L 249,611 L 247,609 L 240,607 L 238,605 L 236,605 L 222,598 L 200,583 L 197,582 L 179,567 L 152,539 L 133,512 L 125,498 L 118,480 L 113,472 L 93,471 L 78,465 L 75,462 L 73,462 L 65,456 L 49,437 L 43,422 L 42,413 L 40,407 L 40,397 L 42,391 Z M 410,373 L 400,378 L 393,385 L 389,391 L 387,397 L 387,412 L 389,416 L 389,419 L 392,424 L 404,435 L 412,438 L 427,438 L 438,433 L 449,421 L 453,408 L 453,402 L 452,401 L 451,393 L 447,386 L 438,377 L 432,374 L 423,373 L 422,372 Z M 416,372 L 432,374 L 440,379 L 450,391 L 452,398 L 453,406 L 450,419 L 441,430 L 434,435 L 426,438 L 413,438 L 402,433 L 391,422 L 387,411 L 387,399 L 389,392 L 392,387 L 405,375 Z M 250,373 L 241,377 L 236,381 L 229,390 L 226,398 L 226,412 L 231,424 L 242,434 L 252,438 L 266,438 L 277,433 L 287,423 L 290,417 L 291,408 L 292,407 L 291,397 L 287,387 L 282,381 L 274,375 L 264,372 Z M 255,372 L 264,372 L 275,376 L 285,385 L 290,393 L 291,411 L 289,419 L 286,424 L 277,433 L 272,436 L 269,436 L 265,438 L 252,438 L 241,433 L 234,427 L 229,420 L 226,410 L 227,395 L 233,385 L 243,376 Z M 605,282 L 601,283 L 598,294 L 593,305 L 593,320 L 594,321 L 594,336 L 595,337 L 601,324 L 605,311 L 608,306 L 608,304 L 610,302 L 610,300 L 613,295 L 613,292 L 615,289 L 614,286 L 612,286 Z M 544,379 L 528,374 L 507,363 L 496,355 L 480,339 L 466,319 L 456,297 L 454,288 L 451,282 L 451,278 L 449,277 L 447,278 L 437,296 L 426,311 L 405,332 L 387,346 L 378,350 L 370,350 L 366,348 L 362,344 L 362,340 L 361,339 L 362,329 L 359,329 L 334,347 L 314,357 L 312,357 L 310,359 L 307,359 L 301,362 L 297,362 L 293,364 L 276,364 L 273,363 L 267,358 L 264,353 L 264,342 L 268,332 L 282,313 L 281,310 L 252,324 L 247,325 L 244,327 L 237,328 L 234,330 L 230,330 L 223,333 L 216,333 L 208,335 L 196,335 L 195,334 L 185,333 L 175,328 L 173,329 L 173,332 L 168,343 L 167,349 L 164,354 L 162,361 L 160,363 L 159,367 L 151,381 L 151,383 L 138,401 L 127,412 L 120,415 L 119,423 L 127,455 L 129,458 L 129,461 L 136,476 L 136,478 L 152,508 L 174,537 L 187,550 L 209,568 L 236,585 L 238,585 L 250,592 L 260,595 L 263,597 L 266,597 L 269,599 L 285,604 L 299,606 L 278,602 L 275,600 L 272,600 L 266,597 L 258,595 L 233,583 L 208,567 L 191,553 L 167,528 L 150,504 L 136,478 L 136,476 L 129,461 L 129,458 L 124,444 L 119,417 L 122,414 L 124,414 L 131,409 L 137,403 L 150,385 L 162,361 L 162,359 L 164,357 L 170,338 L 173,331 L 175,329 L 185,333 L 193,334 L 194,335 L 211,335 L 217,333 L 223,333 L 250,325 L 279,311 L 281,314 L 269,330 L 264,342 L 264,353 L 266,357 L 271,362 L 275,364 L 279,364 L 280,365 L 293,364 L 310,359 L 331,349 L 360,329 L 362,331 L 361,340 L 364,347 L 369,350 L 378,350 L 382,349 L 398,338 L 419,319 L 434,301 L 446,280 L 449,278 L 451,280 L 454,292 L 456,295 L 459,305 L 467,321 L 483,343 L 498,357 L 508,364 L 530,375 Z M 467,257 L 468,266 L 476,293 L 487,314 L 500,331 L 515,344 L 537,356 L 558,362 L 564,361 L 567,357 L 572,338 L 572,309 L 568,293 L 552,284 L 533,277 L 523,272 L 520,272 L 506,266 L 499,265 L 477,258 L 473,258 L 469,256 Z M 605,260 L 606,264 L 621,271 L 626,271 L 626,257 L 627,256 L 625,253 L 622,253 L 616,250 Z M 615,251 L 619,251 L 626,255 L 626,269 L 624,271 L 612,267 L 605,262 Z M 437,251 L 430,249 L 407,247 L 399,245 L 383,245 L 382,244 L 371,244 L 370,243 L 309,243 L 308,244 L 306,243 L 305,244 L 296,244 L 295,245 L 271,246 L 263,248 L 255,248 L 254,249 L 234,251 L 229,253 L 221,253 L 216,255 L 202,257 L 198,259 L 190,260 L 186,262 L 181,262 L 174,265 L 164,267 L 147,274 L 141,275 L 139,277 L 136,277 L 133,279 L 128,280 L 105,291 L 103,295 L 103,300 L 101,307 L 101,320 L 100,321 L 100,339 L 101,340 L 101,349 L 102,350 L 102,360 L 107,380 L 111,389 L 115,394 L 117,394 L 126,384 L 140,360 L 140,358 L 142,356 L 147,342 L 150,337 L 160,308 L 162,296 L 171,281 L 180,274 L 186,274 L 190,276 L 194,281 L 194,287 L 192,291 L 185,299 L 183,304 L 185,310 L 189,313 L 196,315 L 207,315 L 208,314 L 215,314 L 227,311 L 252,302 L 281,287 L 313,266 L 321,266 L 328,273 L 328,285 L 321,298 L 285,343 L 286,344 L 290,344 L 307,338 L 334,323 L 356,305 L 374,287 L 379,280 L 386,273 L 390,272 L 395,273 L 402,280 L 402,291 L 395,310 L 395,313 L 405,304 L 418,288 L 426,276 L 426,274 L 430,268 L 430,266 L 436,255 Z M 73,211 L 73,228 L 70,233 L 72,236 L 72,250 L 71,254 L 69,256 L 69,268 L 71,270 L 71,276 L 74,287 L 83,296 L 82,313 L 81,314 L 81,338 L 78,342 L 76,342 L 63,351 L 62,350 L 61,351 L 62,352 L 57,357 L 56,356 L 55,357 L 56,358 L 51,364 L 50,363 L 51,366 L 48,369 L 47,368 L 48,371 L 46,373 L 45,372 L 44,374 L 45,378 L 43,381 L 43,384 L 45,376 L 53,362 L 67,348 L 80,341 L 81,339 L 81,314 L 82,313 L 83,295 L 74,287 L 74,284 L 72,280 L 71,262 L 70,261 L 71,253 L 72,252 L 72,237 L 73,236 L 72,235 Z M 90,220 L 90,241 L 89,242 L 89,257 L 88,261 L 89,262 L 89,274 L 91,276 L 101,271 L 108,269 L 119,263 L 127,261 L 140,255 L 146,254 L 152,251 L 155,251 L 175,244 L 187,242 L 191,240 L 195,240 L 196,239 L 205,238 L 209,236 L 215,236 L 219,234 L 230,233 L 236,231 L 245,231 L 250,229 L 260,229 L 267,227 L 280,227 L 281,226 L 293,226 L 294,225 L 321,225 L 322,224 L 357,224 L 358,225 L 398,226 L 399,227 L 407,227 L 414,229 L 424,229 L 430,231 L 438,231 L 443,233 L 455,234 L 459,236 L 465,236 L 474,239 L 479,239 L 482,241 L 486,241 L 490,243 L 494,243 L 508,248 L 511,248 L 514,250 L 517,250 L 520,252 L 523,252 L 528,255 L 531,255 L 533,257 L 541,259 L 551,264 L 553,264 L 555,266 L 557,266 L 577,276 L 581,275 L 583,268 L 583,262 L 584,261 L 583,215 L 582,214 L 582,208 L 580,204 L 580,200 L 575,192 L 551,178 L 549,178 L 533,170 L 513,162 L 505,160 L 502,158 L 498,158 L 495,156 L 491,156 L 481,152 L 473,151 L 470,149 L 465,149 L 452,145 L 446,145 L 441,143 L 435,143 L 423,140 L 413,140 L 409,138 L 399,138 L 398,137 L 383,137 L 382,136 L 374,136 L 373,135 L 299,135 L 298,136 L 285,136 L 278,138 L 260,139 L 254,141 L 246,141 L 233,144 L 227,144 L 218,147 L 212,147 L 208,149 L 200,150 L 196,152 L 191,152 L 188,154 L 184,154 L 180,156 L 170,158 L 149,165 L 141,169 L 133,171 L 97,188 L 94,193 L 93,206 L 92,207 L 91,219 Z M 93,200 L 94,199 L 95,191 L 98,188 L 122,176 L 171,158 L 219,146 L 224,146 L 229,144 L 242,143 L 248,141 L 256,141 L 263,139 L 271,139 L 272,138 L 282,138 L 283,137 L 292,137 L 293,136 L 313,136 L 314,135 L 369,135 L 370,136 L 380,136 L 381,137 L 391,137 L 392,138 L 396,137 L 397,138 L 405,138 L 412,140 L 421,140 L 422,141 L 439,143 L 444,145 L 450,145 L 455,147 L 468,149 L 483,154 L 487,154 L 490,156 L 494,156 L 497,158 L 501,158 L 504,160 L 512,162 L 537,172 L 548,178 L 550,178 L 574,192 L 577,195 L 580,201 L 580,205 L 582,211 L 583,242 L 584,243 L 584,247 L 583,248 L 584,250 L 583,266 L 581,274 L 578,276 L 547,261 L 509,247 L 506,247 L 499,244 L 488,242 L 480,239 L 462,236 L 457,234 L 440,232 L 439,231 L 418,229 L 410,227 L 402,227 L 401,226 L 392,226 L 391,225 L 321,224 L 320,225 L 288,225 L 287,226 L 249,229 L 248,230 L 229,232 L 228,233 L 199,238 L 194,240 L 190,240 L 142,254 L 126,261 L 121,262 L 92,275 L 89,272 L 89,244 L 90,243 L 90,227 L 91,226 L 91,216 L 92,215 Z M 135,147 L 135,150 L 138,151 L 141,149 L 153,146 L 156,144 L 159,144 L 162,142 L 172,140 L 179,137 L 183,137 L 186,135 L 190,135 L 199,132 L 204,132 L 208,130 L 218,129 L 222,127 L 228,127 L 241,124 L 249,124 L 254,122 L 267,122 L 273,120 L 300,119 L 301,118 L 333,118 L 334,117 L 354,118 L 356,117 L 357,118 L 387,119 L 388,120 L 389,119 L 393,119 L 394,120 L 413,121 L 426,124 L 434,124 L 440,126 L 447,126 L 465,131 L 469,131 L 473,133 L 478,133 L 482,135 L 496,138 L 499,140 L 503,140 L 525,149 L 531,150 L 539,154 L 542,154 L 542,149 L 538,141 L 537,136 L 520,107 L 513,98 L 496,81 L 478,67 L 450,52 L 440,49 L 437,47 L 434,47 L 431,45 L 425,44 L 422,42 L 417,42 L 413,40 L 408,40 L 388,35 L 376,35 L 375,34 L 368,34 L 367,33 L 319,33 L 318,34 L 310,34 L 304,36 L 294,36 L 284,39 L 277,39 L 274,41 L 262,43 L 259,45 L 247,48 L 223,59 L 221,59 L 199,72 L 187,81 L 164,103 L 144,130 Z M 136,146 L 144,131 L 164,104 L 188,81 L 213,64 L 248,48 L 254,47 L 257,45 L 260,45 L 271,41 L 275,41 L 279,39 L 286,39 L 297,36 L 305,36 L 306,35 L 313,35 L 314,34 L 327,34 L 328,33 L 358,33 L 360,34 L 362,33 L 363,34 L 384,35 L 385,36 L 396,37 L 416,42 L 420,42 L 449,52 L 474,65 L 492,78 L 501,86 L 518,105 L 532,127 L 539,142 L 542,152 L 540,154 L 537,152 L 529,150 L 526,148 L 515,145 L 503,140 L 500,140 L 497,138 L 448,126 L 442,126 L 441,125 L 429,124 L 423,122 L 407,121 L 406,120 L 359,118 L 358,117 L 315,117 L 314,118 L 298,118 L 297,119 L 295,118 L 294,119 L 282,119 L 281,120 L 270,120 L 262,122 L 253,122 L 246,124 L 221,127 L 211,130 L 206,130 L 202,132 L 193,133 L 189,135 L 185,135 L 164,142 L 161,142 L 158,144 L 155,144 L 152,146 L 149,146 L 139,150 L 136,148 Z M 382,18 L 395,19 L 396,20 L 405,20 L 409,22 L 416,22 L 423,25 L 427,25 L 434,28 L 437,28 L 440,30 L 443,30 L 460,38 L 462,38 L 474,45 L 476,45 L 498,61 L 501,62 L 522,82 L 533,95 L 543,110 L 553,129 L 553,131 L 555,133 L 562,152 L 562,156 L 564,159 L 564,163 L 566,167 L 568,169 L 574,171 L 577,174 L 582,176 L 594,188 L 599,205 L 599,214 L 601,222 L 601,247 L 605,248 L 622,233 L 627,232 L 633,236 L 635,240 L 636,281 L 611,347 L 626,362 L 631,370 L 638,387 L 638,393 L 640,398 L 638,416 L 634,429 L 629,439 L 620,451 L 610,460 L 593,469 L 581,472 L 567,472 L 565,473 L 557,493 L 539,523 L 521,546 L 496,571 L 482,582 L 479,583 L 472,589 L 469,590 L 461,596 L 432,610 L 427,611 L 424,613 L 421,613 L 418,615 L 412,616 L 409,618 L 392,622 L 395,622 L 404,619 L 406,621 L 405,620 L 407,618 L 427,612 L 444,604 L 448,605 L 447,604 L 450,601 L 452,601 L 468,592 L 481,582 L 483,582 L 499,569 L 518,550 L 530,536 L 535,528 L 540,523 L 541,524 L 540,521 L 549,508 L 552,501 L 555,498 L 556,499 L 555,496 L 559,489 L 562,480 L 564,478 L 564,476 L 568,472 L 581,472 L 588,470 L 590,472 L 589,471 L 591,469 L 596,468 L 613,458 L 624,447 L 627,441 L 630,438 L 637,421 L 638,411 L 641,406 L 641,398 L 639,396 L 638,387 L 635,378 L 629,366 L 623,358 L 624,357 L 619,352 L 618,353 L 616,352 L 611,347 L 623,317 L 625,309 L 631,296 L 632,291 L 634,288 L 634,285 L 637,281 L 638,282 L 637,281 L 638,279 L 638,263 L 636,261 L 636,253 L 635,252 L 635,239 L 636,238 L 634,234 L 632,235 L 629,232 L 630,231 L 623,231 L 622,232 L 621,231 L 622,232 L 604,248 L 601,246 L 601,234 L 602,233 L 601,232 L 601,222 L 600,221 L 600,213 L 599,212 L 598,200 L 594,190 L 595,186 L 594,187 L 585,178 L 576,172 L 569,169 L 565,165 L 564,158 L 562,155 L 562,151 L 557,140 L 557,137 L 555,135 L 556,131 L 555,132 L 553,130 L 539,103 L 526,86 L 516,75 L 517,74 L 516,75 L 514,74 L 506,66 L 494,57 L 495,55 L 494,56 L 490,55 L 486,51 L 480,48 L 477,45 L 478,44 L 475,45 L 458,36 L 438,28 L 435,28 L 416,22 L 410,22 L 406,19 L 397,20 L 396,19 Z M 380,17 L 365,17 L 364,16 L 352,16 L 351,15 L 331,15 L 330,16 L 321,16 L 320,17 L 306,17 L 305,16 L 303,18 L 295,17 L 291,20 L 272,22 L 269,24 L 264,24 L 257,27 L 241,31 L 219,41 L 217,41 L 204,48 L 199,52 L 192,55 L 169,73 L 143,100 L 142,103 L 138,107 L 123,131 L 120,139 L 117,142 L 116,141 L 117,145 L 110,161 L 105,165 L 102,166 L 99,165 L 93,168 L 94,169 L 92,171 L 87,173 L 81,179 L 76,192 L 74,209 L 76,193 L 78,189 L 78,186 L 83,177 L 91,171 L 110,162 L 120,137 L 129,123 L 131,118 L 142,102 L 167,75 L 196,53 L 224,38 L 244,31 L 247,29 L 251,29 L 254,27 L 261,26 L 265,24 L 270,24 L 273,22 L 280,22 L 284,20 L 292,20 L 305,17 L 324,17 L 332,15 Z" fill="#4f3c32" stroke="none" fill-rule="evenodd"/>
<path d="M 198,672 L 198,682 L 201,687 L 198,681 L 198,673 L 200,667 L 207,658 L 218,653 L 464,653 L 471,655 L 478,661 L 482,667 L 483,670 L 483,682 L 476,687 L 471,688 L 460,693 L 457,693 L 451,696 L 440,698 L 434,701 L 429,701 L 428,702 L 243,702 L 231,698 L 228,698 L 212,692 L 228,698 L 231,698 L 246,703 L 424,703 L 430,701 L 435,701 L 438,699 L 455,695 L 466,690 L 474,688 L 482,684 L 484,679 L 484,673 L 480,663 L 473,656 L 466,653 L 216,653 L 209,656 L 202,663 Z M 642,521 L 624,554 L 607,579 L 591,599 L 559,632 L 540,648 L 518,664 L 503,673 L 500,670 L 498,661 L 496,659 L 493,652 L 486,645 L 470,636 L 466,636 L 466,637 L 474,639 L 482,643 L 491,651 L 496,658 L 498,663 L 500,674 L 502,674 L 530,656 L 547,643 L 562,630 L 591,600 L 620,561 L 632,541 Z M 242,515 L 242,519 L 245,524 L 273,539 L 283,543 L 286,543 L 289,545 L 293,545 L 301,548 L 307,548 L 311,550 L 319,550 L 320,551 L 329,551 L 330,552 L 360,551 L 361,550 L 366,550 L 371,548 L 377,548 L 381,546 L 389,545 L 410,537 L 434,524 L 437,518 L 437,515 L 433,509 L 431,508 L 423,508 L 418,510 L 411,515 L 407,516 L 405,518 L 378,528 L 374,528 L 358,532 L 319,532 L 308,529 L 303,529 L 299,527 L 293,526 L 290,524 L 287,524 L 284,522 L 281,522 L 279,520 L 277,520 L 265,514 L 256,508 L 248,508 L 244,511 Z M 110,473 L 114,477 L 119,490 L 125,500 L 125,502 L 142,530 L 156,547 L 180,571 L 196,584 L 221,600 L 246,612 L 268,620 L 293,626 L 305,627 L 310,629 L 337,630 L 330,630 L 317,627 L 298,626 L 294,624 L 288,624 L 284,622 L 280,622 L 262,616 L 259,616 L 257,614 L 254,614 L 231,603 L 229,603 L 201,586 L 175,565 L 154,543 L 151,538 L 146,533 L 130,509 L 122,494 L 114,474 Z M 16,469 L 21,486 L 23,489 L 28,504 L 46,541 L 58,561 L 78,589 L 96,610 L 116,630 L 131,643 L 148,656 L 169,670 L 181,676 L 184,662 L 189,653 L 201,642 L 214,637 L 214,636 L 208,637 L 202,640 L 190,650 L 183,662 L 181,667 L 181,673 L 179,675 L 150,657 L 128,640 L 92,605 L 68,575 L 54,554 L 34,517 L 34,515 L 23,491 Z M 39,410 L 40,420 L 48,439 L 56,450 L 64,458 L 72,464 L 76,465 L 83,470 L 86,470 L 92,473 L 98,473 L 99,474 L 103,474 L 104,473 L 93,472 L 84,469 L 76,465 L 66,458 L 55,447 L 48,437 L 48,435 L 45,431 L 41,419 L 40,410 Z M 641,407 L 639,411 L 638,421 L 636,424 L 634,432 L 625,447 L 613,459 L 596,469 L 587,472 L 568,473 L 566,474 L 560,489 L 550,508 L 531,536 L 519,550 L 499,570 L 483,583 L 481,583 L 474,589 L 458,599 L 437,609 L 422,614 L 419,616 L 415,616 L 412,618 L 403,621 L 399,621 L 395,623 L 385,624 L 382,626 L 352,628 L 348,630 L 369,629 L 374,627 L 386,626 L 422,616 L 425,614 L 440,609 L 448,604 L 450,604 L 460,599 L 482,585 L 505,566 L 517,554 L 533,535 L 550,510 L 564,483 L 565,479 L 569,475 L 583,474 L 590,471 L 596,470 L 608,464 L 623,451 L 631,440 L 636,430 L 640,417 Z M 409,372 L 398,378 L 390,387 L 386,395 L 386,414 L 392,426 L 403,436 L 405,436 L 410,439 L 417,439 L 418,440 L 429,439 L 439,434 L 450,422 L 454,412 L 454,399 L 453,395 L 448,385 L 437,375 L 426,371 L 413,371 Z M 410,372 L 422,371 L 423,372 L 432,373 L 438,376 L 448,386 L 452,393 L 453,401 L 454,402 L 454,408 L 450,421 L 438,434 L 427,439 L 412,439 L 404,436 L 391,424 L 388,419 L 388,416 L 386,412 L 386,397 L 388,391 L 392,385 L 400,377 Z M 252,371 L 240,376 L 228,389 L 225,396 L 225,401 L 224,402 L 225,414 L 231,426 L 241,435 L 250,439 L 268,439 L 275,436 L 282,431 L 289,422 L 293,412 L 293,399 L 291,392 L 287,385 L 275,374 L 266,371 Z M 250,372 L 264,371 L 274,374 L 282,380 L 288,387 L 292,397 L 293,407 L 292,408 L 291,417 L 288,423 L 277,434 L 266,439 L 252,439 L 242,435 L 230,424 L 225,412 L 225,398 L 228,390 L 236,380 L 241,376 Z M 81,362 L 76,365 L 71,370 L 62,385 L 60,393 L 60,398 L 59,399 L 61,415 L 68,431 L 78,442 L 95,452 L 99,452 L 105,454 L 106,453 L 106,447 L 101,427 L 100,411 L 93,400 L 87,386 L 87,382 L 85,379 L 83,366 Z M 80,363 L 83,367 L 83,372 L 89,392 L 93,401 L 99,410 L 101,429 L 106,451 L 104,453 L 94,451 L 80,443 L 68,430 L 61,414 L 60,396 L 61,395 L 62,386 L 70,372 Z M 592,358 L 590,358 L 588,360 L 588,362 L 583,371 L 582,414 L 581,415 L 577,442 L 574,451 L 576,454 L 581,452 L 585,452 L 597,446 L 602,442 L 612,431 L 620,412 L 620,393 L 615,380 L 608,370 L 602,364 Z M 591,358 L 600,363 L 609,372 L 614,379 L 617,385 L 620,396 L 620,410 L 615,425 L 610,433 L 596,446 L 589,450 L 577,453 L 575,451 L 579,435 L 579,429 L 582,417 L 583,400 L 584,399 L 584,376 L 583,372 L 588,363 L 588,361 Z M 637,279 L 637,282 L 635,285 L 635,288 L 633,291 L 632,296 L 626,309 L 617,335 L 612,345 L 612,347 L 620,354 L 614,347 L 614,344 L 625,318 L 633,294 L 635,291 L 638,281 Z M 564,384 L 561,382 L 553,382 L 552,381 L 542,380 L 523,373 L 505,363 L 489,350 L 477,337 L 466,321 L 456,300 L 450,280 L 448,279 L 435,301 L 420,319 L 398,339 L 387,347 L 378,351 L 369,351 L 361,344 L 360,340 L 361,330 L 360,330 L 331,350 L 310,360 L 293,365 L 285,365 L 284,366 L 275,365 L 271,363 L 265,357 L 263,353 L 263,342 L 268,330 L 279,316 L 280,312 L 250,326 L 223,334 L 217,334 L 211,336 L 194,336 L 193,335 L 185,334 L 175,330 L 171,338 L 165,357 L 163,359 L 163,361 L 151,385 L 138,403 L 131,410 L 124,415 L 122,415 L 120,417 L 120,420 L 121,421 L 123,436 L 125,440 L 125,444 L 130,458 L 130,461 L 137,476 L 137,478 L 151,504 L 173,534 L 191,552 L 208,566 L 233,582 L 258,594 L 266,596 L 272,599 L 275,599 L 278,601 L 282,601 L 286,603 L 290,603 L 300,606 L 307,606 L 313,608 L 325,608 L 326,609 L 364,608 L 365,607 L 377,606 L 382,604 L 387,604 L 403,600 L 406,598 L 409,598 L 415,595 L 423,593 L 448,581 L 463,572 L 484,556 L 507,533 L 530,502 L 538,488 L 538,486 L 541,482 L 541,480 L 548,466 L 554,449 L 556,438 L 559,430 L 560,418 L 562,413 L 562,402 L 563,401 Z M 564,385 L 559,428 L 554,444 L 554,448 L 552,451 L 551,457 L 549,460 L 546,470 L 530,501 L 513,525 L 502,538 L 482,557 L 462,572 L 429,590 L 414,595 L 411,597 L 408,597 L 402,600 L 398,600 L 390,603 L 380,604 L 368,607 L 350,608 L 349,609 L 318,608 L 310,606 L 302,606 L 301,605 L 280,601 L 267,596 L 264,596 L 232,581 L 213,569 L 195,555 L 167,526 L 146,495 L 132,465 L 125,443 L 125,439 L 121,423 L 121,417 L 128,413 L 136,406 L 145,395 L 152,384 L 165,358 L 173,334 L 176,330 L 181,333 L 191,336 L 214,336 L 246,328 L 261,322 L 276,314 L 278,316 L 268,329 L 263,340 L 263,354 L 265,358 L 270,363 L 277,366 L 296,365 L 311,360 L 340,345 L 357,332 L 360,334 L 361,345 L 366,350 L 368,351 L 380,351 L 388,347 L 396,341 L 419,321 L 432,306 L 448,281 L 451,284 L 456,301 L 465,320 L 477,338 L 487,349 L 504,363 L 526,375 L 529,375 L 531,377 L 537,378 L 540,380 L 550,381 L 556,383 L 562,383 Z M 70,269 L 69,269 L 69,274 L 70,275 L 71,285 L 81,299 L 80,309 L 79,310 L 79,319 L 78,320 L 78,338 L 75,341 L 65,347 L 53,359 L 48,366 L 48,368 L 46,370 L 46,372 L 41,381 L 39,394 L 40,394 L 42,381 L 51,363 L 64,349 L 76,341 L 78,341 L 80,338 L 80,314 L 81,313 L 82,296 L 73,287 L 70,276 Z M 607,259 L 606,262 L 608,264 L 622,270 L 625,270 L 625,255 L 624,254 L 621,254 L 619,252 L 615,252 Z M 616,252 L 622,254 L 625,257 L 625,268 L 623,270 L 613,266 L 607,262 Z M 94,200 L 94,207 L 93,208 L 93,215 L 92,216 L 92,226 L 91,227 L 91,243 L 90,244 L 90,272 L 91,274 L 93,274 L 100,270 L 107,268 L 114,264 L 126,260 L 131,257 L 139,255 L 142,253 L 148,252 L 151,250 L 154,250 L 157,248 L 160,248 L 174,243 L 190,239 L 194,239 L 199,237 L 203,237 L 208,235 L 223,233 L 229,231 L 234,231 L 235,230 L 248,229 L 249,228 L 265,227 L 266,226 L 277,226 L 278,225 L 287,225 L 288,224 L 320,224 L 321,223 L 391,224 L 392,225 L 401,225 L 402,226 L 410,226 L 418,228 L 439,230 L 440,231 L 457,233 L 462,235 L 480,238 L 488,241 L 499,243 L 506,246 L 509,246 L 547,260 L 578,275 L 580,274 L 582,266 L 582,255 L 583,254 L 582,248 L 583,247 L 583,243 L 582,242 L 581,211 L 580,210 L 579,201 L 574,193 L 550,179 L 548,179 L 537,173 L 512,163 L 504,161 L 501,159 L 497,159 L 494,157 L 490,157 L 487,155 L 483,155 L 468,150 L 464,150 L 450,146 L 444,146 L 439,144 L 422,142 L 421,141 L 412,141 L 411,140 L 397,139 L 396,138 L 392,139 L 391,138 L 370,137 L 369,136 L 314,136 L 313,137 L 293,137 L 292,138 L 283,138 L 282,139 L 272,139 L 271,140 L 263,140 L 256,142 L 248,142 L 242,144 L 229,145 L 224,147 L 219,147 L 171,159 L 122,177 L 98,189 L 96,191 L 95,199 Z M 93,209 L 94,208 L 96,192 L 99,189 L 123,177 L 173,159 L 176,159 L 187,155 L 191,155 L 195,153 L 203,152 L 207,150 L 213,150 L 221,147 L 227,147 L 231,145 L 237,145 L 238,144 L 245,144 L 250,142 L 260,142 L 273,139 L 289,139 L 290,138 L 315,137 L 316,136 L 357,136 L 358,137 L 390,138 L 391,139 L 400,139 L 401,140 L 408,140 L 409,141 L 419,141 L 424,143 L 437,144 L 442,146 L 448,146 L 453,148 L 466,150 L 489,157 L 493,157 L 496,159 L 499,159 L 505,162 L 511,163 L 536,173 L 547,179 L 549,179 L 573,193 L 576,196 L 579,202 L 579,207 L 580,208 L 581,226 L 582,227 L 581,230 L 582,232 L 582,261 L 581,262 L 580,272 L 577,274 L 559,265 L 557,265 L 555,263 L 553,263 L 533,254 L 504,244 L 501,244 L 493,241 L 489,241 L 486,239 L 482,239 L 473,236 L 469,236 L 458,233 L 452,233 L 447,231 L 441,231 L 435,229 L 419,228 L 413,226 L 395,225 L 394,224 L 361,224 L 357,222 L 324,222 L 323,223 L 311,223 L 310,224 L 283,224 L 282,225 L 264,226 L 263,227 L 256,227 L 255,228 L 245,228 L 244,229 L 238,229 L 237,230 L 232,230 L 221,233 L 201,236 L 184,241 L 180,241 L 176,243 L 172,243 L 162,247 L 156,248 L 153,250 L 150,250 L 147,252 L 141,253 L 138,255 L 135,255 L 93,273 L 91,271 L 91,265 L 90,264 Z M 137,146 L 137,149 L 139,149 L 149,145 L 152,145 L 155,143 L 158,143 L 161,141 L 164,141 L 185,134 L 189,134 L 193,132 L 202,131 L 206,129 L 211,129 L 221,126 L 246,123 L 253,121 L 262,121 L 263,120 L 281,119 L 282,118 L 294,118 L 295,117 L 297,118 L 298,117 L 314,117 L 315,116 L 358,116 L 359,117 L 406,119 L 407,120 L 423,121 L 429,123 L 448,125 L 497,137 L 500,139 L 512,142 L 515,144 L 526,147 L 540,153 L 541,152 L 540,147 L 531,127 L 517,105 L 501,87 L 492,79 L 474,66 L 449,53 L 420,43 L 416,43 L 396,38 L 385,37 L 384,36 L 363,35 L 362,34 L 360,35 L 358,34 L 314,35 L 313,36 L 306,36 L 305,37 L 297,37 L 286,40 L 279,40 L 275,42 L 271,42 L 267,44 L 257,46 L 254,48 L 248,49 L 231,57 L 229,57 L 200,73 L 182,87 L 165,104 L 145,131 Z M 138,145 L 145,132 L 164,106 L 190,81 L 214,65 L 244,51 L 262,45 L 282,40 L 294,39 L 299,37 L 310,37 L 311,36 L 331,35 L 332,34 L 355,34 L 356,35 L 365,35 L 366,36 L 382,36 L 388,38 L 395,38 L 400,40 L 410,41 L 414,43 L 419,43 L 422,45 L 425,45 L 431,48 L 434,48 L 448,53 L 473,66 L 499,86 L 514,102 L 530,126 L 540,149 L 538,151 L 536,151 L 525,146 L 522,146 L 516,143 L 498,137 L 495,137 L 492,135 L 488,135 L 481,132 L 476,132 L 473,130 L 469,130 L 450,125 L 444,125 L 438,123 L 431,123 L 426,121 L 419,121 L 411,119 L 386,118 L 385,117 L 375,117 L 374,116 L 300,116 L 299,117 L 290,117 L 289,118 L 280,118 L 279,119 L 265,119 L 258,121 L 243,122 L 237,124 L 229,124 L 224,126 L 219,126 L 209,129 L 204,129 L 200,131 L 191,132 L 187,134 L 183,134 L 169,139 L 166,139 L 163,141 L 160,141 L 141,148 Z M 455,21 L 489,36 L 510,48 L 528,60 L 559,85 L 585,111 L 610,142 L 630,173 L 649,211 L 662,248 L 657,231 L 655,228 L 650,213 L 632,176 L 609,140 L 582,107 L 562,87 L 530,61 L 495,39 L 473,28 Z M 223,21 L 205,28 L 169,47 L 136,70 L 116,87 L 87,117 L 69,140 L 50,169 L 36,196 L 48,173 L 68,142 L 94,110 L 118,86 L 146,63 L 173,45 L 201,30 L 203,30 L 210,26 Z M 407,19 L 407,20 L 410,21 L 416,21 L 424,24 L 438,27 L 458,35 L 483,48 L 490,54 L 492,54 L 496,58 L 500,60 L 515,73 L 535,96 L 547,115 L 554,130 L 556,132 L 556,135 L 558,137 L 558,140 L 563,151 L 563,155 L 565,158 L 566,165 L 569,168 L 576,171 L 585,177 L 595,187 L 595,190 L 599,200 L 600,212 L 601,213 L 602,232 L 603,233 L 602,234 L 602,246 L 604,247 L 621,232 L 623,232 L 622,231 L 619,232 L 606,243 L 603,239 L 603,223 L 602,222 L 601,205 L 596,188 L 593,183 L 588,178 L 580,172 L 571,168 L 568,165 L 563,151 L 563,147 L 545,109 L 535,94 L 526,83 L 507,64 L 485,48 L 461,35 L 428,23 Z M 294,17 L 282,18 L 274,21 L 267,21 L 265,23 L 261,23 L 240,30 L 237,30 L 203,46 L 173,67 L 149,90 L 130,115 L 117,139 L 117,141 L 114,145 L 109,159 L 105,163 L 103,163 L 99,166 L 87,171 L 79,178 L 77,182 L 77,185 L 75,187 L 75,193 L 73,198 L 72,211 L 71,212 L 71,223 L 70,224 L 70,232 L 71,234 L 70,235 L 70,242 L 69,243 L 69,255 L 71,250 L 72,211 L 73,210 L 74,198 L 77,185 L 80,179 L 87,172 L 89,172 L 94,168 L 105,164 L 109,161 L 122,131 L 137,107 L 147,94 L 177,65 L 192,54 L 199,51 L 211,43 L 213,43 L 215,41 L 247,28 L 257,26 L 264,23 L 269,23 L 272,21 L 295,18 Z M 306,16 L 320,16 L 321,15 L 330,15 L 331,14 L 351,14 L 352,15 L 380,16 L 388,18 L 403,19 L 392,16 L 364,14 L 363,13 L 322,13 L 321,14 L 311,14 Z" fill="#966356" stroke="none" fill-rule="evenodd"/>
<path d="M 199,675 L 200,684 L 203,687 L 214,692 L 245,701 L 426,701 L 427,700 L 433,700 L 439,697 L 443,697 L 450,694 L 453,694 L 456,692 L 459,692 L 462,690 L 480,684 L 482,682 L 482,671 L 479,664 L 472,657 L 463,654 L 219,654 L 211,657 L 204,663 L 201,668 Z" fill="#f9c85f" stroke="none" fill-rule="evenodd"/>
<path d="M 324,15 L 323,16 L 312,16 L 311,17 L 299,18 L 298,19 L 282,20 L 277,22 L 268,23 L 264,25 L 253,27 L 225,37 L 219,41 L 217,41 L 207,47 L 203,48 L 183,62 L 182,61 L 183,62 L 170,72 L 141,101 L 142,102 L 125,127 L 115,147 L 110,160 L 106,164 L 89,172 L 81,179 L 77,188 L 77,192 L 74,203 L 73,222 L 72,223 L 72,239 L 71,240 L 71,275 L 72,276 L 72,281 L 75,289 L 82,296 L 81,300 L 83,301 L 82,309 L 81,310 L 81,321 L 80,322 L 80,339 L 78,341 L 77,340 L 78,341 L 72,344 L 62,352 L 49,368 L 42,384 L 42,390 L 41,391 L 41,414 L 42,415 L 42,420 L 47,434 L 54,445 L 65,456 L 64,457 L 65,456 L 68,459 L 83,468 L 98,472 L 110,472 L 116,477 L 116,479 L 128,504 L 142,527 L 152,539 L 151,540 L 152,539 L 185,573 L 195,581 L 221,598 L 235,605 L 237,605 L 241,608 L 268,618 L 275,619 L 283,622 L 293,623 L 305,626 L 311,626 L 312,627 L 320,627 L 321,628 L 355,628 L 356,627 L 367,627 L 368,626 L 374,626 L 386,623 L 391,623 L 403,620 L 406,618 L 410,618 L 416,615 L 419,615 L 422,613 L 440,607 L 442,605 L 444,605 L 460,597 L 479,585 L 482,582 L 483,583 L 486,579 L 496,571 L 497,572 L 496,571 L 520,548 L 531,534 L 532,535 L 531,534 L 536,528 L 552,503 L 564,477 L 568,473 L 583,472 L 590,469 L 594,469 L 601,465 L 603,465 L 612,459 L 627,443 L 634,430 L 638,418 L 638,413 L 639,412 L 639,392 L 638,391 L 638,386 L 635,380 L 635,377 L 632,373 L 631,369 L 624,360 L 625,359 L 624,360 L 614,350 L 612,347 L 612,344 L 627,307 L 629,299 L 635,286 L 635,282 L 636,281 L 636,248 L 635,247 L 634,238 L 630,233 L 621,233 L 604,247 L 602,245 L 599,204 L 596,192 L 591,184 L 592,183 L 591,184 L 584,177 L 570,169 L 565,164 L 557,137 L 545,112 L 535,98 L 536,97 L 535,98 L 527,87 L 503,63 L 491,55 L 492,54 L 491,55 L 480,47 L 452,33 L 449,33 L 447,31 L 416,22 L 410,22 L 404,20 L 391,19 L 384,17 L 363,16 L 362,15 Z" fill="none" stroke="black" stroke-width="1.5" stroke-linejoin="round" stroke-linecap="round"/>
</svg>