<svg xmlns="http://www.w3.org/2000/svg" width="544" height="603" viewBox="0 0 544 603">
<path d="M 250,598 L 251,599 L 296,599 L 297,598 L 286,588 L 281,581 L 266,581 L 261,588 Z M 294,596 L 291,599 L 255,599 L 253,597 L 266,582 L 277,582 L 278,581 L 280,581 L 287,590 Z M 203,438 L 204,446 L 213,454 L 224,461 L 241,468 L 248,469 L 252,471 L 267,472 L 268,473 L 279,473 L 280,472 L 295,471 L 302,468 L 306,468 L 319,463 L 321,461 L 323,461 L 334,454 L 344,444 L 344,437 L 341,434 L 335,433 L 328,437 L 321,443 L 309,449 L 307,449 L 305,451 L 284,456 L 261,456 L 256,454 L 248,453 L 245,451 L 242,451 L 237,448 L 235,448 L 223,441 L 215,434 L 212,433 L 206,434 Z M 518,320 L 516,320 L 509,327 L 507,327 L 499,332 L 496,358 L 493,367 L 493,372 L 491,376 L 492,378 L 495,378 L 507,371 L 516,361 L 520,353 L 520,350 L 522,346 L 522,331 L 520,323 Z M 517,321 L 520,324 L 521,334 L 522,335 L 522,343 L 521,344 L 520,352 L 514,363 L 505,372 L 496,377 L 494,377 L 492,374 L 497,354 L 499,333 L 506,328 L 510,327 Z M 30,320 L 27,324 L 26,332 L 25,333 L 25,346 L 28,355 L 32,362 L 40,371 L 50,377 L 56,378 L 56,375 L 54,371 L 54,365 L 51,356 L 50,346 L 49,345 L 48,331 L 39,327 L 32,320 Z M 30,321 L 40,328 L 42,328 L 48,332 L 49,348 L 55,375 L 53,377 L 51,377 L 42,372 L 34,364 L 28,354 L 25,343 L 25,335 L 26,334 L 27,325 Z M 352,319 L 341,324 L 332,333 L 327,345 L 328,360 L 333,370 L 343,379 L 349,382 L 365,383 L 369,382 L 378,377 L 388,366 L 391,358 L 391,343 L 385,331 L 376,323 L 368,319 Z M 354,319 L 365,319 L 369,320 L 378,325 L 386,333 L 391,345 L 391,356 L 386,368 L 376,378 L 368,382 L 364,382 L 363,383 L 351,382 L 341,377 L 331,366 L 327,353 L 328,343 L 332,334 L 342,324 L 347,321 L 350,321 Z M 180,319 L 168,325 L 159,336 L 156,343 L 156,359 L 159,364 L 159,366 L 165,374 L 173,380 L 175,380 L 177,382 L 182,382 L 183,383 L 198,382 L 207,377 L 215,369 L 218,363 L 220,355 L 219,341 L 214,332 L 204,323 L 195,319 Z M 182,319 L 193,319 L 202,322 L 215,334 L 219,343 L 219,348 L 220,349 L 219,359 L 215,368 L 206,377 L 197,382 L 185,383 L 174,380 L 164,372 L 159,365 L 156,357 L 156,344 L 162,332 L 172,323 Z M 64,332 L 65,348 L 68,358 L 68,362 L 70,366 L 70,370 L 72,374 L 72,378 L 74,381 L 80,399 L 85,408 L 85,410 L 87,412 L 94,426 L 108,446 L 116,456 L 136,476 L 163,496 L 180,506 L 204,517 L 207,517 L 210,519 L 213,519 L 220,522 L 224,522 L 228,524 L 237,525 L 242,527 L 263,528 L 264,529 L 282,529 L 283,528 L 305,527 L 310,525 L 320,524 L 324,522 L 337,519 L 340,517 L 343,517 L 378,500 L 393,490 L 414,473 L 430,457 L 443,441 L 452,428 L 461,410 L 463,408 L 475,378 L 475,375 L 480,359 L 481,349 L 482,348 L 482,339 L 483,338 L 483,332 L 474,328 L 469,328 L 462,325 L 457,325 L 453,323 L 444,322 L 436,319 L 431,319 L 411,314 L 405,314 L 402,312 L 387,311 L 383,309 L 369,308 L 362,306 L 346,305 L 345,304 L 329,303 L 328,302 L 303,301 L 302,300 L 246,300 L 245,301 L 232,301 L 231,302 L 213,302 L 209,304 L 205,303 L 202,305 L 184,306 L 178,308 L 151,311 L 141,314 L 135,314 L 125,317 L 120,317 L 111,320 L 106,320 L 102,322 L 97,322 L 93,324 L 81,326 L 77,328 L 73,328 Z M 64,333 L 66,331 L 75,328 L 79,328 L 86,325 L 91,325 L 99,322 L 105,322 L 108,320 L 118,319 L 127,316 L 133,316 L 137,314 L 149,313 L 154,311 L 163,311 L 173,308 L 180,308 L 181,307 L 193,306 L 194,305 L 204,305 L 205,304 L 219,303 L 220,302 L 244,302 L 248,300 L 300,300 L 304,302 L 327,302 L 328,303 L 335,303 L 343,305 L 353,305 L 354,306 L 360,306 L 364,308 L 375,308 L 379,310 L 409,314 L 413,316 L 424,317 L 428,319 L 438,320 L 441,322 L 446,322 L 455,325 L 460,325 L 467,328 L 472,328 L 478,331 L 481,331 L 483,333 L 483,335 L 482,336 L 482,346 L 480,352 L 480,358 L 478,362 L 477,370 L 475,373 L 472,386 L 462,409 L 460,411 L 452,427 L 440,444 L 431,455 L 412,474 L 392,490 L 377,500 L 342,517 L 329,520 L 326,522 L 322,522 L 302,527 L 258,528 L 257,527 L 245,527 L 225,522 L 221,522 L 218,520 L 211,519 L 208,517 L 203,516 L 181,506 L 149,486 L 137,476 L 115,454 L 94,425 L 88,415 L 88,413 L 85,409 L 85,407 L 80,398 L 79,393 L 77,391 L 77,388 L 72,376 L 72,372 L 70,369 L 70,365 L 67,356 Z" fill="#997156" stroke="none" fill-rule="evenodd"/>
<path d="M 294,597 L 286,590 L 280,582 L 277,583 L 266,583 L 260,591 L 253,597 L 255,598 L 291,598 Z M 518,322 L 516,322 L 510,328 L 500,332 L 498,354 L 497,355 L 493,376 L 496,376 L 505,371 L 513,363 L 519,352 L 520,344 L 521,343 L 521,335 Z M 30,322 L 28,325 L 28,329 L 26,335 L 26,343 L 29,354 L 35,364 L 42,371 L 51,376 L 54,376 L 51,358 L 48,348 L 47,332 L 42,329 L 40,329 L 34,325 L 32,322 Z M 65,333 L 68,356 L 71,365 L 71,369 L 73,372 L 73,376 L 78,388 L 78,391 L 80,393 L 81,398 L 86,407 L 86,409 L 88,411 L 89,415 L 95,425 L 116,454 L 137,475 L 149,485 L 181,505 L 193,511 L 208,516 L 211,518 L 218,519 L 221,521 L 225,521 L 245,526 L 257,526 L 258,527 L 302,526 L 322,521 L 326,521 L 329,519 L 342,516 L 377,499 L 392,489 L 412,473 L 430,455 L 439,444 L 451,427 L 459,411 L 461,409 L 471,386 L 474,373 L 476,370 L 476,366 L 479,358 L 479,352 L 481,346 L 481,336 L 482,335 L 481,332 L 478,332 L 472,329 L 467,329 L 460,326 L 455,326 L 446,323 L 441,323 L 438,321 L 428,320 L 424,318 L 413,317 L 409,315 L 379,311 L 375,309 L 364,309 L 360,307 L 354,307 L 353,306 L 343,306 L 342,305 L 328,304 L 327,303 L 304,303 L 300,301 L 248,301 L 244,303 L 220,303 L 219,304 L 212,304 L 204,306 L 194,306 L 193,307 L 173,309 L 163,312 L 154,312 L 149,314 L 143,314 L 142,315 L 137,315 L 133,317 L 122,318 L 118,320 L 108,321 L 105,323 L 99,323 L 91,326 L 86,326 Z M 202,438 L 206,433 L 212,432 L 215,433 L 223,440 L 235,447 L 237,447 L 242,450 L 245,450 L 248,452 L 256,453 L 261,455 L 284,455 L 305,450 L 307,448 L 309,448 L 321,442 L 328,436 L 335,432 L 341,433 L 345,437 L 345,444 L 334,455 L 323,462 L 321,462 L 319,464 L 306,469 L 302,469 L 295,472 L 288,472 L 287,473 L 280,473 L 279,474 L 268,474 L 267,473 L 252,472 L 248,470 L 235,467 L 224,462 L 213,455 L 203,446 Z M 352,318 L 368,318 L 376,322 L 386,331 L 392,343 L 392,358 L 389,366 L 378,378 L 369,383 L 365,384 L 349,383 L 340,378 L 330,367 L 326,355 L 326,345 L 331,333 L 341,323 Z M 180,318 L 195,318 L 204,322 L 215,332 L 220,341 L 221,355 L 219,363 L 216,369 L 207,378 L 198,383 L 183,384 L 182,383 L 177,383 L 175,381 L 173,381 L 160,369 L 155,359 L 155,343 L 158,336 L 162,330 L 168,324 Z" fill="#f1eadb" stroke="none" fill-rule="evenodd"/>
<path d="M 304,560 L 301,567 L 297,572 L 296,576 L 303,583 L 309,586 L 317,588 L 329,588 L 330,587 L 329,582 L 323,572 L 312,562 Z M 243,560 L 240,560 L 234,563 L 224,572 L 217,585 L 218,588 L 235,587 L 243,584 L 250,578 L 251,575 L 247,570 Z M 260,547 L 259,558 L 266,565 L 270,566 L 281,565 L 288,558 L 288,551 L 286,547 L 283,545 L 266,545 Z M 374,521 L 349,532 L 327,539 L 308,543 L 321,549 L 325,552 L 327,552 L 338,548 L 354,539 L 364,532 Z M 173,521 L 182,531 L 193,539 L 214,550 L 222,552 L 228,548 L 240,543 L 204,534 Z" fill="#197cea" stroke="none" fill-rule="evenodd"/>
<path d="M 248,598 L 250,600 L 298,600 L 299,599 L 299,597 L 294,594 L 286,586 L 282,580 L 265,580 L 261,586 L 254,593 L 249,596 Z M 249,598 L 260,588 L 266,580 L 281,580 L 287,588 L 298,598 L 296,600 L 251,600 Z M 244,559 L 239,559 L 233,562 L 223,571 L 215,586 L 216,589 L 232,589 L 233,588 L 237,588 L 244,585 L 250,580 L 252,577 L 252,574 L 248,569 Z M 242,559 L 245,562 L 248,570 L 252,575 L 251,578 L 246,583 L 238,587 L 230,589 L 218,589 L 216,587 L 216,585 L 223,572 L 231,564 L 240,559 Z M 302,559 L 302,562 L 294,575 L 295,577 L 302,584 L 308,587 L 315,589 L 331,589 L 330,581 L 324,571 L 313,561 L 311,561 L 306,558 Z M 304,559 L 312,561 L 324,572 L 331,585 L 331,587 L 329,589 L 317,589 L 309,587 L 303,584 L 295,576 L 296,572 L 300,567 L 302,561 Z M 258,548 L 257,551 L 258,560 L 265,566 L 268,567 L 279,567 L 284,565 L 289,559 L 289,550 L 285,544 L 262,544 Z M 258,550 L 261,545 L 265,545 L 266,544 L 283,544 L 287,547 L 289,551 L 289,558 L 281,566 L 277,566 L 276,567 L 266,566 L 259,560 L 258,558 Z M 378,519 L 375,518 L 367,523 L 355,527 L 345,532 L 336,534 L 333,536 L 329,536 L 322,539 L 305,542 L 305,544 L 316,548 L 324,553 L 328,553 L 345,546 L 361,536 Z M 375,522 L 364,533 L 354,540 L 338,549 L 327,553 L 325,553 L 321,550 L 311,546 L 308,543 L 310,541 L 315,541 L 319,539 L 327,538 L 349,531 L 373,520 Z M 170,518 L 171,522 L 186,536 L 197,543 L 218,553 L 224,553 L 231,548 L 243,544 L 243,542 L 241,541 L 235,541 L 231,539 L 222,538 L 218,536 L 211,535 L 208,533 L 205,533 L 180,523 L 172,518 Z M 172,522 L 174,520 L 179,523 L 204,533 L 207,533 L 225,539 L 239,541 L 241,543 L 239,545 L 237,545 L 222,553 L 214,551 L 193,540 L 182,532 Z M 537,347 L 535,349 L 535,353 L 530,365 L 524,374 L 518,380 L 505,389 L 493,393 L 488,393 L 484,395 L 476,415 L 474,417 L 474,419 L 453,452 L 444,463 L 418,489 L 403,501 L 400,509 L 398,511 L 398,513 L 388,528 L 373,543 L 359,553 L 336,564 L 336,567 L 343,579 L 346,590 L 347,590 L 347,585 L 341,571 L 337,568 L 336,565 L 343,561 L 346,562 L 352,559 L 351,558 L 353,556 L 355,557 L 359,555 L 364,550 L 365,551 L 377,542 L 391,527 L 390,526 L 394,523 L 398,517 L 403,507 L 402,506 L 403,502 L 408,497 L 410,498 L 423,487 L 449,460 L 448,458 L 451,455 L 452,456 L 455,452 L 454,451 L 456,449 L 457,450 L 469,431 L 468,429 L 470,427 L 471,428 L 473,424 L 472,422 L 474,420 L 475,421 L 481,409 L 480,408 L 482,406 L 485,399 L 484,398 L 487,395 L 493,395 L 500,393 L 515,385 L 525,375 L 532,365 L 536,357 L 534,355 L 537,351 Z M 10,345 L 10,350 L 13,352 L 13,357 L 12,358 L 19,371 L 27,380 L 34,386 L 44,392 L 47,393 L 48,392 L 50,394 L 51,393 L 54,395 L 61,394 L 63,396 L 62,398 L 65,401 L 64,403 L 75,426 L 76,425 L 78,427 L 77,429 L 83,439 L 84,438 L 86,440 L 85,442 L 91,451 L 120,483 L 132,494 L 133,493 L 135,495 L 134,496 L 137,498 L 139,497 L 145,503 L 144,507 L 146,511 L 147,510 L 149,512 L 148,515 L 161,533 L 169,541 L 185,553 L 186,552 L 188,555 L 201,562 L 204,561 L 206,563 L 205,564 L 209,563 L 211,565 L 210,568 L 206,571 L 201,582 L 202,583 L 202,587 L 199,590 L 200,591 L 204,582 L 204,579 L 211,567 L 211,564 L 199,558 L 197,558 L 185,551 L 173,542 L 158,527 L 149,513 L 145,502 L 131,491 L 103,463 L 91,448 L 76,424 L 76,422 L 68,408 L 63,395 L 59,393 L 47,391 L 37,386 L 30,381 L 19,368 L 13,355 L 11,345 Z M 354,320 L 345,323 L 337,329 L 333,334 L 329,343 L 328,353 L 332,366 L 341,376 L 351,381 L 363,382 L 364,381 L 368,381 L 376,377 L 385,368 L 390,356 L 390,345 L 385,333 L 378,326 L 369,321 Z M 355,320 L 365,320 L 376,325 L 386,335 L 390,345 L 390,356 L 384,369 L 374,378 L 363,382 L 356,382 L 349,379 L 346,379 L 343,377 L 331,364 L 328,352 L 329,344 L 334,333 L 344,324 Z M 182,320 L 172,324 L 163,332 L 157,344 L 157,357 L 160,365 L 165,372 L 174,379 L 185,382 L 197,381 L 206,376 L 214,368 L 218,359 L 218,353 L 219,352 L 218,343 L 214,334 L 202,323 L 193,320 Z M 183,320 L 192,320 L 196,322 L 199,322 L 208,328 L 213,333 L 216,338 L 219,349 L 217,361 L 212,370 L 203,378 L 191,382 L 180,381 L 170,376 L 161,366 L 157,356 L 157,345 L 162,334 L 171,325 Z M 519,319 L 515,319 L 508,326 L 498,331 L 495,357 L 492,366 L 492,372 L 490,375 L 491,379 L 498,378 L 505,374 L 513,367 L 519,358 L 523,348 L 523,329 Z M 518,319 L 521,323 L 523,331 L 523,346 L 521,350 L 521,353 L 517,361 L 507,372 L 495,379 L 492,379 L 490,376 L 492,372 L 492,367 L 495,358 L 498,332 L 501,329 L 509,326 L 516,319 Z M 30,318 L 26,323 L 24,331 L 24,348 L 26,351 L 27,356 L 32,364 L 42,374 L 52,379 L 57,379 L 57,375 L 55,370 L 55,364 L 52,356 L 52,349 L 50,343 L 49,330 L 41,327 Z M 30,319 L 39,326 L 43,327 L 49,331 L 50,345 L 55,365 L 55,371 L 57,375 L 57,377 L 55,379 L 50,378 L 40,372 L 34,366 L 27,355 L 24,346 L 24,333 L 25,332 L 26,324 Z M 484,331 L 478,328 L 469,327 L 464,324 L 458,324 L 455,322 L 449,322 L 445,321 L 443,319 L 437,319 L 429,316 L 421,316 L 418,314 L 406,313 L 404,311 L 400,311 L 399,310 L 389,310 L 385,308 L 370,307 L 366,305 L 347,304 L 344,302 L 329,302 L 328,301 L 314,300 L 313,299 L 282,299 L 281,298 L 273,298 L 272,299 L 233,299 L 232,300 L 203,302 L 201,304 L 180,305 L 177,307 L 161,308 L 156,310 L 147,310 L 140,313 L 132,313 L 125,316 L 117,316 L 113,318 L 104,319 L 101,321 L 91,322 L 87,324 L 79,325 L 76,327 L 68,328 L 62,332 L 62,335 L 64,342 L 64,350 L 67,359 L 67,363 L 69,366 L 71,378 L 74,384 L 76,392 L 79,397 L 79,400 L 81,402 L 82,406 L 90,420 L 90,422 L 112,453 L 138,479 L 159,495 L 179,507 L 181,507 L 189,512 L 209,520 L 213,520 L 216,522 L 223,523 L 227,525 L 232,525 L 239,528 L 249,528 L 250,529 L 257,529 L 258,530 L 286,530 L 287,529 L 296,529 L 297,528 L 307,528 L 316,525 L 321,525 L 324,523 L 328,523 L 335,520 L 338,520 L 358,512 L 360,510 L 364,509 L 366,507 L 368,507 L 395,490 L 418,471 L 428,461 L 454,427 L 468,400 L 468,398 L 471,393 L 471,390 L 473,388 L 473,385 L 475,382 L 476,375 L 480,364 L 480,360 L 482,356 L 483,341 L 485,334 Z M 63,332 L 65,330 L 73,327 L 77,327 L 81,325 L 89,324 L 97,321 L 102,321 L 106,319 L 111,319 L 120,316 L 125,316 L 135,313 L 141,313 L 151,310 L 178,307 L 184,305 L 202,304 L 205,302 L 209,303 L 213,301 L 231,301 L 232,300 L 245,300 L 246,299 L 302,299 L 303,300 L 328,301 L 329,302 L 339,302 L 346,304 L 362,305 L 369,307 L 383,308 L 387,310 L 402,311 L 405,313 L 411,313 L 421,316 L 436,318 L 444,321 L 453,322 L 457,324 L 462,324 L 469,327 L 474,327 L 482,330 L 484,332 L 484,338 L 483,339 L 482,354 L 478,371 L 473,387 L 464,408 L 462,410 L 453,428 L 444,441 L 431,457 L 414,474 L 401,485 L 378,501 L 343,518 L 340,518 L 337,520 L 324,523 L 320,525 L 315,525 L 305,528 L 283,529 L 282,530 L 264,530 L 263,529 L 242,528 L 237,526 L 228,525 L 224,523 L 220,523 L 213,520 L 210,520 L 207,518 L 204,518 L 180,507 L 163,497 L 136,477 L 115,456 L 107,446 L 93,426 L 86,412 L 84,410 L 84,408 L 79,399 L 73,381 L 71,378 L 71,374 L 69,370 L 69,366 L 67,362 L 67,358 L 64,348 Z M 47,295 L 47,300 L 50,306 L 53,308 L 60,308 L 65,306 L 69,306 L 76,303 L 81,303 L 85,301 L 93,300 L 97,298 L 107,297 L 110,295 L 116,295 L 121,293 L 139,291 L 140,290 L 145,290 L 149,288 L 163,287 L 171,285 L 204,282 L 205,281 L 212,281 L 213,280 L 220,280 L 221,279 L 248,278 L 249,277 L 299,277 L 300,278 L 312,278 L 313,279 L 326,279 L 327,280 L 335,280 L 336,281 L 376,285 L 377,286 L 383,286 L 391,288 L 398,288 L 402,290 L 419,292 L 424,294 L 429,294 L 438,297 L 447,298 L 451,300 L 460,301 L 464,303 L 472,304 L 487,309 L 493,309 L 497,307 L 501,301 L 499,280 L 496,270 L 496,265 L 494,262 L 493,251 L 486,229 L 486,226 L 481,214 L 481,211 L 479,209 L 473,192 L 457,161 L 444,141 L 429,121 L 393,85 L 380,75 L 377,74 L 373,70 L 352,57 L 350,57 L 348,55 L 328,46 L 325,46 L 313,41 L 308,41 L 304,39 L 293,38 L 288,36 L 277,36 L 276,35 L 240,40 L 234,43 L 230,43 L 227,45 L 222,46 L 220,48 L 212,50 L 208,53 L 206,53 L 194,59 L 175,71 L 158,84 L 119,123 L 99,150 L 95,158 L 88,168 L 81,183 L 79,185 L 79,187 L 77,189 L 72,203 L 70,205 L 69,210 L 67,213 L 67,216 L 65,219 L 65,222 L 62,228 L 62,231 L 59,237 L 55,253 L 55,257 L 52,264 L 51,275 L 49,278 L 48,294 Z M 280,11 L 282,13 L 300,14 L 306,17 L 314,17 L 316,19 L 321,19 L 326,22 L 332,23 L 334,25 L 344,28 L 349,31 L 351,31 L 353,33 L 357,34 L 359,36 L 361,36 L 379,47 L 382,50 L 384,50 L 387,53 L 390,54 L 400,63 L 403,64 L 411,72 L 416,75 L 433,92 L 443,105 L 451,113 L 452,116 L 456,120 L 457,123 L 467,136 L 483,163 L 488,173 L 488,175 L 491,179 L 491,182 L 493,184 L 493,186 L 496,191 L 498,198 L 501,203 L 501,206 L 503,208 L 506,221 L 509,227 L 509,231 L 512,237 L 512,242 L 514,245 L 515,254 L 517,257 L 518,269 L 520,272 L 520,277 L 521,278 L 523,302 L 532,315 L 535,323 L 535,327 L 537,329 L 537,325 L 533,318 L 534,316 L 530,308 L 529,309 L 525,305 L 523,301 L 524,297 L 523,292 L 525,290 L 524,286 L 521,284 L 522,283 L 521,282 L 521,274 L 518,267 L 519,265 L 517,261 L 517,259 L 519,257 L 517,254 L 518,252 L 517,253 L 515,251 L 514,245 L 516,243 L 515,244 L 513,242 L 515,239 L 514,240 L 512,238 L 511,235 L 513,233 L 512,230 L 511,231 L 509,229 L 511,227 L 509,222 L 506,219 L 508,217 L 506,211 L 505,212 L 503,210 L 505,208 L 503,205 L 502,200 L 499,196 L 500,195 L 499,193 L 498,194 L 496,192 L 497,188 L 496,189 L 493,185 L 495,183 L 494,184 L 491,181 L 493,179 L 489,176 L 488,174 L 489,170 L 488,171 L 486,169 L 487,166 L 476,147 L 475,148 L 473,146 L 474,144 L 473,142 L 472,143 L 470,141 L 471,139 L 470,137 L 469,138 L 466,134 L 467,132 L 466,133 L 464,131 L 465,130 L 462,125 L 445,103 L 429,86 L 420,79 L 418,75 L 414,71 L 412,72 L 407,67 L 408,66 L 390,52 L 388,53 L 386,51 L 387,50 L 386,49 L 384,50 L 382,48 L 383,47 L 375,42 L 373,43 L 371,41 L 372,40 L 340,24 L 339,25 L 335,22 L 332,21 L 328,22 L 326,20 L 327,19 L 324,18 L 322,20 L 320,18 L 321,17 L 318,19 L 316,17 L 317,16 L 316,17 L 314,15 L 312,17 L 309,17 L 301,14 L 298,14 L 294,11 L 295,12 L 293,14 L 291,14 L 289,12 L 290,11 Z M 268,11 L 258,11 L 259,12 L 257,14 L 255,13 L 243,16 L 242,15 L 238,17 L 235,15 L 231,16 L 232,17 L 227,20 L 224,18 L 225,19 L 223,21 L 221,19 L 222,20 L 218,23 L 216,21 L 214,23 L 213,22 L 214,23 L 212,25 L 208,24 L 209,25 L 207,27 L 204,26 L 200,29 L 199,28 L 191,32 L 192,33 L 190,35 L 187,34 L 188,35 L 186,37 L 184,36 L 159,51 L 155,54 L 156,55 L 154,57 L 153,56 L 141,65 L 142,67 L 136,72 L 134,71 L 130,75 L 130,77 L 128,79 L 126,78 L 125,79 L 126,80 L 124,82 L 123,81 L 115,89 L 116,90 L 114,92 L 113,91 L 111,94 L 112,96 L 106,102 L 104,102 L 101,105 L 75,141 L 76,143 L 74,145 L 73,144 L 68,153 L 69,155 L 67,157 L 66,156 L 63,162 L 63,166 L 61,168 L 60,167 L 61,170 L 59,172 L 58,171 L 57,173 L 59,175 L 56,179 L 56,181 L 54,183 L 53,182 L 53,184 L 49,191 L 50,195 L 48,197 L 47,196 L 49,198 L 46,202 L 45,201 L 47,203 L 45,205 L 44,204 L 40,215 L 42,218 L 38,222 L 39,223 L 36,228 L 38,230 L 37,234 L 35,236 L 34,235 L 33,238 L 35,241 L 33,245 L 34,246 L 32,250 L 32,256 L 29,265 L 29,271 L 27,273 L 26,272 L 27,282 L 26,283 L 26,291 L 23,293 L 24,303 L 21,306 L 20,305 L 21,306 L 19,308 L 18,307 L 12,318 L 13,322 L 10,324 L 11,325 L 10,326 L 10,331 L 12,329 L 12,325 L 15,316 L 20,308 L 24,304 L 25,300 L 24,294 L 26,292 L 26,284 L 29,275 L 29,266 L 31,263 L 32,251 L 34,248 L 34,242 L 37,235 L 40,222 L 42,220 L 42,215 L 45,210 L 45,207 L 47,204 L 48,199 L 50,197 L 50,194 L 53,189 L 56,180 L 58,178 L 58,176 L 66,162 L 68,156 L 71,153 L 76,143 L 81,137 L 81,135 L 90,124 L 96,114 L 112,97 L 115,92 L 134,73 L 140,70 L 157,55 L 175,43 L 177,43 L 182,39 L 201,30 L 203,28 L 206,28 L 211,25 L 214,25 L 225,20 L 249,14 L 266,13 Z" fill="#3f484b" stroke="none" fill-rule="evenodd"/>
<path d="M 303,559 L 300,567 L 295,573 L 295,576 L 297,579 L 303,584 L 313,588 L 330,589 L 331,586 L 329,580 L 323,570 L 314,562 L 307,559 Z" fill="none" stroke="black" stroke-width="1.5" stroke-linejoin="round" stroke-linecap="round"/>
<path d="M 244,560 L 242,559 L 238,560 L 228,566 L 219,578 L 216,585 L 216,588 L 218,589 L 229,589 L 230,588 L 238,587 L 246,583 L 252,577 L 252,574 L 246,567 Z" fill="none" stroke="black" stroke-width="1.5" stroke-linejoin="round" stroke-linecap="round"/>
<path d="M 288,548 L 285,545 L 279,545 L 278,544 L 277,545 L 261,545 L 258,550 L 258,558 L 260,562 L 265,566 L 266,565 L 271,567 L 281,566 L 285,564 L 288,560 L 289,557 Z" fill="none" stroke="black" stroke-width="1.5" stroke-linejoin="round" stroke-linecap="round"/>
<path d="M 535,346 L 535,354 L 532,361 L 523,374 L 514,383 L 497,392 L 487,393 L 484,395 L 477,413 L 457,446 L 439,468 L 422,485 L 404,500 L 396,516 L 385,531 L 376,540 L 363,550 L 355,554 L 350,558 L 340,562 L 337,565 L 339,573 L 344,582 L 345,589 L 345,585 L 343,579 L 338,570 L 337,566 L 341,562 L 362,551 L 372,543 L 373,544 L 372,543 L 389,528 L 388,527 L 397,515 L 404,501 L 409,496 L 410,497 L 409,496 L 419,488 L 440,467 L 451,454 L 455,451 L 454,450 L 473,421 L 479,409 L 483,397 L 487,393 L 497,392 L 512,385 L 525,372 L 531,363 L 535,354 Z" fill="none" stroke="black" stroke-width="1.5" stroke-linejoin="round" stroke-linecap="round"/>
<path d="M 12,344 L 12,353 L 18,366 L 22,371 L 21,372 L 34,383 L 33,384 L 34,383 L 44,390 L 61,394 L 64,397 L 67,406 L 77,426 L 87,441 L 86,442 L 89,444 L 97,455 L 96,456 L 114,473 L 115,475 L 114,476 L 115,475 L 124,484 L 123,485 L 124,484 L 140,498 L 139,499 L 140,498 L 145,503 L 149,513 L 163,533 L 186,552 L 205,562 L 207,562 L 210,565 L 208,572 L 201,587 L 201,590 L 203,582 L 210,568 L 210,564 L 205,561 L 203,561 L 201,559 L 199,559 L 184,550 L 170,539 L 163,532 L 153,519 L 144,501 L 124,484 L 100,459 L 93,450 L 78,427 L 73,416 L 71,414 L 71,412 L 68,408 L 63,395 L 54,392 L 50,392 L 41,388 L 30,380 L 24,374 L 13,356 Z" fill="none" stroke="black" stroke-width="1.5" stroke-linejoin="round" stroke-linecap="round"/>
<path d="M 64,332 L 65,348 L 67,352 L 67,357 L 72,373 L 72,377 L 86,412 L 94,426 L 107,445 L 115,455 L 136,476 L 151,488 L 166,498 L 197,514 L 207,517 L 210,519 L 213,519 L 220,522 L 224,522 L 233,525 L 238,525 L 243,527 L 263,528 L 264,529 L 282,529 L 283,528 L 291,528 L 292,527 L 304,527 L 309,525 L 319,524 L 323,522 L 327,522 L 331,520 L 337,519 L 357,511 L 373,503 L 389,493 L 411,476 L 431,456 L 440,445 L 452,428 L 460,414 L 472,387 L 475,374 L 477,371 L 480,359 L 480,354 L 482,348 L 482,339 L 483,338 L 483,332 L 477,329 L 468,328 L 461,325 L 456,325 L 452,323 L 443,322 L 439,320 L 430,319 L 426,317 L 415,316 L 411,314 L 400,313 L 396,311 L 386,311 L 377,308 L 364,308 L 361,306 L 338,304 L 333,302 L 330,303 L 329,302 L 314,302 L 313,301 L 301,301 L 300,300 L 247,300 L 243,302 L 240,301 L 214,302 L 209,304 L 185,306 L 179,308 L 166,309 L 162,311 L 151,311 L 147,313 L 135,314 L 132,316 L 121,317 L 117,319 L 112,319 L 103,322 L 97,322 L 90,325 L 85,325 L 78,328 L 73,328 Z" fill="none" stroke="black" stroke-width="1.5" stroke-linejoin="round" stroke-linecap="round"/>
<path d="M 280,13 L 301,14 L 310,17 L 314,17 L 316,19 L 321,19 L 324,21 L 330,22 L 334,25 L 337,25 L 342,28 L 344,28 L 353,33 L 355,33 L 366,40 L 368,40 L 382,50 L 388,53 L 406,67 L 407,69 L 412,72 L 424,83 L 448,110 L 462,129 L 476,151 L 478,156 L 481,159 L 481,161 L 490,177 L 490,179 L 501,203 L 501,206 L 506,217 L 506,220 L 509,227 L 509,231 L 512,236 L 513,244 L 515,248 L 519,271 L 521,275 L 521,284 L 523,290 L 524,302 L 535,322 L 535,329 L 535,322 L 532,317 L 533,316 L 531,315 L 524,302 L 524,299 L 526,298 L 523,296 L 523,290 L 521,284 L 521,275 L 518,266 L 518,262 L 512,236 L 509,230 L 508,223 L 506,220 L 506,217 L 503,211 L 500,200 L 495,190 L 493,183 L 491,181 L 490,176 L 488,174 L 488,172 L 485,168 L 485,166 L 483,164 L 480,157 L 464,132 L 465,131 L 464,132 L 459,125 L 460,124 L 456,121 L 450,112 L 435,95 L 436,94 L 435,95 L 412,72 L 413,71 L 412,72 L 402,64 L 403,63 L 402,64 L 394,56 L 393,57 L 390,53 L 389,54 L 363,37 L 351,31 L 349,31 L 347,29 L 321,19 L 317,19 L 314,17 L 310,17 L 301,14 Z" fill="none" stroke="black" stroke-width="1.5" stroke-linejoin="round" stroke-linecap="round"/>
<path d="M 268,13 L 259,13 L 258,12 L 256,14 L 247,14 L 231,19 L 227,19 L 213,25 L 208,26 L 206,28 L 201,29 L 199,31 L 197,31 L 180,40 L 158,54 L 151,60 L 150,59 L 151,60 L 136,72 L 135,71 L 136,72 L 112,96 L 111,95 L 112,96 L 105,103 L 96,115 L 95,114 L 96,115 L 83,132 L 82,135 L 69,154 L 59,173 L 59,175 L 56,179 L 53,189 L 51,191 L 50,196 L 47,201 L 45,209 L 42,215 L 42,218 L 40,221 L 39,228 L 37,231 L 37,234 L 34,242 L 34,246 L 32,250 L 32,255 L 29,265 L 28,278 L 26,283 L 25,296 L 22,298 L 24,299 L 24,302 L 14,318 L 12,325 L 12,332 L 12,325 L 15,316 L 24,303 L 26,283 L 28,278 L 29,265 L 32,255 L 32,250 L 34,246 L 35,238 L 37,235 L 37,231 L 39,229 L 39,225 L 42,218 L 42,215 L 47,204 L 47,201 L 50,196 L 53,187 L 55,185 L 55,182 L 66,162 L 66,160 L 77,142 L 80,139 L 80,137 L 104,105 L 130,77 L 140,70 L 160,53 L 169,48 L 175,43 L 177,43 L 184,38 L 204,28 L 219,22 L 222,22 L 227,19 L 232,19 L 235,17 L 247,14 Z" fill="none" stroke="black" stroke-width="1.5" stroke-linejoin="round" stroke-linecap="round"/>
</svg>