<svg xmlns="http://www.w3.org/2000/svg" width="960" height="1088" viewBox="0 0 960 1088">
<path d="M 214,665 L 219,665 L 221,667 L 225,680 L 237,705 L 253,730 L 268,749 L 293,774 L 312,789 L 333,803 L 367,820 L 372,821 L 383,826 L 386,826 L 389,829 L 389,838 L 388,839 L 388,907 L 386,909 L 383,909 L 376,906 L 372,906 L 388,910 L 389,908 L 389,829 L 388,827 L 365,819 L 337,805 L 308,786 L 291,772 L 271,752 L 254,731 L 236,703 L 226,682 L 221,667 L 219,665 Z M 871,618 L 869,622 L 869,628 L 866,634 L 865,642 L 863,644 L 859,660 L 856,665 L 856,668 L 853,673 L 853,676 L 850,681 L 847,690 L 844,694 L 843,699 L 841,701 L 841,703 L 838,707 L 834,717 L 824,733 L 824,735 L 821,738 L 810,756 L 794,777 L 776,798 L 761,813 L 735,836 L 705,858 L 673,877 L 671,877 L 653,887 L 651,887 L 632,896 L 629,896 L 624,899 L 606,905 L 622,899 L 625,899 L 630,896 L 635,895 L 637,893 L 649,889 L 651,887 L 653,887 L 660,883 L 662,883 L 702,860 L 711,853 L 717,850 L 740,832 L 756,818 L 782,792 L 811,755 L 820,740 L 823,737 L 831,723 L 831,721 L 834,718 L 834,716 L 840,706 L 840,704 L 844,697 L 844,695 L 846,693 L 850,681 L 852,679 L 853,674 L 856,669 L 856,666 L 858,663 L 859,657 L 862,652 L 862,648 L 865,642 L 866,635 L 868,632 Z M 101,600 L 103,614 L 106,622 L 106,627 L 109,635 L 109,638 L 111,641 L 111,644 L 117,660 L 117,663 L 129,693 L 132,697 L 132,699 L 142,719 L 156,743 L 172,766 L 189,787 L 223,822 L 247,842 L 268,857 L 294,873 L 305,878 L 307,880 L 311,881 L 313,883 L 324,887 L 328,890 L 333,891 L 335,893 L 353,899 L 338,894 L 302,877 L 300,875 L 279,864 L 276,861 L 264,854 L 228,826 L 191,789 L 174,768 L 155,741 L 142,719 L 141,715 L 139,713 L 138,709 L 132,699 L 114,654 L 113,647 L 111,644 L 111,640 L 109,637 L 108,631 L 106,627 L 106,621 L 103,614 L 103,607 L 101,604 Z M 192,529 L 183,538 L 175,553 L 175,556 L 172,563 L 172,586 L 175,595 L 175,599 L 183,614 L 199,630 L 211,636 L 209,621 L 206,613 L 206,600 L 205,599 L 205,591 L 204,590 L 204,574 L 200,564 L 200,560 L 198,556 L 198,551 L 195,542 L 195,537 L 193,533 L 193,529 Z M 781,528 L 780,528 L 780,532 L 778,537 L 778,542 L 775,552 L 775,556 L 770,570 L 768,611 L 767,612 L 763,636 L 775,630 L 789,617 L 798,602 L 802,589 L 803,568 L 799,552 L 794,542 Z M 486,332 L 479,345 L 461,370 L 431,400 L 414,413 L 400,422 L 378,433 L 371,435 L 366,438 L 357,440 L 373,440 L 374,441 L 385,442 L 397,447 L 401,452 L 401,460 L 395,466 L 386,467 L 370,463 L 353,464 L 333,470 L 317,481 L 309,481 L 301,473 L 302,465 L 312,456 L 325,449 L 317,449 L 316,450 L 304,451 L 303,452 L 261,452 L 257,451 L 255,453 L 248,468 L 240,492 L 238,504 L 236,508 L 236,515 L 233,528 L 233,537 L 231,543 L 231,586 L 232,587 L 232,597 L 234,605 L 234,613 L 236,617 L 240,640 L 246,655 L 246,658 L 248,661 L 249,666 L 259,688 L 272,710 L 291,734 L 309,752 L 329,768 L 351,782 L 364,788 L 366,790 L 368,790 L 370,792 L 390,800 L 396,801 L 401,804 L 404,804 L 411,807 L 415,807 L 419,809 L 424,809 L 433,812 L 439,812 L 452,815 L 467,815 L 473,817 L 497,817 L 498,816 L 506,816 L 507,815 L 529,814 L 534,812 L 542,812 L 546,810 L 555,809 L 558,807 L 562,807 L 570,804 L 573,804 L 579,801 L 582,801 L 587,798 L 590,798 L 618,785 L 644,769 L 663,754 L 679,739 L 695,720 L 707,703 L 720,679 L 728,659 L 729,654 L 731,651 L 731,647 L 734,641 L 734,636 L 737,628 L 737,623 L 739,619 L 740,605 L 742,598 L 742,578 L 743,577 L 742,544 L 741,543 L 740,528 L 738,523 L 737,513 L 735,510 L 735,505 L 732,497 L 732,493 L 729,487 L 729,484 L 720,464 L 718,457 L 714,451 L 713,452 L 669,452 L 656,449 L 650,449 L 664,458 L 672,467 L 672,474 L 665,481 L 656,481 L 648,474 L 641,470 L 639,470 L 637,468 L 616,463 L 603,463 L 587,467 L 580,467 L 574,462 L 572,458 L 573,451 L 576,447 L 588,442 L 593,442 L 600,440 L 614,440 L 602,436 L 597,433 L 588,430 L 576,423 L 574,423 L 554,410 L 540,399 L 513,372 L 500,355 Z M 484,765 L 491,765 L 498,773 L 498,781 L 492,787 L 488,787 L 487,788 L 483,787 L 476,780 L 476,772 Z M 479,676 L 497,676 L 506,680 L 516,689 L 520,696 L 522,703 L 522,715 L 518,724 L 509,734 L 498,743 L 497,753 L 490,759 L 483,759 L 477,753 L 476,749 L 477,738 L 479,734 L 499,715 L 501,710 L 501,705 L 499,701 L 493,696 L 487,696 L 486,695 L 485,696 L 481,696 L 474,701 L 472,707 L 469,711 L 463,713 L 458,712 L 452,705 L 452,699 L 457,689 L 466,681 Z M 291,494 L 293,494 L 299,502 L 309,508 L 313,508 L 320,502 L 337,492 L 342,490 L 346,490 L 353,487 L 376,487 L 377,488 L 385,489 L 397,494 L 409,502 L 418,511 L 428,526 L 428,528 L 433,538 L 436,550 L 436,573 L 434,578 L 434,583 L 431,592 L 426,600 L 426,602 L 420,610 L 407,622 L 393,630 L 389,631 L 374,630 L 375,631 L 373,633 L 368,633 L 367,634 L 366,633 L 353,633 L 345,630 L 342,630 L 340,628 L 337,628 L 333,625 L 327,623 L 312,611 L 299,594 L 301,586 L 301,588 L 299,590 L 295,585 L 294,577 L 292,573 L 292,565 L 291,564 L 292,547 L 300,524 L 293,517 L 289,509 L 289,496 Z M 683,494 L 686,498 L 686,507 L 682,516 L 674,524 L 674,526 L 679,535 L 679,538 L 681,541 L 681,545 L 683,549 L 683,572 L 681,576 L 680,583 L 676,589 L 674,587 L 674,578 L 674,590 L 675,591 L 674,596 L 668,605 L 654,619 L 648,623 L 631,631 L 623,632 L 622,633 L 615,633 L 614,634 L 613,633 L 608,633 L 607,634 L 606,633 L 601,633 L 599,631 L 600,630 L 593,630 L 592,631 L 582,630 L 566,621 L 553,608 L 546,597 L 540,581 L 540,575 L 539,574 L 539,548 L 544,532 L 549,522 L 555,513 L 567,501 L 576,495 L 590,489 L 598,488 L 599,487 L 605,487 L 606,486 L 613,486 L 614,487 L 621,487 L 641,493 L 652,500 L 661,508 L 666,508 L 672,505 L 677,500 L 679,496 L 681,494 Z" fill="#f6d9ca" stroke="none" fill-rule="evenodd"/>
<path d="M 903,1007 L 901,1009 L 900,1014 L 895,1021 L 886,1028 L 881,1029 L 879,1032 L 881,1034 L 886,1035 L 893,1040 L 900,1049 L 901,1054 L 904,1056 L 906,1054 L 907,1049 L 912,1042 L 921,1035 L 926,1034 L 928,1031 L 926,1029 L 921,1028 L 914,1023 L 909,1017 L 906,1009 Z M 903,1008 L 906,1010 L 909,1018 L 916,1025 L 923,1029 L 925,1029 L 927,1031 L 925,1034 L 917,1037 L 910,1044 L 906,1051 L 906,1053 L 904,1055 L 901,1053 L 898,1045 L 891,1038 L 884,1034 L 882,1034 L 880,1032 L 882,1029 L 890,1026 L 897,1019 L 901,1012 L 901,1010 Z M 569,831 L 566,830 L 565,831 L 559,831 L 552,834 L 545,834 L 541,836 L 536,836 L 535,837 L 527,837 L 520,839 L 505,839 L 504,840 L 453,839 L 452,838 L 437,837 L 436,836 L 432,836 L 429,834 L 420,834 L 416,832 L 413,832 L 411,836 L 411,916 L 412,918 L 418,921 L 430,921 L 440,924 L 477,925 L 478,926 L 535,924 L 536,923 L 541,923 L 545,921 L 556,921 L 564,918 L 568,918 L 570,915 L 570,834 Z M 569,833 L 569,915 L 566,918 L 561,918 L 550,921 L 542,921 L 535,923 L 528,923 L 527,924 L 515,924 L 514,925 L 463,925 L 462,924 L 447,924 L 446,923 L 434,922 L 433,921 L 424,921 L 423,920 L 415,919 L 412,916 L 412,835 L 414,833 L 424,834 L 435,837 L 441,837 L 447,839 L 458,839 L 459,840 L 515,840 L 516,839 L 525,839 L 532,837 L 539,837 L 563,831 L 567,831 Z M 191,525 L 184,532 L 176,543 L 170,558 L 170,562 L 168,566 L 168,583 L 170,587 L 170,593 L 175,607 L 183,619 L 199,634 L 211,640 L 215,640 L 214,628 L 212,625 L 211,613 L 209,609 L 208,573 L 206,571 L 205,565 L 203,562 L 202,555 L 200,551 L 200,545 L 197,535 L 197,527 L 196,525 Z M 192,525 L 194,525 L 197,530 L 197,536 L 200,546 L 200,551 L 208,577 L 209,610 L 210,611 L 212,626 L 215,637 L 213,640 L 209,639 L 197,632 L 181,616 L 175,606 L 170,592 L 170,586 L 168,580 L 168,569 L 170,563 L 170,558 L 179,539 Z M 781,524 L 778,524 L 777,526 L 773,551 L 766,573 L 766,598 L 765,599 L 765,607 L 763,614 L 763,621 L 760,628 L 760,635 L 759,636 L 760,640 L 763,640 L 775,634 L 793,617 L 800,606 L 803,595 L 805,592 L 805,586 L 807,580 L 807,570 L 802,551 L 796,539 Z M 780,524 L 796,540 L 804,557 L 805,566 L 806,567 L 805,591 L 803,594 L 803,597 L 800,605 L 790,620 L 777,632 L 765,639 L 762,639 L 760,637 L 760,631 L 763,622 L 763,616 L 765,609 L 766,575 L 773,551 L 777,527 Z M 608,522 L 601,525 L 596,530 L 593,537 L 593,544 L 596,551 L 602,557 L 607,559 L 615,559 L 621,556 L 627,551 L 629,547 L 630,538 L 627,530 L 623,526 L 614,522 Z M 609,522 L 614,522 L 621,525 L 627,531 L 630,539 L 629,547 L 621,556 L 614,559 L 608,559 L 601,556 L 597,552 L 593,544 L 593,538 L 595,532 L 603,524 Z M 362,522 L 353,525 L 347,531 L 345,535 L 345,546 L 349,553 L 354,557 L 359,559 L 366,559 L 375,555 L 381,547 L 381,535 L 378,529 L 374,525 L 370,523 Z M 362,522 L 370,523 L 379,531 L 381,535 L 381,546 L 379,550 L 373,556 L 366,559 L 360,559 L 354,557 L 347,550 L 345,546 L 345,536 L 348,530 L 355,524 Z M 682,498 L 671,509 L 666,511 L 661,511 L 650,502 L 638,495 L 620,490 L 601,490 L 600,491 L 593,491 L 590,493 L 584,494 L 564,507 L 556,516 L 548,530 L 544,541 L 543,549 L 542,550 L 542,557 L 541,558 L 542,574 L 545,587 L 551,600 L 561,613 L 568,619 L 578,625 L 587,628 L 596,628 L 584,627 L 575,623 L 566,617 L 557,608 L 548,594 L 545,586 L 545,582 L 543,579 L 541,559 L 542,558 L 542,551 L 545,539 L 554,520 L 558,514 L 567,505 L 585,494 L 591,493 L 594,491 L 601,491 L 602,490 L 618,490 L 622,492 L 628,492 L 635,495 L 638,495 L 651,503 L 657,509 L 662,512 L 672,509 L 681,500 L 683,502 L 682,503 L 682,509 L 678,516 L 670,523 L 670,525 L 676,537 L 677,543 L 679,546 L 680,566 L 678,568 L 676,566 L 675,556 L 669,539 L 658,523 L 647,512 L 641,508 L 624,500 L 615,499 L 614,498 L 602,498 L 603,501 L 607,502 L 619,509 L 629,519 L 633,525 L 639,537 L 639,540 L 642,546 L 643,574 L 643,552 L 642,551 L 642,546 L 634,526 L 628,517 L 623,512 L 615,506 L 608,502 L 606,502 L 604,500 L 606,498 L 614,498 L 629,502 L 644,510 L 656,521 L 667,536 L 671,544 L 676,561 L 677,581 L 680,569 L 680,552 L 676,536 L 670,524 L 677,518 L 682,510 L 682,506 L 683,505 L 683,499 Z M 292,498 L 292,508 L 296,516 L 304,524 L 297,540 L 297,544 L 295,548 L 295,553 L 294,554 L 294,563 L 295,564 L 295,571 L 296,572 L 297,581 L 298,581 L 298,566 L 297,567 L 295,565 L 294,556 L 295,555 L 297,541 L 299,538 L 299,535 L 304,525 L 304,523 L 295,514 L 292,508 L 292,503 L 294,501 L 303,509 L 307,511 L 313,512 L 327,501 L 338,495 L 341,495 L 347,492 L 353,492 L 359,490 L 371,490 L 372,491 L 380,491 L 384,493 L 388,493 L 390,495 L 394,496 L 404,502 L 410,507 L 421,520 L 424,527 L 426,529 L 426,532 L 428,534 L 429,539 L 431,542 L 432,555 L 433,556 L 432,578 L 430,582 L 429,588 L 427,590 L 424,599 L 412,614 L 396,625 L 388,628 L 377,628 L 389,628 L 408,618 L 418,608 L 423,601 L 429,589 L 429,586 L 431,582 L 432,572 L 433,571 L 433,553 L 432,552 L 431,542 L 423,523 L 416,513 L 407,504 L 395,496 L 381,491 L 356,490 L 351,492 L 346,492 L 340,495 L 337,495 L 322,504 L 312,512 L 301,507 Z M 718,449 L 717,448 L 700,449 L 712,449 L 715,448 L 719,452 L 719,454 L 728,473 L 737,500 L 737,505 L 739,509 L 740,517 L 742,522 L 742,528 L 744,534 L 744,543 L 745,544 L 745,553 L 746,554 L 746,586 L 745,587 L 744,608 L 743,609 L 739,633 L 736,641 L 736,645 L 734,648 L 731,660 L 728,665 L 728,668 L 714,697 L 706,710 L 689,732 L 666,755 L 654,765 L 631,781 L 617,788 L 615,790 L 613,790 L 611,792 L 609,792 L 600,797 L 580,805 L 574,806 L 571,808 L 564,809 L 560,811 L 551,812 L 547,814 L 542,814 L 537,816 L 522,817 L 521,818 L 514,818 L 513,819 L 460,819 L 452,817 L 438,816 L 423,812 L 414,811 L 410,809 L 406,809 L 392,803 L 389,803 L 384,800 L 381,800 L 358,789 L 356,787 L 354,787 L 331,773 L 307,754 L 289,736 L 279,724 L 263,701 L 251,678 L 251,676 L 249,674 L 243,656 L 241,653 L 241,650 L 238,644 L 238,640 L 236,636 L 236,631 L 234,627 L 234,623 L 230,607 L 230,602 L 229,601 L 229,586 L 229,605 L 232,613 L 232,620 L 236,633 L 236,637 L 238,641 L 238,645 L 241,651 L 241,654 L 244,659 L 244,662 L 246,664 L 246,667 L 249,672 L 249,675 L 251,677 L 251,679 L 259,693 L 259,695 L 274,718 L 292,740 L 303,751 L 321,766 L 353,787 L 355,787 L 357,789 L 365,792 L 373,797 L 399,806 L 402,808 L 409,809 L 412,811 L 422,812 L 426,814 L 432,814 L 441,817 L 451,817 L 456,819 L 518,819 L 523,817 L 535,817 L 542,814 L 549,814 L 556,811 L 561,811 L 564,809 L 568,809 L 575,806 L 581,805 L 583,803 L 588,802 L 598,797 L 601,797 L 603,795 L 608,794 L 610,792 L 623,786 L 655,765 L 670,752 L 692,729 L 703,715 L 716,694 L 728,669 L 728,666 L 733,655 L 733,652 L 736,647 L 736,642 L 739,635 L 739,629 L 741,626 L 742,615 L 744,612 L 744,598 L 746,591 L 746,570 L 747,569 L 746,550 L 744,542 L 744,532 L 742,528 L 742,520 L 737,504 L 737,499 L 734,493 L 734,488 L 732,485 L 728,472 L 726,470 L 726,468 L 720,456 Z M 398,453 L 395,449 L 380,444 L 360,443 L 359,444 L 342,445 L 336,448 L 331,449 L 310,461 L 305,466 L 304,472 L 306,476 L 309,478 L 316,478 L 327,470 L 337,465 L 340,465 L 343,463 L 347,463 L 351,461 L 366,460 L 367,461 L 378,461 L 386,464 L 392,464 L 396,462 L 398,459 Z M 398,453 L 397,460 L 392,464 L 386,464 L 380,461 L 367,461 L 366,460 L 350,461 L 334,466 L 326,470 L 316,478 L 308,477 L 305,474 L 304,471 L 306,465 L 312,460 L 327,451 L 341,446 L 348,446 L 356,444 L 380,444 L 387,447 L 391,447 Z M 828,356 L 825,356 L 823,354 L 820,354 L 810,350 L 805,350 L 801,348 L 784,347 L 780,350 L 775,359 L 765,367 L 765,371 L 774,400 L 774,406 L 777,415 L 778,430 L 780,434 L 781,493 L 780,434 L 778,427 L 777,414 L 774,405 L 774,400 L 771,388 L 768,381 L 768,378 L 766,375 L 765,368 L 776,358 L 783,348 L 798,348 L 799,349 L 813,351 L 834,359 L 842,364 L 846,368 L 853,383 L 853,385 L 855,387 L 871,433 L 871,437 L 874,445 L 874,450 L 877,460 L 877,466 L 879,471 L 880,485 L 881,486 L 882,500 L 883,501 L 884,551 L 883,552 L 883,566 L 882,567 L 882,574 L 880,582 L 880,590 L 877,601 L 877,606 L 874,615 L 874,621 L 871,628 L 871,632 L 868,639 L 867,646 L 864,652 L 864,656 L 861,661 L 861,664 L 858,669 L 858,672 L 855,677 L 855,680 L 836,720 L 811,760 L 795,781 L 781,797 L 749,828 L 716,854 L 698,866 L 693,868 L 683,875 L 679,876 L 672,881 L 656,889 L 654,889 L 652,891 L 647,892 L 643,895 L 641,895 L 636,898 L 633,898 L 628,901 L 625,901 L 620,904 L 617,904 L 598,911 L 592,912 L 590,910 L 589,907 L 589,826 L 593,822 L 612,815 L 614,813 L 616,813 L 634,804 L 641,799 L 643,799 L 661,787 L 679,773 L 701,751 L 719,729 L 738,698 L 738,696 L 743,687 L 743,685 L 750,670 L 751,665 L 753,663 L 773,658 L 789,649 L 807,632 L 818,615 L 818,613 L 823,603 L 826,591 L 826,582 L 827,581 L 826,561 L 823,549 L 817,535 L 809,523 L 799,512 L 790,505 L 784,502 L 780,498 L 780,495 L 780,499 L 795,509 L 810,525 L 815,532 L 815,534 L 820,542 L 821,547 L 823,549 L 823,553 L 826,561 L 826,590 L 823,602 L 821,605 L 821,608 L 809,629 L 795,644 L 782,653 L 772,658 L 770,658 L 768,660 L 759,661 L 751,664 L 750,669 L 748,672 L 748,675 L 741,689 L 741,691 L 739,693 L 736,701 L 724,721 L 711,739 L 686,766 L 672,778 L 642,799 L 609,816 L 590,823 L 589,825 L 589,910 L 590,912 L 600,911 L 606,908 L 613,907 L 615,905 L 621,904 L 626,901 L 630,901 L 634,898 L 637,898 L 641,895 L 644,895 L 648,892 L 653,891 L 661,886 L 666,885 L 669,882 L 671,882 L 675,879 L 677,879 L 680,876 L 684,875 L 687,872 L 689,872 L 692,869 L 714,856 L 728,846 L 759,820 L 784,795 L 788,789 L 799,777 L 818,751 L 831,730 L 834,723 L 836,721 L 836,719 L 839,716 L 843,705 L 849,695 L 849,692 L 852,688 L 852,685 L 855,681 L 855,678 L 858,673 L 858,670 L 864,657 L 864,653 L 867,648 L 868,640 L 870,638 L 871,630 L 873,627 L 873,623 L 874,622 L 874,617 L 877,609 L 877,602 L 880,595 L 880,582 L 883,573 L 883,558 L 884,557 L 883,495 L 882,494 L 882,487 L 880,483 L 879,468 L 877,464 L 876,453 L 874,449 L 874,443 L 871,436 L 871,431 L 868,425 L 868,421 L 865,416 L 865,412 L 859,399 L 859,395 L 856,391 L 855,386 L 852,382 L 846,367 L 838,361 L 832,359 Z M 140,357 L 138,359 L 134,360 L 129,367 L 126,376 L 124,378 L 123,382 L 120,386 L 119,391 L 117,393 L 116,399 L 114,401 L 114,404 L 108,419 L 107,426 L 104,432 L 104,437 L 101,445 L 98,466 L 96,470 L 95,486 L 93,491 L 93,499 L 92,500 L 92,569 L 93,570 L 93,577 L 95,582 L 96,598 L 98,601 L 98,607 L 101,616 L 101,622 L 104,628 L 104,635 L 107,640 L 108,647 L 111,653 L 111,656 L 114,662 L 115,668 L 117,670 L 117,673 L 124,688 L 124,691 L 126,693 L 127,697 L 129,699 L 130,703 L 136,713 L 140,723 L 145,730 L 147,735 L 150,738 L 150,740 L 162,758 L 166,762 L 167,765 L 195,799 L 218,822 L 227,829 L 229,832 L 263,858 L 303,882 L 305,882 L 317,889 L 320,889 L 324,892 L 327,892 L 331,895 L 346,901 L 349,901 L 355,904 L 361,905 L 366,908 L 371,908 L 376,911 L 381,911 L 384,913 L 390,914 L 392,913 L 392,826 L 390,824 L 378,821 L 368,816 L 366,816 L 364,814 L 357,812 L 353,809 L 351,809 L 347,806 L 336,801 L 305,780 L 289,766 L 266,742 L 246,714 L 233,690 L 233,688 L 231,686 L 231,684 L 227,677 L 224,665 L 222,663 L 219,663 L 215,661 L 210,661 L 201,658 L 180,645 L 165,629 L 158,618 L 158,616 L 156,614 L 156,612 L 153,607 L 153,604 L 151,601 L 151,597 L 149,592 L 149,585 L 148,584 L 148,569 L 149,568 L 149,561 L 150,560 L 151,551 L 158,535 L 169,519 L 177,511 L 191,502 L 193,499 L 193,495 L 192,494 L 193,436 L 193,449 L 192,450 L 192,500 L 180,508 L 164,525 L 155,540 L 149,559 L 148,585 L 149,586 L 149,593 L 154,610 L 166,631 L 182,647 L 201,658 L 221,663 L 224,666 L 225,672 L 234,691 L 234,693 L 236,695 L 236,697 L 242,708 L 253,725 L 269,746 L 296,773 L 332,799 L 361,814 L 388,824 L 392,828 L 392,911 L 390,913 L 378,911 L 371,908 L 365,907 L 362,905 L 356,904 L 350,901 L 347,901 L 344,899 L 339,898 L 337,896 L 325,892 L 321,889 L 310,885 L 308,883 L 288,873 L 283,869 L 270,862 L 246,845 L 221,824 L 195,798 L 173,772 L 150,739 L 139,720 L 139,718 L 137,716 L 129,700 L 129,698 L 127,696 L 127,694 L 121,682 L 120,677 L 117,672 L 117,669 L 112,658 L 108,642 L 104,632 L 104,627 L 101,620 L 101,615 L 96,595 L 95,580 L 94,579 L 93,566 L 92,565 L 92,506 L 93,505 L 93,495 L 95,488 L 95,481 L 96,480 L 96,473 L 98,468 L 99,456 L 101,452 L 101,447 L 104,438 L 104,434 L 119,390 L 129,370 L 129,368 L 135,360 L 154,352 L 171,348 L 187,347 L 191,351 L 194,357 L 207,369 L 207,373 L 203,383 L 203,387 L 199,400 L 198,410 L 196,415 L 195,427 L 194,428 L 194,434 L 195,424 L 196,423 L 196,415 L 198,412 L 198,405 L 200,401 L 203,384 L 205,381 L 205,377 L 207,373 L 207,368 L 201,364 L 195,358 L 188,347 L 178,347 L 177,348 L 165,349 L 153,352 L 150,354 Z M 290,449 L 301,449 L 308,447 L 325,446 L 329,444 L 336,444 L 343,441 L 348,441 L 353,438 L 365,435 L 380,428 L 382,428 L 384,426 L 404,416 L 428,399 L 454,374 L 471,352 L 483,331 L 487,328 L 489,330 L 496,344 L 511,365 L 520,376 L 543,398 L 556,408 L 575,420 L 600,432 L 613,436 L 616,438 L 622,439 L 625,442 L 623,444 L 619,444 L 618,443 L 602,443 L 601,444 L 593,444 L 586,447 L 582,447 L 577,450 L 575,454 L 575,458 L 579,463 L 587,464 L 596,461 L 616,460 L 617,461 L 623,461 L 628,463 L 632,463 L 642,468 L 644,468 L 657,478 L 664,478 L 669,473 L 668,466 L 662,460 L 651,453 L 641,448 L 638,448 L 636,446 L 638,444 L 643,444 L 647,446 L 653,446 L 645,445 L 644,444 L 637,444 L 632,441 L 627,441 L 621,438 L 617,438 L 614,436 L 611,436 L 596,430 L 587,425 L 585,425 L 583,423 L 581,423 L 579,421 L 577,421 L 546,400 L 517,372 L 497,345 L 488,328 L 485,328 L 483,330 L 474,347 L 456,371 L 431,396 L 402,417 L 385,426 L 383,426 L 381,428 L 379,428 L 377,430 L 361,436 L 358,436 L 356,438 L 349,439 L 346,441 L 341,441 L 334,444 L 327,444 L 323,446 L 305,447 L 299,449 Z M 575,454 L 579,449 L 583,447 L 590,446 L 593,444 L 615,443 L 622,445 L 631,445 L 636,448 L 640,448 L 660,459 L 668,466 L 669,472 L 664,478 L 658,478 L 646,469 L 632,463 L 628,463 L 625,461 L 618,461 L 617,460 L 595,461 L 591,463 L 582,464 L 576,459 Z M 677,243 L 677,245 L 694,258 L 715,279 L 724,290 L 742,317 L 754,340 L 755,344 L 759,345 L 761,343 L 764,336 L 764,328 L 762,324 L 762,320 L 751,297 L 735,273 L 714,252 L 700,242 L 695,240 L 681,240 Z M 681,241 L 692,240 L 698,242 L 709,249 L 733,272 L 739,280 L 755,306 L 755,308 L 757,310 L 762,323 L 763,337 L 762,340 L 758,344 L 755,342 L 750,330 L 731,298 L 711,273 L 692,255 L 678,244 Z M 294,242 L 290,240 L 276,240 L 271,242 L 260,249 L 240,268 L 232,278 L 218,300 L 209,320 L 208,328 L 207,329 L 207,335 L 210,343 L 214,347 L 217,345 L 217,343 L 227,323 L 237,306 L 247,292 L 271,265 L 294,246 Z M 290,241 L 293,245 L 274,261 L 258,277 L 242,297 L 226,323 L 217,341 L 217,343 L 215,345 L 213,345 L 208,337 L 209,323 L 219,300 L 234,277 L 258,252 L 266,246 L 279,240 L 288,240 Z M 215,445 L 215,463 L 214,464 L 214,482 L 215,483 L 214,485 L 215,487 L 223,463 L 225,461 L 229,449 L 239,431 L 242,428 L 249,425 L 258,426 L 259,427 L 302,427 L 309,425 L 323,424 L 347,418 L 358,413 L 361,413 L 387,400 L 411,384 L 439,357 L 457,333 L 468,312 L 470,310 L 475,298 L 482,292 L 490,292 L 497,297 L 507,319 L 516,334 L 529,352 L 555,379 L 569,390 L 598,407 L 600,407 L 620,416 L 629,418 L 632,420 L 636,420 L 655,425 L 663,425 L 669,427 L 711,427 L 718,425 L 723,425 L 728,427 L 736,437 L 750,468 L 756,486 L 757,487 L 758,485 L 757,439 L 756,438 L 756,430 L 754,423 L 753,410 L 751,405 L 750,396 L 748,393 L 748,389 L 734,351 L 724,331 L 706,304 L 695,291 L 679,275 L 657,258 L 633,243 L 631,243 L 608,232 L 583,224 L 574,223 L 569,221 L 563,221 L 557,219 L 541,218 L 540,217 L 507,217 L 506,218 L 489,219 L 488,220 L 473,219 L 465,217 L 433,217 L 432,218 L 405,221 L 396,224 L 391,224 L 387,226 L 383,226 L 380,228 L 377,228 L 365,233 L 362,233 L 333,247 L 314,259 L 297,272 L 273,296 L 257,317 L 242,343 L 242,345 L 240,347 L 240,349 L 231,368 L 231,371 L 226,383 L 226,387 L 224,390 L 224,395 L 221,402 L 221,407 L 218,418 L 217,433 L 216,434 L 216,444 Z M 735,163 L 720,178 L 713,191 L 710,202 L 710,208 L 709,209 L 709,222 L 723,231 L 735,241 L 745,251 L 759,268 L 771,287 L 781,307 L 786,325 L 810,328 L 814,330 L 825,332 L 831,335 L 834,335 L 860,349 L 894,376 L 907,383 L 911,384 L 911,382 L 907,376 L 906,371 L 904,368 L 904,365 L 902,361 L 900,345 L 899,344 L 898,288 L 897,287 L 897,272 L 895,266 L 895,258 L 893,253 L 893,248 L 890,241 L 890,237 L 884,222 L 876,206 L 868,194 L 848,173 L 837,165 L 822,157 L 803,151 L 792,150 L 791,149 L 771,149 L 765,151 L 760,151 L 757,153 L 752,154 Z M 240,167 L 229,159 L 209,151 L 199,150 L 198,149 L 167,150 L 149,155 L 129,165 L 109,181 L 99,192 L 90,205 L 82,220 L 82,222 L 80,224 L 80,227 L 77,232 L 77,235 L 75,238 L 74,245 L 72,249 L 72,255 L 70,259 L 69,284 L 68,285 L 67,338 L 66,339 L 63,363 L 55,383 L 62,382 L 74,376 L 91,364 L 109,349 L 131,337 L 144,332 L 151,331 L 154,329 L 159,329 L 163,327 L 170,327 L 177,325 L 184,325 L 185,324 L 188,312 L 190,310 L 190,307 L 193,302 L 193,300 L 203,281 L 215,264 L 224,253 L 239,238 L 249,230 L 262,222 L 262,210 L 261,209 L 261,203 L 259,199 L 259,195 L 250,178 Z M 282,200 L 283,213 L 285,219 L 298,221 L 307,226 L 313,232 L 316,232 L 334,221 L 343,218 L 350,214 L 355,213 L 357,211 L 363,210 L 365,208 L 369,208 L 376,205 L 380,205 L 386,202 L 391,202 L 395,200 L 410,198 L 394,200 L 390,202 L 386,202 L 368,208 L 365,208 L 362,210 L 349,214 L 347,216 L 345,216 L 340,219 L 338,219 L 314,232 L 301,222 L 290,219 L 286,219 L 284,217 L 282,201 L 288,195 L 326,175 L 328,175 L 333,172 L 363,160 L 369,159 L 372,157 L 376,157 L 382,154 L 386,154 L 390,152 L 398,151 L 406,148 L 416,147 L 427,144 L 436,144 L 443,142 L 463,141 L 464,140 L 516,140 L 517,141 L 528,141 L 535,143 L 550,144 L 561,147 L 568,147 L 576,150 L 581,150 L 593,154 L 597,154 L 603,157 L 606,157 L 625,164 L 628,164 L 632,167 L 635,167 L 640,170 L 645,171 L 647,173 L 656,176 L 686,191 L 690,195 L 688,203 L 688,213 L 687,216 L 684,219 L 679,219 L 672,221 L 665,225 L 660,230 L 655,231 L 646,225 L 628,216 L 626,216 L 621,213 L 618,213 L 610,209 L 594,205 L 591,203 L 586,203 L 578,200 L 573,200 L 560,197 L 549,197 L 541,195 L 507,195 L 506,196 L 489,197 L 488,198 L 473,197 L 472,196 L 465,196 L 464,195 L 432,195 L 431,196 L 423,196 L 422,197 L 412,197 L 427,197 L 435,195 L 460,195 L 468,197 L 483,197 L 484,198 L 502,197 L 509,195 L 538,195 L 545,197 L 560,197 L 565,199 L 578,200 L 581,202 L 590,203 L 593,205 L 600,206 L 603,208 L 607,208 L 610,210 L 615,211 L 617,213 L 620,213 L 625,216 L 634,219 L 655,231 L 659,231 L 672,221 L 687,218 L 690,194 L 683,189 L 663,179 L 661,179 L 653,174 L 648,173 L 646,171 L 641,170 L 639,168 L 633,167 L 629,164 L 626,164 L 621,161 L 617,161 L 608,157 L 604,157 L 598,154 L 590,153 L 587,151 L 577,150 L 571,147 L 561,147 L 554,144 L 538,143 L 533,141 L 524,141 L 523,140 L 457,140 L 456,141 L 444,141 L 435,144 L 424,144 L 415,147 L 403,148 L 398,151 L 391,151 L 385,154 L 380,154 L 375,157 L 371,157 L 368,159 L 362,160 L 356,163 L 353,163 L 349,166 L 346,166 L 341,169 L 325,175 L 321,178 L 319,178 L 309,184 L 303,186 L 301,188 L 292,192 L 283,198 Z" fill="#41322d" stroke="none" fill-rule="evenodd"/>
<path d="M 903,1009 L 898,1019 L 890,1027 L 882,1030 L 881,1032 L 891,1037 L 899,1045 L 902,1053 L 904,1054 L 909,1044 L 917,1036 L 925,1033 L 926,1031 L 916,1026 L 908,1018 L 905,1010 Z M 192,526 L 180,539 L 171,558 L 171,563 L 169,569 L 169,580 L 171,586 L 171,592 L 176,606 L 182,616 L 197,631 L 203,635 L 213,639 L 214,638 L 213,631 L 211,626 L 211,621 L 208,610 L 207,577 L 199,551 L 199,546 L 196,536 L 196,530 L 195,527 Z M 192,527 L 195,529 L 197,543 L 199,547 L 199,552 L 202,561 L 202,565 L 206,574 L 206,589 L 207,590 L 208,613 L 213,633 L 213,636 L 211,638 L 202,634 L 194,628 L 185,619 L 179,611 L 176,603 L 174,601 L 173,595 L 171,591 L 171,585 L 170,584 L 170,565 L 171,564 L 171,559 L 179,541 Z M 780,525 L 778,527 L 774,551 L 767,575 L 767,599 L 766,600 L 766,609 L 764,616 L 764,622 L 761,631 L 761,638 L 765,638 L 771,635 L 782,627 L 789,620 L 799,605 L 802,597 L 802,594 L 804,591 L 805,567 L 804,566 L 803,557 L 795,540 Z M 781,526 L 793,538 L 801,552 L 805,569 L 804,589 L 799,604 L 791,617 L 779,629 L 772,634 L 763,638 L 761,636 L 761,633 L 763,629 L 764,617 L 766,611 L 768,571 L 771,564 L 775,548 L 778,528 Z M 609,523 L 603,525 L 596,532 L 594,538 L 594,544 L 596,549 L 601,555 L 608,558 L 614,558 L 621,555 L 628,547 L 629,539 L 626,531 L 621,526 L 614,523 Z M 606,524 L 617,524 L 622,527 L 626,531 L 628,535 L 628,546 L 626,550 L 619,556 L 611,558 L 605,557 L 597,550 L 595,546 L 594,540 L 596,533 L 601,527 Z M 362,523 L 355,525 L 349,530 L 346,536 L 346,546 L 348,550 L 354,556 L 360,558 L 366,558 L 373,555 L 378,550 L 380,546 L 380,535 L 378,531 L 370,524 Z M 358,524 L 369,524 L 377,530 L 380,536 L 380,545 L 377,551 L 371,556 L 365,558 L 361,558 L 355,556 L 349,551 L 346,545 L 346,536 L 348,532 L 354,526 Z M 291,496 L 290,503 L 291,504 L 292,512 L 296,518 L 302,523 L 302,526 L 296,539 L 296,543 L 294,547 L 294,552 L 293,553 L 294,573 L 296,578 L 296,583 L 299,587 L 299,566 L 300,565 L 301,556 L 305,544 L 315,527 L 330,512 L 336,508 L 352,501 L 362,500 L 364,502 L 350,512 L 344,519 L 337,530 L 332,543 L 331,553 L 330,554 L 330,573 L 331,574 L 331,581 L 337,598 L 347,613 L 355,620 L 366,626 L 376,629 L 390,629 L 393,628 L 395,626 L 397,626 L 406,621 L 417,611 L 425,600 L 432,583 L 433,574 L 434,573 L 434,550 L 432,545 L 432,541 L 426,526 L 419,515 L 410,505 L 402,499 L 389,492 L 376,489 L 354,489 L 342,492 L 329,498 L 313,510 L 309,510 L 303,507 L 295,500 L 293,496 Z M 293,498 L 301,506 L 312,511 L 322,503 L 337,494 L 340,494 L 346,491 L 351,491 L 356,489 L 374,489 L 375,490 L 381,490 L 385,492 L 388,492 L 393,495 L 395,495 L 407,503 L 417,513 L 424,523 L 427,531 L 429,533 L 434,553 L 434,571 L 433,572 L 432,582 L 430,586 L 430,589 L 424,601 L 419,608 L 408,619 L 402,623 L 389,629 L 377,629 L 364,625 L 353,618 L 342,606 L 336,595 L 331,580 L 331,573 L 330,572 L 330,556 L 331,555 L 332,543 L 339,527 L 345,518 L 354,509 L 366,501 L 370,500 L 370,499 L 362,499 L 361,500 L 351,501 L 341,506 L 339,506 L 328,513 L 317,524 L 310,534 L 304,546 L 299,565 L 299,576 L 297,578 L 295,576 L 295,572 L 294,571 L 293,554 L 294,553 L 294,548 L 296,544 L 296,540 L 303,524 L 295,516 L 292,511 L 291,500 Z M 683,496 L 672,507 L 665,510 L 661,510 L 656,505 L 641,495 L 622,489 L 613,489 L 612,488 L 593,490 L 584,493 L 567,503 L 557,513 L 551,522 L 545,534 L 540,555 L 540,567 L 541,568 L 542,581 L 547,595 L 556,609 L 566,619 L 582,628 L 597,629 L 609,626 L 618,621 L 629,611 L 635,602 L 640,591 L 644,575 L 645,561 L 644,560 L 644,551 L 643,550 L 642,541 L 637,531 L 637,529 L 631,519 L 620,508 L 610,501 L 612,499 L 628,503 L 640,509 L 646,513 L 661,529 L 666,537 L 673,553 L 673,557 L 675,562 L 675,569 L 676,570 L 676,578 L 675,579 L 675,587 L 676,587 L 676,585 L 679,581 L 682,560 L 681,559 L 681,550 L 680,549 L 679,541 L 672,526 L 672,524 L 682,513 L 684,507 L 684,497 Z M 682,497 L 684,499 L 683,510 L 678,518 L 671,524 L 677,536 L 681,552 L 681,569 L 680,570 L 680,574 L 678,576 L 676,574 L 675,561 L 670,544 L 666,536 L 655,521 L 644,511 L 629,503 L 620,500 L 605,499 L 606,501 L 610,502 L 623,511 L 632,521 L 638,532 L 642,542 L 643,551 L 644,552 L 644,574 L 643,575 L 643,581 L 641,585 L 641,588 L 634,603 L 630,609 L 616,622 L 602,628 L 597,628 L 596,629 L 583,628 L 571,622 L 560,613 L 550,600 L 544,587 L 541,574 L 540,558 L 541,557 L 542,545 L 547,530 L 555,516 L 564,506 L 584,493 L 590,492 L 593,490 L 600,490 L 601,489 L 620,489 L 638,494 L 650,501 L 661,510 L 666,510 L 671,508 Z M 834,360 L 809,351 L 799,350 L 798,349 L 783,349 L 777,358 L 766,368 L 767,375 L 769,378 L 769,381 L 772,388 L 775,400 L 775,405 L 778,414 L 779,427 L 781,434 L 781,448 L 782,449 L 782,493 L 781,494 L 781,498 L 799,511 L 810,523 L 821,541 L 826,556 L 827,570 L 828,571 L 827,591 L 824,603 L 819,613 L 819,615 L 808,632 L 789,650 L 773,659 L 752,665 L 751,670 L 744,685 L 744,687 L 739,696 L 739,698 L 720,729 L 702,751 L 679,774 L 661,788 L 643,800 L 641,800 L 634,805 L 616,814 L 614,814 L 612,816 L 591,824 L 590,826 L 590,907 L 592,911 L 602,909 L 605,907 L 608,907 L 614,904 L 620,903 L 625,900 L 628,900 L 633,897 L 636,897 L 672,880 L 679,875 L 683,874 L 693,867 L 698,865 L 716,853 L 749,827 L 780,797 L 794,781 L 810,760 L 830,729 L 842,706 L 842,704 L 845,700 L 845,698 L 847,696 L 848,691 L 851,687 L 851,685 L 854,680 L 854,677 L 857,672 L 857,669 L 860,664 L 860,661 L 863,656 L 863,652 L 866,646 L 867,639 L 869,636 L 870,628 L 873,621 L 873,615 L 876,606 L 878,591 L 879,590 L 879,582 L 880,581 L 881,567 L 882,566 L 882,552 L 883,551 L 882,501 L 881,500 L 881,492 L 879,485 L 879,477 L 876,466 L 876,460 L 873,450 L 873,445 L 871,441 L 870,433 L 867,426 L 867,423 L 861,408 L 861,405 L 858,400 L 858,397 L 855,392 L 854,387 L 852,385 L 852,383 L 845,368 Z M 833,360 L 841,365 L 845,369 L 855,391 L 855,394 L 857,396 L 868,428 L 873,448 L 873,453 L 876,462 L 876,469 L 879,481 L 881,508 L 882,509 L 882,528 L 883,529 L 880,579 L 877,591 L 876,604 L 873,613 L 873,619 L 870,626 L 870,630 L 867,637 L 866,644 L 864,647 L 863,654 L 845,699 L 842,703 L 842,705 L 839,709 L 839,711 L 827,733 L 801,771 L 780,796 L 759,817 L 742,832 L 712,855 L 669,881 L 665,882 L 655,888 L 653,888 L 634,897 L 629,898 L 618,903 L 612,904 L 607,907 L 593,910 L 591,908 L 591,826 L 594,823 L 613,816 L 615,814 L 617,814 L 647,798 L 662,788 L 682,772 L 709,744 L 730,715 L 746,684 L 752,666 L 754,664 L 762,663 L 774,659 L 795,646 L 811,629 L 818,618 L 823,607 L 828,586 L 828,565 L 827,564 L 826,554 L 821,540 L 809,521 L 801,512 L 791,504 L 785,501 L 781,497 L 782,495 L 782,475 L 783,474 L 781,431 L 780,430 L 780,424 L 779,423 L 774,394 L 766,369 L 777,359 L 784,349 L 795,349 L 796,350 L 808,351 Z M 141,358 L 135,361 L 130,368 L 130,370 L 120,390 L 111,417 L 109,420 L 108,427 L 105,434 L 105,438 L 102,447 L 102,452 L 100,456 L 99,468 L 97,473 L 96,488 L 94,495 L 94,505 L 93,506 L 93,565 L 94,566 L 94,573 L 96,580 L 97,595 L 99,600 L 102,620 L 105,627 L 105,632 L 109,642 L 112,655 L 128,696 L 130,698 L 130,700 L 138,716 L 140,718 L 140,720 L 151,739 L 174,772 L 196,798 L 221,823 L 235,835 L 270,861 L 310,884 L 312,884 L 325,891 L 337,895 L 339,897 L 344,898 L 347,900 L 350,900 L 356,903 L 362,904 L 365,906 L 371,907 L 378,910 L 390,912 L 391,911 L 391,828 L 390,826 L 370,819 L 339,804 L 324,795 L 296,774 L 268,746 L 252,725 L 241,708 L 235,697 L 235,695 L 233,693 L 233,691 L 224,672 L 223,666 L 221,664 L 201,659 L 182,648 L 165,631 L 153,610 L 148,593 L 148,586 L 147,585 L 148,559 L 154,540 L 163,525 L 180,507 L 191,500 L 191,450 L 192,449 L 192,436 L 193,435 L 193,428 L 194,427 L 195,415 L 197,410 L 198,400 L 202,387 L 202,383 L 206,373 L 206,368 L 202,366 L 193,357 L 190,351 L 187,348 L 166,350 L 154,353 L 151,355 Z M 142,358 L 164,351 L 174,350 L 175,349 L 187,349 L 190,352 L 193,358 L 206,370 L 202,382 L 200,394 L 198,398 L 198,403 L 197,404 L 194,424 L 193,425 L 192,443 L 191,444 L 191,499 L 188,502 L 178,508 L 163,524 L 155,537 L 155,539 L 150,549 L 148,557 L 147,589 L 153,611 L 158,621 L 166,633 L 180,647 L 200,659 L 212,663 L 220,664 L 222,666 L 233,694 L 235,696 L 235,698 L 237,700 L 244,714 L 260,737 L 270,749 L 292,771 L 309,785 L 331,800 L 364,817 L 387,825 L 390,828 L 390,910 L 388,912 L 373,907 L 369,907 L 366,905 L 360,904 L 355,901 L 352,901 L 346,898 L 341,897 L 300,878 L 261,854 L 236,835 L 222,823 L 196,797 L 174,771 L 147,731 L 139,715 L 137,713 L 133,703 L 131,701 L 127,690 L 125,688 L 124,683 L 121,678 L 121,675 L 116,665 L 115,659 L 112,653 L 112,650 L 110,647 L 99,603 L 99,596 L 96,584 L 96,574 L 95,573 L 94,557 L 93,556 L 93,515 L 94,514 L 94,504 L 95,503 L 95,494 L 96,493 L 96,483 L 99,472 L 99,464 L 102,454 L 102,449 L 105,440 L 105,436 L 108,429 L 108,425 L 111,419 L 111,416 L 113,413 L 118,396 L 121,391 L 124,382 L 126,380 L 130,369 L 136,361 Z M 486,329 L 482,334 L 474,349 L 460,368 L 435,394 L 419,407 L 404,417 L 384,427 L 382,429 L 380,429 L 365,436 L 353,439 L 348,442 L 343,442 L 336,445 L 329,445 L 325,447 L 308,448 L 301,450 L 282,450 L 281,451 L 278,450 L 276,451 L 275,450 L 255,449 L 244,472 L 240,484 L 239,491 L 237,494 L 237,498 L 234,508 L 232,527 L 230,534 L 230,542 L 229,543 L 229,585 L 230,586 L 231,607 L 232,608 L 235,627 L 237,631 L 237,636 L 239,640 L 239,644 L 242,650 L 242,653 L 244,656 L 250,674 L 252,676 L 252,678 L 260,694 L 271,712 L 290,736 L 307,753 L 331,772 L 354,786 L 356,786 L 358,788 L 381,799 L 384,799 L 389,802 L 392,802 L 406,808 L 410,808 L 414,810 L 423,811 L 438,815 L 452,816 L 460,818 L 513,818 L 514,817 L 537,815 L 542,813 L 547,813 L 551,811 L 555,811 L 571,807 L 611,791 L 613,789 L 615,789 L 617,787 L 631,780 L 654,764 L 666,754 L 688,732 L 705,710 L 713,697 L 727,668 L 727,665 L 730,660 L 730,657 L 735,645 L 735,641 L 738,633 L 738,629 L 740,624 L 741,614 L 743,608 L 743,598 L 744,597 L 744,587 L 745,586 L 745,554 L 744,553 L 743,534 L 741,528 L 741,522 L 739,517 L 739,513 L 736,505 L 736,500 L 725,468 L 721,461 L 718,452 L 715,449 L 712,450 L 671,450 L 665,448 L 655,448 L 654,447 L 647,447 L 643,445 L 637,445 L 636,446 L 641,447 L 662,459 L 669,466 L 670,473 L 664,479 L 657,479 L 644,469 L 642,469 L 632,464 L 628,464 L 623,462 L 605,461 L 604,462 L 596,462 L 587,465 L 579,464 L 575,460 L 574,454 L 582,446 L 586,446 L 589,444 L 601,443 L 602,442 L 618,442 L 626,444 L 631,443 L 624,442 L 622,440 L 616,439 L 613,437 L 605,435 L 595,430 L 593,430 L 568,417 L 548,403 L 535,392 L 519,376 L 501,353 L 491,337 L 488,330 Z M 399,453 L 399,459 L 392,465 L 386,465 L 378,462 L 367,462 L 366,461 L 351,462 L 347,464 L 343,464 L 340,466 L 337,466 L 327,471 L 316,479 L 309,479 L 303,472 L 304,466 L 310,460 L 321,453 L 342,444 L 350,444 L 351,443 L 359,443 L 360,442 L 380,443 L 395,448 Z M 486,330 L 489,333 L 496,346 L 511,367 L 539,396 L 554,408 L 571,419 L 597,432 L 612,437 L 616,440 L 614,442 L 599,442 L 579,447 L 574,453 L 574,458 L 576,462 L 580,465 L 588,465 L 598,462 L 607,462 L 608,461 L 622,462 L 623,463 L 631,464 L 634,466 L 637,466 L 639,468 L 648,472 L 655,478 L 661,480 L 668,477 L 670,474 L 670,467 L 664,460 L 657,455 L 650,452 L 647,449 L 649,447 L 661,448 L 668,450 L 686,450 L 687,451 L 715,450 L 718,453 L 725,471 L 728,476 L 728,479 L 731,484 L 733,494 L 736,501 L 736,505 L 739,514 L 739,519 L 742,530 L 743,545 L 744,546 L 744,559 L 745,560 L 744,595 L 743,596 L 741,618 L 739,623 L 735,644 L 733,647 L 730,659 L 722,679 L 709,703 L 698,719 L 682,738 L 671,749 L 651,766 L 625,783 L 610,791 L 608,791 L 604,794 L 602,794 L 587,801 L 579,803 L 576,805 L 573,805 L 555,811 L 550,811 L 545,813 L 535,814 L 529,816 L 520,816 L 519,817 L 510,817 L 509,818 L 464,818 L 463,817 L 455,817 L 454,816 L 446,816 L 445,815 L 434,814 L 408,808 L 382,799 L 351,784 L 329,770 L 310,755 L 282,726 L 265,702 L 258,690 L 254,680 L 252,678 L 238,639 L 237,630 L 235,626 L 235,621 L 232,611 L 232,605 L 230,597 L 230,581 L 229,580 L 229,545 L 230,544 L 230,537 L 231,536 L 234,509 L 244,473 L 249,463 L 249,461 L 256,449 L 285,451 L 286,450 L 303,450 L 304,449 L 311,449 L 318,447 L 325,447 L 327,449 L 325,451 L 312,458 L 305,464 L 303,468 L 303,473 L 309,479 L 317,479 L 333,468 L 353,462 L 376,462 L 385,465 L 393,465 L 399,460 L 400,455 L 397,449 L 394,447 L 381,443 L 358,442 L 356,440 L 360,437 L 371,434 L 396,422 L 398,420 L 400,420 L 414,411 L 431,398 L 458,371 L 471,354 L 483,333 Z M 679,243 L 681,246 L 701,262 L 718,280 L 738,307 L 749,328 L 751,330 L 756,342 L 759,343 L 762,337 L 762,327 L 760,320 L 749,297 L 732,272 L 715,255 L 698,243 L 692,241 L 684,241 Z M 292,243 L 288,241 L 279,241 L 266,247 L 258,253 L 235,277 L 220,300 L 210,323 L 209,337 L 213,344 L 216,343 L 216,341 L 230,314 L 244,293 L 257,277 L 274,260 L 292,245 Z M 283,201 L 285,217 L 286,218 L 290,218 L 301,221 L 314,231 L 338,218 L 340,218 L 345,215 L 347,215 L 349,213 L 354,212 L 365,207 L 368,207 L 386,201 L 390,201 L 394,199 L 400,199 L 412,196 L 431,195 L 432,194 L 464,194 L 465,195 L 483,196 L 484,197 L 506,195 L 507,194 L 541,194 L 549,196 L 560,196 L 561,197 L 578,199 L 586,202 L 591,202 L 594,204 L 610,208 L 618,212 L 621,212 L 626,215 L 628,215 L 646,224 L 655,230 L 658,230 L 665,224 L 672,220 L 686,217 L 687,203 L 689,195 L 686,192 L 656,177 L 654,177 L 635,168 L 632,168 L 628,165 L 625,165 L 613,160 L 610,160 L 606,158 L 600,157 L 597,155 L 593,155 L 581,151 L 576,151 L 568,148 L 561,148 L 550,145 L 535,144 L 528,142 L 517,142 L 516,141 L 464,141 L 463,142 L 450,142 L 449,143 L 443,143 L 436,145 L 427,145 L 416,148 L 406,149 L 402,151 L 394,152 L 386,155 L 382,155 L 376,158 L 372,158 L 369,160 L 363,161 L 360,163 L 347,167 L 328,176 L 326,176 L 293,193 L 285,198 Z M 284,200 L 294,193 L 323,178 L 325,178 L 327,176 L 329,176 L 354,165 L 371,160 L 374,158 L 378,158 L 384,155 L 405,151 L 413,148 L 420,148 L 431,145 L 449,144 L 450,143 L 458,143 L 459,142 L 472,142 L 473,141 L 505,141 L 506,142 L 519,142 L 520,143 L 528,143 L 529,144 L 540,144 L 541,145 L 546,145 L 558,148 L 565,148 L 569,150 L 583,152 L 587,154 L 594,155 L 608,160 L 618,162 L 631,168 L 634,168 L 639,171 L 655,177 L 683,191 L 688,195 L 688,200 L 686,207 L 686,215 L 683,218 L 677,218 L 669,221 L 658,230 L 656,230 L 647,224 L 629,215 L 602,205 L 599,205 L 592,202 L 588,202 L 584,200 L 574,199 L 569,197 L 547,195 L 546,194 L 502,194 L 501,195 L 495,195 L 487,197 L 471,195 L 470,194 L 426,194 L 418,196 L 403,197 L 398,199 L 392,199 L 388,201 L 380,202 L 373,205 L 370,205 L 367,207 L 361,208 L 353,212 L 348,213 L 346,215 L 344,215 L 339,218 L 337,218 L 329,223 L 327,223 L 320,228 L 314,230 L 302,221 L 292,218 L 287,218 L 285,216 Z" fill="#7d6c81" stroke="none" fill-rule="evenodd"/>
<path d="M 567,833 L 563,833 L 559,835 L 555,835 L 545,838 L 538,838 L 526,841 L 515,841 L 514,842 L 460,842 L 459,841 L 447,841 L 446,840 L 441,840 L 440,839 L 435,839 L 434,838 L 414,835 L 414,916 L 426,919 L 432,919 L 433,920 L 442,920 L 450,922 L 464,922 L 465,923 L 512,923 L 513,922 L 526,922 L 527,921 L 533,921 L 541,919 L 550,919 L 560,916 L 566,916 L 567,915 Z" fill="#dea36e" stroke="none" fill-rule="evenodd"/>
<path d="M 484,766 L 477,772 L 477,780 L 483,786 L 487,787 L 488,786 L 492,786 L 497,781 L 497,773 L 491,766 Z M 479,677 L 466,682 L 458,689 L 453,699 L 453,705 L 456,710 L 460,712 L 467,711 L 470,709 L 473,701 L 477,697 L 486,694 L 487,695 L 493,695 L 500,701 L 502,705 L 502,710 L 500,715 L 484,729 L 478,738 L 478,744 L 477,745 L 478,753 L 483,758 L 490,758 L 496,753 L 497,743 L 503,737 L 509,733 L 517,724 L 521,715 L 521,703 L 519,696 L 515,689 L 506,681 L 497,677 Z M 607,526 L 603,528 L 598,533 L 597,545 L 600,551 L 606,555 L 615,555 L 620,553 L 624,549 L 626,545 L 626,536 L 624,532 L 620,528 L 616,526 Z M 356,527 L 349,534 L 348,537 L 348,545 L 355,554 L 358,555 L 368,555 L 372,553 L 376,549 L 378,545 L 378,536 L 376,532 L 372,528 L 368,526 Z M 618,502 L 614,502 L 623,508 L 631,516 L 636,523 L 644,540 L 644,544 L 646,549 L 646,555 L 647,556 L 647,570 L 645,577 L 645,584 L 635,606 L 626,617 L 617,624 L 607,629 L 595,632 L 606,632 L 607,633 L 608,632 L 613,632 L 614,633 L 615,632 L 627,631 L 636,628 L 648,622 L 659,614 L 667,605 L 674,594 L 673,590 L 673,578 L 674,577 L 673,564 L 672,563 L 671,554 L 664,537 L 649,518 L 636,509 Z M 347,505 L 332,513 L 320,524 L 312,535 L 308,542 L 303,557 L 302,567 L 301,568 L 301,585 L 302,588 L 300,594 L 312,610 L 327,622 L 331,623 L 337,627 L 340,627 L 342,629 L 345,629 L 353,632 L 366,632 L 367,633 L 368,632 L 381,632 L 380,631 L 370,630 L 359,625 L 352,620 L 340,607 L 334,596 L 329,582 L 328,552 L 332,536 L 343,517 L 353,507 L 357,505 L 360,502 Z M 825,359 L 805,353 L 784,352 L 779,360 L 769,369 L 769,372 L 771,375 L 771,379 L 774,384 L 774,388 L 776,391 L 777,401 L 779,404 L 780,415 L 783,425 L 783,438 L 784,439 L 784,448 L 785,449 L 785,486 L 784,487 L 784,498 L 789,500 L 801,509 L 811,520 L 820,533 L 829,555 L 829,560 L 831,567 L 831,585 L 824,611 L 819,621 L 810,634 L 795,649 L 785,656 L 771,663 L 754,667 L 751,678 L 748,683 L 746,690 L 744,692 L 744,694 L 741,698 L 739,704 L 727,724 L 704,753 L 683,774 L 663,790 L 645,802 L 638,805 L 629,811 L 621,814 L 619,816 L 617,816 L 600,824 L 595,825 L 593,827 L 594,830 L 594,907 L 597,907 L 600,905 L 605,905 L 610,902 L 616,901 L 629,895 L 632,895 L 637,892 L 642,891 L 644,889 L 653,886 L 671,876 L 673,876 L 708,855 L 735,835 L 750,822 L 785,787 L 809,756 L 816,744 L 823,735 L 823,733 L 833,717 L 834,713 L 842,699 L 843,694 L 845,692 L 852,676 L 852,673 L 855,668 L 855,665 L 858,660 L 858,657 L 861,651 L 862,644 L 864,642 L 865,634 L 868,628 L 868,622 L 871,617 L 871,607 L 874,601 L 875,585 L 877,582 L 878,557 L 879,556 L 879,549 L 880,548 L 880,520 L 879,519 L 879,510 L 878,509 L 878,500 L 877,499 L 877,483 L 874,474 L 874,467 L 873,466 L 873,461 L 871,457 L 871,450 L 869,446 L 868,438 L 866,434 L 865,427 L 863,424 L 862,417 L 859,412 L 859,408 L 856,403 L 856,400 L 852,393 L 850,386 L 845,375 L 843,373 L 842,369 L 837,365 L 827,361 Z M 139,362 L 135,365 L 126,385 L 126,387 L 123,391 L 122,396 L 119,401 L 119,404 L 116,410 L 116,413 L 113,418 L 113,422 L 110,428 L 109,435 L 107,438 L 107,444 L 104,451 L 104,459 L 101,467 L 101,478 L 98,485 L 98,505 L 97,506 L 97,514 L 96,515 L 96,523 L 95,524 L 95,546 L 96,547 L 96,557 L 98,565 L 98,581 L 101,591 L 102,604 L 104,607 L 104,614 L 107,621 L 107,627 L 109,631 L 110,637 L 112,640 L 112,644 L 114,647 L 115,654 L 133,699 L 135,701 L 143,719 L 156,741 L 182,777 L 199,797 L 218,816 L 241,836 L 279,863 L 300,874 L 302,876 L 316,883 L 318,883 L 322,886 L 324,886 L 351,898 L 357,899 L 362,902 L 366,902 L 371,905 L 376,905 L 383,908 L 387,908 L 387,839 L 388,838 L 388,829 L 386,827 L 383,827 L 380,825 L 367,821 L 333,804 L 312,790 L 293,775 L 267,749 L 252,730 L 236,705 L 224,680 L 220,667 L 219,666 L 209,665 L 198,661 L 179,649 L 164,634 L 157,624 L 151,612 L 148,604 L 148,601 L 146,598 L 145,586 L 144,585 L 144,567 L 146,560 L 146,554 L 150,542 L 155,532 L 163,520 L 177,506 L 189,498 L 188,456 L 189,455 L 189,440 L 190,439 L 190,432 L 191,431 L 191,420 L 193,416 L 193,409 L 195,405 L 195,399 L 198,392 L 198,387 L 200,383 L 203,370 L 191,359 L 186,351 L 166,353 L 158,355 L 155,357 L 151,357 L 141,362 Z M 286,202 L 287,204 L 287,215 L 288,216 L 295,216 L 301,218 L 308,222 L 313,227 L 317,227 L 324,222 L 336,216 L 338,216 L 340,214 L 342,214 L 362,205 L 365,205 L 368,203 L 371,203 L 389,197 L 396,197 L 399,195 L 413,194 L 419,192 L 461,191 L 462,192 L 476,192 L 481,194 L 490,194 L 496,192 L 512,192 L 513,191 L 553,192 L 558,194 L 566,194 L 567,195 L 573,195 L 577,197 L 583,197 L 590,200 L 594,200 L 601,203 L 605,203 L 607,205 L 619,208 L 621,210 L 633,214 L 635,216 L 645,220 L 652,225 L 658,227 L 663,222 L 672,217 L 684,215 L 684,201 L 686,197 L 678,191 L 669,188 L 667,186 L 653,179 L 644,176 L 642,174 L 637,173 L 632,170 L 629,170 L 624,167 L 621,167 L 609,162 L 605,162 L 599,159 L 595,159 L 592,157 L 583,156 L 576,153 L 569,153 L 562,150 L 545,149 L 542,147 L 517,146 L 516,145 L 515,146 L 514,145 L 497,144 L 496,143 L 480,143 L 479,144 L 471,144 L 470,145 L 463,145 L 462,146 L 434,147 L 427,150 L 417,150 L 408,153 L 398,154 L 391,157 L 387,157 L 381,160 L 376,160 L 371,163 L 367,163 L 365,165 L 359,166 L 353,169 L 350,169 L 346,172 L 343,172 L 338,175 L 329,178 L 325,181 L 316,184 L 303,192 L 292,197 Z" fill="#f7e1e8" stroke="none" fill-rule="evenodd"/>
<path d="M 902,1008 L 902,1011 L 898,1018 L 890,1026 L 883,1030 L 880,1030 L 880,1033 L 883,1033 L 890,1037 L 898,1045 L 902,1052 L 902,1055 L 905,1055 L 905,1052 L 909,1045 L 917,1037 L 924,1033 L 927,1033 L 927,1030 L 924,1030 L 917,1026 L 909,1018 L 905,1011 L 905,1008 Z" fill="none" stroke="black" stroke-width="1.5" stroke-linejoin="round" stroke-linecap="round"/>
<path d="M 781,525 L 780,526 L 779,525 L 778,527 L 778,533 L 776,538 L 774,553 L 772,557 L 767,577 L 767,603 L 766,604 L 766,611 L 764,617 L 764,625 L 761,633 L 761,636 L 763,638 L 767,637 L 777,631 L 788,621 L 796,610 L 801,599 L 802,593 L 804,589 L 805,571 L 804,570 L 803,558 L 796,542 L 791,535 Z" fill="none" stroke="black" stroke-width="1.5" stroke-linejoin="round" stroke-linecap="round"/>
<path d="M 192,525 L 177,544 L 171,559 L 171,565 L 170,566 L 171,591 L 175,603 L 183,617 L 196,630 L 207,637 L 211,638 L 214,636 L 211,629 L 210,617 L 208,614 L 206,575 L 201,561 L 199,547 L 197,543 L 196,532 L 194,526 L 193,527 Z" fill="none" stroke="black" stroke-width="1.5" stroke-linejoin="round" stroke-linecap="round"/>
<path d="M 829,358 L 808,351 L 802,351 L 795,349 L 783,349 L 778,357 L 766,368 L 769,380 L 772,386 L 772,390 L 775,399 L 775,404 L 778,412 L 778,419 L 781,430 L 781,444 L 782,445 L 782,499 L 793,506 L 807,519 L 818,535 L 826,554 L 829,577 L 828,578 L 827,593 L 822,609 L 816,621 L 809,631 L 792,648 L 785,653 L 769,661 L 755,664 L 752,666 L 745,686 L 743,688 L 737,702 L 723,725 L 706,747 L 678,775 L 660,789 L 638,803 L 615,815 L 596,822 L 591,825 L 591,909 L 592,910 L 593,909 L 596,910 L 607,906 L 610,906 L 615,903 L 618,903 L 632,897 L 637,896 L 675,878 L 699,864 L 738,836 L 776,801 L 803,769 L 829,730 L 841,707 L 841,705 L 844,701 L 845,697 L 847,695 L 847,693 L 853,681 L 854,675 L 856,673 L 857,668 L 859,665 L 860,659 L 863,654 L 864,647 L 866,644 L 867,637 L 870,630 L 870,626 L 873,619 L 873,612 L 876,604 L 876,596 L 879,586 L 880,567 L 882,560 L 882,505 L 881,504 L 881,497 L 879,490 L 878,474 L 876,470 L 876,462 L 873,453 L 873,447 L 871,443 L 870,435 L 868,431 L 867,424 L 864,418 L 864,415 L 862,412 L 854,388 L 845,369 L 840,364 Z" fill="none" stroke="black" stroke-width="1.5" stroke-linejoin="round" stroke-linecap="round"/>
<path d="M 142,358 L 136,361 L 132,365 L 118,396 L 117,401 L 114,407 L 114,410 L 111,416 L 111,419 L 108,425 L 108,429 L 105,436 L 105,441 L 102,449 L 102,454 L 100,458 L 99,472 L 97,476 L 96,494 L 94,500 L 94,509 L 93,510 L 93,562 L 96,574 L 97,592 L 99,596 L 100,608 L 102,612 L 102,617 L 105,625 L 105,630 L 108,637 L 110,647 L 117,668 L 128,693 L 128,695 L 131,699 L 131,701 L 141,721 L 154,743 L 176,774 L 200,802 L 233,833 L 252,848 L 274,863 L 294,875 L 309,882 L 311,884 L 313,884 L 324,890 L 329,891 L 333,894 L 338,895 L 346,899 L 388,912 L 384,910 L 380,910 L 373,907 L 360,904 L 355,901 L 352,901 L 341,896 L 336,895 L 295,875 L 253,848 L 217,818 L 184,783 L 164,757 L 157,745 L 154,742 L 136,711 L 136,709 L 127,692 L 115,662 L 115,659 L 112,653 L 112,650 L 110,647 L 108,637 L 105,630 L 105,625 L 103,621 L 102,612 L 100,608 L 99,596 L 97,592 L 96,574 L 93,562 L 93,510 L 94,509 L 94,500 L 96,494 L 97,476 L 99,472 L 99,464 L 100,463 L 100,458 L 102,454 L 102,449 L 105,441 L 105,436 L 108,429 L 108,425 L 111,419 L 114,407 L 132,366 L 137,361 L 155,353 L 173,350 L 174,349 L 187,349 L 196,362 L 206,370 L 200,389 L 200,394 L 198,398 L 197,408 L 195,412 L 195,419 L 193,425 L 192,443 L 191,444 L 191,498 L 189,501 L 183,504 L 171,514 L 158,531 L 152,544 L 148,557 L 147,573 L 146,574 L 147,575 L 148,595 L 153,611 L 157,618 L 157,620 L 165,632 L 181,648 L 197,658 L 212,663 L 219,664 L 222,666 L 231,690 L 247,719 L 263,741 L 284,764 L 302,780 L 326,797 L 355,813 L 357,813 L 366,818 L 387,825 L 390,828 L 391,831 L 391,839 L 390,840 L 390,847 L 391,848 L 390,904 L 391,905 L 390,906 L 390,912 L 390,906 L 391,905 L 390,904 L 390,863 L 391,862 L 391,848 L 390,847 L 391,831 L 390,827 L 387,825 L 367,818 L 337,803 L 318,791 L 296,774 L 268,746 L 249,721 L 238,703 L 230,687 L 230,685 L 223,670 L 222,665 L 200,659 L 182,648 L 165,631 L 154,613 L 150,602 L 147,589 L 147,575 L 146,574 L 147,573 L 148,557 L 152,544 L 164,523 L 180,507 L 190,501 L 191,498 L 191,444 L 192,443 L 193,425 L 195,419 L 195,412 L 197,408 L 198,398 L 200,394 L 200,389 L 202,385 L 206,369 L 195,360 L 188,349 L 174,349 L 168,351 L 163,351 Z" fill="none" stroke="black" stroke-width="1.5" stroke-linejoin="round" stroke-linecap="round"/>
<path d="M 485,329 L 476,346 L 455,374 L 434,395 L 409,414 L 392,424 L 357,439 L 352,439 L 345,442 L 339,442 L 336,444 L 328,445 L 325,447 L 311,448 L 304,450 L 291,450 L 290,451 L 271,451 L 270,450 L 260,450 L 259,449 L 254,451 L 245,470 L 241,482 L 241,485 L 236,500 L 234,515 L 232,521 L 232,530 L 230,536 L 230,547 L 229,548 L 230,598 L 232,604 L 232,610 L 235,621 L 235,626 L 237,630 L 237,634 L 242,649 L 242,652 L 245,658 L 247,666 L 260,694 L 274,716 L 285,730 L 305,751 L 318,762 L 339,777 L 358,788 L 390,802 L 393,802 L 399,805 L 402,805 L 408,808 L 412,808 L 420,811 L 425,811 L 429,813 L 434,813 L 447,816 L 462,817 L 463,818 L 511,818 L 512,817 L 528,816 L 534,814 L 539,814 L 540,813 L 545,813 L 550,811 L 559,810 L 587,801 L 604,793 L 606,793 L 629,781 L 646,770 L 666,754 L 687,733 L 702,714 L 714,695 L 729,662 L 732,650 L 734,647 L 736,636 L 738,632 L 738,628 L 741,617 L 741,611 L 743,605 L 743,593 L 744,592 L 744,580 L 745,579 L 745,559 L 744,558 L 744,547 L 743,546 L 743,537 L 741,530 L 741,524 L 739,519 L 739,514 L 736,505 L 736,501 L 729,479 L 716,450 L 684,451 L 683,450 L 667,450 L 663,448 L 654,448 L 653,447 L 648,447 L 641,444 L 636,444 L 634,442 L 625,441 L 621,439 L 616,439 L 590,429 L 588,427 L 568,417 L 556,409 L 536,393 L 519,376 L 509,364 L 495,344 L 488,332 L 488,330 Z" fill="none" stroke="black" stroke-width="1.5" stroke-linejoin="round" stroke-linecap="round"/>
<path d="M 680,241 L 678,243 L 678,245 L 696,259 L 713,276 L 727,293 L 742,316 L 753,337 L 753,339 L 755,341 L 756,345 L 757,344 L 759,345 L 763,338 L 763,327 L 761,320 L 751,298 L 735,274 L 718,256 L 702,244 L 692,240 Z" fill="none" stroke="black" stroke-width="1.5" stroke-linejoin="round" stroke-linecap="round"/>
<path d="M 294,243 L 287,240 L 278,240 L 269,244 L 256,253 L 235,275 L 217,303 L 209,323 L 208,336 L 209,340 L 213,346 L 216,345 L 219,337 L 229,318 L 247,291 L 257,279 L 278,258 L 293,246 Z" fill="none" stroke="black" stroke-width="1.5" stroke-linejoin="round" stroke-linecap="round"/>
<path d="M 284,200 L 285,216 L 288,218 L 299,220 L 308,225 L 313,230 L 317,230 L 326,224 L 344,215 L 373,204 L 377,204 L 380,202 L 388,201 L 392,199 L 398,199 L 409,196 L 419,196 L 426,194 L 471,194 L 476,196 L 495,196 L 501,194 L 547,194 L 554,196 L 563,196 L 574,199 L 580,199 L 588,202 L 592,202 L 596,204 L 602,205 L 605,207 L 614,209 L 629,215 L 631,217 L 633,217 L 657,230 L 666,223 L 674,219 L 682,218 L 686,216 L 686,206 L 688,200 L 688,194 L 680,189 L 678,189 L 676,187 L 672,186 L 670,184 L 655,177 L 653,177 L 644,172 L 639,171 L 621,163 L 612,161 L 605,158 L 598,157 L 595,155 L 587,154 L 584,152 L 573,151 L 566,148 L 557,148 L 547,145 L 527,144 L 523,142 L 469,141 L 468,142 L 456,142 L 455,143 L 442,144 L 441,145 L 430,145 L 421,148 L 413,148 L 412,149 L 408,149 L 405,151 L 384,155 L 378,158 L 374,158 L 368,161 L 356,164 L 351,167 L 341,170 L 316,182 L 314,182 L 312,184 L 290,195 Z" fill="none" stroke="black" stroke-width="1.5" stroke-linejoin="round" stroke-linecap="round"/>
</svg>