<svg xmlns="http://www.w3.org/2000/svg" width="1024" height="1024" viewBox="0 0 1024 1024">
<path d="M 628,474 L 627,475 L 623,475 L 617,478 L 606,490 L 603,495 L 598,509 L 598,524 L 597,525 L 598,527 L 598,540 L 601,553 L 610,569 L 619,576 L 625,578 L 627,580 L 636,581 L 653,573 L 662,563 L 670,544 L 671,534 L 672,533 L 672,518 L 670,513 L 670,507 L 668,499 L 659,485 L 647,475 L 643,474 Z M 615,487 L 626,487 L 632,489 L 638,495 L 640,499 L 641,507 L 640,508 L 639,517 L 630,526 L 623,528 L 614,527 L 606,521 L 602,512 L 602,502 L 606,494 L 611,489 Z M 410,473 L 409,474 L 401,475 L 393,481 L 389,486 L 379,506 L 377,527 L 378,528 L 378,537 L 379,538 L 380,546 L 384,558 L 388,565 L 393,571 L 400,576 L 409,580 L 417,581 L 428,577 L 435,572 L 440,567 L 448,553 L 452,537 L 452,510 L 450,506 L 449,499 L 445,491 L 440,486 L 437,481 L 427,475 L 424,475 L 420,473 Z M 396,487 L 404,486 L 413,489 L 418,494 L 422,502 L 422,514 L 420,518 L 414,525 L 406,528 L 398,528 L 391,525 L 386,520 L 383,512 L 383,501 L 385,496 L 389,491 Z M 511,131 L 510,132 L 494,132 L 493,133 L 476,134 L 471,136 L 465,136 L 455,140 L 441,142 L 426,148 L 416,150 L 414,152 L 409,153 L 404,156 L 401,156 L 386,164 L 380,166 L 378,168 L 355,180 L 332,196 L 318,208 L 296,230 L 282,246 L 259,281 L 243,315 L 237,332 L 235,343 L 232,351 L 232,355 L 229,366 L 229,372 L 226,384 L 226,391 L 225,392 L 225,434 L 226,435 L 227,450 L 217,456 L 210,463 L 208,467 L 206,475 L 206,482 L 208,489 L 204,493 L 200,494 L 183,506 L 161,529 L 152,543 L 146,555 L 137,579 L 130,609 L 129,636 L 128,638 L 129,639 L 130,668 L 131,669 L 135,693 L 137,698 L 137,702 L 146,732 L 149,737 L 157,742 L 317,742 L 325,737 L 327,721 L 329,719 L 332,719 L 348,737 L 378,761 L 387,765 L 390,768 L 407,777 L 409,777 L 438,790 L 450,793 L 452,795 L 452,808 L 457,820 L 464,827 L 464,843 L 467,850 L 471,855 L 476,858 L 483,859 L 492,863 L 504,864 L 505,865 L 544,865 L 545,864 L 555,863 L 561,860 L 571,858 L 581,849 L 583,842 L 583,830 L 582,827 L 589,820 L 592,815 L 594,808 L 594,794 L 597,791 L 604,790 L 619,785 L 631,779 L 636,778 L 642,774 L 657,767 L 659,765 L 667,762 L 700,737 L 717,719 L 720,718 L 723,721 L 724,735 L 729,741 L 732,742 L 793,742 L 794,741 L 888,742 L 889,741 L 893,741 L 898,738 L 902,732 L 903,726 L 909,712 L 913,691 L 914,690 L 914,686 L 915,685 L 915,681 L 916,680 L 916,676 L 917,675 L 918,659 L 919,658 L 919,617 L 918,616 L 918,608 L 916,602 L 916,597 L 911,576 L 907,567 L 905,559 L 895,539 L 887,527 L 868,507 L 857,498 L 844,490 L 843,488 L 845,482 L 845,476 L 844,475 L 844,470 L 841,463 L 836,457 L 829,452 L 825,451 L 821,447 L 821,439 L 822,438 L 822,431 L 823,430 L 823,388 L 822,387 L 822,378 L 821,377 L 819,357 L 810,321 L 790,277 L 762,237 L 734,208 L 711,189 L 690,175 L 676,167 L 669,165 L 657,159 L 655,157 L 650,156 L 643,152 L 634,149 L 623,147 L 621,145 L 615,144 L 609,141 L 604,141 L 583,135 L 577,135 L 570,133 L 561,133 L 560,132 L 548,132 L 547,131 Z M 480,838 L 481,830 L 485,826 L 491,826 L 503,830 L 515,831 L 516,832 L 532,832 L 543,829 L 548,829 L 556,826 L 560,826 L 563,827 L 566,830 L 567,833 L 566,838 L 559,844 L 547,848 L 525,849 L 524,850 L 520,850 L 519,849 L 503,849 L 502,848 L 494,847 L 486,844 Z M 468,801 L 471,798 L 474,798 L 478,800 L 491,800 L 492,801 L 502,801 L 503,802 L 511,802 L 512,803 L 533,803 L 534,802 L 542,802 L 543,801 L 576,798 L 578,800 L 578,803 L 575,809 L 569,815 L 563,819 L 555,820 L 532,827 L 516,828 L 510,826 L 505,826 L 494,821 L 490,821 L 479,817 L 471,809 Z M 263,522 L 267,525 L 267,533 L 266,535 L 267,536 L 267,549 L 268,550 L 268,564 L 269,565 L 270,583 L 271,584 L 273,600 L 275,605 L 275,610 L 278,618 L 275,621 L 267,619 L 266,620 L 262,619 L 242,601 L 235,586 L 232,574 L 233,559 L 241,540 L 247,532 Z M 789,521 L 796,525 L 803,531 L 811,541 L 817,553 L 817,556 L 819,560 L 819,576 L 817,584 L 810,598 L 789,617 L 777,620 L 774,616 L 779,598 L 779,594 L 781,590 L 783,575 L 784,574 L 784,567 L 785,566 L 785,544 L 786,543 L 786,528 L 785,525 Z M 837,504 L 858,522 L 867,531 L 877,544 L 887,561 L 887,563 L 894,578 L 899,595 L 899,599 L 902,610 L 902,618 L 903,619 L 903,655 L 902,656 L 902,664 L 901,665 L 901,671 L 900,672 L 897,691 L 889,721 L 887,723 L 751,723 L 750,724 L 744,724 L 740,720 L 742,706 L 743,705 L 744,684 L 753,671 L 756,663 L 760,657 L 766,640 L 770,637 L 773,638 L 782,637 L 795,633 L 800,629 L 807,626 L 823,611 L 832,596 L 837,575 L 836,556 L 832,542 L 829,536 L 821,525 L 816,521 L 814,516 L 817,513 L 832,504 Z M 216,504 L 219,504 L 233,512 L 237,516 L 237,519 L 224,534 L 218,547 L 217,555 L 216,556 L 216,581 L 221,599 L 231,615 L 237,621 L 249,630 L 265,638 L 282,639 L 286,642 L 287,648 L 291,658 L 300,676 L 310,689 L 310,714 L 311,715 L 311,721 L 308,724 L 302,724 L 301,723 L 295,723 L 294,724 L 288,724 L 287,723 L 284,724 L 252,724 L 251,723 L 243,723 L 240,724 L 239,723 L 234,723 L 233,724 L 167,724 L 166,725 L 162,725 L 158,719 L 157,711 L 156,710 L 156,703 L 154,699 L 151,683 L 149,679 L 148,667 L 147,666 L 147,655 L 146,654 L 147,615 L 148,614 L 149,603 L 153,586 L 159,570 L 169,550 L 180,534 L 195,519 Z M 823,467 L 827,472 L 829,481 L 828,485 L 822,491 L 817,493 L 811,498 L 798,503 L 791,503 L 785,498 L 783,492 L 783,484 L 785,479 L 789,475 L 795,473 L 809,465 L 819,465 Z M 224,473 L 230,467 L 234,465 L 239,465 L 240,464 L 243,465 L 246,468 L 263,476 L 266,479 L 270,488 L 268,497 L 261,504 L 251,504 L 244,500 L 239,499 L 224,487 L 222,482 L 222,478 Z M 576,332 L 579,335 L 591,360 L 605,380 L 636,411 L 639,412 L 642,415 L 651,420 L 655,424 L 660,426 L 667,431 L 703,449 L 711,451 L 725,457 L 729,457 L 737,460 L 741,460 L 746,462 L 752,462 L 753,463 L 764,463 L 768,468 L 768,488 L 769,489 L 770,511 L 771,512 L 771,533 L 770,534 L 769,559 L 768,560 L 768,566 L 767,567 L 764,591 L 759,605 L 754,625 L 751,630 L 745,646 L 734,668 L 727,679 L 705,706 L 679,731 L 661,745 L 653,748 L 630,762 L 623,764 L 608,771 L 596,774 L 583,780 L 568,781 L 567,782 L 558,783 L 548,786 L 542,786 L 541,787 L 504,787 L 503,786 L 497,786 L 492,784 L 476,782 L 470,780 L 459,780 L 451,775 L 446,774 L 440,771 L 433,770 L 422,764 L 420,764 L 401,754 L 377,739 L 343,706 L 318,672 L 299,631 L 297,619 L 293,607 L 291,595 L 289,591 L 287,575 L 286,574 L 286,568 L 285,567 L 285,557 L 284,556 L 284,513 L 285,512 L 285,501 L 286,500 L 286,490 L 287,489 L 289,461 L 291,459 L 322,460 L 323,459 L 337,459 L 338,458 L 363,456 L 381,450 L 393,448 L 409,443 L 417,442 L 423,440 L 427,437 L 457,426 L 476,415 L 489,409 L 509,395 L 512,394 L 520,387 L 523,386 L 528,381 L 533,378 L 559,352 L 573,332 Z M 243,384 L 244,383 L 244,378 L 245,377 L 250,348 L 253,342 L 254,336 L 260,319 L 273,293 L 286,272 L 293,264 L 298,256 L 313,239 L 342,212 L 370,192 L 383,186 L 392,180 L 434,162 L 437,162 L 447,158 L 455,157 L 460,155 L 464,155 L 470,153 L 477,153 L 478,152 L 483,152 L 496,149 L 502,149 L 503,148 L 543,147 L 544,148 L 562,149 L 563,150 L 581,152 L 582,153 L 587,153 L 588,154 L 601,156 L 605,158 L 615,160 L 618,162 L 623,163 L 631,167 L 645,171 L 652,175 L 654,175 L 669,184 L 678,188 L 692,197 L 714,214 L 741,240 L 766,272 L 775,287 L 790,318 L 799,345 L 803,367 L 804,368 L 805,378 L 806,379 L 806,386 L 807,387 L 807,424 L 806,425 L 805,442 L 803,449 L 797,453 L 792,453 L 784,458 L 782,458 L 779,455 L 779,453 L 772,447 L 757,446 L 756,445 L 751,445 L 750,444 L 745,444 L 741,442 L 737,442 L 731,439 L 710,433 L 683,419 L 679,418 L 662,408 L 640,391 L 620,370 L 607,353 L 602,342 L 594,330 L 585,304 L 580,302 L 575,302 L 571,304 L 556,327 L 524,361 L 506,377 L 485,391 L 454,407 L 452,409 L 443,412 L 429,419 L 406,427 L 399,428 L 376,435 L 372,435 L 361,438 L 346,439 L 334,442 L 327,442 L 326,443 L 294,443 L 293,442 L 284,442 L 277,447 L 274,452 L 274,457 L 271,460 L 269,460 L 262,456 L 253,454 L 245,447 L 245,442 L 243,435 L 243,422 L 242,421 L 242,393 L 243,392 Z" fill="#161614" stroke="none" fill-rule="evenodd"/>
<path d="M 597,683 L 591,676 L 587,675 L 572,685 L 562,690 L 548,695 L 534,697 L 533,698 L 510,698 L 509,697 L 504,697 L 496,695 L 475,686 L 460,676 L 456,677 L 451,682 L 450,686 L 456,693 L 465,699 L 486,709 L 512,715 L 532,715 L 533,714 L 540,714 L 553,711 L 571,704 L 584,697 L 594,690 L 597,686 Z M 597,683 L 597,686 L 591,692 L 571,704 L 553,711 L 540,714 L 533,714 L 532,715 L 512,715 L 486,709 L 465,699 L 455,692 L 450,686 L 452,681 L 458,676 L 460,676 L 475,686 L 496,695 L 504,697 L 509,697 L 510,698 L 533,698 L 534,697 L 548,695 L 562,690 L 572,685 L 587,675 L 592,677 Z M 521,574 L 517,578 L 515,582 L 515,586 L 517,590 L 521,594 L 529,594 L 534,587 L 534,581 L 529,575 Z M 216,508 L 197,522 L 179,541 L 170,555 L 162,571 L 153,600 L 153,605 L 152,606 L 151,620 L 150,621 L 150,657 L 151,658 L 151,667 L 152,668 L 153,680 L 160,705 L 160,710 L 162,714 L 162,718 L 163,720 L 297,720 L 298,719 L 307,720 L 306,689 L 296,676 L 287,657 L 283,644 L 282,643 L 273,643 L 272,642 L 263,641 L 251,635 L 239,627 L 227,615 L 222,608 L 217,598 L 212,577 L 213,553 L 215,545 L 220,534 L 224,528 L 234,518 L 223,510 L 219,508 Z M 835,507 L 833,507 L 818,516 L 818,518 L 827,527 L 831,533 L 836,543 L 840,558 L 841,572 L 840,573 L 839,585 L 835,598 L 828,610 L 813,626 L 791,638 L 785,640 L 770,641 L 769,642 L 768,647 L 762,658 L 760,665 L 751,681 L 747,686 L 746,709 L 744,716 L 745,720 L 750,720 L 751,719 L 782,719 L 783,720 L 885,719 L 887,716 L 893,693 L 896,673 L 897,672 L 897,667 L 898,666 L 898,660 L 899,659 L 900,626 L 899,625 L 899,615 L 898,614 L 896,598 L 893,586 L 885,565 L 874,545 L 867,536 L 849,518 Z M 227,473 L 225,477 L 225,483 L 228,488 L 238,495 L 251,501 L 261,501 L 265,497 L 267,491 L 267,487 L 265,482 L 260,477 L 251,474 L 242,468 L 234,468 Z M 226,475 L 234,468 L 242,468 L 247,472 L 253,475 L 258,476 L 266,484 L 266,495 L 265,497 L 260,501 L 252,501 L 240,496 L 237,493 L 232,491 L 226,485 L 225,483 Z M 246,390 L 246,428 L 247,429 L 247,436 L 248,437 L 249,446 L 251,448 L 267,455 L 270,455 L 270,452 L 272,448 L 278,441 L 285,438 L 288,439 L 326,439 L 327,438 L 334,438 L 335,437 L 361,434 L 362,433 L 369,433 L 388,427 L 400,425 L 409,421 L 416,420 L 431,413 L 446,408 L 471,395 L 476,391 L 485,387 L 497,379 L 519,361 L 541,339 L 555,323 L 562,311 L 572,299 L 580,298 L 584,299 L 588,302 L 595,324 L 608,348 L 619,364 L 644,390 L 670,409 L 695,422 L 697,422 L 716,431 L 749,441 L 768,442 L 775,444 L 783,453 L 785,453 L 789,450 L 797,448 L 800,446 L 801,438 L 802,437 L 802,428 L 803,427 L 803,404 L 804,400 L 803,399 L 802,377 L 801,376 L 799,360 L 795,344 L 787,320 L 782,310 L 782,308 L 766,278 L 751,257 L 730,233 L 716,220 L 696,204 L 676,191 L 665,186 L 652,178 L 605,161 L 584,157 L 583,156 L 576,156 L 563,153 L 546,152 L 545,151 L 504,152 L 497,154 L 467,157 L 439,164 L 420,172 L 415,173 L 390,185 L 388,187 L 370,196 L 350,210 L 313,244 L 300,259 L 282,284 L 279,291 L 273,300 L 261,326 L 251,359 L 249,376 L 247,383 L 247,389 Z" fill="#bd7e37" stroke="none" fill-rule="evenodd"/>
<path d="M 574,801 L 567,803 L 559,803 L 558,804 L 546,805 L 545,806 L 537,806 L 536,807 L 510,807 L 509,806 L 498,806 L 491,804 L 482,804 L 475,802 L 472,802 L 472,804 L 477,811 L 486,816 L 514,823 L 524,824 L 525,823 L 531,823 L 560,816 L 567,812 L 573,806 Z M 261,527 L 252,533 L 245,540 L 242,545 L 236,563 L 236,574 L 241,592 L 245,599 L 259,612 L 267,616 L 273,617 L 271,603 L 267,588 L 265,564 L 264,563 L 263,527 Z M 791,526 L 789,526 L 790,538 L 789,539 L 789,565 L 788,566 L 788,573 L 786,579 L 785,589 L 782,598 L 782,602 L 778,615 L 782,615 L 792,610 L 806,597 L 810,591 L 815,577 L 815,559 L 811,548 L 804,537 Z M 576,336 L 573,337 L 562,353 L 527,387 L 492,411 L 458,429 L 415,446 L 411,446 L 399,450 L 387,452 L 366,459 L 351,460 L 350,461 L 343,461 L 342,462 L 333,462 L 332,463 L 296,463 L 294,462 L 292,464 L 292,476 L 290,484 L 289,506 L 288,507 L 288,562 L 289,563 L 292,587 L 303,630 L 311,650 L 321,670 L 331,685 L 335,689 L 336,692 L 350,709 L 379,736 L 394,746 L 419,760 L 462,776 L 473,777 L 474,778 L 479,778 L 480,779 L 485,779 L 498,782 L 520,783 L 521,784 L 525,783 L 528,784 L 530,783 L 541,783 L 542,782 L 549,782 L 550,781 L 555,781 L 556,780 L 572,778 L 573,777 L 579,777 L 624,761 L 638,754 L 648,747 L 659,742 L 681,725 L 709,697 L 725,676 L 733,663 L 747,633 L 753,617 L 753,614 L 759,596 L 762,578 L 763,577 L 763,570 L 764,569 L 765,555 L 766,554 L 766,545 L 767,544 L 767,504 L 766,503 L 765,483 L 764,482 L 764,467 L 756,467 L 755,466 L 749,466 L 748,465 L 734,463 L 697,450 L 691,446 L 680,442 L 673,437 L 662,432 L 636,415 L 602,381 L 585,356 Z M 598,683 L 598,686 L 594,691 L 579,701 L 553,712 L 540,715 L 533,715 L 532,716 L 512,716 L 486,710 L 465,700 L 456,694 L 449,686 L 450,682 L 456,676 L 460,675 L 475,685 L 496,694 L 504,696 L 509,696 L 510,697 L 533,697 L 534,696 L 548,694 L 562,689 L 572,684 L 587,674 L 591,675 Z M 521,573 L 529,574 L 535,581 L 535,587 L 533,591 L 529,595 L 521,595 L 516,590 L 514,586 L 514,582 L 516,578 Z M 629,470 L 642,470 L 648,472 L 661,482 L 671,498 L 674,509 L 675,522 L 676,523 L 674,542 L 667,561 L 657,574 L 648,580 L 637,584 L 628,584 L 618,579 L 607,570 L 598,554 L 594,537 L 594,513 L 595,512 L 596,504 L 601,492 L 606,485 L 616,475 Z M 411,469 L 420,469 L 435,475 L 447,488 L 452,498 L 456,512 L 456,535 L 455,536 L 455,541 L 453,549 L 449,559 L 439,573 L 433,578 L 419,584 L 410,584 L 397,578 L 389,571 L 383,563 L 379,554 L 375,539 L 375,533 L 374,532 L 375,509 L 378,500 L 384,488 L 388,482 L 397,474 L 403,471 Z" fill="#edc38c" stroke="none" fill-rule="evenodd"/>
<path d="M 789,523 L 788,524 L 788,545 L 787,546 L 786,574 L 784,580 L 783,590 L 780,599 L 780,603 L 777,612 L 777,617 L 781,617 L 790,613 L 796,609 L 809,596 L 814,586 L 817,576 L 817,560 L 815,553 L 810,543 L 805,536 L 797,528 Z M 791,524 L 801,532 L 810,543 L 815,553 L 817,560 L 817,576 L 814,586 L 807,598 L 793,611 L 781,617 L 779,617 L 777,615 L 777,612 L 782,595 L 784,580 L 786,574 L 786,568 L 787,567 L 788,526 Z M 215,507 L 196,521 L 182,535 L 167,558 L 155,587 L 152,599 L 150,617 L 149,618 L 148,648 L 149,649 L 149,661 L 150,662 L 151,677 L 159,706 L 159,711 L 161,719 L 163,722 L 168,722 L 169,721 L 308,721 L 309,720 L 308,717 L 308,691 L 307,688 L 298,677 L 287,654 L 284,643 L 283,642 L 275,642 L 274,641 L 264,640 L 245,630 L 227,613 L 220,602 L 214,583 L 214,576 L 213,575 L 214,554 L 216,546 L 222,533 L 234,520 L 235,517 L 220,507 Z M 216,507 L 219,507 L 231,514 L 235,518 L 225,528 L 221,534 L 216,545 L 214,553 L 213,577 L 218,598 L 225,611 L 239,626 L 251,634 L 263,640 L 272,641 L 273,642 L 282,642 L 284,644 L 288,657 L 297,676 L 307,689 L 308,719 L 306,721 L 302,721 L 301,720 L 297,721 L 164,721 L 161,718 L 161,714 L 159,710 L 159,705 L 152,680 L 151,668 L 150,667 L 150,658 L 149,657 L 149,621 L 150,620 L 150,613 L 151,612 L 151,606 L 152,605 L 152,600 L 161,571 L 169,555 L 178,541 L 197,521 Z M 836,506 L 831,507 L 817,516 L 818,520 L 827,529 L 832,537 L 837,550 L 837,554 L 839,560 L 839,578 L 834,597 L 828,608 L 811,626 L 793,636 L 783,639 L 769,640 L 768,641 L 767,646 L 759,662 L 759,664 L 752,677 L 746,685 L 746,695 L 745,696 L 745,707 L 744,708 L 743,721 L 885,721 L 887,719 L 894,694 L 894,690 L 898,674 L 898,669 L 899,668 L 900,650 L 901,649 L 901,623 L 900,622 L 900,613 L 899,612 L 899,606 L 896,596 L 896,592 L 886,564 L 874,543 L 866,533 L 855,522 Z M 835,506 L 849,517 L 868,536 L 875,545 L 886,565 L 894,586 L 898,607 L 899,608 L 899,614 L 900,615 L 901,645 L 900,646 L 900,659 L 899,660 L 897,678 L 888,716 L 885,720 L 830,720 L 829,721 L 826,720 L 824,721 L 751,720 L 750,721 L 745,721 L 743,719 L 743,716 L 745,709 L 746,686 L 757,669 L 761,658 L 765,652 L 768,642 L 770,640 L 779,640 L 791,637 L 810,627 L 827,610 L 834,598 L 839,580 L 839,573 L 840,572 L 839,558 L 835,543 L 830,533 L 817,517 L 826,510 L 833,506 Z M 612,490 L 608,494 L 604,501 L 604,513 L 607,520 L 614,525 L 617,526 L 628,525 L 633,522 L 638,515 L 639,511 L 638,499 L 636,495 L 632,491 L 626,489 L 615,489 Z M 615,489 L 626,489 L 632,491 L 636,495 L 638,499 L 638,503 L 639,504 L 638,514 L 636,518 L 628,525 L 624,526 L 614,525 L 605,516 L 604,513 L 604,501 L 609,493 Z M 409,489 L 405,488 L 396,489 L 392,491 L 386,498 L 385,501 L 385,513 L 388,520 L 394,525 L 397,526 L 407,526 L 410,525 L 416,521 L 420,514 L 421,509 L 420,508 L 419,499 L 416,494 Z M 394,490 L 397,489 L 409,489 L 414,492 L 419,499 L 420,502 L 420,513 L 419,516 L 410,525 L 406,526 L 394,525 L 386,516 L 385,513 L 385,501 L 387,496 Z M 245,388 L 245,431 L 247,439 L 247,446 L 251,450 L 263,454 L 268,457 L 271,457 L 273,449 L 282,440 L 302,440 L 303,441 L 330,440 L 343,437 L 365,435 L 401,426 L 411,422 L 417,421 L 442,410 L 449,408 L 453,405 L 457,404 L 470,396 L 479,392 L 505,375 L 513,367 L 521,361 L 541,341 L 558,321 L 567,306 L 573,300 L 577,299 L 578,300 L 583,300 L 587,303 L 596,329 L 598,331 L 609,352 L 620,367 L 642,390 L 671,411 L 705,428 L 718,433 L 721,433 L 724,435 L 733,437 L 736,439 L 753,443 L 764,443 L 765,444 L 774,445 L 781,452 L 782,455 L 785,455 L 791,451 L 799,449 L 802,446 L 803,432 L 804,431 L 804,418 L 805,417 L 805,393 L 804,392 L 804,382 L 803,381 L 801,364 L 796,343 L 788,319 L 772,286 L 766,276 L 741,243 L 719,221 L 707,211 L 682,193 L 653,177 L 610,161 L 594,157 L 590,157 L 585,155 L 571,154 L 570,153 L 551,151 L 550,150 L 509,150 L 508,151 L 501,151 L 500,152 L 487,153 L 480,155 L 466,156 L 435,164 L 432,166 L 412,173 L 391,183 L 389,185 L 371,194 L 344,213 L 318,237 L 305,251 L 290,270 L 275,294 L 263,318 L 256,337 L 256,340 L 252,350 L 249,362 L 249,368 L 248,369 L 248,374 L 246,380 L 246,387 Z M 245,390 L 246,389 L 246,383 L 247,382 L 250,359 L 260,326 L 265,316 L 265,314 L 281,284 L 299,259 L 312,244 L 345,213 L 370,195 L 388,186 L 390,184 L 408,175 L 439,163 L 467,156 L 497,153 L 504,151 L 545,150 L 546,151 L 563,152 L 576,155 L 583,155 L 584,156 L 605,160 L 652,177 L 665,185 L 676,190 L 696,203 L 716,219 L 731,233 L 744,247 L 767,278 L 774,292 L 776,294 L 776,296 L 781,304 L 788,320 L 796,344 L 800,360 L 802,376 L 803,377 L 804,399 L 805,400 L 804,404 L 804,427 L 803,428 L 803,437 L 802,438 L 801,446 L 797,449 L 789,451 L 785,454 L 783,454 L 775,445 L 768,443 L 755,443 L 754,442 L 749,442 L 737,439 L 734,437 L 725,435 L 706,428 L 670,410 L 644,391 L 618,364 L 607,348 L 604,341 L 598,332 L 592,319 L 592,316 L 587,302 L 580,299 L 572,300 L 563,311 L 556,323 L 542,339 L 519,362 L 497,380 L 485,388 L 476,392 L 471,396 L 446,409 L 441,410 L 416,421 L 409,422 L 400,426 L 388,428 L 369,434 L 362,434 L 361,435 L 355,435 L 354,436 L 348,436 L 347,437 L 341,437 L 340,438 L 327,439 L 326,440 L 288,440 L 285,439 L 278,442 L 273,448 L 271,454 L 269,456 L 267,456 L 251,449 L 248,446 L 247,437 L 246,436 L 246,429 L 245,428 Z" fill="#796146" stroke="none" fill-rule="evenodd"/>
<path d="M 596,683 L 592,678 L 587,676 L 572,686 L 562,691 L 548,696 L 534,698 L 533,699 L 510,699 L 509,698 L 504,698 L 496,696 L 475,687 L 460,677 L 455,679 L 451,684 L 451,686 L 455,691 L 465,698 L 486,708 L 512,714 L 532,714 L 533,713 L 540,713 L 553,710 L 571,703 L 591,691 L 596,686 Z" fill="#ce2e2a" stroke="none" fill-rule="evenodd"/>
<path d="M 837,505 L 832,505 L 815,516 L 817,521 L 822,525 L 830,536 L 833,542 L 837,556 L 838,575 L 833,596 L 824,611 L 807,627 L 800,630 L 795,634 L 786,637 L 776,638 L 775,639 L 770,638 L 767,640 L 761,657 L 759,659 L 754,671 L 745,684 L 744,705 L 741,717 L 741,720 L 744,723 L 750,723 L 751,722 L 887,722 L 888,721 L 896,691 L 896,687 L 900,671 L 901,656 L 902,655 L 902,619 L 901,618 L 901,610 L 900,609 L 898,595 L 893,578 L 886,563 L 886,561 L 876,544 L 866,531 Z M 836,505 L 855,521 L 867,533 L 875,543 L 887,564 L 897,592 L 897,596 L 900,606 L 900,612 L 901,613 L 901,622 L 902,623 L 902,649 L 901,650 L 901,661 L 900,662 L 899,674 L 898,675 L 895,694 L 888,719 L 885,722 L 744,722 L 742,720 L 742,715 L 744,707 L 745,685 L 755,670 L 764,651 L 767,641 L 769,639 L 777,639 L 793,635 L 808,627 L 822,614 L 829,605 L 833,597 L 838,578 L 838,560 L 837,559 L 836,550 L 831,537 L 826,529 L 817,520 L 816,516 L 831,506 Z M 216,505 L 195,520 L 181,534 L 170,550 L 160,570 L 154,586 L 150,603 L 149,614 L 148,615 L 147,654 L 148,655 L 148,666 L 149,667 L 150,679 L 152,683 L 153,692 L 157,703 L 157,710 L 158,711 L 159,719 L 162,724 L 166,724 L 167,723 L 233,723 L 234,722 L 239,722 L 240,723 L 243,722 L 251,722 L 252,723 L 284,723 L 285,722 L 294,723 L 295,722 L 301,722 L 302,723 L 308,723 L 310,722 L 310,715 L 309,714 L 309,689 L 299,676 L 290,658 L 286,648 L 285,642 L 282,640 L 265,639 L 249,631 L 237,622 L 230,615 L 220,599 L 215,581 L 215,556 L 216,555 L 217,547 L 223,534 L 236,519 L 236,515 L 219,505 Z M 215,506 L 220,506 L 233,514 L 236,517 L 235,520 L 223,533 L 217,546 L 215,554 L 214,575 L 215,576 L 216,587 L 221,602 L 228,613 L 245,629 L 264,639 L 274,640 L 275,641 L 283,641 L 285,643 L 291,661 L 299,677 L 308,688 L 309,691 L 309,717 L 310,720 L 308,722 L 169,722 L 168,723 L 163,723 L 160,719 L 158,711 L 158,706 L 150,677 L 149,662 L 148,661 L 148,649 L 147,648 L 148,618 L 149,617 L 149,611 L 150,610 L 151,599 L 154,587 L 166,558 L 181,535 L 196,520 Z M 225,473 L 223,478 L 223,482 L 225,487 L 239,498 L 244,499 L 251,503 L 261,503 L 267,497 L 269,488 L 267,482 L 263,477 L 253,472 L 251,472 L 243,466 L 240,465 L 239,466 L 234,466 L 230,468 Z M 225,473 L 234,466 L 242,466 L 249,471 L 261,476 L 268,484 L 269,490 L 267,497 L 260,503 L 252,503 L 238,497 L 225,487 L 223,481 Z M 243,393 L 243,421 L 244,422 L 244,435 L 245,436 L 246,447 L 251,452 L 262,455 L 269,459 L 272,459 L 274,450 L 280,443 L 284,441 L 293,441 L 294,442 L 326,442 L 327,441 L 334,441 L 346,438 L 367,436 L 372,434 L 388,431 L 392,429 L 395,429 L 418,422 L 421,420 L 436,415 L 443,411 L 450,409 L 454,406 L 480,393 L 506,376 L 540,344 L 555,327 L 568,307 L 573,302 L 580,301 L 584,302 L 586,304 L 595,330 L 603,342 L 608,353 L 621,370 L 640,390 L 662,407 L 679,417 L 683,418 L 710,432 L 716,433 L 737,441 L 741,441 L 745,443 L 750,443 L 757,445 L 772,446 L 780,453 L 781,457 L 784,457 L 792,452 L 797,452 L 802,449 L 804,442 L 805,425 L 806,424 L 806,387 L 805,386 L 805,379 L 804,378 L 803,368 L 802,367 L 798,345 L 789,318 L 774,287 L 765,272 L 740,240 L 714,215 L 692,198 L 678,189 L 669,185 L 654,176 L 652,176 L 645,172 L 631,168 L 615,161 L 605,159 L 601,157 L 588,155 L 587,154 L 582,154 L 581,153 L 563,151 L 562,150 L 544,149 L 543,148 L 503,149 L 502,150 L 496,150 L 495,151 L 460,156 L 455,158 L 447,159 L 437,163 L 434,163 L 392,181 L 383,187 L 370,193 L 342,213 L 323,230 L 299,256 L 294,264 L 287,272 L 274,293 L 261,319 L 255,336 L 254,342 L 251,348 L 248,361 L 247,372 L 245,378 L 245,383 L 244,384 L 244,392 Z M 244,388 L 245,387 L 245,380 L 248,368 L 248,362 L 251,350 L 255,340 L 255,337 L 262,318 L 274,294 L 289,270 L 304,251 L 318,236 L 344,212 L 378,189 L 412,172 L 432,165 L 435,163 L 466,155 L 480,154 L 481,153 L 500,151 L 501,150 L 508,150 L 509,149 L 550,149 L 551,150 L 558,150 L 571,153 L 585,154 L 590,156 L 594,156 L 610,160 L 653,176 L 682,192 L 707,210 L 719,220 L 742,243 L 767,276 L 773,286 L 789,319 L 797,343 L 802,364 L 802,369 L 805,382 L 805,392 L 806,393 L 806,417 L 805,418 L 805,431 L 804,432 L 803,446 L 799,450 L 791,452 L 785,456 L 783,456 L 774,446 L 765,445 L 764,444 L 753,444 L 736,440 L 733,438 L 724,436 L 721,434 L 718,434 L 705,429 L 671,412 L 642,391 L 619,367 L 608,352 L 597,331 L 595,329 L 586,303 L 583,301 L 578,301 L 577,300 L 573,301 L 568,306 L 559,321 L 542,341 L 521,362 L 513,368 L 505,376 L 479,393 L 470,397 L 463,402 L 453,406 L 449,409 L 442,411 L 425,419 L 401,427 L 365,436 L 350,437 L 349,438 L 343,438 L 330,441 L 319,441 L 318,442 L 282,441 L 276,446 L 273,451 L 272,456 L 270,458 L 268,458 L 263,455 L 251,451 L 246,446 L 246,439 L 244,431 Z" fill="#403428" stroke="none" fill-rule="evenodd"/>
<path d="M 484,832 L 485,839 L 490,842 L 502,845 L 518,845 L 519,846 L 548,844 L 561,839 L 563,836 L 563,833 L 561,830 L 554,830 L 535,835 L 505,834 L 489,829 L 487,829 Z M 227,475 L 226,477 L 227,485 L 232,490 L 237,492 L 240,495 L 252,500 L 260,500 L 264,497 L 265,495 L 265,484 L 258,477 L 253,476 L 242,469 L 234,469 Z M 823,473 L 819,469 L 812,468 L 797,476 L 791,478 L 787,483 L 787,492 L 789,497 L 791,499 L 798,499 L 804,497 L 820,488 L 825,482 Z" fill="#e3d01a" stroke="none" fill-rule="evenodd"/>
<path d="M 511,129 L 510,130 L 489,131 L 488,132 L 479,132 L 472,134 L 466,134 L 458,137 L 438,141 L 432,144 L 420,148 L 417,148 L 404,154 L 396,156 L 372,168 L 348,182 L 324,200 L 297,226 L 275,252 L 262,272 L 247,301 L 247,303 L 240,318 L 232,344 L 231,352 L 228,362 L 227,372 L 226,373 L 225,385 L 224,386 L 224,396 L 223,397 L 223,426 L 224,427 L 224,440 L 226,447 L 223,451 L 215,455 L 209,461 L 205,471 L 205,486 L 206,488 L 203,491 L 198,493 L 185,502 L 167,519 L 154,536 L 145,553 L 135,580 L 129,605 L 128,623 L 127,624 L 127,653 L 128,654 L 128,664 L 129,665 L 130,678 L 132,683 L 132,687 L 138,713 L 143,726 L 144,732 L 148,739 L 152,742 L 160,743 L 161,744 L 162,743 L 248,743 L 249,744 L 256,744 L 257,743 L 258,744 L 260,743 L 321,743 L 327,738 L 328,735 L 328,724 L 331,721 L 354,745 L 376,762 L 405,778 L 407,778 L 414,782 L 416,782 L 438,792 L 449,795 L 451,798 L 450,799 L 450,807 L 452,814 L 456,822 L 463,830 L 462,831 L 463,846 L 466,852 L 472,858 L 480,861 L 483,861 L 489,864 L 494,864 L 500,866 L 516,867 L 517,868 L 531,868 L 532,867 L 541,867 L 542,866 L 554,865 L 575,858 L 583,849 L 584,839 L 585,838 L 584,828 L 591,821 L 594,816 L 596,808 L 596,795 L 598,793 L 604,792 L 624,785 L 631,781 L 638,779 L 669,763 L 702,738 L 718,721 L 720,721 L 722,723 L 722,735 L 724,739 L 729,743 L 894,743 L 900,739 L 904,733 L 904,730 L 908,721 L 913,704 L 913,700 L 915,695 L 918,675 L 919,674 L 919,665 L 920,664 L 921,623 L 920,622 L 919,603 L 918,602 L 914,580 L 906,556 L 898,540 L 889,526 L 870,506 L 858,496 L 846,489 L 846,482 L 847,481 L 846,470 L 842,461 L 833,452 L 827,450 L 823,446 L 824,427 L 825,426 L 825,388 L 824,387 L 823,369 L 822,368 L 819,349 L 813,325 L 805,304 L 791,275 L 778,255 L 763,235 L 736,207 L 717,191 L 692,174 L 657,156 L 615,141 L 603,139 L 599,137 L 582,133 L 558,131 L 557,130 L 548,130 L 547,129 Z" fill="none" stroke="black" stroke-width="1.5" stroke-linejoin="round" stroke-linecap="round"/>
</svg>