<svg xmlns="http://www.w3.org/2000/svg" width="512" height="512" viewBox="0 0 512 512">
<path d="M 511,422 L 490,460 L 447,511 L 511,511 Z M 0,422 L 0,511 L 65,511 L 28,469 Z M 352,262 L 340,266 L 333,272 L 349,273 Z M 132,102 L 101,124 L 67,158 L 45,190 L 23,241 L 14,289 L 15,344 L 26,388 L 46,431 L 66,459 L 91,487 L 101,476 L 109,458 L 121,446 L 118,437 L 121,434 L 125,435 L 127,433 L 122,426 L 128,420 L 132,420 L 131,413 L 134,406 L 146,397 L 138,398 L 129,394 L 124,389 L 122,380 L 126,371 L 142,360 L 146,353 L 147,327 L 151,317 L 177,282 L 213,246 L 245,221 L 265,209 L 282,202 L 287,222 L 299,243 L 299,257 L 283,276 L 284,286 L 289,296 L 287,315 L 279,323 L 264,323 L 246,310 L 240,296 L 232,286 L 228,284 L 215,285 L 205,293 L 201,302 L 202,319 L 217,350 L 213,366 L 201,375 L 190,376 L 192,387 L 183,397 L 177,398 L 159,391 L 154,391 L 151,394 L 159,392 L 190,405 L 222,426 L 268,463 L 288,473 L 265,460 L 217,421 L 184,400 L 192,389 L 193,378 L 209,372 L 216,362 L 218,351 L 222,349 L 240,357 L 247,357 L 251,361 L 251,365 L 260,379 L 259,396 L 270,408 L 277,424 L 293,436 L 299,434 L 306,438 L 299,429 L 295,435 L 290,434 L 275,420 L 271,411 L 271,404 L 264,402 L 259,394 L 261,378 L 254,371 L 252,365 L 252,350 L 248,356 L 241,357 L 220,347 L 206,328 L 201,304 L 206,294 L 213,287 L 222,284 L 231,287 L 239,296 L 241,311 L 237,314 L 233,310 L 224,315 L 222,324 L 227,329 L 238,327 L 242,331 L 242,327 L 236,325 L 233,319 L 244,310 L 266,324 L 275,325 L 286,318 L 293,304 L 303,308 L 290,298 L 284,281 L 285,274 L 295,266 L 300,255 L 298,238 L 285,215 L 285,204 L 293,196 L 316,189 L 345,187 L 351,189 L 361,202 L 365,220 L 373,233 L 374,257 L 411,311 L 409,318 L 404,322 L 382,323 L 389,323 L 396,330 L 395,339 L 390,343 L 385,343 L 391,347 L 388,359 L 400,374 L 399,390 L 406,393 L 414,403 L 415,412 L 413,415 L 418,418 L 418,423 L 411,432 L 414,439 L 410,443 L 404,443 L 406,452 L 395,456 L 398,460 L 398,465 L 393,471 L 388,472 L 384,469 L 382,462 L 378,460 L 371,461 L 367,458 L 361,458 L 350,465 L 345,465 L 314,445 L 308,463 L 309,478 L 305,480 L 290,474 L 311,483 L 332,511 L 334,511 L 310,478 L 309,465 L 311,457 L 315,450 L 319,450 L 348,469 L 376,498 L 384,503 L 388,511 L 391,511 L 398,502 L 412,493 L 434,472 L 459,440 L 484,390 L 493,357 L 497,326 L 497,290 L 494,266 L 479,216 L 463,185 L 440,153 L 404,119 L 379,102 L 352,88 L 311,75 L 274,69 L 221,71 L 173,83 Z M 349,175 L 351,179 L 349,187 L 332,186 L 308,190 L 279,201 L 245,220 L 207,250 L 182,275 L 151,316 L 145,316 L 141,312 L 139,305 L 131,299 L 129,294 L 131,279 L 157,244 L 193,207 L 235,177 L 268,161 L 289,155 L 313,152 L 328,155 L 335,164 Z M 355,121 L 365,150 L 363,155 L 349,167 L 341,167 L 329,154 L 320,152 L 300,152 L 285,155 L 254,166 L 223,183 L 202,198 L 164,234 L 135,271 L 128,286 L 128,294 L 123,299 L 107,304 L 98,301 L 91,294 L 86,279 L 86,268 L 96,226 L 120,203 L 127,190 L 152,162 L 172,150 L 193,133 L 218,118 L 249,107 L 283,110 L 295,105 L 307,104 L 327,114 L 348,115 Z M 0,0 L 0,198 L 14,171 L 42,132 L 71,102 L 99,80 L 137,58 L 170,45 L 205,36 L 234,32 L 277,32 L 321,39 L 365,54 L 400,72 L 433,96 L 466,128 L 493,164 L 511,196 L 511,0 Z" fill="#242726" stroke="none" fill-rule="evenodd"/>
<path d="M 82,511 L 183,511 L 161,498 L 135,491 L 113,492 L 90,498 Z M 316,455 L 313,464 L 315,480 L 339,511 L 384,511 L 381,505 L 345,471 L 318,454 Z M 96,487 L 115,483 L 145,484 L 180,498 L 191,506 L 194,511 L 328,511 L 309,486 L 272,470 L 204,418 L 173,401 L 159,396 L 153,397 L 137,408 L 135,422 L 126,426 L 131,432 L 130,436 L 126,439 L 122,438 L 125,447 L 112,460 L 105,476 Z M 222,353 L 215,371 L 208,377 L 196,381 L 196,389 L 189,400 L 219,418 L 275,462 L 305,475 L 304,464 L 310,446 L 301,439 L 290,439 L 275,427 L 269,419 L 266,409 L 256,399 L 256,379 L 250,372 L 247,362 L 237,360 Z M 209,296 L 205,305 L 205,311 L 213,333 L 222,344 L 242,353 L 248,351 L 246,344 L 248,339 L 254,344 L 256,349 L 256,365 L 265,378 L 263,394 L 266,399 L 275,402 L 275,412 L 284,424 L 293,431 L 298,425 L 301,425 L 304,431 L 313,437 L 318,444 L 342,460 L 350,461 L 358,455 L 367,454 L 384,459 L 388,463 L 388,468 L 394,465 L 391,455 L 397,450 L 402,450 L 400,441 L 403,438 L 410,438 L 407,432 L 414,420 L 409,418 L 412,409 L 409,401 L 395,390 L 396,374 L 385,362 L 384,358 L 387,348 L 375,349 L 373,347 L 375,342 L 392,337 L 393,333 L 389,327 L 375,327 L 367,324 L 349,352 L 344,357 L 338,358 L 326,344 L 322,335 L 321,325 L 295,308 L 289,320 L 283,326 L 275,329 L 263,327 L 244,315 L 237,320 L 246,326 L 247,331 L 242,336 L 237,331 L 227,333 L 218,324 L 220,314 L 230,308 L 227,299 L 220,299 L 215,306 L 213,316 L 211,318 L 208,315 L 207,305 L 210,297 L 218,290 L 228,290 L 221,288 Z M 280,207 L 249,223 L 227,239 L 176,289 L 152,323 L 149,356 L 141,365 L 129,373 L 126,380 L 129,390 L 138,394 L 144,394 L 153,387 L 159,387 L 180,394 L 188,387 L 186,375 L 189,372 L 201,371 L 210,364 L 213,349 L 200,325 L 197,314 L 197,302 L 202,291 L 215,281 L 227,280 L 234,283 L 242,292 L 247,305 L 265,319 L 276,320 L 281,317 L 285,310 L 286,300 L 280,285 L 279,276 L 294,259 L 296,249 L 293,238 L 281,218 Z M 328,191 L 305,196 L 289,204 L 289,215 L 301,235 L 304,255 L 300,265 L 288,277 L 288,282 L 293,296 L 298,301 L 315,310 L 328,321 L 332,338 L 341,349 L 372,302 L 379,300 L 386,305 L 383,308 L 374,310 L 373,317 L 376,319 L 400,319 L 405,317 L 407,310 L 370,257 L 369,233 L 361,220 L 355,198 L 346,191 Z M 360,261 L 355,265 L 354,273 L 350,277 L 330,276 L 327,273 L 335,265 L 348,258 L 355,257 Z M 367,245 L 363,252 L 340,251 L 325,263 L 320,264 L 318,262 L 320,256 L 337,243 L 358,241 Z M 346,177 L 334,168 L 326,158 L 309,156 L 271,164 L 239,179 L 200,206 L 165,240 L 136,278 L 133,285 L 134,297 L 142,303 L 147,313 L 150,312 L 178,274 L 205,247 L 237,221 L 263,205 L 288,193 L 323,183 L 347,183 Z M 352,123 L 345,118 L 327,118 L 308,108 L 298,108 L 282,114 L 254,110 L 218,122 L 195,136 L 174,153 L 155,164 L 130,192 L 123,205 L 98,230 L 95,251 L 90,266 L 90,281 L 97,296 L 106,300 L 112,300 L 121,296 L 124,293 L 124,286 L 130,272 L 161,232 L 200,195 L 238,170 L 268,156 L 301,148 L 326,149 L 331,151 L 340,162 L 344,164 L 350,162 L 361,151 Z" fill="#77d1e5" stroke="none" fill-rule="evenodd"/>
<path d="M 511,395 L 493,435 L 479,458 L 456,487 L 432,511 L 457,488 L 480,459 L 503,418 L 511,400 Z M 109,105 L 79,130 L 52,161 L 27,203 L 16,230 L 9,255 L 5,278 L 3,314 L 6,348 L 12,376 L 25,412 L 40,440 L 57,464 L 84,493 L 78,504 L 75,506 L 40,469 L 18,435 L 0,395 L 8,418 L 34,463 L 54,488 L 69,503 L 77,507 L 85,492 L 58,463 L 35,429 L 15,382 L 6,340 L 5,291 L 10,256 L 23,215 L 41,180 L 60,153 L 91,121 L 122,98 L 147,84 L 180,71 L 213,63 L 237,60 L 284,61 L 324,69 L 364,84 L 389,98 L 421,122 L 445,146 L 470,180 L 485,208 L 498,244 L 506,290 L 506,329 L 501,363 L 492,394 L 477,427 L 459,455 L 438,480 L 405,508 L 405,511 L 441,479 L 469,443 L 493,395 L 505,348 L 508,306 L 502,255 L 485,205 L 461,164 L 446,145 L 422,121 L 390,97 L 356,79 L 305,63 L 277,59 L 234,59 L 206,63 L 155,79 Z M 0,219 L 0,224 L 19,182 L 46,142 L 81,106 L 109,85 L 148,64 L 184,51 L 225,43 L 275,42 L 315,48 L 346,57 L 380,72 L 415,94 L 440,115 L 472,151 L 492,182 L 511,224 L 511,220 L 494,183 L 473,150 L 452,125 L 416,93 L 390,76 L 355,59 L 312,46 L 279,41 L 233,41 L 195,47 L 154,60 L 116,79 L 80,105 L 46,140 L 18,181 Z" fill="#95894e" stroke="none" fill-rule="evenodd"/>
<path d="M 81,107 L 61,126 L 35,158 L 20,182 L 0,225 L 0,394 L 26,447 L 56,487 L 75,505 L 83,494 L 52,459 L 24,412 L 11,376 L 3,332 L 3,288 L 8,255 L 19,219 L 31,193 L 51,161 L 75,133 L 101,110 L 131,90 L 170,72 L 206,62 L 234,58 L 277,58 L 314,64 L 346,74 L 380,90 L 411,111 L 447,145 L 462,164 L 480,193 L 497,233 L 506,271 L 509,306 L 508,332 L 503,364 L 490,405 L 470,443 L 442,479 L 406,511 L 431,511 L 455,487 L 478,458 L 492,435 L 511,394 L 511,225 L 487,175 L 459,136 L 440,116 L 415,95 L 380,73 L 354,61 L 327,52 L 275,43 L 225,44 L 174,55 L 122,78 Z" fill="#e9df8b" stroke="none" fill-rule="evenodd"/>
<path d="M 315,453 L 311,466 L 312,477 L 337,511 L 314,480 L 312,464 L 317,453 L 345,470 L 386,511 L 383,505 L 345,469 L 318,452 Z M 94,487 L 94,489 L 121,484 L 146,486 L 180,500 L 193,511 L 191,507 L 180,499 L 149,486 L 139,484 L 115,484 L 100,488 L 96,486 L 104,476 L 111,460 L 124,447 L 121,439 L 129,436 L 130,432 L 125,426 L 128,423 L 134,422 L 136,408 L 153,396 L 159,395 L 173,400 L 204,417 L 272,469 L 309,485 L 330,511 L 310,485 L 277,471 L 204,416 L 177,401 L 158,394 L 153,395 L 135,408 L 134,420 L 131,423 L 125,424 L 129,434 L 126,437 L 120,437 L 124,444 L 123,447 L 111,459 L 104,475 Z M 221,351 L 216,367 L 208,375 L 195,379 L 194,390 L 186,399 L 219,420 L 275,464 L 306,477 L 306,462 L 312,447 L 310,443 L 301,437 L 290,437 L 273,422 L 267,407 L 257,397 L 256,387 L 258,379 L 252,372 L 248,360 L 242,360 Z M 222,352 L 248,362 L 251,372 L 257,379 L 257,399 L 267,409 L 269,417 L 276,427 L 290,438 L 301,438 L 311,446 L 305,464 L 306,474 L 304,476 L 275,463 L 219,419 L 188,399 L 195,389 L 195,381 L 208,376 L 214,371 Z M 207,296 L 204,302 L 204,314 L 213,336 L 222,346 L 243,355 L 249,352 L 248,344 L 250,342 L 254,348 L 254,364 L 264,380 L 261,389 L 262,396 L 265,400 L 273,403 L 275,416 L 291,432 L 295,432 L 300,427 L 318,446 L 345,463 L 350,463 L 361,456 L 368,456 L 372,459 L 379,458 L 386,463 L 386,468 L 389,470 L 396,465 L 393,455 L 396,452 L 401,453 L 404,451 L 401,443 L 404,440 L 411,440 L 409,431 L 415,424 L 416,419 L 411,416 L 413,406 L 410,400 L 396,389 L 398,382 L 397,372 L 386,360 L 389,348 L 387,346 L 377,347 L 375,345 L 393,338 L 394,331 L 389,325 L 374,325 L 367,322 L 347,352 L 342,356 L 338,356 L 328,344 L 321,322 L 294,306 L 288,319 L 277,327 L 265,326 L 244,313 L 235,320 L 244,326 L 245,332 L 242,334 L 239,330 L 226,331 L 220,324 L 220,317 L 232,308 L 227,297 L 220,297 L 216,301 L 211,312 L 209,310 L 211,298 L 220,291 L 226,291 L 233,297 L 236,311 L 238,311 L 239,303 L 235,293 L 227,287 L 218,287 Z M 208,296 L 214,290 L 218,291 L 209,301 L 208,310 L 211,317 L 214,306 L 220,298 L 225,297 L 229,300 L 231,308 L 221,314 L 219,324 L 227,332 L 237,330 L 242,335 L 245,334 L 245,326 L 236,320 L 244,314 L 263,326 L 275,328 L 283,325 L 288,320 L 295,307 L 322,325 L 324,338 L 338,357 L 342,357 L 348,352 L 368,323 L 375,326 L 389,326 L 393,330 L 393,337 L 390,340 L 375,343 L 374,347 L 385,346 L 388,349 L 385,358 L 386,362 L 397,374 L 396,390 L 410,401 L 413,409 L 410,418 L 415,421 L 408,432 L 411,438 L 401,441 L 403,450 L 401,452 L 397,451 L 392,455 L 395,465 L 389,469 L 384,460 L 367,455 L 358,456 L 350,462 L 342,461 L 318,445 L 313,438 L 303,431 L 301,426 L 297,426 L 293,432 L 284,425 L 274,412 L 274,402 L 266,400 L 262,394 L 264,378 L 255,365 L 255,349 L 253,344 L 248,340 L 249,351 L 246,354 L 242,354 L 222,345 L 212,333 L 204,311 L 204,305 Z M 359,261 L 355,258 L 348,259 L 335,266 L 328,274 L 350,276 L 353,273 L 354,266 Z M 357,261 L 353,264 L 353,271 L 350,275 L 334,275 L 329,272 L 345,261 L 351,259 Z M 366,245 L 358,242 L 337,244 L 321,256 L 319,263 L 325,262 L 340,250 L 363,251 Z M 365,246 L 363,250 L 341,249 L 333,253 L 322,263 L 320,261 L 322,256 L 336,245 L 342,243 L 361,243 Z M 281,205 L 259,215 L 227,237 L 201,260 L 174,289 L 151,321 L 149,349 L 146,358 L 132,368 L 125,377 L 125,387 L 129,392 L 143,396 L 157,388 L 178,396 L 182,395 L 189,389 L 188,376 L 203,372 L 211,365 L 214,358 L 214,346 L 203,328 L 198,307 L 202,294 L 214,283 L 223,281 L 234,285 L 240,292 L 247,308 L 268,322 L 275,322 L 283,317 L 287,309 L 287,298 L 282,286 L 281,275 L 294,262 L 297,255 L 297,245 L 282,216 Z M 279,206 L 282,218 L 294,238 L 297,249 L 295,259 L 280,276 L 281,285 L 287,300 L 284,314 L 276,321 L 267,321 L 246,305 L 241,292 L 234,284 L 227,281 L 215,282 L 203,291 L 198,302 L 198,314 L 201,325 L 214,349 L 211,364 L 201,372 L 189,373 L 187,375 L 189,387 L 180,395 L 159,388 L 153,388 L 144,395 L 138,395 L 129,391 L 125,385 L 126,377 L 133,368 L 147,358 L 151,323 L 175,289 L 227,238 L 249,222 Z M 332,189 L 310,193 L 289,201 L 287,214 L 300,237 L 302,257 L 298,265 L 287,275 L 286,280 L 292,297 L 326,321 L 329,335 L 335,346 L 341,351 L 372,304 L 376,302 L 382,304 L 372,310 L 371,317 L 374,320 L 403,320 L 408,315 L 408,308 L 371,255 L 371,234 L 363,221 L 358,200 L 349,190 Z M 328,190 L 346,190 L 351,192 L 356,198 L 362,220 L 370,233 L 371,257 L 408,310 L 407,315 L 400,320 L 376,320 L 372,317 L 373,310 L 385,305 L 379,301 L 372,303 L 341,350 L 331,338 L 327,321 L 315,311 L 298,302 L 292,296 L 287,282 L 287,277 L 299,265 L 303,255 L 300,235 L 288,215 L 288,204 L 299,197 Z M 346,174 L 334,166 L 326,156 L 302,155 L 269,163 L 236,179 L 195,208 L 163,240 L 133,280 L 131,288 L 133,298 L 141,304 L 145,314 L 150,314 L 181,273 L 204,250 L 237,223 L 270,203 L 295,192 L 321,185 L 349,184 Z M 347,177 L 348,182 L 346,184 L 323,184 L 288,194 L 263,206 L 237,222 L 205,248 L 179,274 L 148,314 L 143,310 L 141,303 L 133,297 L 132,285 L 135,278 L 164,240 L 200,205 L 239,178 L 271,163 L 309,155 L 326,157 L 334,167 Z M 354,123 L 347,117 L 326,116 L 307,106 L 296,107 L 284,112 L 250,109 L 219,120 L 197,133 L 174,151 L 155,162 L 128,192 L 122,204 L 98,227 L 88,270 L 89,284 L 94,295 L 103,301 L 115,301 L 124,296 L 130,275 L 164,231 L 200,197 L 247,167 L 270,157 L 298,150 L 327,151 L 340,164 L 350,164 L 362,152 L 362,145 Z M 353,123 L 362,151 L 350,163 L 346,165 L 340,163 L 331,152 L 326,150 L 301,149 L 268,157 L 238,171 L 200,196 L 162,232 L 131,272 L 125,286 L 125,293 L 121,297 L 112,301 L 100,299 L 93,292 L 89,281 L 89,266 L 94,251 L 97,230 L 122,205 L 129,192 L 155,163 L 174,152 L 195,135 L 218,121 L 254,109 L 282,113 L 298,107 L 308,107 L 327,117 L 345,117 Z" fill="#568c96" stroke="none" fill-rule="evenodd"/>
<path d="M 93,487 L 96,490 L 122,484 L 146,486 L 178,499 L 193,511 L 179,499 L 146,486 L 122,484 L 96,490 L 93,488 L 103,477 L 110,461 L 124,446 L 120,438 L 129,435 L 125,425 L 134,421 L 133,414 L 135,409 L 144,401 L 158,394 L 190,408 L 211,421 L 268,466 L 308,484 L 330,511 L 309,484 L 274,469 L 212,421 L 191,408 L 158,394 L 143,401 L 135,408 L 134,420 L 131,423 L 125,424 L 129,434 L 126,437 L 120,437 L 120,441 L 124,445 L 110,460 L 103,476 Z" fill="none" stroke="black" stroke-width="2.0" stroke-linejoin="round" stroke-linecap="round"/>
<path d="M 220,351 L 219,360 L 215,368 L 208,375 L 195,379 L 194,389 L 185,400 L 216,418 L 273,463 L 305,478 L 307,475 L 306,463 L 311,450 L 311,444 L 301,437 L 290,437 L 274,423 L 269,415 L 268,408 L 257,397 L 256,387 L 258,379 L 252,372 L 248,360 L 242,360 Z" fill="none" stroke="black" stroke-width="2.0" stroke-linejoin="round" stroke-linecap="round"/>
<path d="M 208,294 L 204,302 L 204,314 L 211,333 L 220,345 L 244,355 L 249,353 L 247,342 L 250,341 L 254,348 L 255,368 L 264,380 L 261,389 L 263,398 L 273,403 L 275,416 L 287,429 L 295,433 L 299,426 L 303,433 L 311,438 L 319,447 L 342,462 L 349,463 L 358,457 L 367,456 L 371,459 L 378,458 L 386,464 L 387,470 L 395,467 L 396,460 L 393,455 L 396,452 L 401,453 L 404,451 L 401,443 L 404,440 L 411,440 L 412,437 L 409,432 L 416,423 L 416,419 L 410,416 L 413,412 L 411,401 L 396,388 L 398,382 L 397,372 L 386,359 L 389,347 L 374,346 L 378,342 L 390,341 L 394,337 L 394,330 L 391,326 L 374,325 L 367,321 L 347,352 L 342,356 L 338,356 L 324,336 L 322,323 L 297,307 L 293,306 L 287,320 L 276,327 L 265,326 L 247,313 L 244,313 L 235,322 L 244,326 L 245,332 L 242,334 L 239,330 L 227,331 L 220,324 L 221,316 L 232,309 L 227,297 L 220,297 L 215,302 L 211,317 L 209,314 L 209,303 L 217,293 L 226,291 L 235,302 L 236,312 L 235,302 L 230,293 L 220,291 L 211,298 L 209,315 L 212,317 L 215,303 L 225,296 L 232,307 L 221,315 L 221,327 L 226,331 L 238,330 L 241,334 L 245,333 L 245,328 L 243,324 L 237,323 L 236,320 L 245,313 L 264,326 L 276,327 L 285,323 L 290,316 L 292,308 L 296,307 L 322,324 L 325,339 L 337,356 L 343,356 L 347,353 L 368,322 L 374,325 L 390,326 L 394,331 L 394,336 L 389,341 L 374,344 L 374,347 L 387,346 L 389,348 L 386,359 L 398,375 L 397,391 L 405,395 L 411,402 L 413,411 L 410,416 L 416,422 L 409,431 L 409,435 L 412,438 L 409,441 L 402,441 L 404,450 L 401,453 L 395,452 L 393,454 L 396,464 L 389,470 L 386,468 L 386,463 L 383,460 L 367,456 L 357,457 L 351,462 L 345,463 L 320,447 L 303,432 L 301,427 L 298,426 L 295,432 L 288,429 L 275,415 L 273,402 L 267,401 L 262,395 L 261,389 L 264,380 L 255,367 L 254,348 L 250,340 L 247,341 L 249,352 L 245,355 L 221,345 L 207,324 L 204,314 L 204,302 L 208,295 L 218,287 L 229,288 L 238,299 L 239,311 L 239,302 L 236,294 L 228,287 L 215,288 Z" fill="none" stroke="black" stroke-width="2.0" stroke-linejoin="round" stroke-linecap="round"/>
<path d="M 282,205 L 280,204 L 257,216 L 228,236 L 206,255 L 173,290 L 151,321 L 149,348 L 146,358 L 133,367 L 125,377 L 125,387 L 129,392 L 143,396 L 156,388 L 178,396 L 182,395 L 189,389 L 188,376 L 203,372 L 210,367 L 214,358 L 214,347 L 201,323 L 198,306 L 203,293 L 217,282 L 228,282 L 235,286 L 240,292 L 246,307 L 265,321 L 275,322 L 284,316 L 287,309 L 287,298 L 282,286 L 281,275 L 294,262 L 297,255 L 297,245 L 282,216 Z" fill="none" stroke="black" stroke-width="2.0" stroke-linejoin="round" stroke-linecap="round"/>
<path d="M 332,189 L 306,194 L 288,202 L 287,214 L 300,237 L 302,257 L 297,266 L 287,275 L 286,280 L 293,299 L 326,321 L 330,338 L 339,351 L 345,347 L 365,317 L 368,309 L 375,302 L 381,302 L 384,305 L 375,307 L 372,310 L 371,316 L 374,320 L 403,320 L 408,316 L 408,308 L 372,257 L 371,234 L 362,218 L 357,198 L 351,191 Z" fill="none" stroke="black" stroke-width="2.0" stroke-linejoin="round" stroke-linecap="round"/>
<path d="M 347,175 L 337,168 L 328,157 L 302,155 L 264,165 L 234,180 L 196,207 L 162,241 L 134,278 L 131,288 L 133,299 L 140,303 L 145,314 L 150,314 L 166,291 L 187,267 L 211,244 L 240,221 L 261,208 L 295,192 L 321,185 L 349,184 Z" fill="none" stroke="black" stroke-width="2.0" stroke-linejoin="round" stroke-linecap="round"/>
<path d="M 353,121 L 348,117 L 326,116 L 316,109 L 307,106 L 296,107 L 284,112 L 250,109 L 216,121 L 195,134 L 175,150 L 151,165 L 130,189 L 123,202 L 97,228 L 88,269 L 89,284 L 93,294 L 98,299 L 109,302 L 123,297 L 126,293 L 127,281 L 132,272 L 167,228 L 203,195 L 238,172 L 267,158 L 298,150 L 327,151 L 340,164 L 350,164 L 362,153 L 362,145 Z" fill="none" stroke="black" stroke-width="2.0" stroke-linejoin="round" stroke-linecap="round"/>
<path d="M 97,114 L 64,146 L 37,184 L 18,225 L 10,251 L 5,279 L 5,340 L 10,368 L 19,397 L 34,430 L 45,448 L 84,494 L 75,506 L 44,474 L 17,433 L 5,408 L 1,394 L 0,396 L 17,434 L 49,481 L 74,506 L 77,506 L 84,495 L 84,492 L 56,462 L 34,429 L 15,386 L 7,354 L 4,331 L 6,272 L 18,225 L 33,192 L 55,158 L 82,128 L 110,105 L 141,86 L 165,75 L 202,64 L 235,59 L 275,59 L 309,64 L 351,77 L 389,97 L 414,115 L 447,147 L 464,169 L 486,208 L 498,240 L 507,289 L 507,330 L 498,379 L 487,409 L 461,454 L 444,475 L 405,511 L 419,500 L 450,469 L 477,430 L 489,405 L 498,379 L 507,330 L 507,289 L 498,240 L 478,191 L 464,168 L 447,146 L 410,111 L 369,85 L 321,67 L 275,59 L 235,59 L 186,68 L 140,86 Z" fill="none" stroke="black" stroke-width="2.0" stroke-linejoin="round" stroke-linecap="round"/>
<path d="M 0,223 L 1,225 L 10,200 L 34,158 L 61,125 L 91,98 L 122,77 L 162,58 L 191,49 L 234,42 L 277,42 L 324,50 L 357,61 L 402,85 L 442,117 L 469,147 L 492,182 L 505,209 L 510,225 L 511,222 L 492,181 L 465,141 L 432,107 L 403,85 L 362,63 L 324,50 L 277,42 L 234,42 L 200,47 L 162,58 L 123,76 L 90,98 L 62,123 L 34,157 L 18,183 Z" fill="none" stroke="black" stroke-width="2.0" stroke-linejoin="round" stroke-linecap="round"/>
</svg>