<?xml version="1.0" encoding="utf-8" ?>
<svg baseProfile="tiny" height="1282.048px" version="1.2" viewBox="0 0 7074.816 1282.048" width="7074.816px" xmlns="http://www.w3.org/2000/svg" xmlns:ev="http://www.w3.org/2001/xml-events" xmlns:xlink="http://www.w3.org/1999/xlink"><defs /><path d="M 1025.0240000000001,-720.896 Q 948.2240000000002,-723.968 911.8720000000001,-761.344 Q 875.5200000000001,-798.72 875.52,-862.208 Q 875.52,-904.192 895.488,-964.096 Q 915.456,-1024.0 947.2,-1093.1200000000001 Q 978.9440000000001,-1162.2400000000002 1014.272,-1232.384 Q 1049.6000000000001,-1302.528 1081.344,-1367.04 Q 1113.088,-1431.552 1133.056,-1482.752 Q 1153.0240000000001,-1533.952 1153.0240000000001,-1562.624 Q 1153.0240000000001,-1586.176 1134.592,-1596.928 Q 1116.16,-1607.68 1095.68,-1607.68 Q 1060.864,-1607.68 1019.392,-1587.712 Q 977.9200000000001,-1567.744 935.424,-1535.488 Q 892.928,-1503.232 854.528,-1465.856 Q 816.128,-1428.48 787.456,-1393.664 Q 735.232,-1330.176 688.128,-1255.424 Q 641.024,-1180.672 601.088,-1103.3600000000001 Q 561.1519999999999,-1026.0480000000002 527.872,-956.416 Q 494.592,-886.7840000000001 468.992,-834.5600000000001 Q 461.824,-820.224 444.928,-812.544 Q 428.032,-804.864 412.672,-804.864 Q 399.36,-804.864 390.144,-810.496 Q 380.928,-816.1279999999999 384.0,-827.392 Q 405.504,-859.1360000000001 434.176,-911.8720000000001 Q 462.848,-964.6080000000001 493.056,-1030.144 Q 523.264,-1095.68 552.448,-1166.848 Q 581.632,-1238.016 604.672,-1306.112 Q 627.712,-1374.208 641.5360000000001,-1431.5520000000001 Q 655.36,-1488.8960000000002 655.36,-1527.808 Q 655.36,-1599.488 621.568,-1629.6960000000001 Q 587.776,-1659.9040000000002 533.504,-1659.904 Q 479.232,-1659.904 414.72,-1633.7920000000001 Q 350.208,-1607.68 287.744,-1561.088 Q 225.28000000000003,-1514.4959999999999 173.056,-1452.544 Q 120.83200000000001,-1390.592 89.60000000000001,-1318.4 Q 58.36800000000001,-1246.208 58.368,-1170.432 Q 58.368,-1103.872 90.624,-1059.84 Q 122.88,-1015.8079999999999 186.368,-1015.808 Q 240.64,-1015.808 286.208,-1038.336 Q 331.776,-1060.864 365.056,-1096.704 Q 398.336,-1132.5439999999999 416.76800000000003,-1171.4560000000001 Q 435.20000000000005,-1210.3680000000002 435.2,-1243.136 Q 435.2,-1272.8319999999999 419.32800000000003,-1292.288 Q 403.456,-1311.744 370.688,-1311.744 Q 360.448,-1311.744 354.30400000000003,-1310.72 Q 348.16,-1309.6960000000001 343.04,-1309.6960000000001 Q 335.872,-1309.6960000000001 335.872,-1316.864 Q 335.872,-1320.96 339.968,-1323.008 Q 344.064,-1325.056 346.112,-1326.08 Q 359.42400000000004,-1330.176 370.688,-1331.2 Q 381.952,-1332.224 392.192,-1332.224 Q 434.176,-1332.224 454.144,-1309.6960000000001 Q 474.112,-1287.1680000000001 474.112,-1252.352 Q 474.112,-1215.488 453.12,-1170.944 Q 432.128,-1126.3999999999999 393.728,-1086.976 Q 355.32800000000003,-1047.5520000000001 302.08,-1021.952 Q 248.832,-996.352 184.32,-996.352 Q 135.168,-996.352 92.16,-1020.416 Q 49.151999999999994,-1044.48 23.04,-1089.536 Q -3.0720000000000027,-1134.592 -3.072,-1198.08 Q -3.072,-1263.616 25.6,-1331.712 Q 54.272000000000006,-1399.808 106.49600000000001,-1463.296 Q 158.72000000000003,-1526.784 227.84,-1576.96 Q 296.96000000000004,-1627.136 377.856,-1656.32 Q 458.752,-1685.504 545.792,-1685.5040000000001 Q 591.8720000000001,-1685.5040000000001 629.76,-1669.632 Q 667.648,-1653.76 690.688,-1617.92 Q 713.728,-1582.0800000000002 713.7280000000001,-1521.664 Q 713.7280000000001,-1494.016 705.024,-1456.64 Q 696.32,-1419.2640000000001 682.496,-1378.304 Q 668.672,-1337.344 653.8240000000001,-1298.944 Q 638.9760000000001,-1260.5439999999999 625.152,-1230.848 Q 611.3280000000001,-1201.152 604.16,-1186.816 Q 622.592,-1217.536 650.24,-1257.984 Q 677.888,-1298.432 708.6080000000001,-1339.904 Q 739.3280000000001,-1381.376 766.976,-1415.1680000000001 Q 799.744,-1454.0800000000002 839.6800000000001,-1496.064 Q 879.6160000000001,-1538.048 925.184,-1574.4 Q 970.752,-1610.7520000000002 1020.416,-1633.28 Q 1070.0800000000002,-1655.808 1121.28,-1655.808 Q 1162.24,-1655.808 1192.448,-1634.816 Q 1222.6560000000002,-1613.824 1222.656,-1558.528 Q 1222.656,-1514.496 1201.664,-1460.736 Q 1180.672,-1406.976 1147.904,-1345.536 Q 1115.136,-1284.096 1078.784,-1219.584 Q 1042.432,-1155.0720000000001 1009.664,-1089.0240000000001 Q 976.896,-1022.9760000000001 955.904,-959.488 Q 934.912,-896.0 934.912,-837.6320000000001 Q 934.912,-795.648 951.296,-771.5840000000001 Q 967.6800000000001,-747.5200000000001 998.4,-747.52 Q 1020.928,-747.52 1048.576,-760.832 Q 1057.792,-765.952 1065.472,-767.488 Q 1073.152,-769.024 1077.248,-769.024 Q 1092.608,-769.024 1092.608,-757.76 Q 1092.608,-746.496 1074.176,-733.184 Q 1055.744,-719.872 1025.024,-720.896 M 1203.2,-867.328 Q 1165.3120000000001,-867.328 1135.104,-891.904 Q 1104.896,-916.48 1104.896,-966.6560000000001 Q 1104.896,-1008.6400000000001 1123.84,-1055.744 Q 1142.7839999999999,-1102.848 1174.016,-1144.32 Q 1205.248,-1185.792 1243.6480000000001,-1211.904 Q 1282.0480000000002,-1238.016 1320.96,-1238.016 Q 1340.416,-1238.016 1358.848,-1226.752 Q 1377.28,-1215.488 1377.28,-1187.84 Q 1377.28,-1162.24 1357.824,-1131.52 Q 1338.3680000000002,-1100.8 1302.528,-1074.176 Q 1287.1680000000001,-1062.912 1263.616,-1052.672 Q 1240.064,-1042.432 1216.512,-1035.776 Q 1192.96,-1029.1200000000001 1177.6000000000001,-1029.1200000000001 Q 1172.4800000000002,-1016.8320000000001 1167.872,-996.352 Q 1163.2640000000001,-975.872 1163.2640000000001,-954.368 Q 1163.2640000000001,-928.768 1173.5040000000001,-908.288 Q 1183.7440000000001,-887.808 1211.392,-887.808 Q 1245.184,-887.808 1274.368,-907.264 Q 1303.552,-926.72 1326.592,-956.416 Q 1349.632,-986.1120000000001 1366.016,-1016.832 Q 1382.4,-1047.552 1391.616,-1069.056 Q 1403.904,-1069.056 1403.904,-1059.84 Q 1390.592,-1031.168 1373.6960000000001,-997.376 Q 1356.8000000000002,-963.584 1333.76,-934.4 Q 1310.72,-905.216 1278.464,-886.272 Q 1246.2079999999999,-867.3280000000001 1203.2,-867.3280000000001 M 1184.768,-1047.5520000000001 Q 1199.104,-1047.5520000000001 1232.896,-1058.304 Q 1266.6879999999999,-1069.056 1294.336,-1092.608 Q 1320.96,-1116.1599999999999 1335.296,-1144.32 Q 1349.632,-1172.48 1349.632,-1191.936 Q 1349.632,-1214.464 1333.248,-1214.464 Q 1320.96,-1214.464 1299.4560000000001,-1198.08 Q 1277.9520000000002,-1181.696 1246.208,-1142.784 Q 1226.7520000000002,-1118.208 1209.344,-1089.536 Q 1191.9360000000001,-1060.864 1184.768,-1047.5520000000001 M 1613.824,-868.352 Q 1590.2720000000002,-868.352 1572.352,-881.664 Q 1554.432,-894.976 1554.432,-935.936 Q 1554.432,-953.344 1556.992,-968.7040000000001 Q 1559.552,-984.0640000000001 1563.6480000000001,-1001.472 Q 1554.4320000000002,-986.112 1538.048,-963.5840000000001 Q 1521.664,-941.056 1501.6960000000001,-919.552 Q 1481.728,-898.048 1460.736,-883.712 Q 1439.7440000000001,-869.376 1421.3120000000001,-869.376 Q 1394.688,-869.376 1378.304,-893.44 Q 1361.92,-917.504 1361.92,-956.416 Q 1361.92,-998.4000000000001 1381.376,-1046.528 Q 1400.8319999999999,-1094.656 1434.624,-1138.688 Q 1468.416,-1182.72 1512.448,-1210.368 Q 1556.48,-1238.0159999999998 1604.608,-1238.016 Q 1628.1599999999999,-1238.016 1649.664,-1230.336 Q 1671.168,-1222.656 1687.5520000000001,-1205.248 Q 1694.72,-1198.0800000000002 1694.72,-1188.864 Q 1694.72,-1182.72 1689.6000000000001,-1178.624 Q 1684.4800000000002,-1174.528 1676.288,-1176.576 Q 1665.0240000000001,-1212.416 1628.16,-1212.416 Q 1610.7520000000002,-1212.416 1588.224,-1201.152 Q 1560.576,-1186.816 1529.344,-1155.584 Q 1498.112,-1124.352 1470.976,-1084.928 Q 1443.8400000000001,-1045.5040000000001 1426.432,-1005.568 Q 1409.0240000000001,-965.632 1409.0240000000001,-932.864 Q 1409.0240000000001,-899.072 1434.624,-899.072 Q 1457.152,-899.072 1481.2160000000001,-920.576 Q 1505.2800000000002,-942.08 1527.296,-974.336 Q 1549.3120000000001,-1006.592 1567.7440000000001,-1038.336 Q 1586.1760000000002,-1070.08 1596.416,-1089.536 Q 1611.7759999999998,-1117.184 1625.088,-1135.616 Q 1638.3999999999999,-1154.048 1662.976,-1154.048 Q 1674.24,-1154.048 1685.5040000000001,-1150.976 Q 1696.768,-1147.9040000000002 1709.056,-1149.952 Q 1678.336,-1119.232 1655.296,-1077.248 Q 1632.256,-1035.2640000000001 1619.968,-994.816 Q 1607.68,-954.368 1607.68,-926.72 Q 1607.68,-896.0 1628.16,-896.0 Q 1644.544,-896.0 1663.488,-914.432 Q 1682.432,-932.864 1700.352,-961.024 Q 1718.2720000000002,-989.184 1733.632,-1018.368 Q 1748.992,-1047.5520000000001 1758.208,-1069.056 Q 1763.328,-1069.056 1766.912,-1068.032 Q 1770.496,-1067.008 1770.496,-1059.84 Q 1769.4720000000002,-1055.744 1766.912,-1051.136 Q 1764.352,-1046.528 1759.232,-1035.2640000000001 Q 1751.04,-1018.8800000000001 1736.704,-991.232 Q 1722.368,-963.584 1702.912,-935.424 Q 1683.4560000000001,-907.264 1660.928,-887.808 Q 1638.4,-868.352 1613.824,-868.352 M 1759.232,-1072.128 Q 1767.424,-1089.5359999999998 1780.736,-1127.936 Q 1794.048,-1166.336 1808.384,-1213.44 Q 1822.72,-1260.544 1829.8880000000001,-1302.528 Q 1832.96,-1318.912 1841.152,-1326.592 Q 1849.344,-1334.2720000000002 1858.56,-1334.272 Q 1871.8719999999998,-1334.272 1883.136,-1321.472 Q 1894.3999999999999,-1308.672 1894.4,-1285.1200000000001 Q 1894.4,-1256.448 1877.5040000000001,-1235.968 Q 1860.6080000000002,-1215.488 1836.032,-1197.056 Q 1846.272,-1196.0320000000002 1857.536,-1195.52 Q 1868.8,-1195.008 1882.112,-1195.008 Q 1930.24,-1195.008 1977.344,-1201.152 Q 1979.392,-1195.008 1979.392,-1191.936 Q 1979.392,-1178.624 1971.712,-1158.144 Q 1964.032,-1137.664 1955.8400000000001,-1121.28 Q 1951.7440000000001,-1112.064 1939.4560000000001,-1088.0 Q 1927.1680000000001,-1063.936 1912.832,-1033.728 Q 1898.496,-1003.5200000000001 1888.768,-974.336 Q 1879.04,-945.152 1879.04,-924.672 Q 1879.04,-898.048 1899.52,-898.048 Q 1918.9759999999999,-898.048 1953.7920000000001,-943.616 Q 1988.6080000000002,-989.184 2023.424,-1069.056 Q 2035.712,-1069.056 2035.712,-1059.84 Q 2024.448,-1032.192 2007.5520000000001,-999.424 Q 1990.6560000000002,-966.656 1970.176,-937.472 Q 1949.696,-908.288 1926.144,-889.344 Q 1902.592,-870.4000000000001 1876.992,-870.4 Q 1857.536,-870.4 1838.08,-886.272 Q 1818.624,-902.144 1818.624,-937.984 Q 1818.624,-969.7280000000001 1830.912,-999.936 Q 1843.2,-1030.144 1858.56,-1056.768 Q 1873.9199999999998,-1083.392 1886.208,-1103.872 Q 1898.496,-1124.352 1898.496,-1136.64 Q 1898.496,-1155.0720000000001 1875.4560000000001,-1163.2640000000001 Q 1852.4160000000002,-1171.4560000000001 1815.5520000000001,-1172.48 Q 1797.1200000000001,-1125.376 1787.904,-1102.848 Q 1778.688,-1080.32 1770.496,-1059.84 Q 1754.112,-1059.84 1759.2320000000002,-1072.128 M 2097.152,-867.328 Q 2059.264,-867.328 2029.056,-891.904 Q 1998.848,-916.48 1998.848,-966.6560000000001 Q 1998.848,-1008.6400000000001 2017.7920000000001,-1055.744 Q 2036.736,-1102.848 2067.968,-1144.32 Q 2099.2,-1185.792 2137.6,-1211.904 Q 2176.0,-1238.016 2214.9120000000003,-1238.016 Q 2234.3680000000004,-1238.016 2252.8,-1226.752 Q 2271.232,-1215.488 2271.232,-1187.84 Q 2271.232,-1162.24 2251.776,-1131.52 Q 2232.3199999999997,-1100.8 2196.48,-1074.176 Q 2181.12,-1062.912 2157.568,-1052.672 Q 2134.016,-1042.432 2110.464,-1035.776 Q 2086.912,-1029.1200000000001 2071.552,-1029.1200000000001 Q 2066.4320000000002,-1016.8320000000001 2061.824,-996.352 Q 2057.216,-975.872 2057.216,-954.368 Q 2057.216,-928.768 2067.456,-908.288 Q 2077.696,-887.808 2105.344,-887.808 Q 2139.136,-887.808 2168.32,-907.264 Q 2197.5040000000004,-926.72 2220.544,-956.416 Q 2243.584,-986.1120000000001 2259.968,-1016.832 Q 2276.352,-1047.552 2285.568,-1069.056 Q 2297.856,-1069.056 2297.856,-1059.84 Q 2284.5440000000003,-1031.168 2267.648,-997.376 Q 2250.752,-963.584 2227.712,-934.4 Q 2204.672,-905.216 2172.416,-886.272 Q 2140.1600000000003,-867.3280000000001 2097.152,-867.3280000000001 M 2078.7200000000003,-1047.5520000000001 Q 2093.056,-1047.5520000000001 2126.848,-1058.304 Q 2160.64,-1069.056 2188.288,-1092.608 Q 2214.912,-1116.1599999999999 2229.248,-1144.32 Q 2243.584,-1172.48 2243.584,-1191.936 Q 2243.584,-1214.464 2227.2000000000003,-1214.464 Q 2214.9120000000003,-1214.464 2193.408,-1198.08 Q 2171.904,-1181.696 2140.16,-1142.784 Q 2120.7039999999997,-1118.208 2103.296,-1089.536 Q 2085.888,-1060.864 2078.72,-1047.5520000000001 M 2307.072,-867.328 Q 2265.088,-867.328 2238.976,-893.44 Q 2212.864,-919.552 2212.864,-948.224 Q 2212.864,-971.7760000000001 2224.64,-991.744 Q 2236.4159999999997,-1011.712 2255.872,-1011.712 L 2256.896,-1013.76 Q 2279.424,-1054.72 2300.416,-1097.2160000000001 Q 2321.4080000000004,-1139.7120000000002 2347.0080000000003,-1187.84 Q 2368.512,-1227.7759999999998 2393.6,-1253.376 Q 2418.688,-1278.9759999999999 2452.48,-1278.976 Q 2460.672,-1278.976 2475.0080000000003,-1275.392 Q 2489.344,-1271.808 2489.344,-1260.544 Q 2489.344,-1252.352 2480.128,-1252.352 Q 2472.96,-1252.352 2464.256,-1256.448 Q 2455.5519999999997,-1260.544 2450.4320000000002,-1260.544 Q 2430.976,-1260.544 2417.664,-1238.016 Q 2404.3520000000003,-1215.488 2404.352,-1189.888 Q 2404.352,-1162.24 2413.568,-1140.224 Q 2422.784,-1118.2079999999999 2435.072,-1097.728 Q 2447.36,-1077.248 2456.576,-1056.256 Q 2465.792,-1035.2640000000001 2465.792,-1010.688 Q 2465.792,-961.536 2446.848,-931.328 Q 2427.904,-901.12 2397.184,-885.76 L 2398.208,-885.76 Q 2452.48,-885.76 2487.808,-936.448 Q 2523.136,-987.136 2557.952,-1069.056 Q 2570.2400000000002,-1069.056 2570.2400000000002,-1059.84 Q 2550.784,-1013.7599999999999 2527.232,-969.7280000000001 Q 2503.68,-925.696 2471.936,-897.024 Q 2440.192,-868.352 2394.112,-868.352 Q 2374.656,-868.352 2358.272,-872.448 Q 2334.72,-867.328 2307.072,-867.328 M 2291.712,-975.8720000000001 Q 2291.712,-951.296 2302.976,-928.768 Q 2314.2400000000002,-906.24 2343.936,-894.976 Q 2370.56,-910.336 2385.408,-942.592 Q 2400.256,-974.848 2400.256,-1009.664 Q 2400.256,-1038.336 2394.112,-1068.032 Q 2387.9680000000003,-1097.7279999999998 2381.312,-1126.4 Q 2374.656,-1155.0720000000001 2374.656,-1177.6000000000001 Q 2374.656,-1184.768 2375.168,-1190.4 Q 2375.6800000000003,-1196.0320000000002 2376.704,-1201.152 Q 2358.2720000000004,-1173.5040000000001 2339.328,-1136.64 Q 2320.384,-1099.776 2302.976,-1065.984 Q 2285.568,-1032.192 2271.232,-1010.688 Q 2291.712,-1007.616 2291.712,-975.872 M 2257.92,-924.672 Q 2257.92,-908.288 2269.184,-896.0 Q 2280.4480000000003,-883.712 2302.976,-883.712 Q 2313.216,-883.712 2322.4320000000002,-885.76 Q 2300.9280000000003,-899.072 2288.128,-919.552 Q 2275.328,-940.032 2275.328,-966.6560000000001 Q 2266.112,-956.416 2262.016,-945.664 Q 2257.92,-934.912 2257.92,-924.672 M 2770.944,-1412.096 Q 2757.632,-1392.64 2741.248,-1362.944 Q 2724.864,-1333.248 2711.04,-1305.6000000000001 Q 2697.216,-1277.9520000000002 2690.0480000000002,-1263.616 L 2784.256,-1263.616 Q 2784.256,-1259.52 2780.672,-1250.304 Q 2777.088,-1241.0880000000002 2766.848,-1236.992 L 2677.76,-1236.992 Q 2665.472,-1209.344 2649.6,-1170.432 Q 2633.728,-1131.52 2618.88,-1089.536 Q 2604.032,-1047.5520000000001 2594.304,-1011.2 Q 2584.576,-974.8480000000001 2584.576,-952.32 Q 2584.576,-921.6 2592.768,-906.7520000000001 Q 2600.96,-891.9040000000001 2622.464,-891.904 Q 2650.112,-891.904 2675.712,-919.04 Q 2701.312,-946.1759999999999 2724.352,-987.136 Q 2747.392,-1028.096 2764.8,-1069.056 Q 2777.088,-1069.056 2777.088,-1059.84 Q 2765.824,-1032.192 2749.44,-999.424 Q 2733.056,-966.656 2712.064,-936.448 Q 2691.0719999999997,-906.24 2664.96,-887.296 Q 2638.848,-868.3520000000001 2607.1040000000003,-868.352 Q 2564.0960000000005,-868.352 2548.736,-892.416 Q 2533.3759999999997,-916.48 2533.376,-954.368 Q 2533.376,-982.0160000000001 2543.616,-1021.44 Q 2553.8559999999998,-1060.864 2568.704,-1102.848 Q 2583.552,-1144.8319999999999 2597.888,-1181.184 Q 2612.2239999999997,-1217.536 2620.416,-1236.992 L 2554.88,-1236.992 Q 2554.88,-1245.184 2562.0480000000002,-1254.4 Q 2569.2160000000003,-1263.616 2577.408,-1263.616 L 2631.68,-1263.616 Q 2639.872,-1280.0 2650.6240000000003,-1304.576 Q 2661.376,-1329.152 2679.808,-1358.848 Q 2695.168,-1383.424 2719.232,-1397.76 Q 2743.296,-1412.096 2770.944,-1412.096 M 3259.3920000000003,-761.856 Q 3166.208,-761.856 3094.016,-799.232 Q 3021.824,-836.608 2981.376,-909.8240000000001 Q 2940.9280000000003,-983.0400000000001 2940.928,-1089.536 Q 2940.928,-1153.0240000000001 2957.312,-1216.512 Q 2973.696,-1280.0 3001.856,-1338.368 Q 3030.016,-1396.7359999999999 3064.832,-1445.888 Q 3049.4719999999998,-1507.328 3049.472,-1579.008 Q 3049.472,-1633.28 3061.76,-1682.432 Q 3065.856,-1696.768 3076.096,-1696.768 Q 3084.288,-1696.768 3083.264,-1686.528 Q 3080.192,-1666.048 3078.1440000000002,-1643.008 Q 3076.0960000000005,-1619.968 3076.096,-1588.224 Q 3076.096,-1528.8319999999999 3087.36,-1475.584 Q 3097.6,-1488.896 3107.84,-1500.16 Q 3149.824,-1546.24 3207.168,-1586.688 Q 3264.512,-1627.1360000000002 3334.656,-1651.712 Q 3404.8,-1676.288 3483.648,-1676.288 Q 3557.376,-1676.288 3618.8160000000003,-1649.152 Q 3680.2560000000003,-1622.016 3717.632,-1571.328 Q 3755.0080000000003,-1520.6399999999999 3755.0080000000003,-1448.96 Q 3755.0080000000003,-1403.904 3730.944,-1356.8 Q 3706.88,-1309.696 3662.3360000000002,-1270.272 Q 3617.7920000000004,-1230.848 3554.8160000000003,-1206.272 Q 3491.84,-1181.696 3414.016,-1181.696 Q 3311.616,-1181.696 3226.6240000000003,-1226.752 Q 3141.632,-1271.808 3094.5280000000002,-1363.968 Q 3053.568,-1291.2640000000001 3034.112,-1216.512 Q 3014.656,-1141.76 3014.656,-1074.176 Q 3014.656,-975.872 3047.424,-914.432 Q 3080.192,-852.992 3138.0480000000002,-823.808 Q 3195.9040000000005,-794.624 3270.656,-794.624 Q 3403.776,-794.624 3504.64,-861.696 Q 3605.504,-928.768 3671.04,-1069.056 Q 3683.328,-1069.056 3683.328,-1059.84 Q 3619.84,-908.2879999999999 3509.76,-835.072 Q 3399.6800000000003,-761.856 3259.3920000000003,-761.856 M 3138.56,-1432.576 Q 3125.248,-1414.144 3112.96,-1394.688 Q 3148.8,-1310.72 3222.5280000000002,-1259.52 Q 3296.2560000000003,-1208.32 3407.8720000000003,-1208.32 Q 3478.5280000000002,-1208.32 3534.3360000000002,-1229.824 Q 3590.1440000000002,-1251.328 3628.544,-1287.1680000000001 Q 3666.944,-1323.008 3687.424,-1366.528 Q 3707.904,-1410.048 3707.904,-1454.08 Q 3707.904,-1508.3519999999999 3678.7200000000003,-1549.3120000000001 Q 3649.536,-1590.2720000000002 3599.36,-1613.3120000000001 Q 3549.184,-1636.352 3485.696,-1636.352 Q 3422.208,-1636.352 3358.208,-1609.728 Q 3294.208,-1583.104 3237.376,-1537.0240000000001 Q 3180.5440000000003,-1490.9440000000002 3138.5600000000004,-1432.576 M 3699.712,-871.424 Q 3661.824,-871.424 3646.464,-893.44 Q 3631.104,-915.456 3631.1040000000003,-944.128 Q 3631.1040000000003,-959.488 3634.688,-975.36 Q 3638.272,-991.232 3643.3920000000003,-1004.544 L 3712.0,-1179.6480000000001 Q 3715.072,-1187.8400000000001 3715.072,-1193.984 Q 3715.072,-1204.224 3709.952,-1211.904 Q 3704.8320000000003,-1219.584 3702.784,-1222.656 L 3759.1040000000003,-1224.704 Q 3774.4640000000004,-1225.7279999999998 3781.12,-1221.1200000000001 Q 3787.776,-1216.5120000000002 3787.7760000000003,-1210.368 Q 3787.7760000000003,-1204.224 3780.608,-1187.84 Q 3770.3680000000004,-1163.264 3752.96,-1126.4 Q 3735.552,-1089.536 3718.656,-1050.624 Q 3701.7599999999998,-1011.712 3689.984,-977.9200000000001 Q 3678.208,-944.128 3678.208,-925.696 Q 3678.208,-912.384 3684.864,-903.168 Q 3691.52,-893.952 3707.904,-893.952 Q 3729.408,-893.952 3750.4,-910.8480000000001 Q 3771.3920000000003,-927.744 3789.824,-954.368 Q 3808.256,-980.9920000000001 3824.128,-1011.712 Q 3840.0,-1042.432 3851.264,-1069.056 Q 3863.552,-1069.056 3863.552,-1059.84 Q 3853.3120000000004,-1034.24 3836.928,-1001.472 Q 3820.544,-968.704 3799.552,-939.52 Q 3778.56,-910.336 3753.472,-890.88 Q 3728.384,-871.424 3699.712,-871.424 M 3790.848,-1288.192 Q 3777.536,-1288.192 3767.808,-1298.432 Q 3758.08,-1308.672 3758.08,-1323.008 Q 3758.08,-1340.416 3772.416,-1354.24 Q 3786.752,-1368.064 3804.16,-1368.064 Q 3818.4959999999996,-1368.064 3828.736,-1358.848 Q 3838.9759999999997,-1349.632 3838.976,-1335.296 Q 3838.976,-1316.864 3824.64,-1302.528 Q 3810.304,-1288.192 3790.848,-1288.192 M 4063.232,-1412.096 Q 4049.92,-1392.64 4033.536,-1362.944 Q 4017.152,-1333.248 4003.328,-1305.6000000000001 Q 3989.504,-1277.9520000000002 3982.3360000000002,-1263.616 L 4076.544,-1263.616 Q 4076.544,-1259.52 4072.96,-1250.304 Q 4069.376,-1241.0880000000002 4059.136,-1236.992 L 3970.0480000000002,-1236.992 Q 3957.76,-1209.344 3941.888,-1170.432 Q 3926.016,-1131.52 3911.168,-1089.536 Q 3896.32,-1047.5520000000001 3886.592,-1011.2 Q 3876.864,-974.8480000000001 3876.864,-952.32 Q 3876.864,-921.6 3885.056,-906.7520000000001 Q 3893.248,-891.9040000000001 3914.752,-891.904 Q 3942.4,-891.904 3968.0,-919.04 Q 3993.6,-946.1759999999999 4016.64,-987.136 Q 4039.68,-1028.096 4057.088,-1069.056 Q 4069.376,-1069.056 4069.376,-1059.84 Q 4058.112,-1032.192 4041.728,-999.424 Q 4025.344,-966.656 4004.352,-936.448 Q 3983.3599999999997,-906.24 3957.248,-887.296 Q 3931.136,-868.3520000000001 3899.3920000000003,-868.352 Q 3856.3840000000005,-868.352 3841.024,-892.416 Q 3825.6639999999998,-916.48 3825.664,-954.368 Q 3825.664,-982.0160000000001 3835.904,-1021.44 Q 3846.144,-1060.864 3860.992,-1102.848 Q 3875.84,-1144.8319999999999 3890.176,-1181.184 Q 3904.5119999999997,-1217.536 3912.704,-1236.992 L 3847.168,-1236.992 Q 3847.168,-1245.184 3854.3360000000002,-1254.4 Q 3861.5040000000004,-1263.616 3869.696,-1263.616 L 3923.9680000000003,-1263.616 Q 3932.1600000000003,-1280.0 3942.9120000000003,-1304.576 Q 3953.664,-1329.152 3972.096,-1358.848 Q 3987.456,-1383.424 4011.52,-1397.76 Q 4035.584,-1412.096 4063.232,-1412.096 M 3915.7760000000003,-544.768 Q 3862.5280000000002,-544.768 3840.0,-565.76 Q 3817.472,-586.752 3817.472,-615.424 Q 3817.472,-659.456 3849.728,-696.832 Q 3881.984,-734.208 3929.088,-756.736 Q 3982.3360000000002,-781.312 4050.4320000000002,-796.672 Q 4118.528,-812.032 4180.992,-830.464 Q 4200.448,-864.2560000000001 4216.832,-907.7760000000001 Q 4233.216,-951.296 4246.528,-992.768 Q 4259.84,-1034.24 4268.032,-1060.864 Q 4255.744000000001,-1038.336 4236.8,-1006.08 Q 4217.856,-973.8240000000001 4194.304,-943.104 Q 4170.752,-912.384 4143.616,-891.904 Q 4116.48,-871.424 4086.784,-871.424 Q 4075.52,-871.424 4059.648,-876.544 Q 4043.7760000000003,-881.664 4032.0,-895.488 Q 4020.224,-909.312 4020.224,-936.96 Q 4020.224,-963.5840000000001 4036.608,-995.84 Q 4052.992,-1028.096 4069.376,-1059.84 Q 4064.2560000000003,-1059.84 4060.672,-1060.864 Q 4057.088,-1061.888 4057.088,-1069.056 Q 4060.1600000000003,-1075.2 4069.376,-1095.68 Q 4078.592,-1116.16 4090.368,-1140.736 Q 4102.144,-1165.3120000000001 4111.36,-1183.744 Q 4122.624,-1207.2959999999998 4136.448,-1216.512 Q 4150.272,-1225.7279999999998 4163.584,-1225.728 L 4227.072,-1225.728 Q 4219.904,-1219.584 4209.152,-1211.904 Q 4198.4,-1204.224 4189.184,-1188.864 Q 4161.536,-1141.76 4141.0560000000005,-1098.24 Q 4120.576000000001,-1054.72 4097.024,-1005.568 Q 4085.76,-982.016 4080.64,-962.5600000000001 Q 4075.52,-943.104 4075.52,-928.768 Q 4075.52,-894.976 4098.048,-894.976 Q 4122.624,-894.976 4157.4400000000005,-934.912 Q 4186.112,-968.7040000000001 4215.296,-1015.296 Q 4244.4800000000005,-1061.8880000000001 4271.616,-1111.5520000000001 Q 4298.752,-1161.2160000000001 4319.232,-1203.2 Q 4330.496,-1225.728 4359.168,-1225.728 L 4415.488,-1225.728 Q 4385.792,-1205.248 4369.92,-1172.48 Q 4354.048,-1139.712 4334.592,-1088.512 Q 4313.088,-1032.192 4293.6320000000005,-971.7760000000001 Q 4274.176,-911.36 4250.624,-847.8720000000001 Q 4300.8,-865.2800000000001 4334.592,-892.928 Q 4368.384,-920.576 4394.496,-964.096 Q 4420.608,-1007.616 4447.232,-1069.056 Q 4459.5199999999995,-1069.056 4459.52,-1059.84 Q 4436.992,-1012.7359999999999 4418.56,-976.8960000000001 Q 4400.128000000001,-941.056 4377.6,-913.9200000000001 Q 4355.072,-886.7840000000001 4321.28,-863.744 Q 4287.487999999999,-840.7040000000001 4234.24,-819.2 Q 4209.664,-775.168 4178.432,-727.552 Q 4147.2,-679.936 4107.776,-638.464 Q 4068.352,-596.9920000000001 4020.736,-570.88 Q 3973.12,-544.768 3915.776,-544.768 M 3891.2000000000003,-565.248 Q 3924.992,-565.248 3960.832,-585.7280000000001 Q 3996.672,-606.2080000000001 4030.464,-637.44 Q 4064.256,-668.672 4092.416,-700.928 Q 4120.576,-733.184 4137.984,-757.76 Q 4143.104,-764.928 4149.2480000000005,-776.192 Q 4155.392000000001,-787.456 4161.536,-797.696 Q 4111.36,-784.384 4051.456,-768.5120000000001 Q 3991.552,-752.6400000000001 3947.52,-733.184 Q 3898.368,-712.704 3870.208,-674.816 Q 3842.0480000000002,-636.928 3842.0480000000002,-607.232 Q 3842.0480000000002,-588.8 3853.824,-577.024 Q 3865.6,-565.248 3891.2000000000003,-565.248 M 4959.232,-768.0 Q 4846.592,-768.0 4763.136,-802.816 Q 4679.68,-837.6320000000001 4634.112,-898.5600000000001 Q 4588.544,-959.488 4588.544,-1037.3120000000001 Q 4588.544,-1100.8000000000002 4611.072,-1153.0240000000001 Q 4633.6,-1205.248 4670.976,-1240.064 Q 4708.352,-1274.88 4753.408,-1286.144 Q 4760.576,-1287.168 4760.576,-1281.0240000000001 Q 4760.576,-1275.9040000000002 4755.456,-1272.832 Q 4702.2080000000005,-1241.0880000000002 4674.048,-1181.696 Q 4645.888,-1122.3039999999999 4645.888,-1049.6 Q 4645.888,-970.752 4686.848,-913.9200000000001 Q 4727.808,-857.0880000000001 4798.976,-826.88 Q 4870.143999999999,-796.672 4959.232,-796.672 Q 5036.032,-796.672 5105.152,-823.808 Q 5174.272,-850.944 5232.64,-898.048 Q 5291.008000000001,-945.152 5337.6,-1005.056 Q 5384.192,-1064.96 5415.936,-1130.496 Q 5423.103999999999,-1145.856 5430.272,-1160.192 Q 5437.44,-1174.528 5444.608,-1188.864 Q 5420.032,-1189.888 5400.064,-1190.912 Q 5380.0960000000005,-1191.936 5372.928,-1191.936 Q 5345.28,-1191.936 5314.048,-1188.352 Q 5282.816,-1184.768 5255.68,-1174.528 Q 5228.544,-1164.288 5211.136,-1142.784 Q 5203.968000000001,-1135.6160000000002 5202.432,-1131.52 Q 5200.896,-1127.424 5197.8240000000005,-1127.424 Q 5193.728000000001,-1127.424 5190.656,-1134.08 Q 5187.584,-1140.7359999999999 5191.68,-1148.928 Q 5215.232,-1201.152 5258.24,-1220.096 Q 5301.248,-1239.04 5354.496,-1239.04 Q 5365.76,-1239.04 5396.992,-1235.4560000000001 Q 5428.224,-1231.872 5463.04,-1227.776 Q 5508.096,-1318.912 5545.472,-1392.64 Q 5582.848,-1466.3680000000002 5615.616,-1515.52 Q 5541.888,-1540.096 5458.944,-1559.04 Q 5376.0,-1577.984 5280.768,-1577.984 Q 5210.112,-1577.984 5152.768,-1558.528 Q 5095.424,-1539.0720000000001 5054.976,-1506.304 Q 5014.527999999999,-1473.536 4993.024,-1433.6000000000001 Q 4971.52,-1393.6640000000002 4971.52,-1353.728 Q 4971.52,-1308.672 4988.928,-1282.048 Q 5006.336,-1255.424 5034.496,-1243.6480000000001 Q 5062.656,-1231.872 5092.352,-1231.872 Q 5136.384,-1231.872 5167.616,-1253.376 Q 5198.848,-1274.8799999999999 5217.28,-1302.016 Q 5235.7119999999995,-1329.152 5239.808,-1346.56 Q 5243.9039999999995,-1362.944 5252.0960000000005,-1362.944 Q 5264.384,-1362.944 5262.336,-1348.608 Q 5256.192,-1303.552 5230.592000000001,-1270.784 Q 5204.992,-1238.016 5168.128,-1221.1200000000001 Q 5131.264,-1204.2240000000002 5090.304,-1204.224 Q 5048.32,-1204.224 5009.408,-1224.704 Q 4970.496,-1245.184 4945.92,-1284.096 Q 4921.344,-1323.008 4921.344,-1378.304 Q 4921.344,-1423.3600000000001 4941.312,-1467.904 Q 4961.28,-1512.448 5001.728,-1549.824 Q 5042.176,-1587.2 5104.64,-1609.728 Q 5167.104,-1632.256 5252.0960000000005,-1632.256 Q 5312.512000000001,-1632.256 5376.0,-1618.432 Q 5439.488,-1604.608 5504.512,-1583.616 Q 5569.536,-1562.624 5633.024,-1540.096 Q 5654.528,-1567.744 5673.984,-1582.592 Q 5693.4400000000005,-1597.44 5712.896,-1597.44 Q 5721.088,-1597.44 5724.16,-1593.856 Q 5727.232,-1590.272 5727.232,-1587.2 Q 5727.232,-1583.104 5724.16,-1577.984 Q 5721.088,-1572.864 5712.896,-1572.864 Q 5679.103999999999,-1572.864 5649.408,-1534.976 Q 5723.136,-1510.4 5791.232,-1491.4560000000001 Q 5859.3279999999995,-1472.5120000000002 5917.696,-1472.512 Q 5962.7519999999995,-1472.512 5977.088,-1482.24 Q 5991.424,-1491.968 5991.424,-1509.376 Q 5991.424,-1520.6399999999999 5998.592000000001,-1520.64 Q 6003.712,-1520.64 6008.32,-1513.984 Q 6012.928,-1507.328 6012.928,-1498.112 Q 6012.928,-1473.536 5985.792,-1458.176 Q 5958.656,-1442.816 5910.528,-1442.816 Q 5847.04,-1442.816 5778.432,-1463.808 Q 5709.824,-1484.8 5633.024,-1510.4 Q 5605.376,-1464.3200000000002 5578.752,-1390.08 Q 5552.128000000001,-1315.84 5516.2880000000005,-1222.656 Q 5560.320000000001,-1218.56 5609.472,-1216.0 Q 5658.624,-1213.44 5689.344,-1213.44 Q 5699.584,-1213.44 5699.584,-1207.296 Q 5699.584,-1199.104 5676.032,-1192.96 Q 5660.6720000000005,-1188.864 5624.32,-1186.816 Q 5587.968,-1184.768 5549.0560000000005,-1184.768 Q 5540.8640000000005,-1184.768 5528.576,-1185.28 Q 5516.2880000000005,-1185.792 5501.952,-1185.792 Q 5492.736,-1162.24 5483.008,-1138.176 Q 5473.28,-1114.1119999999999 5462.0160000000005,-1088.512 Q 5419.008000000001,-987.136 5357.0560000000005,-924.16 Q 5295.104,-861.184 5224.96,-826.88 Q 5154.816,-792.576 5085.696,-780.288 Q 5016.576,-768.0 4959.232,-768.0 M 5729.28,-871.424 Q 5691.392,-871.424 5676.032,-893.44 Q 5660.6720000000005,-915.456 5660.6720000000005,-944.128 Q 5660.6720000000005,-959.488 5664.256,-975.36 Q 5667.84,-991.232 5672.96,-1004.544 L 5741.568,-1179.6480000000001 Q 5744.64,-1187.8400000000001 5744.64,-1193.984 Q 5744.64,-1204.224 5739.52,-1211.904 Q 5734.400000000001,-1219.584 5732.352,-1222.656 L 5788.6720000000005,-1224.704 Q 5804.032,-1225.7279999999998 5810.688,-1221.1200000000001 Q 5817.344,-1216.5120000000002 5817.344,-1210.368 Q 5817.344,-1204.224 5810.176,-1187.84 Q 5799.936000000001,-1163.264 5782.528,-1126.4 Q 5765.12,-1089.536 5748.224,-1050.624 Q 5731.328,-1011.712 5719.552,-977.9200000000001 Q 5707.776,-944.128 5707.776,-925.696 Q 5707.776,-912.384 5714.432,-903.168 Q 5721.088,-893.952 5737.472,-893.952 Q 5758.976,-893.952 5779.968,-910.8480000000001 Q 5800.96,-927.744 5819.392,-954.368 Q 5837.824,-980.9920000000001 5853.696,-1011.712 Q 5869.568,-1042.432 5880.832,-1069.056 Q 5893.12,-1069.056 5893.12,-1059.84 Q 5882.88,-1034.24 5866.496,-1001.472 Q 5850.112,-968.704 5829.12,-939.52 Q 5808.128,-910.336 5783.04,-890.88 Q 5757.952,-871.424 5729.28,-871.424 M 5820.416,-1288.192 Q 5807.104,-1288.192 5797.376,-1298.432 Q 5787.648,-1308.672 5787.648,-1323.008 Q 5787.648,-1340.416 5801.984,-1354.24 Q 5816.320000000001,-1368.064 5833.728,-1368.064 Q 5848.064,-1368.064 5858.304,-1358.848 Q 5868.544,-1349.632 5868.544,-1335.296 Q 5868.544,-1316.864 5854.2080000000005,-1302.528 Q 5839.872,-1288.192 5820.416,-1288.192 M 5782.528,-863.232 Q 5819.392,-937.9839999999999 5853.184,-1011.2 Q 5886.976000000001,-1084.4160000000002 5922.816,-1150.976 Q 5943.295999999999,-1187.8400000000001 5957.6320000000005,-1202.688 Q 5971.968000000001,-1217.536 5995.52,-1217.536 Q 6003.712,-1217.536 6012.928,-1214.976 Q 6022.144,-1212.4160000000002 6031.36,-1212.416 Q 6037.504,-1212.416 6040.576,-1213.44 Q 6026.24,-1205.248 6003.2,-1172.992 Q 5980.16,-1140.7359999999999 5956.608,-1098.752 Q 5933.0560000000005,-1056.768 5914.624,-1019.904 Q 5934.08,-1043.456 5955.584,-1067.008 Q 5977.088,-1090.56 6002.688,-1112.064 Q 6027.264,-1133.568 6061.568,-1156.608 Q 6095.872,-1179.648 6128.64,-1195.008 Q 6161.408,-1210.368 6180.8640000000005,-1210.368 Q 6188.032,-1210.368 6191.104,-1209.344 Q 6191.104,-1209.344 6179.84,-1189.376 Q 6168.576,-1169.408 6151.68,-1137.152 Q 6134.784000000001,-1104.896 6117.376,-1068.544 Q 6099.968,-1032.192 6086.144,-998.912 Q 6072.320000000001,-965.6320000000001 6068.224,-943.104 Q 6065.152,-929.792 6065.152,-918.528 Q 6065.152,-902.144 6071.296,-897.024 Q 6077.4400000000005,-891.904 6084.608,-891.904 Q 6104.064,-891.904 6124.544,-909.312 Q 6145.023999999999,-926.72 6163.968,-953.856 Q 6182.912,-980.992 6199.296,-1011.712 Q 6215.68,-1042.432 6226.944,-1069.056 Q 6239.232,-1069.056 6239.232,-1059.84 Q 6227.968,-1032.192 6211.072,-998.912 Q 6194.176,-965.6320000000001 6173.184,-935.936 Q 6152.192,-906.24 6126.592000000001,-886.784 Q 6100.992,-867.328 6071.296,-867.328 Q 6050.816000000001,-867.328 6028.8,-881.664 Q 6006.784000000001,-896.0 6006.784000000001,-934.912 Q 6006.784000000001,-946.176 6008.832,-958.976 Q 6010.88,-971.776 6016.0,-987.136 Q 6024.192,-1007.616 6035.456,-1031.1680000000001 Q 6046.72,-1054.72 6072.32,-1095.68 Q 6079.487999999999,-1106.944 6081.024,-1113.088 Q 6082.56,-1119.232 6082.56,-1123.328 Q 6082.56,-1135.616 6071.296,-1135.616 Q 6062.08,-1135.616 6044.16,-1125.376 Q 6026.24,-1115.136 5999.616,-1089.536 Q 5974.016,-1064.96 5938.688,-1019.904 Q 5903.36,-974.848 5857.28,-886.784 Q 5850.112,-873.472 5841.408,-872.448 Q 5832.704000000001,-871.424 5817.344,-870.4 Q 5807.104,-869.376 5797.888,-868.864 Q 5788.672,-868.3520000000001 5782.528,-863.2320000000001 M 6461.4400000000005,-871.424 Q 6426.624000000001,-871.424 6410.24,-894.976 Q 6393.856,-918.528 6393.856,-950.272 Q 6393.856,-959.488 6394.88,-969.216 Q 6395.904,-978.944 6398.976000000001,-989.184 Q 6384.64,-966.656 6365.696,-939.52 Q 6346.7519999999995,-912.384 6322.688,-892.416 Q 6298.624,-872.4480000000001 6268.928,-872.448 Q 6255.616,-872.448 6238.72,-878.592 Q 6221.8240000000005,-884.736 6209.024,-902.144 Q 6196.224,-919.552 6196.224,-953.344 Q 6196.224,-997.3760000000001 6215.68,-1046.528 Q 6235.136,-1095.68 6268.928,-1139.2 Q 6302.72,-1182.72 6345.728,-1209.856 Q 6388.736,-1236.992 6434.816,-1236.992 Q 6471.679999999999,-1236.992 6504.448,-1217.536 Q 6519.808,-1246.208 6537.216,-1281.536 Q 6554.624000000001,-1316.864 6572.032,-1351.68 Q 6589.4400000000005,-1386.496 6602.752,-1415.68 Q 6616.064,-1444.864 6623.232,-1460.224 Q 6638.592,-1496.0639999999999 6652.416,-1505.7920000000001 Q 6666.24,-1515.5200000000002 6685.696,-1515.52 Q 6696.96,-1515.52 6710.784000000001,-1512.96 Q 6724.608,-1510.4 6737.92,-1511.424 Q 6732.8,-1506.304 6714.368,-1477.632 Q 6695.936000000001,-1448.96 6669.312,-1403.392 Q 6642.688,-1357.824 6612.4800000000005,-1303.5520000000001 Q 6582.272000000001,-1249.2800000000002 6553.088,-1192.448 Q 6523.9039999999995,-1135.616 6499.328,-1083.392 Q 6474.752,-1031.1680000000001 6460.416,-991.232 Q 6446.08,-951.2959999999999 6446.08,-930.816 Q 6446.08,-917.504 6452.224,-907.7760000000001 Q 6458.368,-898.0480000000001 6472.704,-898.048 Q 6492.16,-898.048 6512.64,-917.504 Q 6533.12,-936.96 6552.064,-966.144 Q 6571.008000000001,-995.328 6585.856,-1023.488 Q 6600.704,-1051.6480000000001 6607.872,-1069.056 Q 6620.16,-1069.056 6620.16,-1059.84 Q 6610.9439999999995,-1038.336 6595.584,-1006.592 Q 6580.224,-974.848 6559.744,-944.128 Q 6539.264,-913.408 6514.176,-892.416 Q 6489.088000000001,-871.4240000000001 6461.4400000000005,-871.4240000000001 M 6276.0960000000005,-902.144 Q 6290.432000000001,-902.144 6311.936,-918.016 Q 6333.44,-933.8879999999999 6358.0160000000005,-968.7040000000001 Q 6386.688,-1009.6640000000001 6423.552,-1071.104 Q 6460.415999999999,-1132.544 6496.256,-1201.152 Q 6489.088000000001,-1207.296 6480.896,-1210.368 Q 6472.704,-1213.4399999999998 6458.368,-1213.44 Q 6434.816000000001,-1213.44 6406.656,-1193.472 Q 6378.496,-1173.504 6350.336,-1141.76 Q 6322.176,-1110.016 6299.136,-1073.152 Q 6276.0960000000005,-1036.288 6262.272,-1001.984 Q 6248.448,-967.6800000000001 6248.448,-943.104 Q 6248.448,-902.144 6276.0960000000005,-902.144 M 6681.6,-867.328 Q 6643.712,-867.328 6613.504,-891.904 Q 6583.296,-916.48 6583.296,-966.6560000000001 Q 6583.296,-1008.6400000000001 6602.24,-1055.744 Q 6621.184,-1102.848 6652.416,-1144.32 Q 6683.648,-1185.792 6722.048,-1211.904 Q 6760.447999999999,-1238.016 6799.360000000001,-1238.016 Q 6818.816000000001,-1238.016 6837.2480000000005,-1226.752 Q 6855.68,-1215.488 6855.68,-1187.84 Q 6855.68,-1162.24 6836.224,-1131.52 Q 6816.768,-1100.8 6780.928,-1074.176 Q 6765.568,-1062.912 6742.0160000000005,-1052.672 Q 6718.464000000001,-1042.432 6694.912,-1035.776 Q 6671.360000000001,-1029.1200000000001 6656.0,-1029.1200000000001 Q 6650.88,-1016.8320000000001 6646.272,-996.352 Q 6641.664,-975.872 6641.664,-954.368 Q 6641.664,-928.768 6651.904,-908.288 Q 6662.144,-887.808 6689.792,-887.808 Q 6723.584000000001,-887.808 6752.768,-907.264 Q 6781.952,-926.72 6804.992,-956.416 Q 6828.032,-986.1120000000001 6844.416,-1016.832 Q 6860.8,-1047.552 6870.0160000000005,-1069.056 Q 6882.304,-1069.056 6882.304,-1059.84 Q 6868.992,-1031.168 6852.0960000000005,-997.376 Q 6835.200000000001,-963.584 6812.16,-934.4 Q 6789.12,-905.216 6756.8640000000005,-886.272 Q 6724.608,-867.3280000000001 6681.6,-867.3280000000001 M 6663.168000000001,-1047.5520000000001 Q 6677.504000000001,-1047.5520000000001 6711.296,-1058.304 Q 6745.088000000001,-1069.056 6772.736,-1092.608 Q 6799.36,-1116.1599999999999 6813.696,-1144.32 Q 6828.032,-1172.48 6828.032,-1191.936 Q 6828.032,-1214.464 6811.648,-1214.464 Q 6799.360000000001,-1214.464 6777.856,-1198.08 Q 6756.352,-1181.696 6724.608,-1142.784 Q 6705.152,-1118.208 6687.744,-1089.536 Q 6670.335999999999,-1060.864 6663.168,-1047.5520000000001 M 6871.04,-1072.128 Q 6879.232,-1089.5359999999998 6892.544,-1127.936 Q 6905.856,-1166.336 6920.192,-1213.44 Q 6934.528,-1260.544 6941.696,-1302.528 Q 6944.768,-1318.912 6952.96,-1326.592 Q 6961.152,-1334.2720000000002 6970.368,-1334.272 Q 6983.68,-1334.272 6994.944,-1321.472 Q 7006.2080000000005,-1308.672 7006.2080000000005,-1285.1200000000001 Q 7006.2080000000005,-1256.448 6989.312,-1235.968 Q 6972.416,-1215.488 6947.84,-1197.056 Q 6958.08,-1196.0320000000002 6969.344,-1195.52 Q 6980.608,-1195.008 6993.92,-1195.008 Q 7042.048,-1195.008 7089.152,-1201.152 Q 7091.2,-1195.008 7091.2,-1191.936 Q 7091.2,-1178.624 7083.52,-1158.144 Q 7075.84,-1137.664 7067.648,-1121.28 Q 7063.552000000001,-1112.064 7051.264,-1088.0 Q 7038.976000000001,-1063.936 7024.64,-1033.728 Q 7010.304,-1003.5200000000001 7000.576,-974.336 Q 6990.848,-945.152 6990.848,-924.672 Q 6990.848,-898.048 7011.328,-898.048 Q 7030.784000000001,-898.048 7065.6,-943.616 Q 7100.416,-989.184 7135.232,-1069.056 Q 7147.5199999999995,-1069.056 7147.52,-1059.84 Q 7136.256,-1032.192 7119.360000000001,-999.424 Q 7102.464000000001,-966.656 7081.984,-937.472 Q 7061.504000000001,-908.288 7037.952,-889.344 Q 7014.400000000001,-870.4000000000001 6988.8,-870.4 Q 6969.344,-870.4 6949.888,-886.272 Q 6930.432,-902.144 6930.432,-937.984 Q 6930.432,-969.7280000000001 6942.72,-999.936 Q 6955.008,-1030.144 6970.368,-1056.768 Q 6985.728,-1083.392 6998.0160000000005,-1103.872 Q 7010.304,-1124.352 7010.304,-1136.64 Q 7010.304,-1155.0720000000001 6987.264,-1163.2640000000001 Q 6964.224,-1171.4560000000001 6927.360000000001,-1172.48 Q 6908.928000000001,-1125.376 6899.712,-1102.848 Q 6890.496,-1080.32 6882.304,-1059.84 Q 6865.92,-1059.84 6871.04,-1072.128" fill="none" stroke="black" stroke-linecap="round" stroke-linejoin="round" stroke-width="8" /></svg>