<?xml version="1.0" encoding="utf-8" ?>
<svg baseProfile="tiny" height="1282.048px" version="1.2" viewBox="0 0 5137.408 1282.048" width="5137.408px" xmlns="http://www.w3.org/2000/svg" xmlns:ev="http://www.w3.org/2001/xml-events" xmlns:xlink="http://www.w3.org/1999/xlink"><defs /><path d="M 558.08,-805.888 Q 513.024,-805.888 494.592,-841.216 Q 476.15999999999997,-876.544 476.16,-923.648 Q 476.16,-965.6320000000001 487.93600000000004,-1006.592 Q 499.71200000000005,-1047.552 516.096,-1069.056 Q 488.448,-1036.288 447.488,-994.304 Q 406.528,-952.3199999999999 357.37600000000003,-913.408 Q 308.22400000000005,-874.496 256.0,-848.8960000000001 Q 203.776,-823.296 152.576,-823.296 Q 84.99199999999999,-823.296 51.712,-866.304 Q 18.432000000000002,-909.312 18.432000000000002,-984.064 Q 18.432000000000002,-1042.432 38.4,-1109.5040000000001 Q 58.367999999999995,-1176.576 97.28,-1246.208 Q 115.712,-1280.0 138.752,-1313.28 Q 161.792,-1346.56 188.416,-1376.256 Q 156.672,-1391.616 126.976,-1410.56 Q 97.28,-1429.504 78.848,-1456.128 Q 60.416,-1482.752 60.416000000000004,-1519.616 Q 60.416000000000004,-1539.072 69.12,-1554.944 Q 77.82400000000001,-1570.816 88.06400000000001,-1570.816 Q 97.28,-1570.816 97.28,-1559.5520000000001 Q 97.28,-1552.3840000000002 93.184,-1544.192 Q 88.064,-1530.88 88.06400000000001,-1519.616 Q 88.06400000000001,-1491.968 107.52,-1467.904 Q 126.976,-1443.84 154.624,-1426.432 Q 182.272,-1409.0240000000001 205.824,-1398.784 Q 271.36,-1470.4640000000002 349.696,-1531.392 Q 428.03200000000004,-1592.3200000000002 518.144,-1629.184 Q 608.256,-1666.048 707.5840000000001,-1666.048 Q 790.528,-1666.048 837.6320000000001,-1629.6960000000001 Q 884.7360000000001,-1593.344 884.736,-1536.0 Q 884.736,-1484.8 855.552,-1448.448 Q 826.368,-1412.096 779.264,-1388.032 Q 732.16,-1363.9679999999998 677.376,-1350.144 Q 622.592,-1336.32 569.344,-1330.688 Q 516.096,-1325.056 476.16,-1325.056 Q 417.79200000000003,-1325.056 363.008,-1332.224 Q 308.224,-1339.3919999999998 253.952,-1354.752 Q 227.328,-1316.864 196.096,-1267.2 Q 164.864,-1217.536 136.704,-1162.752 Q 108.54400000000001,-1107.9679999999998 90.624,-1054.208 Q 72.704,-1000.4480000000001 72.70400000000001,-954.368 Q 72.70400000000001,-904.192 96.256,-879.104 Q 119.80799999999999,-854.0160000000001 159.744,-854.016 Q 207.872,-854.016 261.632,-883.2 Q 315.392,-912.384 369.664,-959.488 Q 423.936,-1006.5920000000001 473.088,-1061.888 Q 522.24,-1117.184 561.152,-1171.4560000000001 Q 600.0640000000001,-1225.728 622.592,-1267.712 Q 640.0,-1300.48 656.384,-1314.304 Q 672.768,-1328.1280000000002 684.032,-1328.128 Q 695.296,-1328.128 701.44,-1319.424 Q 707.5840000000001,-1310.72 707.5840000000001,-1296.384 Q 707.5840000000001,-1267.712 681.984,-1239.04 Q 647.168,-1199.104 614.4,-1142.272 Q 581.632,-1085.4399999999998 561.152,-1023.488 Q 540.672,-961.5360000000001 540.672,-907.264 Q 540.672,-869.376 552.448,-852.992 Q 564.2239999999999,-836.608 583.6800000000001,-836.6080000000001 Q 613.3760000000001,-836.6080000000001 643.5840000000001,-856.576 Q 673.792,-876.544 701.44,-910.336 Q 729.0880000000001,-944.128 752.64,-985.6 Q 776.192,-1027.0720000000001 793.6,-1069.056 Q 798.72,-1069.056 802.304,-1068.032 Q 805.8879999999999,-1067.008 805.888,-1059.84 Q 788.48,-1015.8079999999999 764.416,-970.7520000000001 Q 740.3520000000001,-925.696 709.6320000000001,-888.32 Q 678.912,-850.9440000000001 641.024,-828.416 Q 603.136,-805.888 558.08,-805.888 M 466.944,-1349.632 Q 507.904,-1349.632 558.08,-1354.24 Q 608.2560000000001,-1358.848 657.92,-1371.136 Q 707.584,-1383.424 749.568,-1405.952 Q 791.552,-1428.48 817.152,-1463.296 Q 842.7520000000001,-1498.112 842.7520000000001,-1548.288 Q 842.7520000000001,-1593.344 805.376,-1616.896 Q 768.0,-1640.4479999999999 710.6560000000001,-1640.448 Q 615.4240000000001,-1640.448 537.088,-1603.0720000000001 Q 458.75199999999995,-1565.6960000000001 393.728,-1505.28 Q 328.704,-1444.864 270.336,-1375.232 Q 315.392,-1361.92 363.008,-1355.776 Q 410.62399999999997,-1349.632 466.94399999999996,-1349.632 M 841.7280000000001,-868.352 Q 803.84,-868.352 785.9200000000001,-891.392 Q 768.0000000000001,-914.432 768.0,-946.176 Q 768.0,-978.9440000000001 777.216,-1013.76 Q 786.432,-1048.576 793.6,-1072.128 Q 809.984,-1129.472 835.072,-1194.496 Q 860.16,-1259.52 890.368,-1322.496 Q 920.576,-1385.4720000000002 950.272,-1435.6480000000001 Q 973.8240000000001,-1475.584 1000.96,-1495.5520000000001 Q 1028.096,-1515.5200000000002 1048.576,-1515.52 Q 1064.96,-1515.52 1074.688,-1503.7440000000001 Q 1084.4160000000002,-1491.968 1084.416,-1468.416 Q 1084.416,-1452.032 1078.784,-1429.5040000000001 Q 1073.152,-1406.976 1059.84,-1378.304 Q 1023.9999999999999,-1298.432 974.336,-1218.56 Q 924.672,-1138.6879999999999 848.8960000000001,-1069.056 Q 836.6080000000001,-1040.384 828.416,-1007.616 Q 820.224,-974.848 820.224,-954.368 Q 820.224,-890.8800000000001 863.232,-890.88 Q 896.0,-890.88 935.936,-938.496 Q 975.8720000000001,-986.112 1011.712,-1069.056 Q 1015.808,-1069.056 1019.904,-1067.52 Q 1024.0,-1065.984 1024.0,-1059.84 Q 1012.736,-1032.192 995.84,-998.912 Q 978.9440000000001,-965.6320000000001 956.928,-935.936 Q 934.912,-906.24 906.24,-887.296 Q 877.568,-868.3520000000001 841.7280000000001,-868.3520000000001 M 857.088,-1101.824 Q 893.952,-1139.712 928.768,-1189.376 Q 963.5840000000001,-1239.04 993.792,-1292.8 Q 1024.0,-1346.56 1044.48,-1394.688 Q 1051.648,-1410.048 1056.256,-1428.48 Q 1060.864,-1446.912 1060.864,-1459.2 Q 1060.864,-1473.536 1053.696,-1473.536 Q 1049.6,-1473.536 1041.4080000000001,-1465.856 Q 1033.2160000000001,-1458.176 1019.904,-1439.7440000000001 Q 1000.448,-1414.1440000000002 977.408,-1370.112 Q 954.368,-1326.0800000000002 930.816,-1275.904 Q 907.264,-1225.728 887.808,-1179.136 Q 868.352,-1132.5439999999999 857.088,-1101.824 M 1059.84,-868.352 Q 1021.9519999999999,-868.352 1004.032,-891.392 Q 986.1120000000001,-914.432 986.112,-946.176 Q 986.112,-978.9440000000001 995.328,-1013.76 Q 1004.544,-1048.576 1011.712,-1072.128 Q 1028.096,-1129.472 1053.184,-1194.496 Q 1078.272,-1259.52 1108.48,-1322.496 Q 1138.688,-1385.4720000000002 1168.384,-1435.6480000000001 Q 1191.936,-1475.584 1219.0720000000001,-1495.5520000000001 Q 1246.208,-1515.5200000000002 1266.688,-1515.52 Q 1283.0720000000001,-1515.52 1292.8,-1503.7440000000001 Q 1302.528,-1491.968 1302.528,-1468.416 Q 1302.528,-1452.032 1296.896,-1429.5040000000001 Q 1291.264,-1406.976 1277.952,-1378.304 Q 1242.112,-1298.432 1192.448,-1218.56 Q 1142.784,-1138.6879999999999 1067.008,-1069.056 Q 1054.72,-1040.384 1046.528,-1007.616 Q 1038.336,-974.848 1038.336,-954.368 Q 1038.336,-890.8800000000001 1081.344,-890.88 Q 1114.112,-890.88 1154.048,-938.496 Q 1193.984,-986.112 1229.824,-1069.056 Q 1233.92,-1069.056 1238.016,-1067.52 Q 1242.112,-1065.984 1242.112,-1059.84 Q 1230.8480000000002,-1032.192 1213.952,-998.912 Q 1197.056,-965.6320000000001 1175.04,-935.936 Q 1153.024,-906.24 1124.352,-887.296 Q 1095.68,-868.3520000000001 1059.8400000000001,-868.3520000000001 M 1075.2,-1101.824 Q 1112.064,-1139.712 1146.88,-1189.376 Q 1181.6960000000001,-1239.04 1211.904,-1292.8 Q 1242.112,-1346.56 1262.592,-1394.688 Q 1269.76,-1410.048 1274.368,-1428.48 Q 1278.9759999999999,-1446.912 1278.976,-1459.2 Q 1278.976,-1473.536 1271.808,-1473.536 Q 1267.712,-1473.536 1259.52,-1465.856 Q 1251.328,-1458.176 1238.016,-1439.7440000000001 Q 1218.5600000000002,-1414.1440000000002 1195.52,-1370.112 Q 1172.48,-1326.0800000000002 1148.928,-1275.904 Q 1125.3760000000002,-1225.728 1105.92,-1179.136 Q 1086.4640000000002,-1132.5439999999999 1075.2,-1101.824 M 1303.5520000000001,-867.328 Q 1265.6640000000002,-867.328 1235.4560000000001,-891.904 Q 1205.248,-916.48 1205.248,-966.6560000000001 Q 1205.248,-1008.6400000000001 1224.192,-1055.744 Q 1243.136,-1102.848 1274.368,-1144.32 Q 1305.6,-1185.792 1344.0,-1211.904 Q 1382.4,-1238.016 1421.3120000000001,-1238.016 Q 1440.768,-1238.016 1459.2,-1226.752 Q 1477.632,-1215.488 1477.632,-1187.84 Q 1477.632,-1162.24 1458.176,-1131.52 Q 1438.72,-1100.8 1402.88,-1074.176 Q 1387.5200000000002,-1062.912 1363.968,-1052.672 Q 1340.4160000000002,-1042.432 1316.864,-1035.776 Q 1293.3120000000001,-1029.1200000000001 1277.952,-1029.1200000000001 Q 1272.832,-1016.8320000000001 1268.224,-996.352 Q 1263.616,-975.872 1263.616,-954.368 Q 1263.616,-928.768 1273.856,-908.288 Q 1284.096,-887.808 1311.744,-887.808 Q 1345.5359999999998,-887.808 1374.72,-907.264 Q 1403.904,-926.72 1426.944,-956.416 Q 1449.984,-986.1120000000001 1466.368,-1016.832 Q 1482.752,-1047.552 1491.968,-1069.056 Q 1504.256,-1069.056 1504.256,-1059.84 Q 1490.9440000000002,-1031.168 1474.048,-997.376 Q 1457.152,-963.584 1434.112,-934.4 Q 1411.0720000000001,-905.216 1378.816,-886.272 Q 1346.56,-867.3280000000001 1303.5520000000001,-867.3280000000001 M 1285.1200000000001,-1047.5520000000001 Q 1299.4560000000001,-1047.5520000000001 1333.248,-1058.304 Q 1367.04,-1069.056 1394.688,-1092.608 Q 1421.3120000000001,-1116.1599999999999 1435.6480000000001,-1144.32 Q 1449.9840000000002,-1172.48 1449.984,-1191.936 Q 1449.984,-1214.464 1433.6000000000001,-1214.464 Q 1421.3120000000001,-1214.464 1399.808,-1198.08 Q 1378.304,-1181.696 1346.56,-1142.784 Q 1327.104,-1118.208 1309.6960000000001,-1089.536 Q 1292.2880000000002,-1060.864 1285.1200000000001,-1047.5520000000001 M 1492.992,-1072.128 Q 1501.184,-1089.5359999999998 1514.496,-1127.936 Q 1527.808,-1166.336 1542.144,-1213.44 Q 1556.48,-1260.544 1563.6480000000001,-1302.528 Q 1566.72,-1318.912 1574.912,-1326.592 Q 1583.104,-1334.2720000000002 1592.32,-1334.272 Q 1605.6319999999998,-1334.272 1616.896,-1321.472 Q 1628.1599999999999,-1308.672 1628.16,-1285.1200000000001 Q 1628.16,-1256.448 1611.2640000000001,-1235.968 Q 1594.3680000000002,-1215.488 1569.7920000000001,-1197.056 Q 1580.0320000000002,-1196.0320000000002 1591.296,-1195.52 Q 1602.56,-1195.008 1615.872,-1195.008 Q 1664.0,-1195.008 1711.104,-1201.152 Q 1713.152,-1195.008 1713.152,-1191.936 Q 1713.152,-1178.624 1705.472,-1158.144 Q 1697.792,-1137.664 1689.6000000000001,-1121.28 Q 1685.5040000000001,-1112.064 1673.2160000000001,-1088.0 Q 1660.928,-1063.936 1646.592,-1033.728 Q 1632.256,-1003.5200000000001 1622.528,-974.336 Q 1612.8,-945.152 1612.8,-924.672 Q 1612.8,-898.048 1633.28,-898.048 Q 1652.7359999999999,-898.048 1687.5520000000001,-943.616 Q 1722.3680000000002,-989.184 1757.184,-1069.056 Q 1769.472,-1069.056 1769.472,-1059.84 Q 1758.208,-1032.192 1741.3120000000001,-999.424 Q 1724.4160000000002,-966.656 1703.9360000000001,-937.472 Q 1683.4560000000001,-908.288 1659.904,-889.344 Q 1636.352,-870.4000000000001 1610.752,-870.4 Q 1591.296,-870.4 1571.8400000000001,-886.272 Q 1552.3840000000002,-902.144 1552.384,-937.984 Q 1552.384,-969.7280000000001 1564.672,-999.936 Q 1576.96,-1030.144 1592.32,-1056.768 Q 1607.6799999999998,-1083.392 1619.968,-1103.872 Q 1632.256,-1124.352 1632.256,-1136.64 Q 1632.256,-1155.0720000000001 1609.2160000000001,-1163.2640000000001 Q 1586.1760000000002,-1171.4560000000001 1549.3120000000001,-1172.48 Q 1530.88,-1125.376 1521.664,-1102.848 Q 1512.448,-1080.32 1504.256,-1059.84 Q 1487.872,-1059.84 1492.9920000000002,-1072.128 M 1686.528,-544.768 Q 1589.248,-544.768 1589.248,-624.64 Q 1589.248,-662.528 1615.872,-692.224 Q 1642.496,-721.9200000000001 1679.3600000000001,-743.424 Q 1730.5600000000002,-774.144 1779.712,-792.576 Q 1828.864,-811.008 1873.92,-824.832 Q 1918.976,-838.656 1957.8880000000001,-855.04 Q 1967.104,-881.664 1973.248,-913.9200000000001 Q 1979.392,-946.176 1982.464,-976.8960000000001 Q 1985.5359999999998,-1007.6160000000001 1985.536,-1030.144 Q 1985.536,-1053.696 1982.464,-1060.864 Q 1971.2,-1039.3600000000001 1952.256,-1007.616 Q 1933.3120000000001,-975.872 1908.224,-944.64 Q 1883.136,-913.408 1855.488,-892.928 Q 1827.8400000000001,-872.448 1799.1680000000001,-872.448 Q 1788.928,-872.448 1779.712,-875.52 Q 1751.04,-887.808 1738.24,-910.336 Q 1725.44,-932.864 1725.44,-961.5360000000001 Q 1725.44,-1007.6160000000001 1752.064,-1060.864 Q 1778.688,-1114.112 1815.5520000000001,-1158.144 Q 1845.248,-1193.984 1885.184,-1215.488 Q 1925.12,-1236.992 1966.08,-1236.992 Q 2013.184,-1236.992 2054.1440000000002,-1205.248 Q 2069.5040000000004,-1192.96 2069.504,-1178.624 Q 2069.504,-1163.2640000000001 2057.216,-1163.2640000000001 Q 2046.9759999999999,-1163.2640000000001 2042.88,-1176.576 Q 2028.544,-1214.464 1996.8,-1214.464 Q 1971.2,-1214.464 1938.432,-1192.448 Q 1905.664,-1170.432 1876.992,-1137.664 Q 1852.416,-1110.016 1829.376,-1074.176 Q 1806.336,-1038.336 1791.488,-1003.52 Q 1776.64,-968.704 1776.64,-943.104 Q 1776.64,-925.696 1784.832,-913.408 Q 1793.0240000000001,-901.12 1810.432,-901.12 Q 1833.984,-901.12 1860.096,-923.648 Q 1886.208,-946.176 1910.272,-978.9440000000001 Q 1934.336,-1011.7120000000001 1952.256,-1045.5040000000001 Q 1970.1760000000002,-1079.296 1977.344,-1101.824 Q 1984.512,-1125.376 1996.8,-1131.008 Q 2009.088,-1136.64 2021.376,-1136.64 Q 2033.664,-1136.64 2041.856,-1142.784 Q 2045.952,-1120.256 2047.488,-1097.2160000000001 Q 2049.024,-1074.1760000000002 2049.024,-1050.624 Q 2049.024,-1003.52 2043.392,-964.6080000000001 Q 2037.76,-925.696 2024.448,-881.664 Q 2061.312,-904.192 2088.448,-938.496 Q 2115.584,-972.8 2133.504,-1008.128 Q 2151.424,-1043.4560000000001 2162.688,-1069.056 Q 2174.976,-1069.056 2174.976,-1059.84 Q 2161.664,-1032.192 2141.696,-992.256 Q 2121.728,-952.3199999999999 2091.52,-914.9440000000001 Q 2061.312,-877.5680000000001 2016.256,-857.088 Q 1998.8480000000002,-807.9359999999999 1966.592,-753.664 Q 1934.336,-699.3919999999999 1890.304,-651.7760000000001 Q 1846.2720000000002,-604.1600000000001 1794.048,-574.464 Q 1741.824,-544.768 1686.528,-544.768 M 1661.952,-565.248 Q 1684.48,-565.248 1709.568,-574.976 Q 1734.656,-584.704 1757.184,-598.016 Q 1779.712,-611.328 1792.0,-620.544 Q 1815.552,-638.976 1840.128,-666.624 Q 1864.704,-694.272 1883.136,-719.8720000000001 Q 1900.5439999999999,-744.4480000000001 1918.976,-771.5840000000001 Q 1937.4080000000001,-798.72 1948.672,-825.344 L 1906.688,-812.032 Q 1872.8960000000002,-801.792 1832.448,-786.944 Q 1792.0,-772.096 1752.064,-753.664 Q 1712.1280000000002,-735.232 1679.3600000000001,-713.7280000000001 Q 1650.688,-694.272 1631.7440000000001,-662.528 Q 1612.8000000000002,-630.784 1612.8,-607.232 Q 1612.8,-589.824 1624.576,-577.5360000000001 Q 1636.352,-565.248 1661.952,-565.248 M 2021.376,-544.768 Q 1968.128,-544.768 1945.6000000000001,-565.76 Q 1923.0720000000001,-586.752 1923.0720000000001,-615.424 Q 1923.0720000000001,-659.456 1955.328,-696.832 Q 1987.584,-734.208 2034.688,-756.736 Q 2087.936,-781.312 2156.032,-796.672 Q 2224.128,-812.032 2286.592,-830.464 Q 2306.0480000000002,-864.2560000000001 2322.4320000000002,-907.7760000000001 Q 2338.8160000000003,-951.296 2352.128,-992.768 Q 2365.44,-1034.24 2373.632,-1060.864 Q 2361.344,-1038.336 2342.4,-1006.08 Q 2323.456,-973.8240000000001 2299.904,-943.104 Q 2276.352,-912.384 2249.216,-891.904 Q 2222.08,-871.424 2192.384,-871.424 Q 2181.12,-871.424 2165.248,-876.544 Q 2149.376,-881.664 2137.6,-895.488 Q 2125.824,-909.312 2125.824,-936.96 Q 2125.824,-963.5840000000001 2142.208,-995.84 Q 2158.592,-1028.096 2174.976,-1059.84 Q 2169.856,-1059.84 2166.272,-1060.864 Q 2162.688,-1061.888 2162.688,-1069.056 Q 2165.76,-1075.2 2174.976,-1095.68 Q 2184.192,-1116.16 2195.968,-1140.736 Q 2207.7439999999997,-1165.3120000000001 2216.96,-1183.744 Q 2228.224,-1207.2959999999998 2242.0480000000002,-1216.512 Q 2255.8720000000003,-1225.7279999999998 2269.184,-1225.728 L 2332.672,-1225.728 Q 2325.504,-1219.584 2314.752,-1211.904 Q 2304.0,-1204.224 2294.784,-1188.864 Q 2267.136,-1141.76 2246.656,-1098.24 Q 2226.176,-1054.72 2202.6240000000003,-1005.568 Q 2191.36,-982.016 2186.2400000000002,-962.5600000000001 Q 2181.1200000000003,-943.104 2181.12,-928.768 Q 2181.12,-894.976 2203.648,-894.976 Q 2228.224,-894.976 2263.04,-934.912 Q 2291.712,-968.7040000000001 2320.896,-1015.296 Q 2350.0800000000004,-1061.8880000000001 2377.216,-1111.5520000000001 Q 2404.352,-1161.2160000000001 2424.832,-1203.2 Q 2436.096,-1225.728 2464.768,-1225.728 L 2521.088,-1225.728 Q 2491.3920000000003,-1205.248 2475.52,-1172.48 Q 2459.648,-1139.712 2440.192,-1088.512 Q 2418.688,-1032.192 2399.232,-971.7760000000001 Q 2379.776,-911.36 2356.224,-847.8720000000001 Q 2406.4,-865.2800000000001 2440.192,-892.928 Q 2473.984,-920.576 2500.096,-964.096 Q 2526.208,-1007.616 2552.832,-1069.056 Q 2565.12,-1069.056 2565.12,-1059.84 Q 2542.592,-1012.7359999999999 2524.16,-976.8960000000001 Q 2505.728,-941.056 2483.2000000000003,-913.9200000000001 Q 2460.6720000000005,-886.7840000000001 2426.88,-863.744 Q 2393.088,-840.7040000000001 2339.84,-819.2 Q 2315.264,-775.168 2284.032,-727.552 Q 2252.8,-679.936 2213.376,-638.464 Q 2173.952,-596.9920000000001 2126.3360000000002,-570.88 Q 2078.7200000000003,-544.768 2021.3760000000002,-544.768 M 1996.8,-565.248 Q 2030.5919999999999,-565.248 2066.4320000000002,-585.7280000000001 Q 2102.2720000000004,-606.2080000000001 2136.064,-637.44 Q 2169.8559999999998,-668.672 2198.016,-700.928 Q 2226.176,-733.184 2243.584,-757.76 Q 2248.7039999999997,-764.928 2254.848,-776.192 Q 2260.9919999999997,-787.456 2267.136,-797.696 Q 2216.96,-784.384 2157.056,-768.5120000000001 Q 2097.152,-752.6400000000001 2053.12,-733.184 Q 2003.9679999999998,-712.704 1975.808,-674.816 Q 1947.648,-636.928 1947.6480000000001,-607.232 Q 1947.6480000000001,-588.8 1959.424,-577.024 Q 1971.2,-565.248 1996.8,-565.248 M 3197.952,-743.424 Q 3167.2320000000004,-743.424 3147.264,-765.952 Q 3127.2960000000003,-788.48 3131.3920000000003,-850.9440000000001 Q 3135.4880000000003,-915.4560000000001 3171.328,-1016.832 Q 3207.168,-1118.208 3264.512,-1255.424 Q 3282.944,-1299.456 3301.888,-1353.728 Q 3320.832,-1408.0 3334.1440000000002,-1462.784 Q 3347.456,-1517.5680000000002 3347.456,-1561.6000000000001 Q 3347.456,-1592.3200000000002 3339.7760000000003,-1615.3600000000001 Q 3332.0960000000005,-1638.4 3312.64,-1649.664 Q 3290.112,-1664.0 3264.512,-1670.144 Q 3238.9120000000003,-1676.288 3210.2400000000002,-1676.288 Q 3145.728,-1676.288 3074.56,-1646.592 Q 3003.392,-1616.8960000000002 2937.344,-1565.184 Q 2871.2960000000003,-1513.472 2819.584,-1447.936 Q 2767.872,-1382.3999999999999 2741.248,-1311.744 Q 2725.888,-1269.76 2718.7200000000003,-1232.896 Q 2711.552,-1196.032 2711.552,-1166.336 Q 2711.552,-1110.016 2732.544,-1072.64 Q 2753.536,-1035.2640000000001 2787.84,-1017.344 Q 2822.1440000000002,-999.4240000000001 2862.08,-999.424 Q 2899.968,-999.424 2933.76,-1012.736 Q 2977.7920000000004,-1029.12 3012.608,-1068.032 Q 3047.424,-1106.944 3067.904,-1154.56 Q 3088.384,-1202.176 3088.384,-1242.112 Q 3088.384,-1276.928 3070.464,-1300.48 Q 3052.544,-1324.032 3011.5840000000003,-1324.032 Q 3005.4400000000005,-1324.032 2999.808,-1324.032 Q 2994.176,-1324.032 2987.0080000000003,-1321.984 Q 2982.9120000000003,-1320.96 2979.84,-1320.96 Q 2976.768,-1320.96 2974.7200000000003,-1320.96 Q 2965.5040000000004,-1320.96 2965.504,-1325.056 Q 2965.504,-1331.2 2984.96,-1338.368 Q 3016.704,-1348.608 3044.352,-1348.608 Q 3092.48,-1348.608 3116.032,-1320.448 Q 3139.5840000000003,-1292.288 3139.5840000000003,-1249.28 Q 3139.5840000000003,-1206.272 3116.032,-1156.608 Q 3092.48,-1106.944 3046.9120000000003,-1061.888 Q 3001.344,-1016.8319999999999 2932.736,-988.16 Q 2895.872,-972.8 2856.96,-972.8000000000001 Q 2803.712,-972.8000000000001 2756.608,-1000.448 Q 2709.5040000000004,-1028.096 2679.808,-1079.296 Q 2650.112,-1130.496 2650.112,-1200.128 Q 2650.112,-1233.9199999999998 2658.304,-1270.784 Q 2666.496,-1307.6480000000001 2683.904,-1348.608 Q 2717.696,-1427.456 2776.064,-1492.48 Q 2834.432,-1557.504 2906.6240000000003,-1605.1200000000001 Q 2978.8160000000003,-1652.736 3054.592,-1678.336 Q 3130.368,-1703.936 3198.976,-1703.9360000000001 Q 3259.3920000000003,-1703.9360000000001 3308.544,-1682.432 Q 3362.816,-1658.88 3384.832,-1615.3600000000001 Q 3406.848,-1571.8400000000001 3406.848,-1517.568 Q 3406.848,-1458.176 3386.88,-1391.104 Q 3366.9120000000003,-1324.0320000000002 3338.2400000000002,-1259.52 Q 3306.496,-1186.816 3275.7760000000003,-1107.968 Q 3245.0560000000005,-1029.1200000000001 3222.5280000000002,-958.464 Q 3200.0000000000005,-887.808 3190.784,-840.7040000000001 Q 3188.7360000000003,-829.44 3187.712,-820.736 Q 3186.688,-812.032 3186.688,-805.888 Q 3186.688,-770.048 3210.2400000000002,-770.048 Q 3224.576,-770.048 3244.032,-782.336 Q 3281.92,-804.864 3320.832,-849.9200000000001 Q 3359.7439999999997,-894.9760000000001 3398.1440000000002,-952.832 Q 3436.5440000000003,-1010.688 3472.384,-1071.616 Q 3508.224,-1132.544 3540.992,-1186.816 Q 3573.76,-1241.088 3600.384,-1278.976 Q 3616.768,-1301.5040000000001 3631.1040000000003,-1312.256 Q 3645.44,-1323.008 3655.6800000000003,-1323.008 Q 3677.184,-1323.008 3677.184,-1290.24 Q 3677.184,-1270.784 3667.9680000000003,-1243.136 Q 3654.6560000000004,-1204.224 3632.128,-1154.56 Q 3609.6000000000004,-1104.896 3590.1440000000002,-1054.208 Q 3570.688,-1003.5200000000001 3564.544,-959.488 Q 3563.52,-948.224 3563.0080000000003,-939.52 Q 3562.496,-930.816 3562.496,-921.6 Q 3562.496,-868.352 3584.0,-845.312 Q 3605.504,-822.272 3640.32,-822.272 Q 3680.2560000000003,-822.272 3730.944,-847.8720000000001 Q 3781.632,-873.4720000000001 3832.832,-915.9680000000001 Q 3884.0319999999997,-958.464 3925.504,-1009.664 Q 3966.976,-1060.864 3988.48,-1112.064 Q 4012.032,-1168.384 4024.32,-1221.632 Q 4036.608,-1274.88 4036.608,-1318.912 Q 4036.608,-1389.568 4005.888,-1434.112 Q 3975.168,-1478.6560000000002 3909.632,-1478.656 Q 3904.512,-1478.656 3898.368,-1478.144 Q 3892.224,-1477.632 3885.056,-1476.608 Q 3860.48,-1470.464 3849.216,-1470.464 Q 3835.904,-1470.464 3835.904,-1476.608 Q 3835.904,-1484.8 3856.384,-1495.04 Q 3876.864,-1505.28 3899.3920000000003,-1501.184 Q 3948.5440000000003,-1505.28 3992.0640000000003,-1479.1680000000001 Q 4035.5840000000003,-1453.056 4062.208,-1401.344 Q 4088.832,-1349.632 4088.832,-1275.904 Q 4088.832,-1238.016 4080.64,-1193.984 Q 4072.448,-1149.952 4052.992,-1101.824 Q 4027.3920000000003,-1037.3120000000001 3981.312,-982.0160000000001 Q 3935.232,-926.72 3878.4,-884.736 Q 3821.568,-842.752 3762.688,-819.712 Q 3703.808,-796.672 3652.608,-796.672 Q 3594.2400000000002,-796.672 3554.8160000000003,-833.024 Q 3515.3920000000003,-869.376 3515.3920000000003,-950.272 Q 3515.3920000000003,-984.0640000000001 3521.536,-1018.88 Q 3527.68,-1053.696 3535.8720000000003,-1080.32 Q 3518.4640000000004,-1051.648 3489.792,-1009.152 Q 3461.12,-966.6560000000001 3424.768,-920.576 Q 3388.416,-874.496 3349.504,-834.048 Q 3310.592,-793.6 3271.6800000000003,-768.5120000000001 Q 3232.7680000000005,-743.4240000000001 3197.952,-743.4240000000001 M 4012.032,-863.232 Q 4055.04,-951.2959999999999 4101.6320000000005,-1048.064 Q 4148.224,-1144.832 4197.376,-1243.136 Q 4246.528,-1341.44 4294.656,-1430.528 Q 4312.064,-1461.248 4326.912,-1478.656 Q 4341.76,-1496.0639999999999 4366.336,-1496.064 Q 4375.552000000001,-1496.064 4387.84,-1492.992 Q 4400.128,-1489.92 4411.392,-1491.968 Q 4398.08,-1477.632 4375.04,-1441.792 Q 4352.0,-1405.952 4323.84,-1355.776 Q 4295.68,-1305.6000000000001 4264.448,-1247.744 Q 4233.216,-1189.888 4203.008,-1131.008 Q 4172.8,-1072.128 4147.2,-1020.928 Q 4167.679999999999,-1047.552 4189.184,-1071.104 Q 4210.688,-1094.656 4231.168,-1112.064 Q 4253.696,-1132.544 4288.0,-1155.0720000000001 Q 4322.304,-1177.6000000000001 4356.608,-1193.984 Q 4390.912,-1210.368 4411.392,-1210.368 Q 4418.5599999999995,-1210.368 4421.6320000000005,-1209.344 Q 4421.6320000000005,-1209.344 4410.368,-1188.864 Q 4399.104,-1168.384 4382.2080000000005,-1136.64 Q 4365.312000000001,-1104.8960000000002 4347.392,-1068.032 Q 4329.472,-1031.168 4316.16,-997.888 Q 4302.848,-964.6080000000001 4298.752,-943.104 Q 4295.68,-926.72 4295.68,-915.456 Q 4295.68,-899.072 4301.8240000000005,-893.44 Q 4307.968000000001,-887.8080000000001 4315.136,-887.808 Q 4332.544000000001,-887.808 4352.512,-905.7280000000001 Q 4372.48,-923.648 4391.936,-951.296 Q 4411.392,-978.9440000000001 4428.2880000000005,-1010.176 Q 4445.184,-1041.4080000000001 4455.424,-1069.056 Q 4467.7119999999995,-1069.056 4467.712,-1059.84 Q 4456.448,-1032.192 4439.552,-998.912 Q 4422.656,-965.6320000000001 4401.152,-935.936 Q 4379.648,-906.24 4354.048,-886.784 Q 4328.447999999999,-867.328 4299.776,-867.328 Q 4279.296,-867.328 4257.792,-881.664 Q 4236.2880000000005,-896.0 4236.2880000000005,-933.888 Q 4236.2880000000005,-945.152 4238.336,-957.952 Q 4240.384,-970.752 4245.504,-987.136 Q 4251.648,-1007.616 4265.984,-1032.704 Q 4280.320000000001,-1057.792 4302.848,-1095.68 Q 4313.088,-1113.088 4313.088,-1123.328 Q 4313.088,-1135.616 4300.8,-1135.616 Q 4290.56,-1135.616 4273.152,-1125.376 Q 4255.744,-1115.136 4229.12,-1089.536 Q 4203.5199999999995,-1064.96 4165.6320000000005,-1017.856 Q 4127.744000000001,-970.752 4084.736,-885.76 Q 4077.5679999999998,-872.448 4068.864,-871.936 Q 4060.16,-871.4240000000001 4045.824,-870.4 Q 4036.608,-869.376 4027.3920000000003,-868.864 Q 4018.1760000000004,-868.3520000000001 4012.032,-863.2320000000001 M 4529.152,-867.328 Q 4491.264,-867.328 4461.0560000000005,-891.904 Q 4430.848000000001,-916.48 4430.848,-966.6560000000001 Q 4430.848,-1008.6400000000001 4449.792,-1055.744 Q 4468.736000000001,-1102.848 4499.968,-1144.32 Q 4531.2,-1185.792 4569.6,-1211.904 Q 4608.0,-1238.016 4646.912,-1238.016 Q 4666.368,-1238.016 4684.8,-1226.752 Q 4703.232,-1215.488 4703.232,-1187.84 Q 4703.232,-1162.24 4683.776,-1131.52 Q 4664.32,-1100.8 4628.4800000000005,-1074.176 Q 4613.120000000001,-1062.912 4589.568,-1052.672 Q 4566.0160000000005,-1042.432 4542.464,-1035.776 Q 4518.912,-1029.1200000000001 4503.552,-1029.1200000000001 Q 4498.432,-1016.8320000000001 4493.8240000000005,-996.352 Q 4489.216,-975.872 4489.216,-954.368 Q 4489.216,-928.768 4499.456,-908.288 Q 4509.696,-887.808 4537.344,-887.808 Q 4571.136,-887.808 4600.32,-907.264 Q 4629.504,-926.72 4652.544,-956.416 Q 4675.584,-986.1120000000001 4691.968,-1016.832 Q 4708.352,-1047.552 4717.568,-1069.056 Q 4729.856,-1069.056 4729.856,-1059.84 Q 4716.544,-1031.168 4699.648,-997.376 Q 4682.752,-963.584 4659.712,-934.4 Q 4636.6720000000005,-905.216 4604.416,-886.272 Q 4572.16,-867.3280000000001 4529.152,-867.3280000000001 M 4510.72,-1047.5520000000001 Q 4525.0560000000005,-1047.5520000000001 4558.848,-1058.304 Q 4592.64,-1069.056 4620.2880000000005,-1092.608 Q 4646.912,-1116.1599999999999 4661.2480000000005,-1144.32 Q 4675.584000000001,-1172.48 4675.584,-1191.936 Q 4675.584,-1214.464 4659.2,-1214.464 Q 4646.912,-1214.464 4625.408,-1198.08 Q 4603.904,-1181.696 4572.16,-1142.784 Q 4552.704,-1118.208 4535.296,-1089.536 Q 4517.888,-1060.864 4510.72,-1047.5520000000001 M 4791.296,-867.328 Q 4753.408,-867.328 4723.2,-891.904 Q 4692.992,-916.48 4692.992,-966.6560000000001 Q 4692.992,-1008.6400000000001 4711.936,-1055.744 Q 4730.88,-1102.848 4762.112,-1144.32 Q 4793.344,-1185.792 4831.744,-1211.904 Q 4870.143999999999,-1238.016 4909.0560000000005,-1238.016 Q 4928.512000000001,-1238.016 4946.944,-1226.752 Q 4965.376,-1215.488 4965.376,-1187.84 Q 4965.376,-1162.24 4945.92,-1131.52 Q 4926.464,-1100.8 4890.624,-1074.176 Q 4875.264,-1062.912 4851.712,-1052.672 Q 4828.160000000001,-1042.432 4804.608,-1035.776 Q 4781.0560000000005,-1029.1200000000001 4765.696,-1029.1200000000001 Q 4760.576,-1016.8320000000001 4755.968,-996.352 Q 4751.36,-975.872 4751.36,-954.368 Q 4751.36,-928.768 4761.6,-908.288 Q 4771.84,-887.808 4799.488,-887.808 Q 4833.280000000001,-887.808 4862.464,-907.264 Q 4891.648,-926.72 4914.688,-956.416 Q 4937.728,-986.1120000000001 4954.112,-1016.832 Q 4970.496,-1047.552 4979.712,-1069.056 Q 4992.0,-1069.056 4992.0,-1059.84 Q 4978.688,-1031.168 4961.792,-997.376 Q 4944.896000000001,-963.584 4921.856,-934.4 Q 4898.816,-905.216 4866.56,-886.272 Q 4834.304,-867.3280000000001 4791.296,-867.3280000000001 M 4772.8640000000005,-1047.5520000000001 Q 4787.200000000001,-1047.5520000000001 4820.992,-1058.304 Q 4854.784000000001,-1069.056 4882.432,-1092.608 Q 4909.056,-1116.1599999999999 4923.392,-1144.32 Q 4937.728,-1172.48 4937.728,-1191.936 Q 4937.728,-1214.464 4921.344,-1214.464 Q 4909.0560000000005,-1214.464 4887.552,-1198.08 Q 4866.048,-1181.696 4834.304,-1142.784 Q 4814.848,-1118.208 4797.4400000000005,-1089.536 Q 4780.032,-1060.864 4772.8640000000005,-1047.5520000000001 M 5027.84,-868.352 Q 4989.952,-868.352 4972.032,-891.392 Q 4954.112,-914.432 4954.112,-946.176 Q 4954.112,-978.9440000000001 4963.328,-1013.76 Q 4972.544000000001,-1048.576 4979.712,-1072.128 Q 4996.0960000000005,-1129.472 5021.184,-1194.496 Q 5046.272,-1259.52 5076.4800000000005,-1322.496 Q 5106.688,-1385.4720000000002 5136.384,-1435.6480000000001 Q 5159.936,-1475.584 5187.072,-1495.5520000000001 Q 5214.2080000000005,-1515.5200000000002 5234.688,-1515.52 Q 5251.072,-1515.52 5260.8,-1503.7440000000001 Q 5270.528,-1491.968 5270.528,-1468.416 Q 5270.528,-1452.032 5264.896,-1429.5040000000001 Q 5259.264,-1406.976 5245.952,-1378.304 Q 5210.112,-1298.432 5160.448,-1218.56 Q 5110.784000000001,-1138.6879999999999 5035.008,-1069.056 Q 5022.72,-1040.384 5014.528,-1007.616 Q 5006.336,-974.848 5006.336,-954.368 Q 5006.336,-890.8800000000001 5049.344,-890.88 Q 5082.112,-890.88 5122.048,-938.496 Q 5161.9839999999995,-986.112 5197.8240000000005,-1069.056 Q 5201.92,-1069.056 5206.0160000000005,-1067.52 Q 5210.112,-1065.984 5210.112,-1059.84 Q 5198.848,-1032.192 5181.952,-998.912 Q 5165.0560000000005,-965.6320000000001 5143.04,-935.936 Q 5121.024,-906.24 5092.352,-887.296 Q 5063.68,-868.3520000000001 5027.84,-868.3520000000001 M 5043.2,-1101.824 Q 5080.063999999999,-1139.712 5114.88,-1189.376 Q 5149.696,-1239.04 5179.904,-1292.8 Q 5210.112,-1346.56 5230.592000000001,-1394.688 Q 5237.76,-1410.048 5242.368,-1428.48 Q 5246.976000000001,-1446.912 5246.976,-1459.2 Q 5246.976,-1473.536 5239.808,-1473.536 Q 5235.712,-1473.536 5227.52,-1465.856 Q 5219.328,-1458.176 5206.0160000000005,-1439.7440000000001 Q 5186.56,-1414.1440000000002 5163.52,-1370.112 Q 5140.4800000000005,-1326.0800000000002 5116.928,-1275.904 Q 5093.376,-1225.728 5073.92,-1179.136 Q 5054.464,-1132.5439999999999 5043.2,-1101.824" fill="none" stroke="black" stroke-linecap="round" stroke-linejoin="round" stroke-width="8" /></svg>