<?xml version="1.0" encoding="utf-8" ?>
<svg baseProfile="tiny" height="1282.048px" version="1.2" viewBox="0 0 6685.696 1282.048" width="6685.696px" xmlns="http://www.w3.org/2000/svg" xmlns:ev="http://www.w3.org/2001/xml-events" xmlns:xlink="http://www.w3.org/1999/xlink"><defs /><path d="M 379.904,-761.856 Q 286.72,-761.856 214.528,-799.232 Q 142.33599999999998,-836.608 101.888,-909.8240000000001 Q 61.440000000000005,-983.0400000000001 61.44,-1089.536 Q 61.44,-1153.0240000000001 77.824,-1216.512 Q 94.208,-1280.0 122.36800000000001,-1338.368 Q 150.52800000000002,-1396.7359999999999 185.344,-1445.888 Q 169.98399999999998,-1507.328 169.984,-1579.008 Q 169.984,-1633.28 182.272,-1682.432 Q 186.368,-1696.768 196.608,-1696.768 Q 204.8,-1696.768 203.776,-1686.528 Q 200.704,-1666.048 198.656,-1643.008 Q 196.608,-1619.968 196.608,-1588.224 Q 196.608,-1528.8319999999999 207.872,-1475.584 Q 218.11200000000002,-1488.896 228.352,-1500.16 Q 270.336,-1546.24 327.68,-1586.688 Q 385.024,-1627.1360000000002 455.168,-1651.712 Q 525.312,-1676.288 604.16,-1676.288 Q 677.8879999999999,-1676.288 739.328,-1649.152 Q 800.768,-1622.016 838.144,-1571.328 Q 875.52,-1520.6399999999999 875.52,-1448.96 Q 875.52,-1403.904 851.456,-1356.8 Q 827.392,-1309.696 782.8480000000001,-1270.272 Q 738.3040000000001,-1230.848 675.328,-1206.272 Q 612.352,-1181.696 534.528,-1181.696 Q 432.12800000000004,-1181.696 347.136,-1226.752 Q 262.144,-1271.808 215.04,-1363.968 Q 174.07999999999998,-1291.2640000000001 154.624,-1216.512 Q 135.168,-1141.76 135.168,-1074.176 Q 135.168,-975.872 167.936,-914.432 Q 200.704,-852.992 258.56,-823.808 Q 316.416,-794.624 391.168,-794.624 Q 524.288,-794.624 625.152,-861.696 Q 726.0160000000001,-928.768 791.552,-1069.056 Q 803.84,-1069.056 803.84,-1059.84 Q 740.3520000000001,-908.2879999999999 630.272,-835.072 Q 520.192,-761.856 379.90400000000005,-761.856 M 259.072,-1432.576 Q 245.76,-1414.144 233.472,-1394.688 Q 269.312,-1310.72 343.04,-1259.52 Q 416.76800000000003,-1208.32 528.384,-1208.32 Q 599.04,-1208.32 654.8480000000001,-1229.824 Q 710.6560000000001,-1251.328 749.056,-1287.1680000000001 Q 787.456,-1323.008 807.936,-1366.528 Q 828.416,-1410.048 828.416,-1454.08 Q 828.416,-1508.3519999999999 799.232,-1549.3120000000001 Q 770.048,-1590.2720000000002 719.8720000000001,-1613.3120000000001 Q 669.696,-1636.352 606.208,-1636.352 Q 542.72,-1636.352 478.72,-1609.728 Q 414.72,-1583.104 357.88800000000003,-1537.0240000000001 Q 301.05600000000004,-1490.9440000000002 259.072,-1432.576 M 852.992,-871.424 Q 811.0079999999999,-871.424 791.04,-901.6320000000001 Q 771.072,-931.84 771.072,-974.8480000000001 Q 771.072,-1014.7840000000001 786.432,-1057.792 Q 802.816,-1104.896 832.0,-1143.808 Q 861.184,-1182.72 896.5120000000001,-1206.784 Q 931.84,-1230.8480000000002 966.6560000000001,-1230.848 Q 1008.6400000000001,-1230.848 1028.608,-1202.176 Q 1048.576,-1173.504 1048.576,-1129.472 Q 1048.576,-1098.752 1038.336,-1064.96 Q 1028.096,-1031.1680000000001 1010.688,-998.4 Q 1024.0,-985.088 1048.576,-985.088 Q 1077.248,-985.088 1097.728,-1003.52 Q 1118.208,-1021.952 1137.664,-1069.056 Q 1149.952,-1069.056 1149.952,-1059.84 Q 1130.496,-1012.7359999999999 1105.4080000000001,-990.72 Q 1080.3200000000002,-968.7040000000001 1041.4080000000001,-969.7280000000001 Q 1017.8560000000001,-969.7280000000001 1002.496,-983.04 Q 973.824,-935.9359999999999 934.4,-903.6800000000001 Q 894.976,-871.4240000000001 852.992,-871.4240000000001 M 867.328,-893.952 Q 890.88,-893.952 914.432,-913.9200000000001 Q 937.984,-933.888 957.44,-959.488 Q 976.8960000000001,-985.0880000000001 985.088,-1003.52 Q 968.704,-1033.216 966.144,-1048.064 Q 963.5840000000001,-1062.912 963.5840000000001,-1070.08 Q 963.5840000000001,-1089.5359999999998 973.8240000000001,-1099.776 Q 984.0640000000001,-1110.016 994.304,-1110.016 Q 1008.64,-1110.016 1018.88,-1097.728 Q 1020.928,-1108.992 1021.952,-1118.72 Q 1022.976,-1128.448 1022.976,-1137.664 Q 1022.976,-1164.288 1013.248,-1181.184 Q 1003.5200000000001,-1198.08 983.04,-1198.08 Q 961.536,-1198.08 937.984,-1179.6480000000001 Q 914.432,-1161.2160000000001 893.44,-1130.496 Q 872.4480000000001,-1099.776 857.088,-1061.888 Q 843.776,-1030.144 836.6080000000001,-1001.984 Q 829.44,-973.8240000000001 829.44,-950.272 Q 829.44,-924.672 838.6560000000001,-909.312 Q 847.8720000000001,-893.952 867.3280000000001,-893.952 M 1167.3600000000001,-871.424 Q 1156.0960000000002,-871.424 1140.224,-876.544 Q 1124.3519999999999,-881.664 1112.576,-895.488 Q 1100.8,-909.312 1100.8,-936.96 Q 1100.8,-963.5840000000001 1118.208,-998.4 Q 1135.616,-1033.216 1148.928,-1059.84 Q 1137.6640000000002,-1059.84 1137.664,-1069.056 Q 1138.6879999999999,-1072.128 1146.88,-1088.512 Q 1155.0720000000001,-1104.896 1166.336,-1127.424 Q 1177.6,-1149.952 1188.352,-1170.944 Q 1199.104,-1191.936 1205.248,-1203.2 Q 1217.536,-1225.728 1244.16,-1225.728 L 1307.6480000000001,-1225.728 Q 1290.2400000000002,-1212.4160000000002 1276.416,-1196.544 Q 1262.5919999999999,-1180.672 1242.112,-1138.688 Q 1242.112,-1138.688 1234.944,-1124.352 Q 1227.776,-1110.016 1217.0240000000001,-1088.0 Q 1206.2720000000002,-1065.984 1195.52,-1043.4560000000001 Q 1184.768,-1020.9280000000001 1177.6000000000001,-1005.568 Q 1164.2880000000002,-976.896 1160.192,-960.0 Q 1156.096,-943.104 1156.096,-928.768 Q 1156.096,-894.976 1178.624,-894.976 Q 1203.2,-894.976 1238.016,-934.912 Q 1266.688,-968.7040000000001 1294.336,-1015.808 Q 1321.984,-1062.912 1347.0720000000001,-1113.088 Q 1372.16,-1163.264 1391.616,-1203.2 Q 1402.8799999999999,-1225.728 1431.5520000000001,-1225.728 L 1487.872,-1225.728 Q 1465.344,-1207.296 1442.304,-1170.432 Q 1419.2640000000001,-1133.568 1391.616,-1076.224 Q 1384.448,-1060.864 1373.184,-1037.3120000000001 Q 1361.92,-1013.7600000000001 1353.2160000000001,-987.136 Q 1344.5120000000002,-960.512 1344.512,-933.888 Q 1344.512,-898.048 1370.112,-898.048 Q 1404.928,-898.048 1437.6960000000001,-946.176 Q 1470.4640000000002,-994.3040000000001 1502.208,-1069.056 Q 1510.4,-1069.056 1511.936,-1068.032 Q 1513.472,-1067.008 1514.496,-1059.84 Q 1503.2320000000002,-1032.192 1487.3600000000001,-999.936 Q 1471.488,-967.6800000000001 1451.52,-937.984 Q 1431.552,-908.288 1407.488,-889.856 Q 1383.424,-871.424 1354.752,-871.424 Q 1329.152,-871.424 1312.768,-890.368 Q 1296.384,-909.312 1296.384,-944.128 Q 1296.384,-971.7760000000001 1306.624,-1003.52 Q 1289.2160000000001,-972.8 1266.688,-942.08 Q 1244.16,-911.36 1218.56,-891.392 Q 1192.96,-871.4240000000001 1167.36,-871.4240000000001 M 1403.904,-863.232 Q 1440.768,-937.9839999999999 1474.56,-1011.2 Q 1508.3519999999999,-1084.4160000000002 1544.192,-1150.976 Q 1564.672,-1187.8400000000001 1579.008,-1202.688 Q 1593.344,-1217.536 1616.896,-1217.536 Q 1625.088,-1217.536 1634.304,-1214.976 Q 1643.52,-1212.4160000000002 1652.736,-1212.416 Q 1658.88,-1212.416 1661.952,-1213.44 Q 1647.616,-1205.248 1624.576,-1172.992 Q 1601.536,-1140.7359999999999 1577.984,-1098.752 Q 1554.432,-1056.768 1536.0,-1019.904 Q 1555.456,-1043.456 1576.96,-1067.008 Q 1598.464,-1090.56 1624.064,-1112.064 Q 1648.64,-1133.568 1682.944,-1156.608 Q 1717.248,-1179.648 1750.016,-1195.008 Q 1782.784,-1210.368 1802.24,-1210.368 Q 1809.408,-1210.368 1812.48,-1209.344 Q 1812.48,-1209.344 1801.2160000000001,-1189.376 Q 1789.9520000000002,-1169.408 1773.056,-1137.152 Q 1756.16,-1104.896 1738.752,-1068.544 Q 1721.344,-1032.192 1707.52,-998.912 Q 1693.696,-965.6320000000001 1689.6000000000001,-943.104 Q 1686.5280000000002,-929.792 1686.528,-918.528 Q 1686.528,-902.144 1692.672,-897.024 Q 1698.816,-891.904 1705.984,-891.904 Q 1725.4399999999998,-891.904 1745.92,-909.312 Q 1766.4,-926.72 1785.344,-953.856 Q 1804.288,-980.992 1820.672,-1011.712 Q 1837.056,-1042.432 1848.32,-1069.056 Q 1860.608,-1069.056 1860.608,-1059.84 Q 1849.344,-1032.192 1832.448,-998.912 Q 1815.5520000000001,-965.6320000000001 1794.56,-935.936 Q 1773.568,-906.24 1747.968,-886.784 Q 1722.3680000000002,-867.328 1692.672,-867.328 Q 1672.192,-867.328 1650.176,-881.664 Q 1628.1599999999999,-896.0 1628.16,-934.912 Q 1628.16,-946.176 1630.208,-958.976 Q 1632.256,-971.776 1637.376,-987.136 Q 1645.568,-1007.616 1656.832,-1031.1680000000001 Q 1668.096,-1054.72 1693.6960000000001,-1095.68 Q 1700.864,-1106.944 1702.4,-1113.088 Q 1703.9360000000001,-1119.232 1703.9360000000001,-1123.328 Q 1703.9360000000001,-1135.616 1692.672,-1135.616 Q 1683.4560000000001,-1135.616 1665.536,-1125.376 Q 1647.616,-1115.136 1620.992,-1089.536 Q 1595.392,-1064.96 1560.064,-1019.904 Q 1524.736,-974.848 1478.656,-886.784 Q 1471.488,-873.472 1462.784,-872.448 Q 1454.0800000000002,-871.424 1438.72,-870.4 Q 1428.48,-869.376 1419.2640000000001,-868.864 Q 1410.0480000000002,-868.3520000000001 1403.9040000000002,-863.2320000000001 M 2060.288,-1412.096 Q 2046.976,-1392.64 2030.592,-1362.944 Q 2014.208,-1333.248 2000.384,-1305.6000000000001 Q 1986.56,-1277.9520000000002 1979.392,-1263.616 L 2073.6,-1263.616 Q 2073.6,-1259.52 2070.016,-1250.304 Q 2066.4320000000002,-1241.0880000000002 2056.192,-1236.992 L 1967.104,-1236.992 Q 1954.816,-1209.344 1938.944,-1170.432 Q 1923.072,-1131.52 1908.224,-1089.536 Q 1893.376,-1047.5520000000001 1883.6480000000001,-1011.2 Q 1873.92,-974.8480000000001 1873.92,-952.32 Q 1873.92,-921.6 1882.112,-906.7520000000001 Q 1890.304,-891.9040000000001 1911.808,-891.904 Q 1939.456,-891.904 1965.056,-919.04 Q 1990.656,-946.1759999999999 2013.6960000000001,-987.136 Q 2036.736,-1028.096 2054.1440000000002,-1069.056 Q 2066.4320000000002,-1069.056 2066.4320000000002,-1059.84 Q 2055.168,-1032.192 2038.784,-999.424 Q 2022.4,-966.656 2001.4080000000001,-936.448 Q 1980.4160000000002,-906.24 1954.304,-887.296 Q 1928.192,-868.3520000000001 1896.448,-868.352 Q 1853.44,-868.352 1838.08,-892.416 Q 1822.72,-916.48 1822.72,-954.368 Q 1822.72,-982.0160000000001 1832.96,-1021.44 Q 1843.2,-1060.864 1858.048,-1102.848 Q 1872.896,-1144.8319999999999 1887.232,-1181.184 Q 1901.568,-1217.536 1909.76,-1236.992 L 1844.224,-1236.992 Q 1844.224,-1245.184 1851.392,-1254.4 Q 1858.56,-1263.616 1866.752,-1263.616 L 1921.0240000000001,-1263.616 Q 1929.2160000000001,-1280.0 1939.968,-1304.576 Q 1950.72,-1329.152 1969.152,-1358.848 Q 1984.512,-1383.424 2008.576,-1397.76 Q 2032.64,-1412.096 2060.288,-1412.096 M 2288.64,-871.424 Q 2253.824,-871.424 2237.44,-894.976 Q 2221.056,-918.528 2221.056,-950.272 Q 2221.056,-959.488 2222.08,-969.216 Q 2223.104,-978.944 2226.176,-989.184 Q 2211.84,-966.656 2192.896,-939.52 Q 2173.952,-912.384 2149.888,-892.416 Q 2125.824,-872.4480000000001 2096.128,-872.448 Q 2082.8160000000003,-872.448 2065.92,-878.592 Q 2049.024,-884.736 2036.224,-902.144 Q 2023.424,-919.552 2023.424,-953.344 Q 2023.424,-997.3760000000001 2042.88,-1046.528 Q 2062.3360000000002,-1095.68 2096.128,-1139.2 Q 2129.92,-1182.72 2172.928,-1209.856 Q 2215.9359999999997,-1236.992 2262.016,-1236.992 Q 2298.88,-1236.992 2331.648,-1217.536 Q 2347.0080000000003,-1246.208 2364.416,-1281.536 Q 2381.824,-1316.864 2399.232,-1351.68 Q 2416.64,-1386.496 2429.952,-1415.68 Q 2443.264,-1444.864 2450.4320000000002,-1460.224 Q 2465.7920000000004,-1496.0639999999999 2479.616,-1505.7920000000001 Q 2493.44,-1515.5200000000002 2512.896,-1515.52 Q 2524.1600000000003,-1515.52 2537.984,-1512.96 Q 2551.808,-1510.4 2565.12,-1511.424 Q 2560.0,-1506.304 2541.568,-1477.632 Q 2523.1360000000004,-1448.96 2496.512,-1403.392 Q 2469.8880000000004,-1357.824 2439.68,-1303.5520000000001 Q 2409.4719999999998,-1249.2800000000002 2380.288,-1192.448 Q 2351.104,-1135.616 2326.5280000000002,-1083.392 Q 2301.952,-1031.1680000000001 2287.616,-991.232 Q 2273.28,-951.2959999999999 2273.28,-930.816 Q 2273.28,-917.504 2279.424,-907.7760000000001 Q 2285.5679999999998,-898.0480000000001 2299.904,-898.048 Q 2319.36,-898.048 2339.84,-917.504 Q 2360.32,-936.96 2379.264,-966.144 Q 2398.208,-995.328 2413.056,-1023.488 Q 2427.904,-1051.6480000000001 2435.072,-1069.056 Q 2447.36,-1069.056 2447.36,-1059.84 Q 2438.1440000000002,-1038.336 2422.784,-1006.592 Q 2407.424,-974.848 2386.944,-944.128 Q 2366.464,-913.408 2341.376,-892.416 Q 2316.288,-871.4240000000001 2288.6400000000003,-871.4240000000001 M 2103.296,-902.144 Q 2117.6319999999996,-902.144 2139.136,-918.016 Q 2160.64,-933.8879999999999 2185.216,-968.7040000000001 Q 2213.888,-1009.6640000000001 2250.752,-1071.104 Q 2287.616,-1132.544 2323.456,-1201.152 Q 2316.288,-1207.296 2308.096,-1210.368 Q 2299.904,-1213.4399999999998 2285.568,-1213.44 Q 2262.016,-1213.44 2233.856,-1193.472 Q 2205.6960000000004,-1173.504 2177.536,-1141.76 Q 2149.376,-1110.016 2126.3360000000002,-1073.152 Q 2103.2960000000003,-1036.288 2089.472,-1001.984 Q 2075.648,-967.6800000000001 2075.648,-943.104 Q 2075.648,-902.144 2103.2960000000003,-902.144 M 2496.512,-871.424 Q 2454.5280000000002,-871.424 2434.56,-901.6320000000001 Q 2414.592,-931.84 2414.592,-974.8480000000001 Q 2414.592,-1014.7840000000001 2429.952,-1057.792 Q 2446.3360000000002,-1104.896 2475.52,-1143.808 Q 2504.704,-1182.72 2540.032,-1206.784 Q 2575.36,-1230.8480000000002 2610.176,-1230.848 Q 2652.16,-1230.848 2672.128,-1202.176 Q 2692.096,-1173.504 2692.096,-1129.472 Q 2692.096,-1098.752 2681.856,-1064.96 Q 2671.6160000000004,-1031.1680000000001 2654.208,-998.4 Q 2667.52,-985.088 2692.096,-985.088 Q 2720.768,-985.088 2741.248,-1003.52 Q 2761.728,-1021.952 2781.184,-1069.056 Q 2793.472,-1069.056 2793.472,-1059.84 Q 2774.016,-1012.7359999999999 2748.928,-990.72 Q 2723.8399999999997,-968.7040000000001 2684.928,-969.7280000000001 Q 2661.3759999999997,-969.7280000000001 2646.016,-983.04 Q 2617.344,-935.9359999999999 2577.92,-903.6800000000001 Q 2538.496,-871.4240000000001 2496.512,-871.4240000000001 M 2510.848,-893.952 Q 2534.4,-893.952 2557.952,-913.9200000000001 Q 2581.5040000000004,-933.888 2600.96,-959.488 Q 2620.416,-985.0880000000001 2628.608,-1003.52 Q 2612.224,-1033.216 2609.664,-1048.064 Q 2607.1040000000003,-1062.912 2607.1040000000003,-1070.08 Q 2607.1040000000003,-1089.5359999999998 2617.344,-1099.776 Q 2627.584,-1110.016 2637.824,-1110.016 Q 2652.16,-1110.016 2662.4,-1097.728 Q 2664.448,-1108.992 2665.472,-1118.72 Q 2666.496,-1128.448 2666.496,-1137.664 Q 2666.496,-1164.288 2656.768,-1181.184 Q 2647.04,-1198.08 2626.56,-1198.08 Q 2605.056,-1198.08 2581.504,-1179.6480000000001 Q 2557.9519999999998,-1161.2160000000001 2536.96,-1130.496 Q 2515.968,-1099.776 2500.608,-1061.888 Q 2487.2960000000003,-1030.144 2480.128,-1001.984 Q 2472.96,-973.8240000000001 2472.96,-950.272 Q 2472.96,-924.672 2482.176,-909.312 Q 2491.392,-893.952 2510.848,-893.952 M 3006.464,-869.376 Q 3000.32,-869.376 2995.712,-869.888 Q 2991.104,-870.4 2983.936,-871.424 Q 2958.3360000000002,-876.544 2948.608,-899.5840000000001 Q 2938.88,-922.624 2938.88,-949.248 Q 2938.88,-965.6320000000001 2941.44,-981.504 Q 2944.0,-997.376 2948.096,-1009.664 Q 2938.88,-993.28 2924.544,-970.24 Q 2910.208,-947.2 2891.776,-924.672 Q 2873.344,-902.144 2852.864,-886.784 Q 2832.384,-871.424 2810.88,-871.424 Q 2789.376,-871.424 2770.944,-883.712 Q 2752.512,-896.0 2747.3920000000003,-918.528 Q 2746.3680000000004,-923.648 2745.856,-928.256 Q 2745.344,-932.8639999999999 2745.344,-936.96 Q 2745.344,-963.5840000000001 2759.68,-991.232 Q 2774.0159999999996,-1018.88 2793.472,-1059.84 Q 2788.3520000000003,-1059.84 2784.768,-1060.864 Q 2781.184,-1061.888 2781.184,-1069.056 Q 2804.7360000000003,-1122.304 2821.632,-1155.584 Q 2838.5280000000002,-1188.864 2846.7200000000003,-1203.2 Q 2860.032,-1225.728 2888.704,-1225.728 L 2952.192,-1225.728 Q 2934.784,-1212.4160000000002 2920.96,-1196.544 Q 2907.136,-1180.672 2886.656,-1138.688 Q 2886.656,-1138.688 2879.4880000000003,-1124.352 Q 2872.32,-1110.016 2861.568,-1088.512 Q 2850.8160000000003,-1067.008 2840.064,-1044.48 Q 2829.312,-1021.952 2822.1440000000002,-1005.568 Q 2811.9040000000005,-983.04 2806.784,-963.5840000000001 Q 2801.664,-944.128 2801.664,-929.792 Q 2801.664,-893.952 2825.216,-893.952 Q 2841.6,-893.952 2862.08,-914.432 Q 2885.632,-936.96 2910.7200000000003,-977.408 Q 2935.8080000000004,-1017.856 2959.36,-1062.912 Q 2982.9120000000003,-1107.968 3001.344,-1146.368 Q 3019.776,-1184.768 3028.992,-1203.2 Q 3034.112,-1214.464 3042.8160000000003,-1220.096 Q 3051.5200000000004,-1225.728 3067.904,-1225.728 L 3130.368,-1225.728 Q 3124.224,-1219.584 3112.448,-1212.416 Q 3100.672,-1205.248 3089.408,-1186.816 Q 3075.072,-1162.24 3063.808,-1141.248 Q 3052.544,-1120.256 3033.088,-1078.272 Q 3028.992,-1069.056 3017.216,-1042.432 Q 3005.44,-1015.808 2995.2000000000003,-984.064 Q 2984.9600000000005,-952.3199999999999 2984.96,-926.72 Q 2984.96,-910.336 2992.128,-900.096 Q 2999.2960000000003,-889.856 3015.68,-889.856 Q 3044.352,-889.856 3070.464,-913.408 Q 3096.576,-936.96 3117.568,-970.7520000000001 Q 3138.5600000000004,-1004.5440000000001 3151.872,-1036.288 Q 3150.848,-1044.48 3149.312,-1060.352 Q 3147.776,-1076.2240000000002 3147.776,-1087.488 Q 3147.776,-1154.048 3168.768,-1200.64 Q 3189.76,-1247.2320000000002 3224.576,-1247.232 Q 3244.032,-1247.232 3244.032,-1229.824 Q 3244.032,-1226.7520000000002 3237.376,-1205.76 Q 3230.7200000000003,-1184.768 3219.968,-1154.048 Q 3209.216,-1123.328 3195.904,-1089.536 Q 3182.592,-1055.7440000000001 3169.28,-1026.048 Q 3172.3520000000003,-1008.64 3183.616,-997.376 Q 3194.88,-986.112 3212.288,-986.112 Q 3232.768,-986.112 3250.688,-1005.056 Q 3268.608,-1024.0 3288.064,-1069.056 Q 3300.352,-1069.056 3300.352,-1059.84 Q 3283.968,-1018.8799999999999 3260.928,-994.304 Q 3237.888,-969.728 3209.216,-969.7280000000001 Q 3174.4,-969.7280000000001 3159.04,-1005.568 Q 3131.392,-950.2719999999999 3092.992,-909.8240000000001 Q 3054.592,-869.3760000000001 3006.4640000000004,-869.3760000000001 M 3189.76,-863.232 Q 3226.6240000000003,-937.9839999999999 3260.416,-1011.2 Q 3294.208,-1084.4160000000002 3330.0480000000002,-1150.976 Q 3350.5280000000002,-1187.8400000000001 3364.864,-1202.688 Q 3379.2,-1217.536 3402.752,-1217.536 Q 3410.944,-1217.536 3420.16,-1214.976 Q 3429.3759999999997,-1212.4160000000002 3438.592,-1212.416 Q 3444.736,-1212.416 3447.808,-1213.44 Q 3433.472,-1205.248 3410.4320000000002,-1172.992 Q 3387.3920000000003,-1140.7359999999999 3363.84,-1098.752 Q 3340.288,-1056.768 3321.856,-1019.904 Q 3341.3120000000004,-1043.456 3362.8160000000003,-1067.008 Q 3384.32,-1090.56 3409.92,-1112.064 Q 3434.496,-1133.568 3468.8,-1156.608 Q 3503.1040000000003,-1179.648 3535.8720000000003,-1195.008 Q 3568.6400000000003,-1210.368 3588.096,-1210.368 Q 3595.264,-1210.368 3598.3360000000002,-1209.344 Q 3598.3360000000002,-1209.344 3587.072,-1189.376 Q 3575.808,-1169.408 3558.9120000000003,-1137.152 Q 3542.016,-1104.896 3524.608,-1068.544 Q 3507.2000000000003,-1032.192 3493.376,-998.912 Q 3479.552,-965.6320000000001 3475.456,-943.104 Q 3472.384,-929.792 3472.384,-918.528 Q 3472.384,-902.144 3478.5280000000002,-897.024 Q 3484.672,-891.904 3491.84,-891.904 Q 3511.2960000000003,-891.904 3531.7760000000003,-909.312 Q 3552.2560000000003,-926.72 3571.2000000000003,-953.856 Q 3590.1440000000002,-980.992 3606.5280000000002,-1011.712 Q 3622.9120000000003,-1042.432 3634.176,-1069.056 Q 3646.464,-1069.056 3646.464,-1059.84 Q 3635.2,-1032.192 3618.304,-998.912 Q 3601.408,-965.6320000000001 3580.416,-935.936 Q 3559.424,-906.24 3533.824,-886.784 Q 3508.224,-867.328 3478.5280000000002,-867.328 Q 3458.0480000000002,-867.328 3436.032,-881.664 Q 3414.016,-896.0 3414.016,-934.912 Q 3414.016,-946.176 3416.064,-958.976 Q 3418.1119999999996,-971.776 3423.232,-987.136 Q 3431.424,-1007.616 3442.688,-1031.1680000000001 Q 3453.952,-1054.72 3479.552,-1095.68 Q 3486.7200000000003,-1106.944 3488.256,-1113.088 Q 3489.792,-1119.232 3489.792,-1123.328 Q 3489.792,-1135.616 3478.5280000000002,-1135.616 Q 3469.3120000000004,-1135.616 3451.3920000000003,-1125.376 Q 3433.472,-1115.136 3406.848,-1089.536 Q 3381.248,-1064.96 3345.92,-1019.904 Q 3310.592,-974.848 3264.512,-886.784 Q 3257.344,-873.472 3248.64,-872.448 Q 3239.9359999999997,-871.424 3224.576,-870.4 Q 3214.3360000000002,-869.376 3205.12,-868.864 Q 3195.904,-868.3520000000001 3189.7599999999998,-863.2320000000001 M 4128.768,-761.856 Q 4035.584,-761.856 3963.3920000000003,-799.232 Q 3891.2000000000003,-836.608 3850.752,-909.8240000000001 Q 3810.304,-983.0400000000001 3810.304,-1089.536 Q 3810.304,-1153.0240000000001 3826.688,-1216.512 Q 3843.072,-1280.0 3871.232,-1338.368 Q 3899.392,-1396.7359999999999 3934.208,-1445.888 Q 3918.848,-1507.328 3918.848,-1579.008 Q 3918.848,-1633.28 3931.136,-1682.432 Q 3935.232,-1696.768 3945.472,-1696.768 Q 3953.664,-1696.768 3952.64,-1686.528 Q 3949.5679999999998,-1666.048 3947.52,-1643.008 Q 3945.472,-1619.968 3945.472,-1588.224 Q 3945.472,-1528.8319999999999 3956.736,-1475.584 Q 3966.9759999999997,-1488.896 3977.216,-1500.16 Q 4019.2,-1546.24 4076.544,-1586.688 Q 4133.888,-1627.1360000000002 4204.032,-1651.712 Q 4274.176,-1676.288 4353.024,-1676.288 Q 4426.752,-1676.288 4488.192,-1649.152 Q 4549.632,-1622.016 4587.008,-1571.328 Q 4624.384,-1520.6399999999999 4624.384,-1448.96 Q 4624.384,-1403.904 4600.32,-1356.8 Q 4576.255999999999,-1309.696 4531.712,-1270.272 Q 4487.168000000001,-1230.848 4424.192,-1206.272 Q 4361.216,-1181.696 4283.392,-1181.696 Q 4180.992,-1181.696 4096.0,-1226.752 Q 4011.008,-1271.808 3963.904,-1363.968 Q 3922.944,-1291.2640000000001 3903.4880000000003,-1216.512 Q 3884.032,-1141.76 3884.032,-1074.176 Q 3884.032,-975.872 3916.8,-914.432 Q 3949.568,-852.992 4007.424,-823.808 Q 4065.28,-794.624 4140.032,-794.624 Q 4273.152,-794.624 4374.0160000000005,-861.696 Q 4474.88,-928.768 4540.416,-1069.056 Q 4552.704,-1069.056 4552.704,-1059.84 Q 4489.215999999999,-908.2879999999999 4379.136,-835.072 Q 4269.0560000000005,-761.856 4128.768,-761.856 M 4007.936,-1432.576 Q 3994.6240000000003,-1414.144 3982.3360000000002,-1394.688 Q 4018.1760000000004,-1310.72 4091.904,-1259.52 Q 4165.632,-1208.32 4277.2480000000005,-1208.32 Q 4347.904,-1208.32 4403.712,-1229.824 Q 4459.52,-1251.328 4497.92,-1287.1680000000001 Q 4536.32,-1323.008 4556.8,-1366.528 Q 4577.28,-1410.048 4577.28,-1454.08 Q 4577.28,-1508.3519999999999 4548.0960000000005,-1549.3120000000001 Q 4518.912,-1590.2720000000002 4468.736,-1613.3120000000001 Q 4418.5599999999995,-1636.352 4355.072,-1636.352 Q 4291.584,-1636.352 4227.584,-1609.728 Q 4163.584,-1583.104 4106.752,-1537.0240000000001 Q 4049.9200000000005,-1490.9440000000002 4007.9360000000006,-1432.576 M 4762.624,-868.352 Q 4739.072,-868.352 4721.152,-881.664 Q 4703.232,-894.976 4703.232,-935.936 Q 4703.232,-953.344 4705.792,-968.7040000000001 Q 4708.352000000001,-984.0640000000001 4712.448,-1001.472 Q 4703.232,-986.112 4686.848,-963.5840000000001 Q 4670.464,-941.056 4650.496,-919.552 Q 4630.528,-898.048 4609.536,-883.712 Q 4588.544,-869.376 4570.112,-869.376 Q 4543.488,-869.376 4527.104,-893.44 Q 4510.72,-917.504 4510.72,-956.416 Q 4510.72,-998.4000000000001 4530.176,-1046.528 Q 4549.6320000000005,-1094.656 4583.424,-1138.688 Q 4617.216,-1182.72 4661.2480000000005,-1210.368 Q 4705.280000000001,-1238.0159999999998 4753.408,-1238.016 Q 4776.96,-1238.016 4798.464,-1230.336 Q 4819.968,-1222.656 4836.352,-1205.248 Q 4843.5199999999995,-1198.0800000000002 4843.52,-1188.864 Q 4843.52,-1182.72 4838.400000000001,-1178.624 Q 4833.280000000001,-1174.528 4825.088,-1176.576 Q 4813.824,-1212.416 4776.96,-1212.416 Q 4759.552,-1212.416 4737.024,-1201.152 Q 4709.376,-1186.816 4678.144,-1155.584 Q 4646.912,-1124.352 4619.776,-1084.928 Q 4592.639999999999,-1045.5040000000001 4575.232,-1005.568 Q 4557.824,-965.632 4557.8240000000005,-932.864 Q 4557.8240000000005,-899.072 4583.424,-899.072 Q 4605.952,-899.072 4630.0160000000005,-920.576 Q 4654.080000000001,-942.08 4676.0960000000005,-974.336 Q 4698.112,-1006.592 4716.544,-1038.336 Q 4734.976,-1070.08 4745.216,-1089.536 Q 4760.576,-1117.184 4773.888,-1135.616 Q 4787.2,-1154.048 4811.776,-1154.048 Q 4823.04,-1154.048 4834.304,-1150.976 Q 4845.568,-1147.9040000000002 4857.856,-1149.952 Q 4827.1359999999995,-1119.232 4804.0960000000005,-1077.248 Q 4781.0560000000005,-1035.2640000000001 4768.768,-994.816 Q 4756.4800000000005,-954.368 4756.4800000000005,-926.72 Q 4756.4800000000005,-896.0 4776.96,-896.0 Q 4793.344,-896.0 4812.2880000000005,-914.432 Q 4831.232000000001,-932.864 4849.152,-961.024 Q 4867.072,-989.184 4882.432,-1018.368 Q 4897.7919999999995,-1047.5520000000001 4907.008,-1069.056 Q 4912.128,-1069.056 4915.712,-1068.032 Q 4919.296,-1067.008 4919.296,-1059.84 Q 4918.272,-1055.744 4915.712,-1051.136 Q 4913.152,-1046.528 4908.032,-1035.2640000000001 Q 4899.84,-1018.8800000000001 4885.504,-991.232 Q 4871.168,-963.584 4851.712,-935.424 Q 4832.256,-907.264 4809.728,-887.808 Q 4787.2,-868.352 4762.624,-868.352 M 4955.136,-868.352 Q 4917.2480000000005,-868.352 4899.328,-891.392 Q 4881.408,-914.432 4881.408,-946.176 Q 4881.408,-978.9440000000001 4890.624,-1013.76 Q 4899.84,-1048.576 4907.008,-1072.128 Q 4923.392,-1129.472 4948.4800000000005,-1194.496 Q 4973.568,-1259.52 5003.776,-1322.496 Q 5033.9839999999995,-1385.4720000000002 5063.68,-1435.6480000000001 Q 5087.232,-1475.584 5114.368,-1495.5520000000001 Q 5141.504000000001,-1515.5200000000002 5161.984,-1515.52 Q 5178.368,-1515.52 5188.0960000000005,-1503.7440000000001 Q 5197.8240000000005,-1491.968 5197.8240000000005,-1468.416 Q 5197.8240000000005,-1452.032 5192.192,-1429.5040000000001 Q 5186.56,-1406.976 5173.2480000000005,-1378.304 Q 5137.408,-1298.432 5087.744,-1218.56 Q 5038.08,-1138.6879999999999 4962.304,-1069.056 Q 4950.0160000000005,-1040.384 4941.8240000000005,-1007.616 Q 4933.6320000000005,-974.848 4933.6320000000005,-954.368 Q 4933.6320000000005,-890.8800000000001 4976.64,-890.88 Q 5009.408,-890.88 5049.344,-938.496 Q 5089.28,-986.112 5125.12,-1069.056 Q 5129.215999999999,-1069.056 5133.312,-1067.52 Q 5137.407999999999,-1065.984 5137.408,-1059.84 Q 5126.144,-1032.192 5109.2480000000005,-998.912 Q 5092.352000000001,-965.6320000000001 5070.336,-935.936 Q 5048.320000000001,-906.24 5019.648,-887.296 Q 4990.976000000001,-868.3520000000001 4955.136,-868.3520000000001 M 4970.496,-1101.824 Q 5007.36,-1139.712 5042.176,-1189.376 Q 5076.992,-1239.04 5107.2,-1292.8 Q 5137.407999999999,-1346.56 5157.888,-1394.688 Q 5165.056,-1410.048 5169.664,-1428.48 Q 5174.272,-1446.912 5174.272,-1459.2 Q 5174.272,-1473.536 5167.104,-1473.536 Q 5163.008000000001,-1473.536 5154.816,-1465.856 Q 5146.624,-1458.176 5133.312,-1439.7440000000001 Q 5113.856,-1414.1440000000002 5090.816,-1370.112 Q 5067.776,-1326.0800000000002 5044.224,-1275.904 Q 5020.6720000000005,-1225.728 5001.216,-1179.136 Q 4981.76,-1132.5439999999999 4970.496,-1101.824 M 5198.848,-867.328 Q 5160.96,-867.328 5130.752,-891.904 Q 5100.544000000001,-916.48 5100.544,-966.6560000000001 Q 5100.544,-1008.6400000000001 5119.488,-1055.744 Q 5138.432000000001,-1102.848 5169.664,-1144.32 Q 5200.896,-1185.792 5239.296,-1211.904 Q 5277.696,-1238.016 5316.608,-1238.016 Q 5336.064,-1238.016 5354.496,-1226.752 Q 5372.928,-1215.488 5372.928,-1187.84 Q 5372.928,-1162.24 5353.472,-1131.52 Q 5334.016,-1100.8 5298.176,-1074.176 Q 5282.816000000001,-1062.912 5259.264,-1052.672 Q 5235.712,-1042.432 5212.16,-1035.776 Q 5188.608,-1029.1200000000001 5173.2480000000005,-1029.1200000000001 Q 5168.128000000001,-1016.8320000000001 5163.52,-996.352 Q 5158.912,-975.872 5158.912,-954.368 Q 5158.912,-928.768 5169.152,-908.288 Q 5179.392,-887.808 5207.04,-887.808 Q 5240.832,-887.808 5270.0160000000005,-907.264 Q 5299.200000000001,-926.72 5322.24,-956.416 Q 5345.28,-986.1120000000001 5361.664,-1016.832 Q 5378.048,-1047.552 5387.264,-1069.056 Q 5399.552,-1069.056 5399.552,-1059.84 Q 5386.24,-1031.168 5369.344,-997.376 Q 5352.448,-963.584 5329.408,-934.4 Q 5306.368,-905.216 5274.112,-886.272 Q 5241.856,-867.3280000000001 5198.848,-867.3280000000001 M 5180.416,-1047.5520000000001 Q 5194.752,-1047.5520000000001 5228.544,-1058.304 Q 5262.336,-1069.056 5289.984,-1092.608 Q 5316.608,-1116.1599999999999 5330.944,-1144.32 Q 5345.280000000001,-1172.48 5345.28,-1191.936 Q 5345.28,-1214.464 5328.896,-1214.464 Q 5316.608,-1214.464 5295.104,-1198.08 Q 5273.6,-1181.696 5241.856,-1142.784 Q 5222.4,-1118.208 5204.992,-1089.536 Q 5187.584,-1060.864 5180.416,-1047.5520000000001 M 5288.96,-863.232 Q 5325.824,-937.9839999999999 5359.616,-1011.2 Q 5393.408,-1084.4160000000002 5429.2480000000005,-1150.976 Q 5449.728,-1187.8400000000001 5464.064,-1202.688 Q 5478.400000000001,-1217.536 5501.952,-1217.536 Q 5510.144,-1217.536 5519.36,-1214.976 Q 5528.576,-1212.4160000000002 5537.792,-1212.416 Q 5543.936000000001,-1212.416 5547.008,-1213.44 Q 5532.672,-1205.248 5509.6320000000005,-1172.992 Q 5486.592000000001,-1140.7359999999999 5463.04,-1098.752 Q 5439.488,-1056.768 5421.0560000000005,-1019.904 Q 5440.512000000001,-1043.456 5462.0160000000005,-1067.008 Q 5483.52,-1090.56 5509.12,-1112.064 Q 5533.696,-1133.568 5568.0,-1156.608 Q 5602.304,-1179.648 5635.072,-1195.008 Q 5667.84,-1210.368 5687.296,-1210.368 Q 5694.464,-1210.368 5697.536,-1209.344 Q 5697.536,-1209.344 5686.272,-1189.376 Q 5675.008,-1169.408 5658.112,-1137.152 Q 5641.216,-1104.896 5623.808,-1068.544 Q 5606.4,-1032.192 5592.576,-998.912 Q 5578.752,-965.6320000000001 5574.656,-943.104 Q 5571.584,-929.792 5571.584,-918.528 Q 5571.584,-902.144 5577.728,-897.024 Q 5583.872,-891.904 5591.04,-891.904 Q 5610.496,-891.904 5630.976000000001,-909.312 Q 5651.456,-926.72 5670.400000000001,-953.856 Q 5689.344000000001,-980.992 5705.728,-1011.712 Q 5722.112,-1042.432 5733.376,-1069.056 Q 5745.664,-1069.056 5745.664,-1059.84 Q 5734.4,-1032.192 5717.504,-998.912 Q 5700.608,-965.6320000000001 5679.616,-935.936 Q 5658.624,-906.24 5633.024,-886.784 Q 5607.424,-867.328 5577.728,-867.328 Q 5557.2480000000005,-867.328 5535.232,-881.664 Q 5513.216,-896.0 5513.216,-934.912 Q 5513.216,-946.176 5515.264,-958.976 Q 5517.312,-971.776 5522.432,-987.136 Q 5530.624,-1007.616 5541.888,-1031.1680000000001 Q 5553.152,-1054.72 5578.752,-1095.68 Q 5585.92,-1106.944 5587.456,-1113.088 Q 5588.992,-1119.232 5588.992,-1123.328 Q 5588.992,-1135.616 5577.728,-1135.616 Q 5568.512,-1135.616 5550.592000000001,-1125.376 Q 5532.6720000000005,-1115.136 5506.048,-1089.536 Q 5480.447999999999,-1064.96 5445.12,-1019.904 Q 5409.7919999999995,-974.848 5363.712,-886.784 Q 5356.544000000001,-873.472 5347.84,-872.448 Q 5339.136,-871.424 5323.776,-870.4 Q 5313.536,-869.376 5304.32,-868.864 Q 5295.103999999999,-868.3520000000001 5288.96,-863.2320000000001 M 5967.872,-871.424 Q 5933.0560000000005,-871.424 5916.6720000000005,-894.976 Q 5900.2880000000005,-918.528 5900.2880000000005,-950.272 Q 5900.2880000000005,-959.488 5901.312,-969.216 Q 5902.336,-978.944 5905.408,-989.184 Q 5891.072,-966.656 5872.128,-939.52 Q 5853.183999999999,-912.384 5829.12,-892.416 Q 5805.056,-872.4480000000001 5775.36,-872.448 Q 5762.048,-872.448 5745.152,-878.592 Q 5728.256,-884.736 5715.456,-902.144 Q 5702.656,-919.552 5702.656,-953.344 Q 5702.656,-997.3760000000001 5722.112,-1046.528 Q 5741.568,-1095.68 5775.36,-1139.2 Q 5809.152,-1182.72 5852.16,-1209.856 Q 5895.168,-1236.992 5941.2480000000005,-1236.992 Q 5978.112,-1236.992 6010.88,-1217.536 Q 6026.24,-1246.208 6043.648,-1281.536 Q 6061.0560000000005,-1316.864 6078.464,-1351.68 Q 6095.872,-1386.496 6109.184,-1415.68 Q 6122.496,-1444.864 6129.664,-1460.224 Q 6145.023999999999,-1496.0639999999999 6158.848,-1505.7920000000001 Q 6172.672,-1515.5200000000002 6192.128,-1515.52 Q 6203.392,-1515.52 6217.216,-1512.96 Q 6231.04,-1510.4 6244.352,-1511.424 Q 6239.232,-1506.304 6220.8,-1477.632 Q 6202.368,-1448.96 6175.744,-1403.392 Q 6149.12,-1357.824 6118.912,-1303.5520000000001 Q 6088.704000000001,-1249.2800000000002 6059.52,-1192.448 Q 6030.336,-1135.616 6005.76,-1083.392 Q 5981.184,-1031.1680000000001 5966.848,-991.232 Q 5952.512,-951.2959999999999 5952.512,-930.816 Q 5952.512,-917.504 5958.656,-907.7760000000001 Q 5964.8,-898.0480000000001 5979.136,-898.048 Q 5998.592000000001,-898.048 6019.072,-917.504 Q 6039.552,-936.96 6058.496,-966.144 Q 6077.4400000000005,-995.328 6092.2880000000005,-1023.488 Q 6107.136,-1051.6480000000001 6114.304,-1069.056 Q 6126.592,-1069.056 6126.592000000001,-1059.84 Q 6117.376,-1038.336 6102.0160000000005,-1006.592 Q 6086.656000000001,-974.848 6066.176,-944.128 Q 6045.696000000001,-913.408 6020.608,-892.416 Q 5995.52,-871.4240000000001 5967.872,-871.4240000000001 M 5782.528,-902.144 Q 5796.8640000000005,-902.144 5818.368,-918.016 Q 5839.872,-933.8879999999999 5864.448,-968.7040000000001 Q 5893.12,-1009.6640000000001 5929.984,-1071.104 Q 5966.848,-1132.544 6002.688,-1201.152 Q 5995.52,-1207.296 5987.328,-1210.368 Q 5979.136,-1213.4399999999998 5964.8,-1213.44 Q 5941.2480000000005,-1213.44 5913.088,-1193.472 Q 5884.928,-1173.504 5856.768,-1141.76 Q 5828.608,-1110.016 5805.568,-1073.152 Q 5782.528,-1036.288 5768.704,-1001.984 Q 5754.88,-967.6800000000001 5754.88,-943.104 Q 5754.88,-902.144 5782.528,-902.144 M 6336.512,-868.352 Q 6312.96,-868.352 6295.04,-881.664 Q 6277.12,-894.976 6277.12,-935.936 Q 6277.12,-953.344 6279.68,-968.7040000000001 Q 6282.240000000001,-984.0640000000001 6286.336,-1001.472 Q 6277.12,-986.112 6260.736,-963.5840000000001 Q 6244.352,-941.056 6224.384,-919.552 Q 6204.416,-898.048 6183.424,-883.712 Q 6162.432,-869.376 6144.0,-869.376 Q 6117.376,-869.376 6100.992,-893.44 Q 6084.608,-917.504 6084.608,-956.416 Q 6084.608,-998.4000000000001 6104.064,-1046.528 Q 6123.52,-1094.656 6157.312,-1138.688 Q 6191.104,-1182.72 6235.136,-1210.368 Q 6279.168000000001,-1238.0159999999998 6327.296,-1238.016 Q 6350.848,-1238.016 6372.352,-1230.336 Q 6393.856,-1222.656 6410.24,-1205.248 Q 6417.407999999999,-1198.0800000000002 6417.408,-1188.864 Q 6417.408,-1182.72 6412.2880000000005,-1178.624 Q 6407.168000000001,-1174.528 6398.976000000001,-1176.576 Q 6387.712,-1212.416 6350.848,-1212.416 Q 6333.44,-1212.416 6310.912,-1201.152 Q 6283.264,-1186.816 6252.032,-1155.584 Q 6220.8,-1124.352 6193.664,-1084.928 Q 6166.527999999999,-1045.5040000000001 6149.12,-1005.568 Q 6131.7119999999995,-965.632 6131.712,-932.864 Q 6131.712,-899.072 6157.312,-899.072 Q 6179.84,-899.072 6203.904,-920.576 Q 6227.968000000001,-942.08 6249.984,-974.336 Q 6272.0,-1006.592 6290.432,-1038.336 Q 6308.864,-1070.08 6319.104,-1089.536 Q 6334.464,-1117.184 6347.776,-1135.616 Q 6361.088,-1154.048 6385.664,-1154.048 Q 6396.928,-1154.048 6408.192,-1150.976 Q 6419.456,-1147.9040000000002 6431.744,-1149.952 Q 6401.023999999999,-1119.232 6377.984,-1077.248 Q 6354.944,-1035.2640000000001 6342.656,-994.816 Q 6330.368,-954.368 6330.368,-926.72 Q 6330.368,-896.0 6350.848,-896.0 Q 6367.232,-896.0 6386.176,-914.432 Q 6405.120000000001,-932.864 6423.04,-961.024 Q 6440.96,-989.184 6456.32,-1018.368 Q 6471.679999999999,-1047.5520000000001 6480.896,-1069.056 Q 6486.016,-1069.056 6489.6,-1068.032 Q 6493.184,-1067.008 6493.184,-1059.84 Q 6492.16,-1055.744 6489.6,-1051.136 Q 6487.04,-1046.528 6481.92,-1035.2640000000001 Q 6473.728,-1018.8800000000001 6459.392,-991.232 Q 6445.056,-963.584 6425.6,-935.424 Q 6406.144,-907.264 6383.616,-887.808 Q 6361.088,-868.352 6336.512,-868.352 M 6481.92,-1072.128 Q 6490.112,-1089.5359999999998 6503.424,-1127.936 Q 6516.736,-1166.336 6531.072,-1213.44 Q 6545.408,-1260.544 6552.576,-1302.528 Q 6555.648,-1318.912 6563.84,-1326.592 Q 6572.032,-1334.2720000000002 6581.2480000000005,-1334.272 Q 6594.56,-1334.272 6605.8240000000005,-1321.472 Q 6617.088000000001,-1308.672 6617.088,-1285.1200000000001 Q 6617.088,-1256.448 6600.192,-1235.968 Q 6583.296,-1215.488 6558.72,-1197.056 Q 6568.96,-1196.0320000000002 6580.224,-1195.52 Q 6591.488,-1195.008 6604.8,-1195.008 Q 6652.928,-1195.008 6700.032,-1201.152 Q 6702.08,-1195.008 6702.08,-1191.936 Q 6702.08,-1178.624 6694.400000000001,-1158.144 Q 6686.72,-1137.664 6678.528,-1121.28 Q 6674.432000000001,-1112.064 6662.144,-1088.0 Q 6649.856000000001,-1063.936 6635.52,-1033.728 Q 6621.184,-1003.5200000000001 6611.456,-974.336 Q 6601.728,-945.152 6601.728,-924.672 Q 6601.728,-898.048 6622.2080000000005,-898.048 Q 6641.664000000001,-898.048 6676.4800000000005,-943.616 Q 6711.296,-989.184 6746.112,-1069.056 Q 6758.4,-1069.056 6758.400000000001,-1059.84 Q 6747.136,-1032.192 6730.24,-999.424 Q 6713.344,-966.656 6692.8640000000005,-937.472 Q 6672.384000000001,-908.288 6648.832,-889.344 Q 6625.280000000001,-870.4000000000001 6599.68,-870.4 Q 6580.224,-870.4 6560.768,-886.272 Q 6541.312,-902.144 6541.312,-937.984 Q 6541.312,-969.7280000000001 6553.6,-999.936 Q 6565.888,-1030.144 6581.2480000000005,-1056.768 Q 6596.608,-1083.392 6608.896,-1103.872 Q 6621.183999999999,-1124.352 6621.184,-1136.64 Q 6621.184,-1155.0720000000001 6598.144,-1163.2640000000001 Q 6575.104,-1171.4560000000001 6538.24,-1172.48 Q 6519.808,-1125.376 6510.592000000001,-1102.848 Q 6501.376,-1080.32 6493.184,-1059.84 Q 6476.8,-1059.84 6481.92,-1072.128" fill="none" stroke="black" stroke-linecap="round" stroke-linejoin="round" stroke-width="8" /></svg>