<svg xmlns="http://www.w3.org/2000/svg" width="502" height="612" viewBox="0 0 502 612">
<path d="M 334,538 L 336,540 L 336,545 L 335,546 L 334,545 L 334,543 L 333,542 L 333,541 L 333,542 L 332,543 L 330,543 L 329,544 L 330,545 L 330,546 L 331,547 L 328,550 L 326,550 L 325,551 L 324,551 L 323,550 L 323,549 L 324,548 L 324,547 L 325,546 L 325,544 L 327,542 L 328,542 L 330,540 L 331,540 L 332,539 L 333,539 Z" stroke="black" stroke-width="1.0" fill="none" />
<path d="M 336,539 L 335,538 L 333,538 L 332,539 L 331,539 L 330,540 L 329,540 L 327,542 L 326,542 L 324,544 L 325,545 L 325,546 L 322,549 L 323,550 L 322,551 L 326,551 L 327,550 L 328,550 L 329,549 L 330,549 L 331,548 L 331,547 L 330,546 L 330,544 L 331,543 L 333,543 L 334,544 L 334,546 L 335,546 L 336,545 Z" stroke="black" stroke-width="1.0" fill="none" />
<path d="M 234,516 L 239,521 L 239,522 L 240,523 L 240,524 L 241,525 L 241,527 L 242,528 L 242,530 L 243,531 L 243,534 L 242,535 L 241,535 L 240,534 L 240,533 L 239,532 L 239,530 L 238,529 L 237,529 L 235,527 L 235,525 L 234,524 L 234,522 L 233,521 L 233,520 L 232,519 L 233,518 L 233,517 Z" stroke="black" stroke-width="1.0" fill="none" />
<path d="M 401,513 L 403,513 L 404,514 L 404,515 L 406,517 L 406,518 L 407,519 L 407,521 L 405,523 L 403,523 L 401,521 L 401,520 L 400,519 L 400,518 L 399,517 L 399,515 Z" stroke="black" stroke-width="1.0" fill="none" />
<path d="M 400,513 L 399,514 L 399,517 L 400,518 L 400,520 L 401,521 L 401,522 L 402,523 L 406,523 L 407,522 L 407,518 L 406,517 L 406,516 L 405,516 L 404,515 L 405,514 L 404,513 Z" stroke="black" stroke-width="1.0" fill="none" />
<path d="M 385,489 L 385,492 L 386,493 L 386,495 L 388,497 L 388,498 L 389,499 L 391,499 L 392,500 L 393,500 L 394,499 L 394,497 L 393,496 L 392,496 L 390,494 L 390,490 L 388,488 L 387,489 Z" stroke="black" stroke-width="1.0" fill="none" />
<path d="M 299,481 L 299,485 L 301,487 L 302,487 L 303,488 L 304,488 L 305,489 L 306,489 L 307,490 L 307,491 L 306,492 L 307,492 L 308,493 L 308,495 L 310,495 L 310,490 L 309,489 L 309,488 L 308,488 L 307,487 L 307,485 L 306,484 L 303,484 L 300,481 Z" stroke="black" stroke-width="1.0" fill="none" />
<path d="M 202,476 L 208,533 L 252,553 L 268,554 L 266,549 L 264,555 L 257,552 L 254,528 L 263,552 L 258,531 L 250,525 L 253,518 L 223,480 L 238,495 L 249,521 L 253,519 L 257,552 L 250,551 L 248,538 L 251,550 L 241,547 L 244,534 L 239,520 L 229,517 L 236,509 L 234,504 L 229,513 L 221,492 L 230,491 L 220,476 L 226,489 L 221,491 L 217,480 L 242,546 L 208,532 Z" stroke="black" stroke-width="1.0" fill="none" />
<path d="M 335,476 L 353,495 L 360,507 L 357,512 L 362,518 L 361,520 L 363,519 L 370,531 L 374,533 L 372,527 L 374,532 L 370,530 L 357,511 L 359,509 L 370,524 L 360,510 L 353,494 L 341,482 L 343,480 L 355,492 L 376,525 L 375,528 L 374,521 L 355,491 L 342,478 Z" stroke="black" stroke-width="1.0" fill="none" />
<path d="M 358,467 L 360,469 L 359,471 L 361,471 L 365,478 L 368,477 L 375,485 L 373,488 L 374,490 L 376,490 L 375,491 L 373,488 L 375,486 L 382,495 L 379,498 L 385,503 L 390,512 L 388,514 L 391,514 L 384,501 L 385,500 L 395,515 L 392,520 L 395,517 L 396,518 L 394,521 L 396,520 L 398,523 L 399,533 L 398,523 L 392,508 L 373,481 L 368,476 L 366,478 Z" stroke="black" stroke-width="1.0" fill="none" />
<path d="M 264,459 L 265,458 L 266,459 L 266,460 L 267,461 L 268,461 L 269,460 L 269,459 L 270,458 L 271,458 L 272,459 L 272,460 L 273,461 L 273,464 L 274,465 L 274,466 L 275,467 L 275,468 L 274,469 L 273,469 L 271,467 L 271,466 L 270,465 L 269,465 L 268,464 L 266,464 L 263,461 L 264,460 Z" stroke="black" stroke-width="1.0" fill="none" />
<path d="M 340,456 L 344,457 L 361,477 L 359,491 L 362,491 L 364,485 L 361,491 L 359,488 L 363,480 L 376,498 L 370,506 L 371,509 L 376,511 L 378,504 L 381,505 L 385,514 L 377,520 L 381,523 L 387,517 L 390,521 L 384,526 L 386,520 L 382,525 L 385,526 L 390,522 L 396,535 L 387,516 L 378,521 L 386,514 L 381,504 L 377,501 L 379,502 L 375,511 L 371,508 L 375,496 L 356,469 L 345,457 Z" stroke="black" stroke-width="1.0" fill="none" />
<path d="M 263,451 L 262,452 L 262,453 L 262,452 L 263,451 L 265,453 L 265,458 L 264,459 L 263,458 L 264,459 L 263,462 L 266,464 L 268,464 L 271,467 L 271,468 L 272,469 L 275,469 L 275,466 L 273,463 L 273,461 L 272,460 L 272,458 L 269,458 L 269,459 L 268,460 L 267,460 L 265,457 L 265,452 L 264,451 Z" stroke="black" stroke-width="1.0" fill="none" />
<path d="M 345,445 L 347,443 L 350,443 L 353,446 L 353,447 L 355,449 L 356,449 L 357,450 L 357,451 L 355,453 L 352,453 L 345,446 Z" stroke="black" stroke-width="1.0" fill="none" />
<path d="M 345,444 L 345,447 L 350,452 L 351,452 L 352,453 L 356,453 L 357,452 L 358,452 L 357,451 L 357,449 L 356,449 L 355,448 L 354,448 L 353,447 L 353,445 L 352,444 L 351,444 L 350,443 L 347,443 L 346,444 Z" stroke="black" stroke-width="1.0" fill="none" />
<path d="M 233,442 L 236,454 L 251,465 L 257,476 L 277,498 L 286,501 L 276,496 L 257,475 L 249,462 L 252,459 L 259,472 L 255,463 L 258,460 L 259,465 L 261,462 L 258,460 L 255,463 L 252,456 L 254,458 L 255,456 L 251,452 L 257,449 L 260,452 L 258,457 L 260,459 L 258,457 L 259,449 L 246,453 L 238,438 L 244,451 L 252,453 L 251,459 L 247,461 L 236,453 Z" stroke="black" stroke-width="1.0" fill="none" />
<path d="M 98,440 L 87,480 L 140,494 L 142,441 L 142,495 L 156,503 L 155,454 L 165,509 L 156,454 L 149,499 L 150,448 L 142,494 L 143,440 L 137,494 L 137,437 L 130,490 L 120,471 L 114,484 L 119,452 L 113,485 L 87,479 L 91,450 L 145,433 L 195,467 L 158,436 Z" stroke="black" stroke-width="1.0" fill="none" />
<path d="M 244,432 L 245,431 L 246,431 L 247,432 L 247,434 L 248,435 L 249,435 L 250,434 L 250,430 L 251,429 L 253,431 L 253,432 L 254,433 L 255,433 L 256,434 L 257,434 L 258,435 L 257,436 L 256,436 L 255,437 L 253,437 L 252,438 L 250,438 L 249,439 L 247,437 L 246,437 L 245,436 L 245,435 L 244,434 Z" stroke="black" stroke-width="1.0" fill="none" />
<path d="M 107,435 L 143,429 L 169,436 L 192,447 L 243,495 L 273,543 L 260,517 L 243,494 L 193,447 L 143,429 Z" stroke="black" stroke-width="1.0" fill="none" />
<path d="M 244,431 L 244,434 L 245,435 L 245,437 L 246,437 L 247,438 L 248,438 L 249,439 L 250,438 L 253,438 L 254,437 L 255,437 L 256,436 L 258,436 L 258,435 L 256,433 L 255,433 L 253,431 L 253,430 L 252,429 L 252,428 L 251,429 L 250,428 L 250,434 L 249,435 L 247,433 L 247,431 Z" stroke="black" stroke-width="1.0" fill="none" />
<path d="M 274,424 L 276,424 L 277,425 L 277,434 L 278,435 L 278,437 L 279,438 L 279,441 L 277,443 L 276,442 L 276,440 L 275,439 L 275,436 L 274,435 L 274,427 L 273,426 L 273,425 Z" stroke="black" stroke-width="1.0" fill="none" />
<path d="M 322,426 L 324,428 L 325,433 L 329,437 L 328,438 L 329,437 L 331,438 L 335,444 L 352,460 L 346,453 L 337,446 L 332,438 L 335,436 L 336,432 L 335,433 L 336,434 L 331,438 L 324,431 L 327,430 L 328,432 L 329,431 L 330,432 L 330,434 L 334,429 L 331,423 L 329,425 L 327,425 L 324,427 Z" stroke="black" stroke-width="1.0" fill="none" />
<path d="M 276,423 L 275,424 L 273,424 L 272,425 L 273,426 L 272,427 L 273,427 L 274,428 L 274,436 L 275,437 L 275,439 L 276,440 L 276,443 L 278,443 L 279,442 L 279,438 L 278,437 L 278,434 L 277,433 L 277,424 Z" stroke="black" stroke-width="1.0" fill="none" />
<path d="M 146,423 L 151,422 L 169,426 L 195,438 L 215,452 L 238,478 L 236,479 L 213,454 L 196,442 L 173,431 L 149,426 Z" stroke="black" stroke-width="1.0" fill="none" />
<path d="M 146,422 L 146,425 L 173,431 L 200,445 L 212,454 L 231,475 L 238,480 L 239,477 L 216,452 L 201,441 L 175,428 Z" stroke="black" stroke-width="1.0" fill="none" />
<path d="M 332,421 L 334,419 L 337,422 L 338,422 L 339,423 L 340,423 L 341,424 L 341,425 L 342,425 L 343,426 L 344,426 L 346,428 L 348,428 L 350,430 L 350,431 L 353,434 L 351,436 L 347,432 L 346,432 L 344,430 L 343,430 L 341,428 L 340,428 L 334,422 L 333,422 Z" stroke="black" stroke-width="1.0" fill="none" />
<path d="M 285,418 L 296,428 L 282,426 L 300,432 L 341,490 L 346,510 L 338,503 L 359,538 L 337,522 L 322,492 L 323,505 L 313,500 L 309,480 L 313,501 L 321,502 L 315,520 L 320,506 L 331,528 L 322,520 L 323,505 L 333,522 L 325,499 L 351,538 L 340,527 L 348,539 L 341,549 L 334,525 L 335,551 L 348,539 L 358,547 L 344,513 L 363,536 L 341,489 Z" stroke="black" stroke-width="1.0" fill="none" />
<path d="M 184,419 L 186,417 L 188,417 L 191,420 L 192,420 L 194,422 L 195,422 L 197,424 L 198,424 L 200,426 L 201,426 L 210,435 L 208,437 L 199,428 L 198,428 L 196,426 L 193,425 L 190,422 L 189,422 L 187,420 L 185,420 Z" stroke="black" stroke-width="1.0" fill="none" />
<path d="M 354,413 L 362,421 L 364,421 L 370,429 L 386,445 L 393,450 L 398,459 L 402,463 L 402,466 L 406,468 L 410,473 L 411,476 L 408,479 L 405,477 L 404,471 L 399,470 L 397,465 L 393,462 L 392,460 L 393,459 L 390,455 L 390,451 L 388,449 L 384,450 L 380,448 L 378,441 L 366,429 L 365,426 L 361,424 L 353,415 Z" stroke="black" stroke-width="1.0" fill="none" />
<path d="M 155,415 L 155,417 L 158,420 L 160,420 L 161,421 L 165,421 L 166,420 L 167,420 L 166,419 L 167,418 L 166,418 L 165,417 L 164,417 L 163,416 L 162,416 L 161,415 L 159,415 L 158,414 L 157,415 Z" stroke="black" stroke-width="1.0" fill="none" />
<path d="M 353,413 L 355,419 L 360,424 L 362,424 L 378,442 L 380,449 L 382,449 L 385,454 L 388,454 L 384,452 L 385,449 L 388,449 L 390,451 L 393,463 L 397,466 L 398,470 L 402,470 L 405,473 L 405,478 L 407,481 L 411,477 L 411,474 L 408,469 L 402,465 L 401,461 L 393,449 L 387,445 L 365,421 L 363,421 L 357,414 Z" stroke="black" stroke-width="1.0" fill="none" />
<path d="M 123,409 L 125,407 L 132,404 L 152,402 L 167,406 L 186,417 L 183,419 L 168,410 L 154,406 L 135,407 L 127,410 L 124,410 Z" stroke="black" stroke-width="1.0" fill="none" />
<path d="M 320,401 L 322,403 L 322,408 L 323,409 L 323,410 L 324,411 L 324,413 L 321,416 L 321,419 L 320,420 L 320,424 L 319,425 L 318,424 L 318,423 L 317,422 L 317,417 L 316,416 L 316,408 L 317,407 L 317,405 L 319,403 L 319,402 Z" stroke="black" stroke-width="1.0" fill="none" />
<path d="M 122,408 L 163,408 L 198,428 L 251,485 L 253,496 L 240,486 L 254,500 L 251,484 L 213,438 L 264,494 L 273,510 L 269,517 L 258,495 L 273,523 L 266,520 L 273,524 L 273,513 L 282,528 L 280,533 L 273,528 L 284,546 L 282,531 L 289,543 L 264,493 L 202,426 L 162,404 Z" stroke="black" stroke-width="1.0" fill="none" />
<path d="M 99,433 L 123,426 L 100,436 L 110,422 L 146,415 L 111,417 L 129,392 L 190,407 L 233,440 L 238,431 L 231,436 L 232,426 L 226,433 L 207,410 L 224,407 L 237,421 L 243,400 L 236,421 L 228,404 L 199,410 L 227,404 L 229,414 L 225,407 L 206,411 L 225,433 L 234,428 L 231,437 L 238,432 L 232,440 L 191,407 L 129,392 L 111,418 L 146,414 L 107,422 Z" stroke="black" stroke-width="1.0" fill="none" />
<path d="M 380,388 L 377,393 L 376,391 L 375,393 L 377,397 L 370,402 L 369,399 L 369,402 L 371,403 L 374,399 L 379,400 L 381,402 L 379,405 L 379,410 L 382,413 L 379,409 L 379,405 L 382,401 L 384,402 L 382,408 L 386,413 L 379,417 L 378,416 L 380,419 L 384,419 L 387,417 L 385,412 L 386,410 L 382,407 L 384,404 L 384,398 L 386,397 L 388,401 L 392,402 L 394,405 L 393,406 L 394,403 L 389,401 L 386,396 L 384,397 L 383,401 L 377,400 L 376,398 L 380,397 L 379,391 L 382,389 L 393,399 L 394,397 Z" stroke="black" stroke-width="1.0" fill="none" />
<path d="M 214,401 L 214,400 L 218,396 L 219,396 L 219,395 L 218,396 L 217,396 L 217,397 L 216,398 L 215,398 L 214,397 L 214,394 L 215,393 L 215,390 L 217,387 L 218,388 L 218,391 L 220,393 L 223,393 L 224,392 L 225,393 L 225,394 L 226,394 L 224,392 L 224,391 L 225,390 L 226,390 L 228,392 L 228,396 L 224,400 L 223,400 L 222,401 L 218,401 L 217,402 L 215,402 Z" stroke="black" stroke-width="1.0" fill="none" />
<path d="M 80,462 L 130,383 L 79,483 L 173,536 L 293,563 L 386,547 L 425,517 L 412,479 L 415,516 L 338,415 L 323,424 L 387,475 L 412,526 L 319,555 L 312,514 L 292,516 L 262,467 L 318,547 L 267,544 L 298,558 L 397,538 L 405,506 L 421,513 L 412,481 L 423,521 L 354,555 L 202,546 L 90,495 Z" stroke="black" stroke-width="1.0" fill="none" />
<path d="M 171,382 L 173,380 L 175,383 L 175,390 L 177,391 L 181,391 L 182,390 L 184,391 L 188,391 L 193,395 L 193,399 L 192,400 L 190,400 L 188,402 L 186,402 L 185,401 L 186,400 L 186,397 L 187,396 L 186,395 L 184,395 L 183,397 L 183,399 L 181,401 L 179,401 L 177,400 L 173,395 L 173,393 L 171,389 Z" stroke="black" stroke-width="1.0" fill="none" />
<path d="M 352,381 L 354,395 L 341,400 L 341,405 L 343,399 L 353,398 L 352,406 L 349,401 L 350,405 L 345,405 L 353,408 L 349,411 L 336,412 L 329,405 L 332,402 L 338,409 L 332,401 L 342,392 L 351,392 L 348,380 L 351,391 L 342,392 L 331,403 L 329,401 L 331,412 L 321,402 L 324,391 L 320,394 L 318,391 L 321,389 L 318,390 L 323,394 L 322,398 L 316,398 L 316,393 L 313,402 L 318,397 L 323,399 L 316,408 L 318,425 L 325,413 L 324,403 L 329,411 L 325,418 L 332,411 L 354,409 L 352,397 L 355,387 Z" stroke="black" stroke-width="1.0" fill="none" />
<path d="M 223,380 L 223,387 L 224,387 L 225,389 L 224,391 L 222,393 L 221,393 L 218,390 L 218,387 L 217,386 L 217,387 L 215,388 L 215,392 L 214,393 L 214,397 L 215,398 L 213,399 L 214,400 L 214,402 L 223,401 L 225,400 L 228,397 L 228,391 L 225,389 L 226,388 L 226,384 L 226,387 L 225,388 L 223,386 Z" stroke="black" stroke-width="1.0" fill="none" />
<path d="M 202,381 L 198,377 L 196,378 L 195,387 L 193,390 L 187,387 L 188,383 L 186,378 L 188,384 L 186,388 L 185,387 L 186,388 L 185,391 L 183,390 L 177,391 L 175,389 L 174,380 L 171,381 L 171,390 L 173,393 L 173,396 L 176,400 L 182,401 L 185,395 L 186,396 L 185,402 L 186,403 L 190,400 L 192,402 L 194,395 L 187,391 L 186,389 L 189,388 L 195,392 L 193,390 L 195,389 L 196,379 L 197,378 Z" stroke="black" stroke-width="1.0" fill="none" />
<path d="M 372,375 L 372,387 L 370,391 L 368,390 L 368,377 L 366,377 L 368,380 L 365,382 L 365,387 L 365,383 L 368,382 L 369,385 L 367,387 L 369,388 L 357,403 L 357,409 L 359,411 L 373,408 L 374,411 L 377,410 L 377,403 L 375,404 L 375,410 L 373,404 L 372,409 L 367,405 L 371,408 L 369,410 L 361,409 L 360,406 L 362,407 L 362,405 L 360,405 L 361,409 L 359,411 L 357,408 L 357,404 L 361,399 L 365,403 L 364,405 L 367,402 L 365,403 L 361,398 L 368,391 L 372,393 L 374,391 L 371,380 L 373,377 L 375,380 L 374,382 L 375,380 Z" stroke="black" stroke-width="1.0" fill="none" />
<path d="M 179,369 L 180,368 L 181,368 L 182,367 L 183,368 L 186,368 L 190,372 L 190,373 L 191,374 L 191,375 L 189,377 L 188,376 L 188,375 L 187,374 L 186,374 L 184,372 L 180,372 L 179,371 Z" stroke="black" stroke-width="1.0" fill="none" />
<path d="M 180,364 L 179,365 L 180,364 L 181,365 L 181,367 L 179,368 L 179,371 L 181,375 L 184,377 L 185,376 L 183,376 L 180,373 L 181,372 L 183,372 L 188,376 L 189,379 L 189,377 L 190,376 L 191,377 L 191,373 L 190,371 L 185,367 L 187,365 L 188,366 L 190,366 L 191,367 L 191,369 L 192,367 L 191,366 L 193,364 L 195,364 L 196,365 L 195,364 L 192,364 L 191,366 L 188,366 L 186,365 L 185,367 L 183,368 L 181,366 L 183,365 Z" stroke="black" stroke-width="1.0" fill="none" />
<path d="M 167,360 L 169,362 L 169,371 L 170,372 L 170,374 L 171,375 L 169,377 L 169,379 L 168,380 L 168,382 L 165,385 L 160,385 L 157,383 L 157,381 L 159,378 L 160,378 L 163,381 L 164,381 L 165,380 L 166,381 L 165,380 L 165,379 L 167,376 L 167,370 L 166,369 L 166,365 L 165,364 L 165,362 Z" stroke="black" stroke-width="1.0" fill="none" />
<path d="M 207,358 L 304,408 L 260,386 L 258,382 L 308,406 L 313,411 L 306,409 L 312,413 L 312,422 L 292,411 L 313,422 L 310,407 L 272,387 L 241,376 L 211,359 L 214,357 Z" stroke="black" stroke-width="1.0" fill="none" />
<path d="M 330,351 L 334,357 L 332,362 L 328,353 L 325,353 L 323,359 L 321,356 L 314,356 L 310,362 L 313,357 L 320,356 L 322,364 L 326,365 L 327,353 L 331,363 L 335,358 L 337,366 L 331,367 L 325,378 L 333,377 L 325,378 L 332,367 L 336,370 L 333,372 L 336,376 L 329,383 L 318,379 L 319,384 L 310,391 L 304,387 L 315,383 L 315,378 L 310,374 L 315,372 L 312,372 L 306,385 L 302,383 L 310,392 L 318,386 L 320,378 L 328,386 L 340,371 L 338,369 L 340,371 L 336,375 L 334,373 L 337,363 Z" stroke="black" stroke-width="1.0" fill="none" />
<path d="M 402,350 L 402,352 L 404,354 L 404,356 L 405,357 L 405,358 L 406,358 L 409,356 L 412,356 L 414,358 L 414,360 L 413,361 L 412,361 L 411,362 L 407,362 L 411,362 L 412,363 L 412,366 L 411,367 L 410,366 L 410,365 L 409,366 L 410,366 L 411,367 L 412,366 L 414,366 L 415,367 L 415,361 L 414,360 L 414,358 L 413,357 L 413,356 L 410,356 L 407,353 L 407,352 L 405,350 Z" stroke="black" stroke-width="1.0" fill="none" />
<path d="M 191,358 L 177,359 L 181,353 L 168,352 L 172,349 L 174,352 L 171,349 L 162,353 L 157,365 L 159,360 L 163,367 L 166,365 L 165,380 L 161,378 L 163,372 L 159,371 L 159,366 L 161,377 L 155,383 L 158,373 L 153,382 L 151,378 L 153,384 L 148,388 L 150,385 L 152,388 L 147,390 L 142,386 L 146,379 L 140,386 L 155,395 L 156,391 L 167,392 L 156,390 L 166,388 L 156,387 L 154,393 L 151,390 L 154,382 L 165,385 L 171,376 L 169,361 L 160,364 L 161,355 L 168,352 L 169,356 L 163,356 L 177,360 L 183,357 L 184,361 L 176,364 L 174,360 L 175,364 Z" stroke="black" stroke-width="1.0" fill="none" />
<path d="M 327,344 L 327,345 L 326,346 L 326,347 L 325,348 L 325,349 L 324,350 L 323,350 L 321,352 L 315,352 L 314,351 L 313,351 L 312,350 L 312,349 L 313,348 L 315,348 L 316,349 L 320,349 L 321,348 L 322,348 L 322,347 L 321,346 L 322,345 L 321,344 L 324,341 Z" stroke="black" stroke-width="1.0" fill="none" />
<path d="M 291,332 L 292,331 L 296,331 L 299,334 L 300,334 L 301,335 L 302,335 L 303,336 L 304,336 L 305,337 L 310,337 L 312,339 L 310,341 L 308,341 L 307,342 L 303,342 L 300,339 L 300,337 L 299,337 L 297,335 L 294,335 Z" stroke="black" stroke-width="1.0" fill="none" />
<path d="M 270,343 L 273,339 L 273,336 L 274,335 L 275,332 L 277,330 L 281,334 L 279,336 L 276,337 L 276,339 L 275,340 L 276,340 L 276,338 L 278,336 L 281,335 L 283,332 L 285,334 L 285,339 L 284,340 L 284,342 L 287,341 L 289,343 L 288,344 L 286,344 L 283,346 L 282,346 L 280,344 L 279,345 L 277,345 L 277,346 L 276,347 L 273,346 Z" stroke="black" stroke-width="1.0" fill="none" />
<path d="M 351,336 L 364,356 L 368,346 L 374,350 L 372,357 L 367,352 L 373,366 L 367,359 L 366,366 L 382,377 L 377,387 L 382,376 L 374,369 L 383,359 L 391,368 L 384,368 L 384,386 L 393,395 L 391,383 L 388,389 L 384,381 L 393,378 L 385,376 L 389,370 L 394,375 L 395,366 L 404,386 L 399,395 L 410,396 L 401,393 L 404,381 L 421,384 L 416,378 L 423,362 L 418,362 L 424,365 L 416,386 L 412,378 L 402,381 L 399,363 L 401,371 L 396,365 L 394,375 L 383,354 L 382,360 L 370,358 L 380,357 L 381,328 L 377,346 L 374,332 L 376,346 L 382,346 L 376,357 L 375,350 L 368,345 L 363,349 Z" stroke="black" stroke-width="1.0" fill="none" />
<path d="M 343,317 L 348,310 L 352,310 L 354,314 L 349,321 L 355,328 L 356,324 L 365,322 L 364,315 L 365,318 L 359,322 L 365,318 L 362,324 L 353,326 L 349,321 L 353,316 L 357,320 L 362,312 L 359,298 L 356,298 L 355,302 L 356,299 L 362,307 L 360,316 L 357,319 L 354,317 L 358,312 L 357,305 L 358,311 L 355,314 L 352,310 L 347,310 L 343,315 L 348,327 L 354,331 L 368,332 L 372,328 L 374,316 L 383,306 L 390,305 L 397,313 L 396,317 L 399,313 L 386,300 L 391,304 L 383,304 L 374,315 L 372,327 L 364,333 L 351,329 Z" stroke="black" stroke-width="1.0" fill="none" />
<path d="M 256,305 L 254,322 L 278,327 L 269,337 L 275,328 L 276,350 L 291,342 L 289,331 L 303,343 L 273,362 L 296,387 L 274,358 L 285,365 L 278,358 L 292,350 L 286,359 L 299,372 L 287,358 L 298,343 L 310,371 L 303,346 L 327,351 L 315,337 L 307,344 L 315,329 L 337,332 L 340,349 L 335,336 L 329,345 L 343,363 L 353,358 L 347,338 L 351,357 L 343,363 L 334,351 L 343,352 L 337,331 L 281,334 L 282,310 L 277,325 L 261,307 L 270,298 L 274,313 L 277,295 L 276,304 L 263,300 L 264,317 L 259,307 L 266,323 Z" stroke="black" stroke-width="1.0" fill="none" />
<path d="M 245,310 L 231,313 L 238,328 L 225,328 L 234,326 L 238,331 L 228,335 L 221,328 L 223,321 L 229,322 L 219,319 L 223,325 L 220,328 L 218,321 L 219,328 L 214,327 L 212,334 L 213,322 L 222,319 L 221,314 L 225,319 L 224,295 L 226,310 L 205,327 L 204,323 L 190,345 L 192,351 L 191,344 L 204,338 L 203,326 L 215,339 L 210,340 L 219,342 L 215,351 L 222,341 L 215,339 L 215,328 L 237,341 L 231,336 L 240,330 L 257,343 L 238,328 L 246,323 L 239,327 L 230,317 Z" stroke="black" stroke-width="1.0" fill="none" />
<path d="M 380,293 L 382,291 L 383,291 L 384,290 L 387,290 L 388,289 L 391,289 L 394,292 L 394,295 L 393,296 L 392,296 L 391,297 L 385,297 L 384,298 L 383,297 L 382,297 L 381,296 L 381,295 L 380,294 Z" stroke="black" stroke-width="1.0" fill="none" />
<path d="M 394,291 L 393,290 L 392,290 L 391,289 L 388,289 L 387,290 L 384,290 L 383,291 L 381,291 L 380,292 L 380,295 L 381,296 L 381,297 L 383,297 L 384,298 L 385,297 L 391,297 L 392,296 L 394,296 Z" stroke="black" stroke-width="1.0" fill="none" />
<path d="M 315,278 L 317,280 L 317,282 L 319,284 L 319,287 L 318,288 L 318,292 L 316,294 L 317,294 L 317,293 L 319,291 L 320,291 L 324,295 L 324,296 L 325,297 L 323,299 L 320,295 L 320,296 L 321,297 L 321,299 L 318,302 L 315,302 L 312,300 L 312,298 L 313,297 L 314,297 L 314,293 L 313,292 L 315,290 L 315,282 L 314,282 L 313,281 L 313,280 Z" stroke="black" stroke-width="1.0" fill="none" />
<path d="M 189,271 L 190,270 L 194,270 L 195,271 L 200,271 L 201,270 L 202,271 L 203,271 L 204,272 L 203,273 L 203,274 L 202,275 L 201,275 L 200,276 L 197,276 L 196,275 L 193,275 L 191,273 L 190,273 L 189,272 Z" stroke="black" stroke-width="1.0" fill="none" />
<path d="M 153,268 L 150,300 L 126,325 L 128,338 L 145,347 L 126,378 L 130,381 L 125,373 L 135,367 L 142,349 L 143,361 L 131,378 L 147,363 L 151,369 L 154,348 L 151,363 L 147,354 L 141,372 L 130,373 L 152,345 L 172,344 L 226,371 L 284,424 L 228,372 L 173,344 L 145,351 L 128,337 L 129,319 L 150,300 Z" stroke="black" stroke-width="1.0" fill="none" />
<path d="M 301,257 L 315,278 L 314,291 L 309,284 L 314,296 L 306,307 L 289,296 L 293,268 L 287,290 L 296,303 L 287,310 L 287,299 L 284,310 L 315,306 L 311,302 L 322,298 L 326,313 L 315,318 L 323,318 L 330,302 L 321,331 L 315,320 L 305,323 L 305,311 L 298,323 L 307,333 L 290,320 L 292,312 L 289,318 L 300,331 L 311,332 L 298,323 L 305,311 L 304,323 L 327,333 L 320,322 L 324,327 L 337,310 L 333,313 L 324,298 L 340,308 L 329,319 L 331,331 L 328,323 L 339,315 L 339,305 L 324,296 L 324,285 L 323,293 Z" stroke="black" stroke-width="1.0" fill="none" />
<path d="M 185,256 L 192,264 L 204,264 L 212,283 L 206,284 L 207,277 L 201,281 L 188,276 L 189,272 L 206,274 L 201,270 L 186,274 L 178,268 L 188,276 L 181,278 L 202,283 L 198,285 L 187,280 L 198,285 L 205,282 L 205,289 L 212,283 L 219,295 L 206,312 L 196,314 L 192,311 L 195,290 L 183,279 L 194,288 L 193,308 L 183,310 L 193,318 L 191,310 L 202,319 L 213,313 L 205,321 L 217,313 L 204,318 L 201,315 L 219,296 L 222,299 L 205,264 L 193,264 Z" stroke="black" stroke-width="1.0" fill="none" />
<path d="M 127,238 L 127,239 L 123,243 L 121,243 L 118,246 L 117,245 L 114,245 L 113,244 L 112,244 L 111,243 L 111,242 L 112,241 L 113,241 L 114,240 L 116,240 L 117,239 L 119,239 L 120,240 L 121,239 L 122,239 L 123,238 L 124,238 L 125,237 L 126,237 Z" stroke="black" stroke-width="1.0" fill="none" />
<path d="M 127,237 L 125,237 L 124,238 L 123,238 L 122,239 L 116,239 L 115,240 L 114,240 L 113,241 L 111,241 L 111,244 L 112,245 L 113,244 L 114,245 L 116,245 L 117,246 L 119,246 L 122,243 L 123,243 L 124,242 L 125,242 L 127,240 Z" stroke="black" stroke-width="1.0" fill="none" />
<path d="M 220,236 L 207,254 L 211,272 L 224,292 L 253,301 L 255,287 L 255,303 L 244,307 L 234,299 L 232,305 L 234,299 L 243,307 L 237,310 L 236,304 L 236,311 L 247,306 L 247,313 L 249,308 L 253,312 L 247,306 L 259,299 L 255,286 L 255,298 L 247,301 L 225,292 L 207,260 L 212,243 L 223,235 L 234,236 L 245,258 L 233,240 L 223,241 L 213,254 L 215,270 L 225,286 L 249,296 L 245,287 L 249,295 L 243,296 L 216,274 L 213,254 L 222,242 L 232,240 L 241,260 L 245,258 L 239,239 Z" stroke="black" stroke-width="1.0" fill="none" />
<path d="M 292,223 L 293,225 L 287,235 L 289,236 L 286,241 L 288,238 L 291,241 L 289,247 L 287,248 L 285,246 L 285,250 L 273,260 L 266,260 L 259,257 L 254,246 L 260,244 L 267,252 L 266,250 L 270,250 L 270,248 L 275,251 L 271,252 L 274,254 L 270,256 L 261,255 L 259,253 L 260,251 L 264,253 L 258,247 L 261,255 L 270,256 L 278,252 L 274,254 L 274,250 L 284,242 L 286,244 L 283,242 L 280,246 L 275,246 L 282,236 L 285,235 L 286,229 Z" stroke="black" stroke-width="1.0" fill="none" />
<path d="M 223,212 L 228,217 L 228,218 L 230,220 L 230,226 L 229,227 L 229,228 L 227,230 L 226,229 L 225,229 L 224,228 L 224,227 L 227,224 L 227,221 L 222,216 L 222,213 Z" stroke="black" stroke-width="1.0" fill="none" />
<path d="M 355,211 L 351,211 L 349,213 L 348,213 L 346,215 L 345,215 L 344,216 L 344,218 L 345,218 L 346,219 L 347,218 L 349,218 L 350,217 L 352,217 L 353,216 L 354,216 L 355,215 Z" stroke="black" stroke-width="1.0" fill="none" />
<path d="M 215,199 L 189,223 L 158,261 L 163,286 L 176,301 L 181,293 L 178,295 L 169,287 L 186,294 L 168,286 L 168,290 L 165,289 L 158,271 L 159,259 L 164,258 L 164,271 L 163,255 L 206,208 L 210,216 L 209,228 L 211,215 L 207,207 L 214,199 L 214,210 L 221,222 L 221,230 L 217,233 L 217,220 L 217,233 L 220,233 Z" stroke="black" stroke-width="1.0" fill="none" />
<path d="M 364,197 L 366,206 L 361,208 L 361,215 L 367,230 L 356,239 L 359,240 L 361,234 L 367,231 L 366,217 L 384,241 L 377,228 L 361,215 L 361,209 L 367,207 L 367,202 L 386,241 L 370,211 L 375,207 L 412,255 L 411,259 L 392,258 L 387,263 L 392,258 L 411,260 L 412,254 L 377,208 L 371,208 Z" stroke="black" stroke-width="1.0" fill="none" />
<path d="M 229,203 L 240,200 L 245,210 L 241,218 L 249,227 L 253,227 L 256,217 L 256,225 L 266,219 L 253,244 L 257,255 L 265,260 L 278,258 L 291,245 L 293,231 L 297,227 L 297,234 L 304,226 L 298,225 L 290,235 L 294,223 L 291,223 L 278,243 L 267,249 L 260,244 L 265,245 L 261,239 L 261,243 L 254,244 L 266,218 L 260,222 L 256,217 L 250,225 L 242,215 L 252,200 L 272,203 L 281,199 L 272,203 L 251,200 L 245,210 L 239,196 Z" stroke="black" stroke-width="1.0" fill="none" />
<path d="M 325,182 L 324,183 L 323,182 L 320,186 L 320,188 L 319,189 L 321,191 L 321,193 L 320,194 L 318,192 L 318,191 L 316,193 L 316,196 L 315,197 L 315,199 L 313,201 L 312,204 L 310,206 L 309,205 L 309,203 L 310,202 L 310,200 L 311,198 L 310,199 L 310,201 L 308,203 L 309,204 L 308,206 L 311,206 L 312,205 L 312,203 L 315,200 L 318,200 L 321,192 L 325,187 Z" stroke="black" stroke-width="1.0" fill="none" />
<path d="M 115,177 L 112,180 L 119,189 L 120,194 L 116,199 L 116,206 L 119,209 L 125,209 L 128,206 L 128,202 L 125,198 L 124,200 L 118,202 L 121,206 L 120,201 L 125,199 L 128,202 L 128,205 L 124,209 L 120,209 L 116,205 L 116,200 L 121,194 L 123,194 L 133,201 L 119,192 L 121,188 L 123,189 L 128,186 L 129,181 L 127,181 L 128,185 L 126,187 L 120,189 L 116,185 L 119,184 L 120,186 L 122,184 L 120,176 L 119,181 L 114,182 L 113,179 L 116,179 Z" stroke="black" stroke-width="1.0" fill="none" />
<path d="M 300,168 L 301,169 L 301,176 L 302,177 L 303,176 L 305,178 L 305,179 L 303,181 L 302,181 L 303,182 L 303,184 L 302,185 L 301,185 L 300,184 L 300,182 L 299,181 L 299,177 L 298,176 L 298,170 Z" stroke="black" stroke-width="1.0" fill="none" />
<path d="M 298,169 L 298,176 L 299,177 L 299,182 L 301,185 L 300,187 L 302,192 L 302,198 L 302,191 L 300,187 L 302,185 L 304,188 L 304,186 L 307,182 L 308,183 L 308,186 L 304,192 L 305,193 L 306,192 L 305,190 L 308,187 L 308,183 L 306,182 L 305,185 L 304,186 L 303,185 L 303,182 L 305,180 L 305,177 L 301,175 L 301,168 Z" stroke="black" stroke-width="1.0" fill="none" />
<path d="M 361,158 L 356,162 L 364,165 L 365,181 L 373,182 L 365,184 L 367,188 L 367,185 L 373,188 L 366,192 L 358,189 L 339,192 L 326,205 L 327,213 L 318,215 L 319,219 L 314,223 L 317,226 L 321,221 L 314,224 L 331,207 L 334,211 L 317,231 L 330,225 L 318,230 L 327,225 L 326,219 L 334,212 L 332,207 L 336,207 L 342,198 L 335,199 L 336,207 L 331,203 L 334,205 L 327,212 L 324,210 L 340,192 L 374,189 L 373,181 L 365,180 L 367,176 L 372,177 L 367,175 Z" stroke="black" stroke-width="1.0" fill="none" />
<path d="M 355,139 L 363,146 L 369,168 L 377,179 L 379,204 L 417,256 L 411,267 L 399,269 L 403,281 L 395,304 L 406,317 L 406,336 L 422,352 L 418,360 L 421,349 L 406,335 L 405,314 L 395,304 L 403,281 L 399,271 L 414,265 L 416,252 L 379,203 L 376,176 L 369,167 L 363,145 Z" stroke="black" stroke-width="1.0" fill="none" />
<path d="M 352,141 L 318,140 L 283,152 L 273,166 L 273,161 L 270,163 L 271,169 L 254,173 L 266,177 L 276,172 L 279,177 L 273,175 L 273,185 L 243,180 L 226,194 L 232,181 L 273,156 L 231,181 L 225,189 L 229,196 L 229,189 L 243,180 L 271,186 L 278,178 L 280,183 L 285,178 L 280,182 L 277,172 L 266,177 L 255,173 L 272,169 L 286,151 L 323,141 L 318,144 L 337,138 Z" stroke="black" stroke-width="1.0" fill="none" />
<path d="M 303,131 L 294,134 L 298,142 L 231,177 L 160,242 L 154,260 L 148,245 L 174,202 L 159,221 L 153,216 L 154,230 L 144,221 L 151,226 L 149,236 L 141,227 L 144,234 L 154,230 L 148,245 L 145,237 L 138,241 L 148,241 L 148,259 L 218,191 L 224,229 L 230,226 L 224,210 L 235,229 L 238,221 L 219,196 L 231,212 L 240,208 L 232,212 L 218,191 L 258,158 L 299,142 Z" stroke="black" stroke-width="1.0" fill="none" />
<path d="M 209,129 L 209,130 L 208,131 L 200,131 L 199,132 L 199,133 L 196,136 L 191,136 L 190,137 L 188,135 L 188,134 L 189,133 L 192,133 L 193,132 L 195,132 L 195,131 L 198,128 L 208,128 Z" stroke="black" stroke-width="1.0" fill="none" />
<path d="M 169,136 L 175,130 L 175,125 L 177,123 L 179,125 L 179,126 L 181,126 L 184,128 L 184,129 L 185,130 L 184,131 L 183,131 L 182,132 L 182,133 L 182,132 L 185,130 L 186,131 L 186,132 L 187,132 L 188,133 L 188,135 L 187,136 L 182,136 L 181,135 L 180,135 L 179,136 L 176,136 L 175,137 L 173,137 L 172,138 L 171,138 Z" stroke="black" stroke-width="1.0" fill="none" />
<path d="M 278,126 L 274,126 L 267,132 L 269,136 L 264,143 L 245,145 L 247,140 L 256,136 L 257,132 L 264,128 L 258,129 L 260,123 L 255,136 L 250,137 L 243,145 L 237,145 L 227,151 L 222,150 L 204,171 L 201,171 L 203,174 L 223,150 L 227,151 L 238,145 L 265,143 L 269,137 L 268,132 L 276,125 L 278,128 L 274,131 L 274,142 L 271,146 L 274,143 L 273,135 Z" stroke="black" stroke-width="1.0" fill="none" />
<path d="M 159,123 L 145,135 L 140,136 L 128,150 L 129,161 L 128,156 L 132,153 L 134,155 L 133,161 L 128,164 L 125,159 L 124,167 L 112,172 L 124,168 L 125,161 L 127,164 L 142,161 L 142,153 L 151,134 L 146,139 L 148,143 L 142,152 L 140,162 L 133,159 L 140,151 L 134,155 L 132,153 L 140,147 L 136,147 L 131,154 L 127,154 L 142,135 L 145,137 Z" stroke="black" stroke-width="1.0" fill="none" />
<path d="M 329,103 L 301,105 L 265,115 L 224,138 L 173,182 L 170,180 L 185,164 L 170,182 L 179,177 L 183,184 L 181,180 L 185,175 L 181,180 L 179,177 L 192,164 L 200,162 L 188,172 L 193,174 L 189,171 L 203,160 L 205,162 L 198,160 L 209,150 L 266,115 L 301,105 Z" stroke="black" stroke-width="1.0" fill="none" />
<path d="M 201,100 L 196,100 L 192,105 L 180,103 L 173,112 L 158,120 L 161,123 L 167,114 L 176,112 L 173,119 L 175,130 L 169,136 L 172,141 L 176,136 L 196,136 L 201,131 L 210,130 L 199,127 L 200,123 L 205,123 L 197,122 L 206,117 L 202,114 L 197,122 L 199,127 L 191,133 L 186,131 L 192,129 L 190,127 L 186,131 L 184,129 L 193,122 L 193,127 L 193,122 L 182,127 L 173,120 L 177,114 L 175,111 L 180,109 L 179,105 L 183,108 L 179,116 L 183,123 L 181,121 L 185,113 L 180,103 L 185,106 L 190,104 L 191,107 L 197,100 Z" stroke="black" stroke-width="1.0" fill="none" />
<path d="M 339,106 L 329,100 L 304,99 L 269,109 L 218,136 L 187,162 L 236,126 L 272,108 L 304,99 L 328,100 L 333,103 L 332,106 L 334,103 L 339,107 L 336,109 L 339,109 Z" stroke="black" stroke-width="1.0" fill="none" />
<path d="M 259,78 L 256,81 L 255,80 L 258,82 L 258,84 L 257,85 L 258,95 L 265,95 L 270,92 L 271,90 L 264,95 L 259,95 L 258,93 L 261,90 L 264,90 L 267,88 L 263,90 L 261,90 L 259,92 L 257,89 L 257,86 L 259,85 L 261,87 L 265,84 L 266,85 L 268,85 L 270,88 L 271,88 L 269,85 L 267,85 L 265,83 L 264,80 L 261,78 L 260,79 Z" stroke="black" stroke-width="1.0" fill="none" />
<path d="M 360,69 L 316,55 L 255,58 L 197,84 L 154,114 L 99,177 L 93,243 L 107,252 L 130,246 L 153,266 L 131,246 L 107,252 L 95,245 L 89,225 L 97,182 L 155,114 L 201,82 L 255,58 L 316,55 L 354,65 L 369,95 L 355,114 L 344,114 L 355,137 L 344,115 L 369,101 Z" stroke="black" stroke-width="1.0" fill="none" />
</svg>