<?xml version="1.0" encoding="utf-8" ?>
<svg baseProfile="tiny" height="1282.048px" version="1.2" viewBox="0 0 9627.648000000001 1282.048" width="9627.648000000001px" xmlns="http://www.w3.org/2000/svg" xmlns:ev="http://www.w3.org/2001/xml-events" xmlns:xlink="http://www.w3.org/1999/xlink"><defs /><path d="M 1397.76,-753.664 Q 1382.4,-755.712 1355.776,-761.344 Q 1329.152,-766.976 1301.5040000000001,-783.36 Q 1273.8560000000002,-799.744 1254.4,-833.024 Q 1234.9440000000002,-866.304 1234.944,-921.6 Q 1234.944,-985.088 1261.056,-1061.376 Q 1287.1680000000001,-1137.664 1325.056,-1220.608 Q 1362.944,-1303.552 1397.76,-1384.448 Q 1425.408,-1448.96 1425.4080000000001,-1482.752 Q 1425.4080000000001,-1516.5439999999999 1399.808,-1516.544 Q 1371.136,-1516.544 1314.304,-1470.976 Q 1257.472,-1425.4080000000001 1182.72,-1333.248 Q 1163.2640000000001,-1308.672 1132.544,-1265.152 Q 1101.824,-1221.632 1067.008,-1168.896 Q 1032.192,-1116.1599999999999 998.912,-1062.4 Q 965.6320000000001,-1008.6400000000001 940.544,-963.5840000000001 Q 915.456,-918.528 904.192,-891.904 Q 890.88,-860.16 873.472,-848.384 Q 856.064,-836.6080000000001 840.7040000000001,-836.6080000000001 Q 827.392,-836.6080000000001 818.176,-843.7760000000001 Q 807.936,-850.9440000000001 807.936,-861.184 Q 807.936,-867.328 811.008,-871.424 Q 817.152,-883.712 841.7280000000001,-927.744 Q 866.3040000000001,-971.7760000000001 899.072,-1044.48 Q 931.84,-1117.184 961.5360000000001,-1213.44 Q 970.7520000000001,-1243.136 980.48,-1282.048 Q 990.208,-1320.96 998.4,-1362.432 Q 1006.592,-1403.904 1012.224,-1440.256 Q 1017.856,-1476.6080000000002 1017.856,-1499.136 Q 1017.856,-1534.9759999999999 1005.568,-1551.872 Q 993.28,-1568.768 972.8000000000001,-1568.768 Q 950.272,-1568.768 921.6,-1549.3120000000001 Q 892.928,-1529.8560000000002 863.232,-1492.992 Q 812.0319999999999,-1428.48 773.12,-1373.6960000000001 Q 734.208,-1318.912 701.952,-1264.64 Q 669.696,-1210.3680000000002 638.464,-1148.928 Q 607.2320000000001,-1087.488 572.416,-1011.2 Q 537.6,-934.912 492.544,-834.5600000000001 Q 485.376,-818.176 468.48,-811.008 Q 451.584,-803.84 437.248,-803.84 Q 422.912,-803.84 413.696,-809.984 Q 404.48,-816.128 407.552,-827.392 Q 430.08000000000004,-863.2320000000001 457.728,-916.9920000000001 Q 485.37600000000003,-970.7520000000001 514.048,-1036.288 Q 542.72,-1101.824 569.344,-1172.48 Q 595.9680000000001,-1243.136 616.96,-1310.72 Q 637.952,-1378.304 650.24,-1437.6960000000001 Q 662.528,-1497.0880000000002 662.528,-1539.0720000000001 Q 662.528,-1617.92 629.248,-1651.712 Q 595.9680000000001,-1685.504 543.744,-1685.5040000000001 Q 497.66400000000004,-1685.5040000000001 442.368,-1662.976 Q 387.072,-1640.448 331.264,-1601.536 Q 275.456,-1562.624 226.304,-1513.472 Q 155.648,-1442.816 115.2,-1359.872 Q 74.75200000000001,-1276.928 74.752,-1191.936 Q 74.752,-1134.5919999999999 96.256,-1094.656 Q 117.76,-1054.72 153.088,-1034.24 Q 188.416,-1013.76 231.424,-1013.76 Q 275.456,-1013.76 313.856,-1035.776 Q 352.256,-1057.7920000000001 381.44,-1093.1200000000001 Q 410.624,-1128.448 427.008,-1167.872 Q 443.392,-1207.296 443.392,-1242.112 Q 443.392,-1271.808 427.008,-1291.2640000000001 Q 410.62399999999997,-1310.72 374.784,-1310.72 Q 370.688,-1310.72 366.08,-1310.208 Q 361.472,-1309.6960000000001 356.35200000000003,-1309.6960000000001 L 353.28000000000003,-1309.6960000000001 Q 346.112,-1309.6960000000001 339.968,-1312.256 Q 333.824,-1314.816 333.824,-1318.912 Q 333.824,-1323.008 344.576,-1328.128 Q 355.32800000000003,-1333.2479999999998 384.0,-1333.248 Q 430.08,-1333.248 453.12,-1306.112 Q 476.16,-1278.976 476.16,-1236.992 Q 476.16,-1196.032 455.168,-1153.0240000000001 Q 434.176,-1110.016 398.336,-1073.152 Q 362.496,-1036.288 317.952,-1013.76 Q 273.408,-991.232 226.304,-991.232 Q 171.008,-991.232 123.392,-1016.832 Q 75.776,-1042.432 47.104,-1091.0720000000001 Q 18.432,-1139.7120000000002 18.432000000000002,-1207.296 Q 18.432000000000002,-1271.808 45.056,-1334.784 Q 71.68,-1397.7600000000002 114.176,-1453.568 Q 156.672,-1509.376 204.8,-1552.384 Q 258.048,-1600.512 317.44,-1634.816 Q 376.832,-1669.1200000000001 435.712,-1688.064 Q 494.592,-1707.008 545.792,-1707.008 Q 621.568,-1707.008 671.232,-1661.952 Q 720.896,-1616.896 720.896,-1516.544 Q 720.896,-1475.584 709.6320000000001,-1422.848 Q 698.368,-1370.1119999999999 683.008,-1317.376 Q 667.648,-1264.6399999999999 653.312,-1223.68 L 655.36,-1223.68 Q 692.224,-1290.24 721.408,-1337.856 Q 750.592,-1385.472 780.288,-1426.432 Q 809.984,-1467.392 846.8480000000001,-1512.448 Q 878.5920000000001,-1550.336 919.552,-1572.864 Q 960.5120000000001,-1595.392 998.4,-1595.392 Q 1032.192,-1595.392 1055.744,-1572.864 Q 1079.2959999999998,-1550.336 1079.296,-1496.064 Q 1079.296,-1489.92 1079.296,-1485.824 Q 1079.296,-1481.728 1078.272,-1473.536 Q 1069.056,-1375.232 1039.3600000000001,-1280.512 Q 1009.6640000000001,-1185.792 977.9200000000001,-1089.536 Q 1009.6640000000001,-1138.688 1063.936,-1214.464 Q 1118.2079999999999,-1290.24 1182.72,-1371.136 Q 1261.568,-1469.44 1329.152,-1518.592 Q 1396.736,-1567.7440000000001 1440.768,-1567.7440000000001 Q 1496.064,-1567.7440000000001 1496.064,-1500.16 Q 1496.064,-1474.5600000000002 1486.336,-1438.72 Q 1476.608,-1402.88 1456.128,-1362.944 Q 1433.6,-1317.888 1406.464,-1259.008 Q 1379.328,-1200.128 1354.752,-1135.616 Q 1330.176,-1071.104 1314.304,-1009.152 Q 1298.432,-947.2 1298.432,-894.976 Q 1298.432,-838.656 1324.544,-804.352 Q 1350.6560000000002,-770.048 1415.1680000000001,-770.048 L 1421.3120000000001,-770.048 Q 1436.672,-770.048 1436.672,-763.904 Q 1436.672,-759.808 1426.432,-755.712 Q 1416.192,-751.616 1397.76,-753.664 M 1650.688,-868.352 Q 1627.1360000000002,-868.352 1609.2160000000001,-881.664 Q 1591.296,-894.976 1591.296,-935.936 Q 1591.296,-953.344 1593.856,-968.7040000000001 Q 1596.416,-984.0640000000001 1600.512,-1001.472 Q 1591.296,-986.112 1574.912,-963.5840000000001 Q 1558.528,-941.056 1538.56,-919.552 Q 1518.5919999999999,-898.048 1497.6000000000001,-883.712 Q 1476.6080000000002,-869.376 1458.176,-869.376 Q 1431.552,-869.376 1415.1680000000001,-893.44 Q 1398.784,-917.504 1398.784,-956.416 Q 1398.784,-998.4000000000001 1418.24,-1046.528 Q 1437.696,-1094.656 1471.488,-1138.688 Q 1505.28,-1182.72 1549.3120000000001,-1210.368 Q 1593.344,-1238.0159999999998 1641.472,-1238.016 Q 1665.024,-1238.016 1686.528,-1230.336 Q 1708.032,-1222.656 1724.416,-1205.248 Q 1731.5839999999998,-1198.0800000000002 1731.584,-1188.864 Q 1731.584,-1182.72 1726.464,-1178.624 Q 1721.344,-1174.528 1713.152,-1176.576 Q 1701.8880000000001,-1212.416 1665.0240000000001,-1212.416 Q 1647.6160000000002,-1212.416 1625.088,-1201.152 Q 1597.44,-1186.816 1566.208,-1155.584 Q 1534.976,-1124.352 1507.84,-1084.928 Q 1480.704,-1045.5040000000001 1463.296,-1005.568 Q 1445.8880000000001,-965.632 1445.888,-932.864 Q 1445.888,-899.072 1471.488,-899.072 Q 1494.016,-899.072 1518.08,-920.576 Q 1542.144,-942.08 1564.16,-974.336 Q 1586.1760000000002,-1006.592 1604.608,-1038.336 Q 1623.04,-1070.08 1633.28,-1089.536 Q 1648.6399999999999,-1117.184 1661.952,-1135.616 Q 1675.264,-1154.048 1699.8400000000001,-1154.048 Q 1711.104,-1154.048 1722.368,-1150.976 Q 1733.6319999999998,-1147.9040000000002 1745.92,-1149.952 Q 1715.2,-1119.232 1692.16,-1077.248 Q 1669.1200000000001,-1035.2640000000001 1656.832,-994.816 Q 1644.544,-954.368 1644.544,-926.72 Q 1644.544,-896.0 1665.0240000000001,-896.0 Q 1681.4080000000001,-896.0 1700.352,-914.432 Q 1719.296,-932.864 1737.2160000000001,-961.024 Q 1755.1360000000002,-989.184 1770.496,-1018.368 Q 1785.856,-1047.5520000000001 1795.0720000000001,-1069.056 Q 1800.192,-1069.056 1803.776,-1068.032 Q 1807.3600000000001,-1067.008 1807.3600000000001,-1059.84 Q 1806.3360000000002,-1055.744 1803.776,-1051.136 Q 1801.2160000000001,-1046.528 1796.096,-1035.2640000000001 Q 1787.904,-1018.8800000000001 1773.568,-991.232 Q 1759.232,-963.584 1739.776,-935.424 Q 1720.3200000000002,-907.264 1697.7920000000001,-887.808 Q 1675.2640000000001,-868.352 1650.688,-868.352 M 1796.096,-1072.128 Q 1804.288,-1089.5359999999998 1817.6000000000001,-1127.936 Q 1830.912,-1166.336 1845.248,-1213.44 Q 1859.584,-1260.544 1866.752,-1302.528 Q 1869.8239999999998,-1318.912 1878.016,-1326.592 Q 1886.208,-1334.2720000000002 1895.424,-1334.272 Q 1908.7359999999999,-1334.272 1920.0,-1321.472 Q 1931.264,-1308.672 1931.2640000000001,-1285.1200000000001 Q 1931.2640000000001,-1256.448 1914.368,-1235.968 Q 1897.472,-1215.488 1872.896,-1197.056 Q 1883.136,-1196.0320000000002 1894.4,-1195.52 Q 1905.664,-1195.008 1918.976,-1195.008 Q 1967.104,-1195.008 2014.208,-1201.152 Q 2016.256,-1195.008 2016.256,-1191.936 Q 2016.256,-1178.624 2008.576,-1158.144 Q 2000.896,-1137.664 1992.704,-1121.28 Q 1988.608,-1112.064 1976.32,-1088.0 Q 1964.032,-1063.936 1949.6960000000001,-1033.728 Q 1935.3600000000001,-1003.5200000000001 1925.632,-974.336 Q 1915.904,-945.152 1915.904,-924.672 Q 1915.904,-898.048 1936.384,-898.048 Q 1955.84,-898.048 1990.656,-943.616 Q 2025.472,-989.184 2060.288,-1069.056 Q 2072.576,-1069.056 2072.576,-1059.84 Q 2061.312,-1032.192 2044.416,-999.424 Q 2027.52,-966.656 2007.04,-937.472 Q 1986.56,-908.288 1963.008,-889.344 Q 1939.4560000000001,-870.4000000000001 1913.856,-870.4 Q 1894.4,-870.4 1874.944,-886.272 Q 1855.488,-902.144 1855.488,-937.984 Q 1855.488,-969.7280000000001 1867.776,-999.936 Q 1880.064,-1030.144 1895.424,-1056.768 Q 1910.7839999999999,-1083.392 1923.0720000000001,-1103.872 Q 1935.3600000000001,-1124.352 1935.3600000000001,-1136.64 Q 1935.3600000000001,-1155.0720000000001 1912.32,-1163.2640000000001 Q 1889.28,-1171.4560000000001 1852.416,-1172.48 Q 1833.984,-1125.376 1824.768,-1102.848 Q 1815.5520000000001,-1080.32 1807.3600000000001,-1059.84 Q 1790.976,-1059.84 1796.0960000000002,-1072.128 M 2238.464,-864.256 Q 2209.792,-867.328 2191.36,-886.272 Q 2172.9280000000003,-905.216 2164.736,-930.816 Q 2156.544,-956.416 2156.544,-977.9200000000001 Q 2156.544,-1018.8800000000001 2174.976,-1043.968 Q 2193.408,-1069.056 2208.768,-1070.08 Q 2225.152,-1069.056 2248.704,-1077.76 Q 2272.2560000000003,-1086.464 2289.664,-1101.824 Q 2319.36,-1125.376 2319.36,-1149.952 Q 2319.36,-1175.552 2289.664,-1175.5520000000001 Q 2273.28,-1175.5520000000001 2248.192,-1164.288 Q 2223.104,-1153.0240000000001 2190.3360000000002,-1125.376 Q 2149.376,-1090.56 2105.344,-1032.192 Q 2099.2000000000003,-1018.88 2091.0080000000003,-992.768 Q 2082.8160000000003,-966.6560000000001 2077.184,-939.008 Q 2071.552,-911.36 2071.552,-891.904 Q 2071.552,-876.544 2076.672,-871.424 L 2012.16,-871.424 Q 2000.8960000000002,-871.424 2000.896,-880.64 Q 2000.896,-883.712 2001.92,-885.76 Q 2002.944,-887.808 2003.968,-893.952 Q 2018.304,-947.2 2038.272,-988.16 Q 2058.24,-1029.12 2071.552,-1059.84 Q 2062.3360000000002,-1056.768 2061.312,-1061.376 Q 2060.288,-1065.984 2060.288,-1069.056 Q 2067.456,-1085.44 2084.352,-1121.792 Q 2101.248,-1158.144 2124.288,-1205.76 Q 2147.328,-1253.376 2173.952,-1305.6000000000001 Q 2200.576,-1357.824 2227.2000000000003,-1405.952 Q 2253.824,-1455.104 2270.7200000000003,-1475.584 Q 2287.6160000000004,-1496.064 2312.192,-1496.064 Q 2321.408,-1496.064 2334.208,-1492.992 Q 2347.0080000000003,-1489.92 2357.248,-1491.968 Q 2334.7200000000003,-1472.5120000000002 2300.928,-1420.8 Q 2267.136,-1369.088 2229.248,-1300.48 Q 2191.36,-1231.872 2156.544,-1160.192 Q 2146.304,-1139.712 2137.088,-1117.184 Q 2127.8720000000003,-1094.656 2119.68,-1072.128 Q 2141.1839999999997,-1098.752 2168.832,-1127.424 Q 2196.48,-1156.096 2226.688,-1180.16 Q 2256.896,-1204.2240000000002 2286.592,-1215.488 Q 2320.384,-1227.776 2342.9120000000003,-1227.776 Q 2366.4640000000004,-1227.776 2377.216,-1216.512 Q 2387.968,-1205.248 2387.968,-1187.84 Q 2387.968,-1168.384 2372.608,-1141.248 Q 2357.248,-1114.112 2330.6240000000003,-1094.656 Q 2308.0960000000005,-1079.296 2283.52,-1068.032 Q 2258.944,-1056.768 2225.152,-1053.696 Q 2219.0080000000003,-1039.36 2216.448,-1024.512 Q 2213.888,-1009.664 2213.888,-995.328 Q 2213.888,-955.3919999999999 2232.32,-925.184 Q 2250.752,-894.976 2280.448,-894.976 Q 2294.7839999999997,-894.976 2311.68,-903.168 Q 2328.576,-911.36 2347.0080000000003,-930.816 Q 2367.4880000000003,-951.296 2387.968,-987.648 Q 2408.448,-1024.0 2428.928,-1069.056 Q 2441.216,-1069.056 2441.216,-1059.84 Q 2404.352,-970.752 2369.536,-927.744 Q 2334.7200000000003,-884.736 2302.464,-872.96 Q 2270.208,-861.1840000000001 2238.464,-864.2560000000001 M 2490.368,-871.424 Q 2448.384,-871.424 2428.416,-901.6320000000001 Q 2408.4480000000003,-931.84 2408.448,-974.8480000000001 Q 2408.448,-1014.7840000000001 2423.808,-1057.792 Q 2440.192,-1104.896 2469.376,-1143.808 Q 2498.5600000000004,-1182.72 2533.888,-1206.784 Q 2569.216,-1230.8480000000002 2604.032,-1230.848 Q 2646.016,-1230.848 2665.984,-1202.176 Q 2685.9519999999998,-1173.504 2685.952,-1129.472 Q 2685.952,-1098.752 2675.712,-1064.96 Q 2665.472,-1031.1680000000001 2648.064,-998.4 Q 2661.3759999999997,-985.088 2685.952,-985.088 Q 2714.6240000000003,-985.088 2735.1040000000003,-1003.52 Q 2755.5840000000003,-1021.952 2775.04,-1069.056 Q 2787.328,-1069.056 2787.328,-1059.84 Q 2767.872,-1012.7359999999999 2742.784,-990.72 Q 2717.696,-968.7040000000001 2678.784,-969.7280000000001 Q 2655.232,-969.7280000000001 2639.872,-983.04 Q 2611.2,-935.9359999999999 2571.776,-903.6800000000001 Q 2532.352,-871.4240000000001 2490.368,-871.4240000000001 M 2504.704,-893.952 Q 2528.2560000000003,-893.952 2551.808,-913.9200000000001 Q 2575.36,-933.888 2594.8160000000003,-959.488 Q 2614.2720000000004,-985.0880000000001 2622.464,-1003.52 Q 2606.08,-1033.216 2603.52,-1048.064 Q 2600.96,-1062.912 2600.96,-1070.08 Q 2600.96,-1089.5359999999998 2611.2000000000003,-1099.776 Q 2621.44,-1110.016 2631.68,-1110.016 Q 2646.0159999999996,-1110.016 2656.256,-1097.728 Q 2658.3039999999996,-1108.992 2659.328,-1118.72 Q 2660.352,-1128.448 2660.352,-1137.664 Q 2660.352,-1164.288 2650.6240000000003,-1181.184 Q 2640.896,-1198.08 2620.416,-1198.08 Q 2598.9120000000003,-1198.08 2575.36,-1179.6480000000001 Q 2551.808,-1161.2160000000001 2530.8160000000003,-1130.496 Q 2509.824,-1099.776 2494.464,-1061.888 Q 2481.152,-1030.144 2473.984,-1001.984 Q 2466.816,-973.8240000000001 2466.8160000000003,-950.272 Q 2466.8160000000003,-924.672 2476.032,-909.312 Q 2485.248,-893.952 2504.704,-893.952 M 3062.784,-831.488 Q 3040.2560000000003,-831.488 3018.752,-834.5600000000001 Q 2954.24,-842.7520000000001 2924.032,-872.448 Q 2893.824,-902.144 2893.824,-936.96 Q 2893.824,-974.8480000000001 2928.128,-1005.568 Q 2962.4320000000002,-1036.288 3024.896,-1036.288 Q 3044.3520000000003,-1036.288 3066.368,-1032.704 Q 3088.384,-1029.12 3112.96,-1020.928 Q 3125.248,-1016.832 3125.248,-1009.664 Q 3125.248,-1005.568 3119.1040000000003,-1005.568 Q 3112.9600000000005,-1005.568 3108.864,-1007.616 Q 3092.48,-1013.76 3077.632,-1016.32 Q 3062.784,-1018.88 3049.472,-1018.88 Q 3005.44,-1018.88 2982.4,-993.792 Q 2959.36,-968.7040000000001 2959.36,-939.008 Q 2959.36,-910.336 2982.9120000000003,-886.784 Q 3006.4640000000004,-863.232 3057.664,-863.232 Q 3122.1760000000004,-863.232 3176.96,-892.928 Q 3231.744,-922.624 3280.896,-970.7520000000001 Q 3333.1200000000003,-1021.9520000000001 3376.128,-1094.144 Q 3419.136,-1166.336 3461.632,-1248.768 Q 3504.128,-1331.2 3554.304,-1415.1680000000001 Q 3604.48,-1499.1360000000002 3670.016,-1572.864 Q 3683.328,-1587.2 3697.152,-1603.0720000000001 Q 3710.976,-1618.9440000000002 3724.288,-1630.208 Q 3689.472,-1635.328 3652.608,-1637.8880000000001 Q 3615.744,-1640.448 3579.904,-1640.448 Q 3526.656,-1640.448 3479.04,-1635.8400000000001 Q 3431.424,-1631.2320000000002 3384.32,-1623.04 Q 3336.192,-1613.824 3276.8,-1594.368 Q 3217.4080000000004,-1574.912 3161.6,-1543.68 Q 3105.792,-1512.448 3066.368,-1468.416 Q 3026.944,-1424.384 3017.728,-1367.04 Q 3016.704,-1361.92 3016.192,-1356.288 Q 3015.68,-1350.656 3015.68,-1345.536 Q 3015.68,-1298.432 3047.936,-1267.712 Q 3080.192,-1236.992 3123.2000000000003,-1236.992 Q 3154.9440000000004,-1236.992 3184.64,-1253.888 Q 3214.336,-1270.7839999999999 3237.888,-1298.944 Q 3261.44,-1327.104 3272.704,-1360.896 Q 3273.728,-1371.136 3280.896,-1371.136 Q 3287.04,-1371.136 3287.04,-1359.872 Q 3286.016,-1314.816 3260.928,-1282.048 Q 3235.8399999999997,-1249.28 3197.952,-1232.384 Q 3160.0640000000003,-1215.488 3121.152,-1215.488 Q 3081.216,-1215.488 3045.376,-1232.384 Q 3009.536,-1249.28 2987.0080000000003,-1282.56 Q 2964.4800000000005,-1315.84 2964.48,-1364.992 Q 2964.48,-1422.336 2992.64,-1466.368 Q 3020.7999999999997,-1510.3999999999999 3067.904,-1543.68 Q 3115.008,-1576.96 3170.304,-1600.0 Q 3225.6,-1623.04 3280.896,-1636.864 Q 3336.192,-1650.688 3381.248,-1657.856 Q 3427.328,-1665.024 3476.992,-1669.1200000000001 Q 3526.6560000000004,-1673.2160000000001 3577.856,-1673.2160000000001 Q 3621.8880000000004,-1673.2160000000001 3665.92,-1669.1200000000001 Q 3709.952,-1665.0240000000001 3751.936,-1656.832 Q 3769.344,-1670.144 3787.7760000000003,-1680.384 Q 3806.208,-1690.624 3828.736,-1698.816 Q 3843.0719999999997,-1704.96 3850.2400000000002,-1704.96 Q 3856.384,-1704.96 3856.384,-1700.864 Q 3856.384,-1693.6960000000001 3840.0,-1683.4560000000001 Q 3831.808,-1679.3600000000001 3819.52,-1669.1200000000001 Q 3807.232,-1658.88 3792.896,-1645.568 Q 3859.456,-1629.184 3912.704,-1596.416 Q 3971.072,-1561.6 3996.1600000000003,-1522.688 Q 4021.2480000000005,-1483.776 4021.248,-1442.816 Q 4021.248,-1395.712 3992.576,-1349.1200000000001 Q 3963.904,-1302.528 3917.824,-1262.592 Q 3871.744,-1222.6560000000002 3816.448,-1193.472 Q 3761.152,-1164.288 3706.88,-1150.976 Q 3654.656,-1137.6640000000002 3601.408,-1131.52 Q 3548.16,-1125.376 3506.176,-1125.376 Q 3499.008,-1125.376 3491.328,-1125.376 Q 3483.648,-1125.376 3476.48,-1126.4 Q 3441.664,-1077.248 3404.8,-1030.656 Q 3367.936,-984.064 3321.856,-940.032 Q 3265.536,-886.784 3198.976,-859.136 Q 3132.416,-831.4879999999999 3062.784,-831.4879999999999 M 3490.8160000000003,-1148.928 Q 3529.728,-1147.9040000000002 3577.856,-1155.0720000000001 Q 3625.9840000000004,-1162.24 3674.112,-1176.576 Q 3753.984,-1201.152 3817.984,-1247.232 Q 3881.984,-1293.312 3919.36,-1349.632 Q 3956.7360000000003,-1405.952 3956.736,-1460.224 Q 3956.736,-1492.992 3940.864,-1522.688 Q 3924.992,-1552.384 3889.152,-1575.936 Q 3865.6,-1591.2959999999998 3835.904,-1602.56 Q 3806.208,-1613.8239999999998 3773.44,-1620.992 Q 3721.216,-1547.264 3675.648,-1467.392 Q 3630.08,-1387.52 3585.536,-1306.624 Q 3540.992,-1225.728 3490.8160000000003,-1148.928 M 3958.784,-871.424 Q 3916.8,-871.424 3896.832,-901.6320000000001 Q 3876.864,-931.84 3876.864,-974.8480000000001 Q 3876.864,-1014.7840000000001 3892.224,-1057.792 Q 3908.608,-1104.896 3937.792,-1143.808 Q 3966.976,-1182.72 4002.304,-1206.784 Q 4037.632,-1230.8480000000002 4072.448,-1230.848 Q 4114.432,-1230.848 4134.4,-1202.176 Q 4154.3679999999995,-1173.504 4154.368,-1129.472 Q 4154.368,-1098.752 4144.128,-1064.96 Q 4133.888,-1031.1680000000001 4116.4800000000005,-998.4 Q 4129.792,-985.088 4154.368,-985.088 Q 4183.04,-985.088 4203.52,-1003.52 Q 4224.0,-1021.952 4243.456,-1069.056 Q 4255.744,-1069.056 4255.744,-1059.84 Q 4236.288,-1012.7359999999999 4211.2,-990.72 Q 4186.112,-968.7040000000001 4147.2,-969.7280000000001 Q 4123.648,-969.7280000000001 4108.2880000000005,-983.04 Q 4079.6160000000004,-935.9359999999999 4040.192,-903.6800000000001 Q 4000.768,-871.4240000000001 3958.784,-871.4240000000001 M 3973.12,-893.952 Q 3996.672,-893.952 4020.224,-913.9200000000001 Q 4043.7760000000003,-933.888 4063.232,-959.488 Q 4082.688,-985.0880000000001 4090.88,-1003.52 Q 4074.496,-1033.216 4071.936,-1048.064 Q 4069.376,-1062.912 4069.376,-1070.08 Q 4069.376,-1089.5359999999998 4079.616,-1099.776 Q 4089.8559999999998,-1110.016 4100.0960000000005,-1110.016 Q 4114.432000000001,-1110.016 4124.6720000000005,-1097.728 Q 4126.72,-1108.992 4127.744,-1118.72 Q 4128.768,-1128.448 4128.768,-1137.664 Q 4128.768,-1164.288 4119.04,-1181.184 Q 4109.312,-1198.08 4088.832,-1198.08 Q 4067.328,-1198.08 4043.7760000000003,-1179.6480000000001 Q 4020.224,-1161.2160000000001 3999.232,-1130.496 Q 3978.24,-1099.776 3962.88,-1061.888 Q 3949.568,-1030.144 3942.4,-1001.984 Q 3935.232,-973.8240000000001 3935.232,-950.272 Q 3935.232,-924.672 3944.448,-909.312 Q 3953.6639999999998,-893.952 3973.12,-893.952 M 4291.584,-868.352 Q 4253.696,-868.352 4235.776,-891.392 Q 4217.856,-914.432 4217.856,-946.176 Q 4217.856,-978.9440000000001 4227.072,-1013.76 Q 4236.2880000000005,-1048.576 4243.456,-1072.128 Q 4259.84,-1129.472 4284.928,-1194.496 Q 4310.016,-1259.52 4340.224,-1322.496 Q 4370.432,-1385.4720000000002 4400.128,-1435.6480000000001 Q 4423.679999999999,-1475.584 4450.816,-1495.5520000000001 Q 4477.952,-1515.5200000000002 4498.432,-1515.52 Q 4514.816,-1515.52 4524.544,-1503.7440000000001 Q 4534.272,-1491.968 4534.272,-1468.416 Q 4534.272,-1452.032 4528.64,-1429.5040000000001 Q 4523.008000000001,-1406.976 4509.696,-1378.304 Q 4473.856,-1298.432 4424.192,-1218.56 Q 4374.528,-1138.6879999999999 4298.752,-1069.056 Q 4286.464000000001,-1040.384 4278.272,-1007.616 Q 4270.08,-974.848 4270.08,-954.368 Q 4270.08,-890.8800000000001 4313.088,-890.88 Q 4345.856,-890.88 4385.792,-938.496 Q 4425.728,-986.112 4461.568,-1069.056 Q 4465.664,-1069.056 4469.76,-1067.52 Q 4473.856,-1065.984 4473.856,-1059.84 Q 4462.592,-1032.192 4445.696,-998.912 Q 4428.8,-965.6320000000001 4406.784,-935.936 Q 4384.768,-906.24 4356.0960000000005,-887.296 Q 4327.424000000001,-868.3520000000001 4291.584000000001,-868.3520000000001 M 4306.944,-1101.824 Q 4343.808,-1139.712 4378.624,-1189.376 Q 4413.44,-1239.04 4443.648,-1292.8 Q 4473.856,-1346.56 4494.336,-1394.688 Q 4501.504,-1410.048 4506.112,-1428.48 Q 4510.72,-1446.912 4510.72,-1459.2 Q 4510.72,-1473.536 4503.552,-1473.536 Q 4499.456,-1473.536 4491.264,-1465.856 Q 4483.072,-1458.176 4469.76,-1439.7440000000001 Q 4450.304,-1414.1440000000002 4427.264,-1370.112 Q 4404.224,-1326.0800000000002 4380.6720000000005,-1275.904 Q 4357.120000000001,-1225.728 4337.664,-1179.136 Q 4318.208,-1132.5439999999999 4306.9439999999995,-1101.824 M 4523.008,-871.424 Q 4481.023999999999,-871.424 4461.0560000000005,-901.6320000000001 Q 4441.088000000001,-931.84 4441.088,-974.8480000000001 Q 4441.088,-1014.7840000000001 4456.448,-1057.792 Q 4472.832,-1104.896 4502.0160000000005,-1143.808 Q 4531.200000000001,-1182.72 4566.528,-1206.784 Q 4601.856000000001,-1230.8480000000002 4636.6720000000005,-1230.848 Q 4678.656000000001,-1230.848 4698.624,-1202.176 Q 4718.592,-1173.504 4718.592000000001,-1129.472 Q 4718.592000000001,-1098.752 4708.352,-1064.96 Q 4698.112,-1031.1680000000001 4680.704,-998.4 Q 4694.016,-985.088 4718.592000000001,-985.088 Q 4747.264,-985.088 4767.744,-1003.52 Q 4788.223999999999,-1021.952 4807.68,-1069.056 Q 4819.968,-1069.056 4819.968,-1059.84 Q 4800.512,-1012.7359999999999 4775.424,-990.72 Q 4750.336,-968.7040000000001 4711.424,-969.7280000000001 Q 4687.872,-969.7280000000001 4672.512,-983.04 Q 4643.84,-935.9359999999999 4604.416,-903.6800000000001 Q 4564.992,-871.4240000000001 4523.008,-871.4240000000001 M 4537.344,-893.952 Q 4560.896,-893.952 4584.448,-913.9200000000001 Q 4608.0,-933.888 4627.456,-959.488 Q 4646.912,-985.0880000000001 4655.104,-1003.52 Q 4638.72,-1033.216 4636.16,-1048.064 Q 4633.599999999999,-1062.912 4633.6,-1070.08 Q 4633.6,-1089.5359999999998 4643.84,-1099.776 Q 4654.08,-1110.016 4664.32,-1110.016 Q 4678.656,-1110.016 4688.896,-1097.728 Q 4690.9439999999995,-1108.992 4691.968,-1118.72 Q 4692.992,-1128.448 4692.992,-1137.664 Q 4692.992,-1164.288 4683.264,-1181.184 Q 4673.536,-1198.08 4653.0560000000005,-1198.08 Q 4631.552000000001,-1198.08 4608.0,-1179.6480000000001 Q 4584.448,-1161.2160000000001 4563.456,-1130.496 Q 4542.464,-1099.776 4527.104,-1061.888 Q 4513.792,-1030.144 4506.624,-1001.984 Q 4499.456,-973.8240000000001 4499.456,-950.272 Q 4499.456,-924.672 4508.6720000000005,-909.312 Q 4517.888000000001,-893.952 4537.344,-893.952 M 5837.8240000000005,-828.416 Q 5809.152000000001,-828.416 5780.992,-841.7280000000001 Q 5752.832,-855.0400000000001 5728.256,-880.64 Q 5692.416,-917.504 5666.304,-969.216 Q 5640.192,-1020.928 5621.76,-1075.712 Q 5603.328,-1130.496 5593.088,-1176.064 Q 5582.848,-1221.632 5578.752,-1246.208 Q 5540.8640000000005,-1173.5040000000001 5500.416,-1102.336 Q 5459.968,-1031.1680000000001 5397.504,-962.5600000000001 Q 5338.112,-898.048 5267.456,-864.768 Q 5196.8,-831.488 5121.024,-831.488 Q 5097.472000000001,-831.488 5072.896,-834.5600000000001 Q 5005.312,-842.7520000000001 4973.568,-873.472 Q 4941.8240000000005,-904.192 4941.8240000000005,-939.008 Q 4941.8240000000005,-976.8960000000001 4975.616,-1007.616 Q 5009.408,-1038.336 5071.872,-1038.336 Q 5092.352,-1038.336 5115.904,-1034.24 Q 5139.456,-1030.144 5165.0560000000005,-1020.928 Q 5176.320000000001,-1016.832 5176.32,-1011.712 Q 5176.32,-1007.616 5168.128,-1007.616 Q 5163.008,-1007.616 5159.936,-1008.64 Q 5126.143999999999,-1020.928 5099.52,-1020.928 Q 5056.512000000001,-1020.928 5033.984,-995.84 Q 5011.456,-970.7520000000001 5011.456,-941.056 Q 5011.456,-912.384 5036.032,-887.808 Q 5060.608,-863.232 5111.808,-863.232 Q 5176.32,-863.232 5230.592000000001,-893.44 Q 5284.8640000000005,-923.648 5331.968,-976.384 Q 5379.072,-1029.1200000000001 5422.08,-1096.192 Q 5465.088,-1163.2640000000001 5506.048,-1235.968 Q 5574.656,-1357.824 5630.464,-1457.664 Q 5686.272,-1557.504 5748.736,-1627.136 Q 5721.088,-1630.2079999999999 5692.416,-1631.232 Q 5663.744000000001,-1632.2559999999999 5634.048,-1632.256 Q 5569.536,-1632.256 5500.416,-1625.6000000000001 Q 5431.296,-1618.9440000000002 5366.784000000001,-1604.608 Q 5279.744000000001,-1586.176 5217.28,-1549.824 Q 5154.816,-1513.472 5118.464,-1468.928 Q 5082.112,-1424.384 5072.896,-1379.328 Q 5069.824,-1362.944 5069.8240000000005,-1347.584 Q 5069.8240000000005,-1295.3600000000001 5104.64,-1266.688 Q 5139.456,-1238.016 5184.512,-1238.016 Q 5213.183999999999,-1238.016 5242.368,-1249.792 Q 5271.552000000001,-1261.568 5295.104,-1287.1680000000001 Q 5314.56,-1307.6480000000001 5323.776,-1325.568 Q 5332.992,-1343.488 5334.0160000000005,-1352.704 Q 5335.040000000001,-1367.04 5340.16,-1367.04 Q 5343.232,-1367.04 5345.792,-1361.92 Q 5348.352000000001,-1356.8000000000002 5347.328,-1351.68 Q 5343.232000000001,-1328.1280000000002 5332.992,-1305.6000000000001 Q 5322.752,-1283.0720000000001 5308.416,-1267.712 Q 5279.744000000001,-1238.016 5242.88,-1223.68 Q 5206.0160000000005,-1209.344 5172.224,-1209.344 Q 5132.2880000000005,-1209.344 5096.96,-1226.752 Q 5061.632,-1244.1599999999999 5040.128,-1277.44 Q 5018.624,-1310.72 5018.624,-1359.872 Q 5018.624,-1417.2160000000001 5058.56,-1477.1200000000001 Q 5098.496,-1537.0240000000001 5178.88,-1583.104 Q 5259.264,-1629.184 5379.072,-1646.592 Q 5439.488,-1654.784 5496.32,-1659.392 Q 5553.152,-1664.0 5606.400000000001,-1664.0 Q 5649.408,-1664.0 5690.368,-1660.928 Q 5731.328,-1657.8560000000002 5771.264,-1652.736 Q 5797.888,-1680.384 5807.104,-1680.384 Q 5814.272,-1680.384 5814.272,-1669.1200000000001 Q 5814.272,-1665.0240000000001 5813.2480000000005,-1658.88 Q 5812.224,-1652.736 5810.176,-1646.592 Q 5837.8240000000005,-1642.496 5863.936,-1637.8880000000001 Q 5890.048,-1633.2800000000002 5910.528,-1627.136 Q 5991.424,-1604.608 6028.8,-1568.256 Q 6066.176,-1531.904 6066.176,-1489.92 Q 6066.176,-1444.864 6025.728,-1399.808 Q 5985.28,-1354.752 5912.064,-1319.936 Q 5838.848,-1285.12 5740.544,-1268.736 Q 5708.8,-1263.6160000000002 5684.736,-1261.568 Q 5660.672,-1259.52 5643.264,-1258.496 Q 5645.312,-1248.256 5652.4800000000005,-1215.488 Q 5659.648,-1182.72 5672.96,-1138.176 Q 5686.272,-1093.6319999999998 5707.264,-1044.48 Q 5728.256,-995.328 5757.952,-951.296 Q 5781.504,-916.48 5806.08,-893.952 Q 5830.656,-871.424 5858.304,-871.424 Q 5875.712,-871.424 5894.656,-880.64 Q 5913.6,-889.856 5934.08,-910.336 Q 5958.656,-934.912 5979.136,-965.6320000000001 Q 5999.616,-996.3520000000001 6013.952,-1024.512 Q 6028.2880000000005,-1052.672 6035.456,-1069.056 Q 6041.6,-1069.056 6044.6720000000005,-1068.032 Q 6047.744000000001,-1067.008 6047.744,-1059.84 Q 6043.648,-1049.6 6033.408,-1027.584 Q 6023.168000000001,-1005.5680000000001 6009.344,-978.432 Q 5995.52,-951.296 5979.136,-924.672 Q 5962.752,-898.048 5946.368,-879.616 Q 5922.816000000001,-854.016 5893.6320000000005,-841.216 Q 5864.448,-828.416 5837.8240000000005,-828.416 M 5600.256,-1286.144 Q 5629.952,-1291.264 5663.744,-1293.3120000000001 Q 5697.536,-1295.3600000000001 5730.304,-1299.4560000000001 Q 5783.552,-1306.624 5830.656,-1327.616 Q 5877.76,-1348.608 5914.112,-1378.304 Q 5950.464,-1408.0 5970.944,-1441.28 Q 5991.424,-1474.56 5991.424,-1505.28 Q 5991.424,-1574.912 5898.24,-1601.536 Q 5879.808,-1606.656 5850.624,-1611.776 Q 5821.44,-1616.896 5797.888,-1620.992 Q 5748.736,-1537.024 5697.024,-1456.128 Q 5645.312,-1375.232 5600.256,-1286.144 M 6109.184,-867.328 Q 6071.296,-867.328 6041.088,-891.904 Q 6010.88,-916.48 6010.88,-966.6560000000001 Q 6010.88,-1008.6400000000001 6029.8240000000005,-1055.744 Q 6048.768000000001,-1102.848 6080.0,-1144.32 Q 6111.232,-1185.792 6149.6320000000005,-1211.904 Q 6188.032,-1238.016 6226.944,-1238.016 Q 6246.400000000001,-1238.016 6264.832,-1226.752 Q 6283.264,-1215.488 6283.264,-1187.84 Q 6283.264,-1162.24 6263.808,-1131.52 Q 6244.352,-1100.8 6208.512,-1074.176 Q 6193.152,-1062.912 6169.6,-1052.672 Q 6146.048000000001,-1042.432 6122.496,-1035.776 Q 6098.944,-1029.1200000000001 6083.584,-1029.1200000000001 Q 6078.464,-1016.8320000000001 6073.856,-996.352 Q 6069.248,-975.872 6069.2480000000005,-954.368 Q 6069.2480000000005,-928.768 6079.488,-908.288 Q 6089.728,-887.808 6117.376,-887.808 Q 6151.168000000001,-887.808 6180.352,-907.264 Q 6209.536,-926.72 6232.576,-956.416 Q 6255.616,-986.1120000000001 6272.0,-1016.832 Q 6288.384,-1047.552 6297.6,-1069.056 Q 6309.888,-1069.056 6309.888,-1059.84 Q 6296.576,-1031.168 6279.68,-997.376 Q 6262.784000000001,-963.584 6239.744,-934.4 Q 6216.704,-905.216 6184.448,-886.272 Q 6152.192,-867.3280000000001 6109.184,-867.3280000000001 M 6090.752,-1047.5520000000001 Q 6105.088000000001,-1047.5520000000001 6138.88,-1058.304 Q 6172.6720000000005,-1069.056 6200.32,-1092.608 Q 6226.9439999999995,-1116.1599999999999 6241.28,-1144.32 Q 6255.616,-1172.48 6255.616,-1191.936 Q 6255.616,-1214.464 6239.232,-1214.464 Q 6226.944,-1214.464 6205.4400000000005,-1198.08 Q 6183.936000000001,-1181.696 6152.192,-1142.784 Q 6132.736,-1118.208 6115.328,-1089.536 Q 6097.92,-1060.864 6090.752,-1047.5520000000001 M 6319.104,-867.328 Q 6277.12,-867.328 6251.008,-893.44 Q 6224.896,-919.552 6224.896,-948.224 Q 6224.896,-971.7760000000001 6236.6720000000005,-991.744 Q 6248.448,-1011.712 6267.904,-1011.712 L 6268.928,-1013.76 Q 6291.456,-1054.72 6312.448,-1097.2160000000001 Q 6333.4400000000005,-1139.7120000000002 6359.04,-1187.84 Q 6380.544,-1227.7759999999998 6405.6320000000005,-1253.376 Q 6430.72,-1278.9759999999999 6464.512,-1278.976 Q 6472.704,-1278.976 6487.04,-1275.392 Q 6501.376,-1271.808 6501.376,-1260.544 Q 6501.376,-1252.352 6492.16,-1252.352 Q 6484.992,-1252.352 6476.2880000000005,-1256.448 Q 6467.584000000001,-1260.544 6462.464,-1260.544 Q 6443.008,-1260.544 6429.696,-1238.016 Q 6416.384,-1215.488 6416.384,-1189.888 Q 6416.384,-1162.24 6425.6,-1140.224 Q 6434.816000000001,-1118.2079999999999 6447.104,-1097.728 Q 6459.392,-1077.248 6468.608,-1056.256 Q 6477.8240000000005,-1035.2640000000001 6477.8240000000005,-1010.688 Q 6477.8240000000005,-961.536 6458.88,-931.328 Q 6439.936,-901.12 6409.216,-885.76 L 6410.24,-885.76 Q 6464.512,-885.76 6499.84,-936.448 Q 6535.168000000001,-987.136 6569.984,-1069.056 Q 6582.272,-1069.056 6582.272,-1059.84 Q 6562.816,-1013.7599999999999 6539.264,-969.7280000000001 Q 6515.712,-925.696 6483.968,-897.024 Q 6452.224,-868.352 6406.144,-868.352 Q 6386.688,-868.352 6370.304,-872.448 Q 6346.752,-867.328 6319.104,-867.328 M 6303.744,-975.8720000000001 Q 6303.744,-951.296 6315.008,-928.768 Q 6326.272,-906.24 6355.968,-894.976 Q 6382.592,-910.336 6397.4400000000005,-942.592 Q 6412.2880000000005,-974.848 6412.2880000000005,-1009.664 Q 6412.2880000000005,-1038.336 6406.144,-1068.032 Q 6400.0,-1097.7279999999998 6393.344,-1126.4 Q 6386.688,-1155.0720000000001 6386.688,-1177.6000000000001 Q 6386.688,-1184.768 6387.2,-1190.4 Q 6387.7119999999995,-1196.0320000000002 6388.736,-1201.152 Q 6370.304,-1173.5040000000001 6351.360000000001,-1136.64 Q 6332.416,-1099.776 6315.008,-1065.984 Q 6297.599999999999,-1032.192 6283.264,-1010.688 Q 6303.744,-1007.616 6303.744,-975.872 M 6269.952,-924.672 Q 6269.952,-908.288 6281.216,-896.0 Q 6292.4800000000005,-883.712 6315.008,-883.712 Q 6325.248,-883.712 6334.464,-885.76 Q 6312.96,-899.072 6300.16,-919.552 Q 6287.36,-940.032 6287.360000000001,-966.6560000000001 Q 6278.144,-956.416 6274.048,-945.664 Q 6269.952,-934.912 6269.952,-924.672 M 6644.736,-867.328 Q 6606.848,-867.328 6576.64,-891.904 Q 6546.432000000001,-916.48 6546.432,-966.6560000000001 Q 6546.432,-1008.6400000000001 6565.376,-1055.744 Q 6584.320000000001,-1102.848 6615.552000000001,-1144.32 Q 6646.784000000001,-1185.792 6685.184,-1211.904 Q 6723.584,-1238.016 6762.496,-1238.016 Q 6781.952,-1238.016 6800.384,-1226.752 Q 6818.816,-1215.488 6818.816,-1187.84 Q 6818.816,-1162.24 6799.360000000001,-1131.52 Q 6779.904,-1100.8 6744.064,-1074.176 Q 6728.704000000001,-1062.912 6705.152,-1052.672 Q 6681.6,-1042.432 6658.048,-1035.776 Q 6634.496,-1029.1200000000001 6619.136,-1029.1200000000001 Q 6614.0160000000005,-1016.8320000000001 6609.408,-996.352 Q 6604.8,-975.872 6604.8,-954.368 Q 6604.8,-928.768 6615.04,-908.288 Q 6625.28,-887.808 6652.928,-887.808 Q 6686.72,-887.808 6715.904,-907.264 Q 6745.088000000001,-926.72 6768.128,-956.416 Q 6791.168,-986.1120000000001 6807.552000000001,-1016.832 Q 6823.936000000001,-1047.552 6833.152,-1069.056 Q 6845.44,-1069.056 6845.4400000000005,-1059.84 Q 6832.128000000001,-1031.168 6815.232,-997.376 Q 6798.336,-963.584 6775.296,-934.4 Q 6752.256,-905.216 6720.0,-886.272 Q 6687.744,-867.3280000000001 6644.736,-867.3280000000001 M 6626.304,-1047.5520000000001 Q 6640.64,-1047.5520000000001 6674.432,-1058.304 Q 6708.224,-1069.056 6735.872,-1092.608 Q 6762.496,-1116.1599999999999 6776.832,-1144.32 Q 6791.168000000001,-1172.48 6791.168000000001,-1191.936 Q 6791.168000000001,-1214.464 6774.784000000001,-1214.464 Q 6762.496000000001,-1214.464 6740.992,-1198.08 Q 6719.488,-1181.696 6687.744,-1142.784 Q 6668.288,-1118.208 6650.88,-1089.536 Q 6633.472,-1060.864 6626.304,-1047.5520000000001 M 7055.360000000001,-868.352 Q 7031.808000000001,-868.352 7013.888,-881.664 Q 6995.968,-894.976 6995.968,-935.936 Q 6995.968,-953.344 6998.528,-968.7040000000001 Q 7001.088000000001,-984.0640000000001 7005.184,-1001.472 Q 6995.968,-986.112 6979.584,-963.5840000000001 Q 6963.2,-941.056 6943.232,-919.552 Q 6923.264,-898.048 6902.272,-883.712 Q 6881.28,-869.376 6862.848,-869.376 Q 6836.224,-869.376 6819.84,-893.44 Q 6803.456,-917.504 6803.456,-956.416 Q 6803.456,-998.4000000000001 6822.912,-1046.528 Q 6842.368,-1094.656 6876.16,-1138.688 Q 6909.952,-1182.72 6953.984,-1210.368 Q 6998.0160000000005,-1238.0159999999998 7046.144,-1238.016 Q 7069.696,-1238.016 7091.2,-1230.336 Q 7112.704,-1222.656 7129.088,-1205.248 Q 7136.255999999999,-1198.0800000000002 7136.256,-1188.864 Q 7136.256,-1182.72 7131.136,-1178.624 Q 7126.0160000000005,-1174.528 7117.8240000000005,-1176.576 Q 7106.56,-1212.416 7069.696,-1212.416 Q 7052.288,-1212.416 7029.76,-1201.152 Q 7002.112,-1186.816 6970.88,-1155.584 Q 6939.648,-1124.352 6912.512,-1084.928 Q 6885.375999999999,-1045.5040000000001 6867.968,-1005.568 Q 6850.5599999999995,-965.632 6850.56,-932.864 Q 6850.56,-899.072 6876.16,-899.072 Q 6898.688,-899.072 6922.752,-920.576 Q 6946.816000000001,-942.08 6968.832,-974.336 Q 6990.848,-1006.592 7009.28,-1038.336 Q 7027.7119999999995,-1070.08 7037.952,-1089.536 Q 7053.312,-1117.184 7066.624,-1135.616 Q 7079.936,-1154.048 7104.512,-1154.048 Q 7115.776,-1154.048 7127.04,-1150.976 Q 7138.304,-1147.9040000000002 7150.592000000001,-1149.952 Q 7119.872,-1119.232 7096.832,-1077.248 Q 7073.792,-1035.2640000000001 7061.504,-994.816 Q 7049.216,-954.368 7049.216,-926.72 Q 7049.216,-896.0 7069.696,-896.0 Q 7086.08,-896.0 7105.024,-914.432 Q 7123.968000000001,-932.864 7141.888,-961.024 Q 7159.808,-989.184 7175.168000000001,-1018.368 Q 7190.528,-1047.5520000000001 7199.744000000001,-1069.056 Q 7204.8640000000005,-1069.056 7208.448,-1068.032 Q 7212.032,-1067.008 7212.032,-1059.84 Q 7211.008,-1055.744 7208.448,-1051.136 Q 7205.888,-1046.528 7200.768,-1035.2640000000001 Q 7192.576,-1018.8800000000001 7178.24,-991.232 Q 7163.9039999999995,-963.584 7144.448,-935.424 Q 7124.992,-907.264 7102.464,-887.808 Q 7079.936,-868.352 7055.36,-868.352 M 7200.768,-1072.128 Q 7208.96,-1089.5359999999998 7222.272,-1127.936 Q 7235.584,-1166.336 7249.92,-1213.44 Q 7264.256,-1260.544 7271.424,-1302.528 Q 7274.496,-1318.912 7282.688,-1326.592 Q 7290.88,-1334.2720000000002 7300.0960000000005,-1334.272 Q 7313.408,-1334.272 7324.6720000000005,-1321.472 Q 7335.936000000001,-1308.672 7335.936000000001,-1285.1200000000001 Q 7335.936000000001,-1256.448 7319.04,-1235.968 Q 7302.144,-1215.488 7277.568,-1197.056 Q 7287.808,-1196.0320000000002 7299.072,-1195.52 Q 7310.336,-1195.008 7323.648,-1195.008 Q 7371.776,-1195.008 7418.88,-1201.152 Q 7420.928,-1195.008 7420.928,-1191.936 Q 7420.928,-1178.624 7413.2480000000005,-1158.144 Q 7405.568,-1137.664 7397.376,-1121.28 Q 7393.280000000001,-1112.064 7380.992,-1088.0 Q 7368.704000000001,-1063.936 7354.368,-1033.728 Q 7340.032,-1003.5200000000001 7330.304,-974.336 Q 7320.576,-945.152 7320.576,-924.672 Q 7320.576,-898.048 7341.0560000000005,-898.048 Q 7360.512000000001,-898.048 7395.328,-943.616 Q 7430.144,-989.184 7464.96,-1069.056 Q 7477.248,-1069.056 7477.2480000000005,-1059.84 Q 7465.984,-1032.192 7449.088,-999.424 Q 7432.192,-966.656 7411.712,-937.472 Q 7391.232000000001,-908.288 7367.68,-889.344 Q 7344.128000000001,-870.4000000000001 7318.528,-870.4 Q 7299.072,-870.4 7279.616,-886.272 Q 7260.16,-902.144 7260.16,-937.984 Q 7260.16,-969.7280000000001 7272.448,-999.936 Q 7284.736,-1030.144 7300.0960000000005,-1056.768 Q 7315.456,-1083.392 7327.744000000001,-1103.872 Q 7340.032,-1124.352 7340.032,-1136.64 Q 7340.032,-1155.0720000000001 7316.992,-1163.2640000000001 Q 7293.952,-1171.4560000000001 7257.088,-1172.48 Q 7238.656,-1125.376 7229.4400000000005,-1102.848 Q 7220.224,-1080.32 7212.032,-1059.84 Q 7195.648,-1059.84 7200.768,-1072.128 M 7553.024,-867.328 Q 7496.704000000001,-867.328 7469.568,-897.024 Q 7442.432,-926.72 7442.432,-976.8960000000001 Q 7442.432,-1000.4480000000001 7451.648,-1031.1680000000001 Q 7460.8640000000005,-1061.8880000000001 7476.224,-1093.632 Q 7491.584,-1125.376 7510.0160000000005,-1149.952 Q 7539.712,-1189.888 7575.552000000001,-1211.904 Q 7611.392000000001,-1233.92 7648.256,-1233.92 Q 7687.168000000001,-1233.92 7704.064,-1217.0240000000001 Q 7720.96,-1200.1280000000002 7720.96,-1177.6000000000001 Q 7720.96,-1156.0960000000002 7710.72,-1139.2 Q 7700.4800000000005,-1122.304 7687.68,-1112.064 Q 7674.88,-1101.824 7665.664,-1101.824 Q 7657.472,-1101.824 7651.328,-1107.968 Q 7659.52,-1118.208 7668.736,-1132.544 Q 7677.952,-1146.88 7682.048,-1160.192 Q 7686.143999999999,-1172.48 7686.144,-1184.768 Q 7686.144,-1211.392 7661.568,-1211.392 Q 7631.872,-1211.392 7603.712,-1186.816 Q 7575.552000000001,-1162.24 7552.512,-1123.84 Q 7529.472,-1085.4399999999998 7515.648,-1042.944 Q 7501.8240000000005,-1000.448 7501.8240000000005,-964.6080000000001 Q 7501.8240000000005,-931.84 7515.648,-910.336 Q 7529.472,-888.832 7561.216,-888.832 Q 7603.200000000001,-888.832 7634.944,-915.9680000000001 Q 7666.688,-943.104 7691.264,-984.576 Q 7715.84,-1026.048 7734.272,-1069.056 Q 7738.3679999999995,-1069.056 7742.464,-1067.52 Q 7746.5599999999995,-1065.984 7746.56,-1059.84 Q 7726.080000000001,-1008.6399999999999 7698.432,-964.6080000000001 Q 7670.784,-920.576 7635.456,-893.952 Q 7600.128,-867.328 7553.024,-867.328 M 7634.944,-863.232 Q 7677.952,-951.2959999999999 7724.544,-1048.064 Q 7771.1359999999995,-1144.832 7820.2880000000005,-1243.136 Q 7869.4400000000005,-1341.44 7917.568,-1430.528 Q 7934.976000000001,-1461.248 7949.8240000000005,-1478.656 Q 7964.6720000000005,-1496.0639999999999 7989.2480000000005,-1496.064 Q 7998.464000000001,-1496.064 8010.752,-1492.992 Q 8023.04,-1489.92 8034.304,-1491.968 Q 8020.992,-1477.632 7997.952,-1441.792 Q 7974.912,-1405.952 7946.752,-1355.776 Q 7918.592000000001,-1305.6000000000001 7887.360000000001,-1247.744 Q 7856.128000000001,-1189.888 7825.92,-1131.008 Q 7795.712,-1072.128 7770.112,-1020.928 Q 7790.592,-1047.552 7812.0960000000005,-1071.104 Q 7833.6,-1094.656 7854.08,-1112.064 Q 7876.608,-1132.544 7910.912,-1155.0720000000001 Q 7945.216,-1177.6000000000001 7979.52,-1193.984 Q 8013.8240000000005,-1210.368 8034.304,-1210.368 Q 8041.472,-1210.368 8044.544,-1209.344 Q 8044.544,-1209.344 8033.28,-1188.864 Q 8022.016,-1168.384 8005.12,-1136.64 Q 7988.224,-1104.8960000000002 7970.304,-1068.032 Q 7952.384,-1031.168 7939.072,-997.888 Q 7925.76,-964.6080000000001 7921.664,-943.104 Q 7918.592,-926.72 7918.592000000001,-915.456 Q 7918.592000000001,-899.072 7924.736,-893.44 Q 7930.88,-887.8080000000001 7938.048,-887.808 Q 7955.456,-887.808 7975.424,-905.7280000000001 Q 7995.392,-923.648 8014.848,-951.296 Q 8034.304,-978.9440000000001 8051.2,-1010.176 Q 8068.096,-1041.4080000000001 8078.336,-1069.056 Q 8090.624,-1069.056 8090.624,-1059.84 Q 8079.36,-1032.192 8062.464,-998.912 Q 8045.568,-965.6320000000001 8024.064,-935.936 Q 8002.56,-906.24 7976.96,-886.784 Q 7951.36,-867.328 7922.688,-867.328 Q 7902.2080000000005,-867.328 7880.704,-881.664 Q 7859.2,-896.0 7859.2,-933.888 Q 7859.2,-945.152 7861.2480000000005,-957.952 Q 7863.296,-970.752 7868.416,-987.136 Q 7874.56,-1007.616 7888.896,-1032.704 Q 7903.232,-1057.792 7925.76,-1095.68 Q 7936.0,-1113.088 7936.0,-1123.328 Q 7936.0,-1135.616 7923.712,-1135.616 Q 7913.472000000001,-1135.616 7896.064,-1125.376 Q 7878.656,-1115.136 7852.032,-1089.536 Q 7826.432,-1064.96 7788.544,-1017.856 Q 7750.656,-970.752 7707.648,-885.76 Q 7700.4800000000005,-872.448 7691.776,-871.936 Q 7683.072,-871.4240000000001 7668.736,-870.4 Q 7659.5199999999995,-869.376 7650.304,-868.864 Q 7641.088,-868.3520000000001 7634.944,-863.2320000000001 M 9011.2,-552.96 Q 9000.960000000001,-552.96 8997.888,-556.544 Q 8994.816,-560.1279999999999 8994.816,-564.224 Q 9013.248000000001,-567.296 9030.656,-591.36 Q 9048.064,-615.424 9048.064,-647.168 Q 9048.064,-697.344 9015.296,-743.936 Q 8982.528,-790.528 8923.136,-829.44 Q 8863.744,-868.3520000000001 8784.384,-896.5120000000001 Q 8705.024,-924.672 8610.816,-937.984 Q 8576.0,-888.832 8532.48,-847.36 Q 8488.96,-805.888 8436.224,-780.8000000000001 Q 8383.488,-755.7120000000001 8322.048,-755.712 Q 8257.536,-755.712 8223.744,-785.408 Q 8189.952,-815.104 8189.952,-854.016 Q 8189.952,-889.856 8219.136,-926.208 Q 8248.32,-962.56 8308.224,-986.624 Q 8368.128,-1010.688 8460.288,-1010.688 Q 8530.944000000001,-1010.688 8603.648000000001,-998.4 Q 8629.248000000001,-1043.456 8649.728000000001,-1088.512 Q 8670.208,-1133.568 8685.568,-1173.5040000000001 Q 8584.192,-1177.6000000000001 8525.824,-1204.736 Q 8467.456,-1231.872 8442.880000000001,-1272.832 Q 8418.304000000002,-1313.7920000000001 8418.304,-1356.8 Q 8418.304,-1411.072 8451.072,-1459.712 Q 8483.84,-1508.352 8540.16,-1539.0720000000001 Q 8596.48,-1569.7920000000001 8666.112000000001,-1569.7920000000001 Q 8674.304,-1569.7920000000001 8676.352,-1563.6480000000001 Q 8678.400000000001,-1557.5040000000001 8678.4,-1553.4080000000001 Q 8639.488,-1553.4080000000001 8603.136,-1536.0 Q 8566.784,-1518.592 8538.112000000001,-1489.4080000000001 Q 8509.44,-1460.2240000000002 8492.544,-1424.384 Q 8475.648,-1388.544 8475.648000000001,-1350.656 Q 8475.648000000001,-1313.792 8495.104,-1278.464 Q 8514.56,-1243.136 8561.664,-1219.584 Q 8608.768,-1196.0320000000002 8693.76,-1193.984 Q 8702.976,-1217.5359999999998 8709.632,-1237.5040000000001 Q 8716.288,-1257.4720000000002 8721.408,-1271.808 Q 8745.983999999999,-1345.536 8774.144,-1418.24 Q 8802.304,-1490.944 8838.656,-1550.336 Q 8875.008000000002,-1609.728 8925.184,-1645.568 Q 8975.359999999999,-1681.408 9044.992,-1681.4080000000001 Q 9090.048,-1681.4080000000001 9115.136,-1655.808 Q 9140.224,-1630.208 9140.224,-1585.152 Q 9140.224,-1541.1200000000001 9119.744,-1488.384 Q 9099.264000000001,-1435.648 9062.4,-1383.424 Q 9025.536,-1331.2 8975.36,-1286.144 Q 8925.184000000001,-1241.088 8865.792,-1211.392 Q 8806.4,-1181.6960000000001 8740.864,-1174.528 Q 8725.503999999999,-1141.76 8701.952,-1092.096 Q 8678.4,-1042.432 8645.632,-990.208 Q 8734.72,-969.728 8814.08,-934.912 Q 8893.44,-900.096 8954.368,-855.552 Q 9015.296,-811.008 9050.112000000001,-760.32 Q 9084.928000000002,-709.6320000000001 9084.928,-659.456 Q 9084.928,-614.4 9062.4,-583.6800000000001 Q 9039.872,-552.96 9011.199999999999,-552.96 M 9044.992,-1629.184 Q 9000.960000000001,-1629.184 8962.048,-1590.784 Q 8923.136,-1552.384 8887.808,-1489.4080000000001 Q 8852.480000000001,-1426.4320000000002 8818.688,-1349.632 Q 8784.896,-1272.832 8751.104,-1197.056 Q 8811.519999999999,-1205.248 8863.744,-1233.92 Q 8915.968,-1262.592 8958.976,-1304.064 Q 9001.984,-1345.536 9032.704,-1392.64 Q 9063.423999999999,-1439.7440000000001 9079.808,-1485.3120000000001 Q 9096.192000000001,-1530.88 9096.192000000001,-1566.72 Q 9096.192000000001,-1595.392 9083.904,-1612.288 Q 9071.616,-1629.184 9044.992,-1629.184 M 8215.552,-839.6800000000001 Q 8215.552,-814.08 8243.2,-795.136 Q 8270.848,-776.192 8322.048,-776.192 Q 8397.824,-776.192 8459.264000000001,-824.832 Q 8520.704000000002,-873.472 8568.832,-943.104 Q 8514.56,-948.224 8460.288,-948.224 Q 8376.32,-948.224 8322.048,-931.328 Q 8267.776,-914.432 8241.664,-889.344 Q 8215.552000000001,-864.2560000000001 8215.552000000001,-839.6800000000001 M 9208.832,-868.352 Q 9185.28,-868.352 9167.36,-881.664 Q 9149.44,-894.976 9149.44,-935.936 Q 9149.44,-953.344 9152.0,-968.7040000000001 Q 9154.56,-984.0640000000001 9158.656,-1001.472 Q 9149.44,-986.112 9133.056,-963.5840000000001 Q 9116.672,-941.056 9096.704,-919.552 Q 9076.735999999999,-898.048 9055.744,-883.712 Q 9034.752,-869.376 9016.32,-869.376 Q 8989.696,-869.376 8973.312,-893.44 Q 8956.928,-917.504 8956.928,-956.416 Q 8956.928,-998.4000000000001 8976.384,-1046.528 Q 8995.84,-1094.656 9029.632,-1138.688 Q 9063.423999999999,-1182.72 9107.456,-1210.368 Q 9151.488,-1238.0159999999998 9199.616,-1238.016 Q 9223.168,-1238.016 9244.672,-1230.336 Q 9266.176000000001,-1222.656 9282.56,-1205.248 Q 9289.728,-1198.0800000000002 9289.728000000001,-1188.864 Q 9289.728000000001,-1182.72 9284.608,-1178.624 Q 9279.488,-1174.528 9271.296,-1176.576 Q 9260.032000000001,-1212.416 9223.168,-1212.416 Q 9205.76,-1212.416 9183.232,-1201.152 Q 9155.584,-1186.816 9124.352,-1155.584 Q 9093.12,-1124.352 9065.984,-1084.928 Q 9038.848,-1045.5040000000001 9021.44,-1005.568 Q 9004.032000000001,-965.632 9004.032000000001,-932.864 Q 9004.032000000001,-899.072 9029.632,-899.072 Q 9052.16,-899.072 9076.224,-920.576 Q 9100.288,-942.08 9122.304,-974.336 Q 9144.32,-1006.592 9162.752,-1038.336 Q 9181.184000000001,-1070.08 9191.424,-1089.536 Q 9206.784000000001,-1117.184 9220.096,-1135.616 Q 9233.408,-1154.048 9257.984,-1154.048 Q 9269.248,-1154.048 9280.512,-1150.976 Q 9291.776,-1147.9040000000002 9304.064,-1149.952 Q 9273.344000000001,-1119.232 9250.304,-1077.248 Q 9227.264,-1035.2640000000001 9214.976,-994.816 Q 9202.688,-954.368 9202.688,-926.72 Q 9202.688,-896.0 9223.168,-896.0 Q 9239.552,-896.0 9258.496000000001,-914.432 Q 9277.44,-932.864 9295.36,-961.024 Q 9313.28,-989.184 9328.64,-1018.368 Q 9344.0,-1047.5520000000001 9353.216,-1069.056 Q 9358.336000000001,-1069.056 9361.92,-1068.032 Q 9365.504,-1067.008 9365.504,-1059.84 Q 9364.480000000001,-1055.744 9361.92,-1051.136 Q 9359.36,-1046.528 9354.24,-1035.2640000000001 Q 9346.048,-1018.8800000000001 9331.712,-991.232 Q 9317.376,-963.584 9297.92,-935.424 Q 9278.464,-907.264 9255.936,-887.808 Q 9233.408,-868.352 9208.832,-868.352 M 9415.68,-866.304 Q 9373.696,-866.304 9356.288,-891.904 Q 9338.880000000001,-917.504 9338.880000000001,-954.368 Q 9338.880000000001,-979.9680000000001 9344.512,-1002.496 Q 9350.144,-1025.024 9361.408,-1053.696 L 9359.36,-1053.696 Q 9351.168000000001,-1053.696 9351.168,-1061.888 Q 9351.168,-1065.984 9359.872,-1085.44 Q 9368.576,-1104.896 9382.4,-1132.544 Q 9396.224,-1160.192 9411.072,-1188.864 Q 9425.92,-1217.536 9438.208,-1240.064 Q 9458.688,-1277.952 9483.264000000001,-1318.4 Q 9507.84,-1358.8480000000002 9531.904,-1395.712 Q 9555.968,-1432.576 9572.352,-1456.128 Q 9609.216,-1507.328 9640.960000000001,-1507.328 L 9646.08,-1507.328 Q 9655.296,-1507.328 9667.072,-1504.256 Q 9678.848,-1501.1840000000002 9689.088,-1503.232 Q 9673.728,-1486.848 9642.496000000001,-1444.352 Q 9611.264000000001,-1401.856 9574.4,-1347.584 Q 9559.039999999999,-1325.056 9536.0,-1287.1680000000001 Q 9512.96,-1249.2800000000002 9487.36,-1202.176 Q 9461.76,-1155.072 9439.744,-1106.432 Q 9417.728000000001,-1057.792 9403.392,-1012.224 Q 9389.056,-966.6560000000001 9389.056,-930.816 Q 9389.056,-907.264 9397.248,-898.048 Q 9405.439999999999,-888.832 9417.728000000001,-888.832 Q 9433.088000000002,-888.832 9454.08,-906.7520000000001 Q 9475.072,-924.672 9497.088,-953.856 Q 9519.104,-983.04 9537.536,-1018.368 Q 9555.968,-1053.6960000000001 9567.744,-1090.048 Q 9579.52,-1126.4 9579.52,-1157.1200000000001 Q 9579.52,-1186.816 9568.768,-1200.128 Q 9558.016,-1213.4399999999998 9540.608,-1213.44 Q 9533.44,-1213.44 9526.272,-1209.856 Q 9519.104000000001,-1206.272 9513.984,-1206.272 Q 9508.864,-1206.272 9508.864,-1211.392 Q 9508.864,-1216.512 9519.616,-1222.656 Q 9530.368,-1228.8 9551.872,-1228.8 Q 9571.328,-1228.8 9591.296,-1218.56 Q 9611.264000000001,-1208.32 9624.576000000001,-1185.28 Q 9637.888,-1162.24 9637.888,-1125.376 Q 9637.888,-1081.344 9617.408,-1035.776 Q 9596.928,-990.2080000000001 9564.16,-951.808 Q 9531.392,-913.408 9491.968,-889.856 Q 9452.544,-866.304 9415.68,-866.304" fill="none" stroke="black" stroke-linecap="round" stroke-linejoin="round" stroke-width="8" /></svg>