<?xml version="1.0" encoding="utf-8" ?>
<svg baseProfile="tiny" height="1282.048px" version="1.2" viewBox="0 0 9528.32 1282.048" width="9528.32px" xmlns="http://www.w3.org/2000/svg" xmlns:ev="http://www.w3.org/2001/xml-events" xmlns:xlink="http://www.w3.org/1999/xlink"><defs /><path d="M 1397.76,-753.664 Q 1382.4,-755.712 1355.776,-761.344 Q 1329.152,-766.976 1301.5040000000001,-783.36 Q 1273.8560000000002,-799.744 1254.4,-833.024 Q 1234.9440000000002,-866.304 1234.944,-921.6 Q 1234.944,-985.088 1261.056,-1061.376 Q 1287.1680000000001,-1137.664 1325.056,-1220.608 Q 1362.944,-1303.552 1397.76,-1384.448 Q 1425.408,-1448.96 1425.4080000000001,-1482.752 Q 1425.4080000000001,-1516.5439999999999 1399.808,-1516.544 Q 1371.136,-1516.544 1314.304,-1470.976 Q 1257.472,-1425.4080000000001 1182.72,-1333.248 Q 1163.2640000000001,-1308.672 1132.544,-1265.152 Q 1101.824,-1221.632 1067.008,-1168.896 Q 1032.192,-1116.1599999999999 998.912,-1062.4 Q 965.6320000000001,-1008.6400000000001 940.544,-963.5840000000001 Q 915.456,-918.528 904.192,-891.904 Q 890.88,-860.16 873.472,-848.384 Q 856.064,-836.6080000000001 840.7040000000001,-836.6080000000001 Q 827.392,-836.6080000000001 818.176,-843.7760000000001 Q 807.936,-850.9440000000001 807.936,-861.184 Q 807.936,-867.328 811.008,-871.424 Q 817.152,-883.712 841.7280000000001,-927.744 Q 866.3040000000001,-971.7760000000001 899.072,-1044.48 Q 931.84,-1117.184 961.5360000000001,-1213.44 Q 970.7520000000001,-1243.136 980.48,-1282.048 Q 990.208,-1320.96 998.4,-1362.432 Q 1006.592,-1403.904 1012.224,-1440.256 Q 1017.856,-1476.6080000000002 1017.856,-1499.136 Q 1017.856,-1534.9759999999999 1005.568,-1551.872 Q 993.28,-1568.768 972.8000000000001,-1568.768 Q 950.272,-1568.768 921.6,-1549.3120000000001 Q 892.928,-1529.8560000000002 863.232,-1492.992 Q 812.0319999999999,-1428.48 773.12,-1373.6960000000001 Q 734.208,-1318.912 701.952,-1264.64 Q 669.696,-1210.3680000000002 638.464,-1148.928 Q 607.2320000000001,-1087.488 572.416,-1011.2 Q 537.6,-934.912 492.544,-834.5600000000001 Q 485.376,-818.176 468.48,-811.008 Q 451.584,-803.84 437.248,-803.84 Q 422.912,-803.84 413.696,-809.984 Q 404.48,-816.128 407.552,-827.392 Q 430.08000000000004,-863.2320000000001 457.728,-916.9920000000001 Q 485.37600000000003,-970.7520000000001 514.048,-1036.288 Q 542.72,-1101.824 569.344,-1172.48 Q 595.9680000000001,-1243.136 616.96,-1310.72 Q 637.952,-1378.304 650.24,-1437.6960000000001 Q 662.528,-1497.0880000000002 662.528,-1539.0720000000001 Q 662.528,-1617.92 629.248,-1651.712 Q 595.9680000000001,-1685.504 543.744,-1685.5040000000001 Q 497.66400000000004,-1685.5040000000001 442.368,-1662.976 Q 387.072,-1640.448 331.264,-1601.536 Q 275.456,-1562.624 226.304,-1513.472 Q 155.648,-1442.816 115.2,-1359.872 Q 74.75200000000001,-1276.928 74.752,-1191.936 Q 74.752,-1134.5919999999999 96.256,-1094.656 Q 117.76,-1054.72 153.088,-1034.24 Q 188.416,-1013.76 231.424,-1013.76 Q 275.456,-1013.76 313.856,-1035.776 Q 352.256,-1057.7920000000001 381.44,-1093.1200000000001 Q 410.624,-1128.448 427.008,-1167.872 Q 443.392,-1207.296 443.392,-1242.112 Q 443.392,-1271.808 427.008,-1291.2640000000001 Q 410.62399999999997,-1310.72 374.784,-1310.72 Q 370.688,-1310.72 366.08,-1310.208 Q 361.472,-1309.6960000000001 356.35200000000003,-1309.6960000000001 L 353.28000000000003,-1309.6960000000001 Q 346.112,-1309.6960000000001 339.968,-1312.256 Q 333.824,-1314.816 333.824,-1318.912 Q 333.824,-1323.008 344.576,-1328.128 Q 355.32800000000003,-1333.2479999999998 384.0,-1333.248 Q 430.08,-1333.248 453.12,-1306.112 Q 476.16,-1278.976 476.16,-1236.992 Q 476.16,-1196.032 455.168,-1153.0240000000001 Q 434.176,-1110.016 398.336,-1073.152 Q 362.496,-1036.288 317.952,-1013.76 Q 273.408,-991.232 226.304,-991.232 Q 171.008,-991.232 123.392,-1016.832 Q 75.776,-1042.432 47.104,-1091.0720000000001 Q 18.432,-1139.7120000000002 18.432000000000002,-1207.296 Q 18.432000000000002,-1271.808 45.056,-1334.784 Q 71.68,-1397.7600000000002 114.176,-1453.568 Q 156.672,-1509.376 204.8,-1552.384 Q 258.048,-1600.512 317.44,-1634.816 Q 376.832,-1669.1200000000001 435.712,-1688.064 Q 494.592,-1707.008 545.792,-1707.008 Q 621.568,-1707.008 671.232,-1661.952 Q 720.896,-1616.896 720.896,-1516.544 Q 720.896,-1475.584 709.6320000000001,-1422.848 Q 698.368,-1370.1119999999999 683.008,-1317.376 Q 667.648,-1264.6399999999999 653.312,-1223.68 L 655.36,-1223.68 Q 692.224,-1290.24 721.408,-1337.856 Q 750.592,-1385.472 780.288,-1426.432 Q 809.984,-1467.392 846.8480000000001,-1512.448 Q 878.5920000000001,-1550.336 919.552,-1572.864 Q 960.5120000000001,-1595.392 998.4,-1595.392 Q 1032.192,-1595.392 1055.744,-1572.864 Q 1079.2959999999998,-1550.336 1079.296,-1496.064 Q 1079.296,-1489.92 1079.296,-1485.824 Q 1079.296,-1481.728 1078.272,-1473.536 Q 1069.056,-1375.232 1039.3600000000001,-1280.512 Q 1009.6640000000001,-1185.792 977.9200000000001,-1089.536 Q 1009.6640000000001,-1138.688 1063.936,-1214.464 Q 1118.2079999999999,-1290.24 1182.72,-1371.136 Q 1261.568,-1469.44 1329.152,-1518.592 Q 1396.736,-1567.7440000000001 1440.768,-1567.7440000000001 Q 1496.064,-1567.7440000000001 1496.064,-1500.16 Q 1496.064,-1474.5600000000002 1486.336,-1438.72 Q 1476.608,-1402.88 1456.128,-1362.944 Q 1433.6,-1317.888 1406.464,-1259.008 Q 1379.328,-1200.128 1354.752,-1135.616 Q 1330.176,-1071.104 1314.304,-1009.152 Q 1298.432,-947.2 1298.432,-894.976 Q 1298.432,-838.656 1324.544,-804.352 Q 1350.6560000000002,-770.048 1415.1680000000001,-770.048 L 1421.3120000000001,-770.048 Q 1436.672,-770.048 1436.672,-763.904 Q 1436.672,-759.808 1426.432,-755.712 Q 1416.192,-751.616 1397.76,-753.664 M 1650.688,-868.352 Q 1627.1360000000002,-868.352 1609.2160000000001,-881.664 Q 1591.296,-894.976 1591.296,-935.936 Q 1591.296,-953.344 1593.856,-968.7040000000001 Q 1596.416,-984.0640000000001 1600.512,-1001.472 Q 1591.296,-986.112 1574.912,-963.5840000000001 Q 1558.528,-941.056 1538.56,-919.552 Q 1518.5919999999999,-898.048 1497.6000000000001,-883.712 Q 1476.6080000000002,-869.376 1458.176,-869.376 Q 1431.552,-869.376 1415.1680000000001,-893.44 Q 1398.784,-917.504 1398.784,-956.416 Q 1398.784,-998.4000000000001 1418.24,-1046.528 Q 1437.696,-1094.656 1471.488,-1138.688 Q 1505.28,-1182.72 1549.3120000000001,-1210.368 Q 1593.344,-1238.0159999999998 1641.472,-1238.016 Q 1665.024,-1238.016 1686.528,-1230.336 Q 1708.032,-1222.656 1724.416,-1205.248 Q 1731.5839999999998,-1198.0800000000002 1731.584,-1188.864 Q 1731.584,-1182.72 1726.464,-1178.624 Q 1721.344,-1174.528 1713.152,-1176.576 Q 1701.8880000000001,-1212.416 1665.0240000000001,-1212.416 Q 1647.6160000000002,-1212.416 1625.088,-1201.152 Q 1597.44,-1186.816 1566.208,-1155.584 Q 1534.976,-1124.352 1507.84,-1084.928 Q 1480.704,-1045.5040000000001 1463.296,-1005.568 Q 1445.8880000000001,-965.632 1445.888,-932.864 Q 1445.888,-899.072 1471.488,-899.072 Q 1494.016,-899.072 1518.08,-920.576 Q 1542.144,-942.08 1564.16,-974.336 Q 1586.1760000000002,-1006.592 1604.608,-1038.336 Q 1623.04,-1070.08 1633.28,-1089.536 Q 1648.6399999999999,-1117.184 1661.952,-1135.616 Q 1675.264,-1154.048 1699.8400000000001,-1154.048 Q 1711.104,-1154.048 1722.368,-1150.976 Q 1733.6319999999998,-1147.9040000000002 1745.92,-1149.952 Q 1715.2,-1119.232 1692.16,-1077.248 Q 1669.1200000000001,-1035.2640000000001 1656.832,-994.816 Q 1644.544,-954.368 1644.544,-926.72 Q 1644.544,-896.0 1665.0240000000001,-896.0 Q 1681.4080000000001,-896.0 1700.352,-914.432 Q 1719.296,-932.864 1737.2160000000001,-961.024 Q 1755.1360000000002,-989.184 1770.496,-1018.368 Q 1785.856,-1047.5520000000001 1795.0720000000001,-1069.056 Q 1800.192,-1069.056 1803.776,-1068.032 Q 1807.3600000000001,-1067.008 1807.3600000000001,-1059.84 Q 1806.3360000000002,-1055.744 1803.776,-1051.136 Q 1801.2160000000001,-1046.528 1796.096,-1035.2640000000001 Q 1787.904,-1018.8800000000001 1773.568,-991.232 Q 1759.232,-963.584 1739.776,-935.424 Q 1720.3200000000002,-907.264 1697.7920000000001,-887.808 Q 1675.2640000000001,-868.352 1650.688,-868.352 M 1796.096,-1072.128 Q 1804.288,-1089.5359999999998 1817.6000000000001,-1127.936 Q 1830.912,-1166.336 1845.248,-1213.44 Q 1859.584,-1260.544 1866.752,-1302.528 Q 1869.8239999999998,-1318.912 1878.016,-1326.592 Q 1886.208,-1334.2720000000002 1895.424,-1334.272 Q 1908.7359999999999,-1334.272 1920.0,-1321.472 Q 1931.264,-1308.672 1931.2640000000001,-1285.1200000000001 Q 1931.2640000000001,-1256.448 1914.368,-1235.968 Q 1897.472,-1215.488 1872.896,-1197.056 Q 1883.136,-1196.0320000000002 1894.4,-1195.52 Q 1905.664,-1195.008 1918.976,-1195.008 Q 1967.104,-1195.008 2014.208,-1201.152 Q 2016.256,-1195.008 2016.256,-1191.936 Q 2016.256,-1178.624 2008.576,-1158.144 Q 2000.896,-1137.664 1992.704,-1121.28 Q 1988.608,-1112.064 1976.32,-1088.0 Q 1964.032,-1063.936 1949.6960000000001,-1033.728 Q 1935.3600000000001,-1003.5200000000001 1925.632,-974.336 Q 1915.904,-945.152 1915.904,-924.672 Q 1915.904,-898.048 1936.384,-898.048 Q 1955.84,-898.048 1990.656,-943.616 Q 2025.472,-989.184 2060.288,-1069.056 Q 2072.576,-1069.056 2072.576,-1059.84 Q 2061.312,-1032.192 2044.416,-999.424 Q 2027.52,-966.656 2007.04,-937.472 Q 1986.56,-908.288 1963.008,-889.344 Q 1939.4560000000001,-870.4000000000001 1913.856,-870.4 Q 1894.4,-870.4 1874.944,-886.272 Q 1855.488,-902.144 1855.488,-937.984 Q 1855.488,-969.7280000000001 1867.776,-999.936 Q 1880.064,-1030.144 1895.424,-1056.768 Q 1910.7839999999999,-1083.392 1923.0720000000001,-1103.872 Q 1935.3600000000001,-1124.352 1935.3600000000001,-1136.64 Q 1935.3600000000001,-1155.0720000000001 1912.32,-1163.2640000000001 Q 1889.28,-1171.4560000000001 1852.416,-1172.48 Q 1833.984,-1125.376 1824.768,-1102.848 Q 1815.5520000000001,-1080.32 1807.3600000000001,-1059.84 Q 1790.976,-1059.84 1796.0960000000002,-1072.128 M 2148.352,-867.328 Q 2092.0319999999997,-867.328 2064.896,-897.024 Q 2037.7600000000002,-926.72 2037.76,-976.8960000000001 Q 2037.76,-1000.4480000000001 2046.976,-1031.1680000000001 Q 2056.192,-1061.8880000000001 2071.552,-1093.632 Q 2086.9120000000003,-1125.376 2105.344,-1149.952 Q 2135.04,-1189.888 2170.88,-1211.904 Q 2206.7200000000003,-1233.92 2243.584,-1233.92 Q 2282.4959999999996,-1233.92 2299.392,-1217.0240000000001 Q 2316.288,-1200.1280000000002 2316.288,-1177.6000000000001 Q 2316.288,-1156.0960000000002 2306.0480000000002,-1139.2 Q 2295.8080000000004,-1122.304 2283.0080000000003,-1112.064 Q 2270.208,-1101.824 2260.992,-1101.824 Q 2252.8,-1101.824 2246.656,-1107.968 Q 2254.848,-1118.208 2264.064,-1132.544 Q 2273.2799999999997,-1146.88 2277.376,-1160.192 Q 2281.472,-1172.48 2281.472,-1184.768 Q 2281.472,-1211.392 2256.896,-1211.392 Q 2227.2000000000003,-1211.392 2199.04,-1186.816 Q 2170.88,-1162.24 2147.84,-1123.84 Q 2124.8,-1085.4399999999998 2110.976,-1042.944 Q 2097.152,-1000.448 2097.152,-964.6080000000001 Q 2097.152,-931.84 2110.976,-910.336 Q 2124.8,-888.832 2156.544,-888.832 Q 2198.528,-888.832 2230.272,-915.9680000000001 Q 2262.016,-943.104 2286.592,-984.576 Q 2311.168,-1026.048 2329.6,-1069.056 Q 2333.696,-1069.056 2337.792,-1067.52 Q 2341.888,-1065.984 2341.888,-1059.84 Q 2321.408,-1008.6399999999999 2293.76,-964.6080000000001 Q 2266.112,-920.576 2230.784,-893.952 Q 2195.456,-867.328 2148.3520000000003,-867.328 M 2391.04,-871.424 Q 2349.056,-871.424 2329.088,-901.6320000000001 Q 2309.1200000000003,-931.84 2309.12,-974.8480000000001 Q 2309.12,-1014.7840000000001 2324.48,-1057.792 Q 2340.864,-1104.896 2370.0480000000002,-1143.808 Q 2399.2320000000004,-1182.72 2434.56,-1206.784 Q 2469.888,-1230.8480000000002 2504.704,-1230.848 Q 2546.688,-1230.848 2566.656,-1202.176 Q 2586.624,-1173.504 2586.6240000000003,-1129.472 Q 2586.6240000000003,-1098.752 2576.384,-1064.96 Q 2566.1440000000002,-1031.1680000000001 2548.736,-998.4 Q 2562.048,-985.088 2586.6240000000003,-985.088 Q 2615.2960000000003,-985.088 2635.776,-1003.52 Q 2656.256,-1021.952 2675.712,-1069.056 Q 2688.0,-1069.056 2688.0,-1059.84 Q 2668.544,-1012.7359999999999 2643.456,-990.72 Q 2618.368,-968.7040000000001 2579.456,-969.7280000000001 Q 2555.904,-969.7280000000001 2540.544,-983.04 Q 2511.872,-935.9359999999999 2472.448,-903.6800000000001 Q 2433.024,-871.4240000000001 2391.04,-871.4240000000001 M 2405.376,-893.952 Q 2428.9280000000003,-893.952 2452.48,-913.9200000000001 Q 2476.032,-933.888 2495.488,-959.488 Q 2514.944,-985.0880000000001 2523.136,-1003.52 Q 2506.752,-1033.216 2504.192,-1048.064 Q 2501.632,-1062.912 2501.632,-1070.08 Q 2501.632,-1089.5359999999998 2511.872,-1099.776 Q 2522.1119999999996,-1110.016 2532.352,-1110.016 Q 2546.6879999999996,-1110.016 2556.928,-1097.728 Q 2558.9759999999997,-1108.992 2560.0,-1118.72 Q 2561.024,-1128.448 2561.024,-1137.664 Q 2561.024,-1164.288 2551.2960000000003,-1181.184 Q 2541.568,-1198.08 2521.088,-1198.08 Q 2499.5840000000003,-1198.08 2476.032,-1179.6480000000001 Q 2452.48,-1161.2160000000001 2431.488,-1130.496 Q 2410.4959999999996,-1099.776 2395.136,-1061.888 Q 2381.824,-1030.144 2374.656,-1001.984 Q 2367.488,-973.8240000000001 2367.488,-950.272 Q 2367.488,-924.672 2376.704,-909.312 Q 2385.92,-893.952 2405.376,-893.952 M 2963.456,-831.488 Q 2940.9280000000003,-831.488 2919.424,-834.5600000000001 Q 2854.912,-842.7520000000001 2824.704,-872.448 Q 2794.496,-902.144 2794.496,-936.96 Q 2794.496,-974.8480000000001 2828.8,-1005.568 Q 2863.1040000000003,-1036.288 2925.568,-1036.288 Q 2945.0240000000003,-1036.288 2967.04,-1032.704 Q 2989.056,-1029.12 3013.632,-1020.928 Q 3025.92,-1016.832 3025.92,-1009.664 Q 3025.92,-1005.568 3019.776,-1005.568 Q 3013.632,-1005.568 3009.536,-1007.616 Q 2993.152,-1013.76 2978.304,-1016.32 Q 2963.456,-1018.88 2950.1440000000002,-1018.88 Q 2906.112,-1018.88 2883.072,-993.792 Q 2860.032,-968.7040000000001 2860.032,-939.008 Q 2860.032,-910.336 2883.584,-886.784 Q 2907.136,-863.232 2958.3360000000002,-863.232 Q 3022.8480000000004,-863.232 3077.632,-892.928 Q 3132.416,-922.624 3181.568,-970.7520000000001 Q 3233.7920000000004,-1021.9520000000001 3276.8,-1094.144 Q 3319.808,-1166.336 3362.304,-1248.768 Q 3404.8,-1331.2 3454.976,-1415.1680000000001 Q 3505.152,-1499.1360000000002 3570.688,-1572.864 Q 3584.0,-1587.2 3597.824,-1603.0720000000001 Q 3611.648,-1618.9440000000002 3624.96,-1630.208 Q 3590.1440000000002,-1635.328 3553.28,-1637.8880000000001 Q 3516.416,-1640.448 3480.576,-1640.448 Q 3427.328,-1640.448 3379.712,-1635.8400000000001 Q 3332.096,-1631.2320000000002 3284.992,-1623.04 Q 3236.864,-1613.824 3177.472,-1594.368 Q 3118.0800000000004,-1574.912 3062.272,-1543.68 Q 3006.464,-1512.448 2967.04,-1468.416 Q 2927.616,-1424.384 2918.4,-1367.04 Q 2917.376,-1361.92 2916.864,-1356.288 Q 2916.352,-1350.656 2916.352,-1345.536 Q 2916.352,-1298.432 2948.608,-1267.712 Q 2980.864,-1236.992 3023.872,-1236.992 Q 3055.616,-1236.992 3085.312,-1253.888 Q 3115.008,-1270.7839999999999 3138.56,-1298.944 Q 3162.112,-1327.104 3173.376,-1360.896 Q 3174.4,-1371.136 3181.568,-1371.136 Q 3187.712,-1371.136 3187.712,-1359.872 Q 3186.688,-1314.816 3161.6,-1282.048 Q 3136.5119999999997,-1249.28 3098.6240000000003,-1232.384 Q 3060.7360000000003,-1215.488 3021.824,-1215.488 Q 2981.888,-1215.488 2946.0480000000002,-1232.384 Q 2910.208,-1249.28 2887.68,-1282.56 Q 2865.152,-1315.84 2865.152,-1364.992 Q 2865.152,-1422.336 2893.312,-1466.368 Q 2921.4719999999998,-1510.3999999999999 2968.576,-1543.68 Q 3015.68,-1576.96 3070.976,-1600.0 Q 3126.272,-1623.04 3181.568,-1636.864 Q 3236.864,-1650.688 3281.92,-1657.856 Q 3328.0,-1665.024 3377.664,-1669.1200000000001 Q 3427.3280000000004,-1673.2160000000001 3478.5280000000002,-1673.2160000000001 Q 3522.5600000000004,-1673.2160000000001 3566.592,-1669.1200000000001 Q 3610.6240000000003,-1665.0240000000001 3652.608,-1656.832 Q 3670.016,-1670.144 3688.448,-1680.384 Q 3706.8799999999997,-1690.624 3729.408,-1698.816 Q 3743.7439999999997,-1704.96 3750.9120000000003,-1704.96 Q 3757.056,-1704.96 3757.056,-1700.864 Q 3757.056,-1693.6960000000001 3740.672,-1683.4560000000001 Q 3732.48,-1679.3600000000001 3720.192,-1669.1200000000001 Q 3707.904,-1658.88 3693.568,-1645.568 Q 3760.128,-1629.184 3813.376,-1596.416 Q 3871.744,-1561.6 3896.832,-1522.688 Q 3921.92,-1483.776 3921.92,-1442.816 Q 3921.92,-1395.712 3893.248,-1349.1200000000001 Q 3864.576,-1302.528 3818.496,-1262.592 Q 3772.416,-1222.6560000000002 3717.12,-1193.472 Q 3661.824,-1164.288 3607.552,-1150.976 Q 3555.328,-1137.6640000000002 3502.08,-1131.52 Q 3448.832,-1125.376 3406.848,-1125.376 Q 3399.68,-1125.376 3392.0,-1125.376 Q 3384.32,-1125.376 3377.152,-1126.4 Q 3342.3360000000002,-1077.248 3305.472,-1030.656 Q 3268.608,-984.064 3222.5280000000002,-940.032 Q 3166.208,-886.784 3099.648,-859.136 Q 3033.088,-831.4879999999999 2963.456,-831.4879999999999 M 3391.4880000000003,-1148.928 Q 3430.4,-1147.9040000000002 3478.5280000000002,-1155.0720000000001 Q 3526.6560000000004,-1162.24 3574.784,-1176.576 Q 3654.656,-1201.152 3718.656,-1247.232 Q 3782.656,-1293.312 3820.032,-1349.632 Q 3857.4080000000004,-1405.952 3857.408,-1460.224 Q 3857.408,-1492.992 3841.536,-1522.688 Q 3825.664,-1552.384 3789.824,-1575.936 Q 3766.272,-1591.2959999999998 3736.576,-1602.56 Q 3706.88,-1613.8239999999998 3674.112,-1620.992 Q 3621.888,-1547.264 3576.32,-1467.392 Q 3530.752,-1387.52 3486.208,-1306.624 Q 3441.664,-1225.728 3391.4880000000003,-1148.928 M 3859.456,-871.424 Q 3817.472,-871.424 3797.504,-901.6320000000001 Q 3777.536,-931.84 3777.536,-974.8480000000001 Q 3777.536,-1014.7840000000001 3792.896,-1057.792 Q 3809.28,-1104.896 3838.464,-1143.808 Q 3867.648,-1182.72 3902.976,-1206.784 Q 3938.304,-1230.8480000000002 3973.12,-1230.848 Q 4015.104,-1230.848 4035.072,-1202.176 Q 4055.04,-1173.504 4055.04,-1129.472 Q 4055.04,-1098.752 4044.8,-1064.96 Q 4034.5600000000004,-1031.1680000000001 4017.152,-998.4 Q 4030.464,-985.088 4055.04,-985.088 Q 4083.712,-985.088 4104.192,-1003.52 Q 4124.672,-1021.952 4144.128,-1069.056 Q 4156.415999999999,-1069.056 4156.416,-1059.84 Q 4136.96,-1012.7359999999999 4111.872,-990.72 Q 4086.784,-968.7040000000001 4047.8720000000003,-969.7280000000001 Q 4024.32,-969.7280000000001 4008.96,-983.04 Q 3980.288,-935.9359999999999 3940.864,-903.6800000000001 Q 3901.44,-871.4240000000001 3859.456,-871.4240000000001 M 3873.792,-893.952 Q 3897.344,-893.952 3920.896,-913.9200000000001 Q 3944.4480000000003,-933.888 3963.904,-959.488 Q 3983.36,-985.0880000000001 3991.552,-1003.52 Q 3975.168,-1033.216 3972.608,-1048.064 Q 3970.0480000000002,-1062.912 3970.0480000000002,-1070.08 Q 3970.0480000000002,-1089.5359999999998 3980.288,-1099.776 Q 3990.528,-1110.016 4000.768,-1110.016 Q 4015.104,-1110.016 4025.344,-1097.728 Q 4027.392,-1108.992 4028.416,-1118.72 Q 4029.44,-1128.448 4029.44,-1137.664 Q 4029.44,-1164.288 4019.712,-1181.184 Q 4009.984,-1198.08 3989.504,-1198.08 Q 3968.0,-1198.08 3944.448,-1179.6480000000001 Q 3920.8959999999997,-1161.2160000000001 3899.904,-1130.496 Q 3878.912,-1099.776 3863.552,-1061.888 Q 3850.2400000000002,-1030.144 3843.072,-1001.984 Q 3835.904,-973.8240000000001 3835.904,-950.272 Q 3835.904,-924.672 3845.12,-909.312 Q 3854.336,-893.952 3873.792,-893.952 M 4192.256,-868.352 Q 4154.368,-868.352 4136.448,-891.392 Q 4118.528,-914.432 4118.528,-946.176 Q 4118.528,-978.9440000000001 4127.744,-1013.76 Q 4136.96,-1048.576 4144.128,-1072.128 Q 4160.512,-1129.472 4185.6,-1194.496 Q 4210.688,-1259.52 4240.896,-1322.496 Q 4271.103999999999,-1385.4720000000002 4300.8,-1435.6480000000001 Q 4324.352,-1475.584 4351.488,-1495.5520000000001 Q 4378.624000000001,-1515.5200000000002 4399.104,-1515.52 Q 4415.488,-1515.52 4425.216,-1503.7440000000001 Q 4434.944,-1491.968 4434.944,-1468.416 Q 4434.944,-1452.032 4429.312,-1429.5040000000001 Q 4423.68,-1406.976 4410.368,-1378.304 Q 4374.528,-1298.432 4324.8640000000005,-1218.56 Q 4275.200000000001,-1138.6879999999999 4199.424,-1069.056 Q 4187.136,-1040.384 4178.944,-1007.616 Q 4170.752,-974.848 4170.752,-954.368 Q 4170.752,-890.8800000000001 4213.76,-890.88 Q 4246.528,-890.88 4286.464,-938.496 Q 4326.4,-986.112 4362.24,-1069.056 Q 4366.335999999999,-1069.056 4370.432,-1067.52 Q 4374.527999999999,-1065.984 4374.528,-1059.84 Q 4363.264,-1032.192 4346.368,-998.912 Q 4329.472000000001,-965.6320000000001 4307.456,-935.936 Q 4285.4400000000005,-906.24 4256.768,-887.296 Q 4228.0960000000005,-868.3520000000001 4192.256,-868.3520000000001 M 4207.616,-1101.824 Q 4244.48,-1139.712 4279.296,-1189.376 Q 4314.112,-1239.04 4344.32,-1292.8 Q 4374.527999999999,-1346.56 4395.008,-1394.688 Q 4402.1759999999995,-1410.048 4406.784,-1428.48 Q 4411.392,-1446.912 4411.392,-1459.2 Q 4411.392,-1473.536 4404.224,-1473.536 Q 4400.128000000001,-1473.536 4391.936,-1465.856 Q 4383.744,-1458.176 4370.432,-1439.7440000000001 Q 4350.976,-1414.1440000000002 4327.936,-1370.112 Q 4304.896,-1326.0800000000002 4281.344,-1275.904 Q 4257.792,-1225.728 4238.336,-1179.136 Q 4218.88,-1132.5439999999999 4207.616,-1101.824 M 4423.68,-871.424 Q 4381.696,-871.424 4361.728,-901.6320000000001 Q 4341.76,-931.84 4341.76,-974.8480000000001 Q 4341.76,-1014.7840000000001 4357.12,-1057.792 Q 4373.504,-1104.896 4402.688,-1143.808 Q 4431.872,-1182.72 4467.2,-1206.784 Q 4502.528,-1230.8480000000002 4537.344,-1230.848 Q 4579.328,-1230.848 4599.296,-1202.176 Q 4619.264,-1173.504 4619.264,-1129.472 Q 4619.264,-1098.752 4609.024,-1064.96 Q 4598.784000000001,-1031.1680000000001 4581.376,-998.4 Q 4594.688,-985.088 4619.264,-985.088 Q 4647.936,-985.088 4668.416,-1003.52 Q 4688.896,-1021.952 4708.352,-1069.056 Q 4720.639999999999,-1069.056 4720.64,-1059.84 Q 4701.184,-1012.7359999999999 4676.0960000000005,-990.72 Q 4651.008000000001,-968.7040000000001 4612.0960000000005,-969.7280000000001 Q 4588.544000000001,-969.7280000000001 4573.184,-983.04 Q 4544.512000000001,-935.9359999999999 4505.088,-903.6800000000001 Q 4465.664,-871.4240000000001 4423.679999999999,-871.4240000000001 M 4438.0160000000005,-893.952 Q 4461.568,-893.952 4485.12,-913.9200000000001 Q 4508.672,-933.888 4528.128,-959.488 Q 4547.584,-985.0880000000001 4555.776,-1003.52 Q 4539.392,-1033.216 4536.832,-1048.064 Q 4534.272,-1062.912 4534.272,-1070.08 Q 4534.272,-1089.5359999999998 4544.512,-1099.776 Q 4554.7519999999995,-1110.016 4564.992,-1110.016 Q 4579.328,-1110.016 4589.568,-1097.728 Q 4591.616,-1108.992 4592.64,-1118.72 Q 4593.664000000001,-1128.448 4593.664,-1137.664 Q 4593.664,-1164.288 4583.936,-1181.184 Q 4574.208,-1198.08 4553.728,-1198.08 Q 4532.224,-1198.08 4508.6720000000005,-1179.6480000000001 Q 4485.120000000001,-1161.2160000000001 4464.128,-1130.496 Q 4443.1359999999995,-1099.776 4427.776,-1061.888 Q 4414.464,-1030.144 4407.296,-1001.984 Q 4400.128000000001,-973.8240000000001 4400.128,-950.272 Q 4400.128,-924.672 4409.344,-909.312 Q 4418.56,-893.952 4438.016,-893.952 M 5738.496,-828.416 Q 5709.8240000000005,-828.416 5681.664,-841.7280000000001 Q 5653.504,-855.0400000000001 5628.928,-880.64 Q 5593.088,-917.504 5566.976000000001,-969.216 Q 5540.8640000000005,-1020.928 5522.432,-1075.712 Q 5504.0,-1130.496 5493.76,-1176.064 Q 5483.52,-1221.632 5479.424,-1246.208 Q 5441.536,-1173.5040000000001 5401.088,-1102.336 Q 5360.639999999999,-1031.1680000000001 5298.176,-962.5600000000001 Q 5238.784000000001,-898.048 5168.128,-864.768 Q 5097.472,-831.488 5021.696,-831.488 Q 4998.144,-831.488 4973.568,-834.5600000000001 Q 4905.984,-842.7520000000001 4874.24,-873.472 Q 4842.496,-904.192 4842.496,-939.008 Q 4842.496,-976.8960000000001 4876.2880000000005,-1007.616 Q 4910.080000000001,-1038.336 4972.544,-1038.336 Q 4993.023999999999,-1038.336 5016.576,-1034.24 Q 5040.128,-1030.144 5065.728,-1020.928 Q 5076.992,-1016.832 5076.992,-1011.712 Q 5076.992,-1007.616 5068.8,-1007.616 Q 5063.68,-1007.616 5060.608,-1008.64 Q 5026.816,-1020.928 5000.192,-1020.928 Q 4957.184,-1020.928 4934.656,-995.84 Q 4912.128,-970.7520000000001 4912.128,-941.056 Q 4912.128,-912.384 4936.704,-887.808 Q 4961.28,-863.232 5012.4800000000005,-863.232 Q 5076.992,-863.232 5131.264,-893.44 Q 5185.536,-923.648 5232.64,-976.384 Q 5279.744000000001,-1029.1200000000001 5322.752,-1096.192 Q 5365.76,-1163.2640000000001 5406.72,-1235.968 Q 5475.328,-1357.824 5531.136,-1457.664 Q 5586.944,-1557.504 5649.408,-1627.136 Q 5621.76,-1630.2079999999999 5593.088,-1631.232 Q 5564.416,-1632.2559999999999 5534.72,-1632.256 Q 5470.2080000000005,-1632.256 5401.088,-1625.6000000000001 Q 5331.968,-1618.9440000000002 5267.456,-1604.608 Q 5180.416,-1586.176 5117.952,-1549.824 Q 5055.488,-1513.472 5019.136,-1468.928 Q 4982.784000000001,-1424.384 4973.568,-1379.328 Q 4970.496,-1362.944 4970.496,-1347.584 Q 4970.496,-1295.3600000000001 5005.312,-1266.688 Q 5040.128,-1238.016 5085.184,-1238.016 Q 5113.856,-1238.016 5143.04,-1249.792 Q 5172.224,-1261.568 5195.776,-1287.1680000000001 Q 5215.232,-1307.6480000000001 5224.448,-1325.568 Q 5233.664000000001,-1343.488 5234.688,-1352.704 Q 5235.712,-1367.04 5240.832,-1367.04 Q 5243.904,-1367.04 5246.464,-1361.92 Q 5249.024,-1356.8000000000002 5248.0,-1351.68 Q 5243.904,-1328.1280000000002 5233.664,-1305.6000000000001 Q 5223.424,-1283.0720000000001 5209.088,-1267.712 Q 5180.416,-1238.016 5143.552,-1223.68 Q 5106.688,-1209.344 5072.896,-1209.344 Q 5032.96,-1209.344 4997.6320000000005,-1226.752 Q 4962.304,-1244.1599999999999 4940.8,-1277.44 Q 4919.296,-1310.72 4919.296,-1359.872 Q 4919.296,-1417.2160000000001 4959.232,-1477.1200000000001 Q 4999.168,-1537.0240000000001 5079.552,-1583.104 Q 5159.936,-1629.184 5279.744,-1646.592 Q 5340.16,-1654.784 5396.992,-1659.392 Q 5453.8240000000005,-1664.0 5507.072,-1664.0 Q 5550.08,-1664.0 5591.04,-1660.928 Q 5632.0,-1657.8560000000002 5671.936,-1652.736 Q 5698.5599999999995,-1680.384 5707.776,-1680.384 Q 5714.9439999999995,-1680.384 5714.944,-1669.1200000000001 Q 5714.944,-1665.0240000000001 5713.92,-1658.88 Q 5712.896,-1652.736 5710.848,-1646.592 Q 5738.496,-1642.496 5764.608,-1637.8880000000001 Q 5790.72,-1633.2800000000002 5811.2,-1627.136 Q 5892.096,-1604.608 5929.472,-1568.256 Q 5966.848,-1531.904 5966.848,-1489.92 Q 5966.848,-1444.864 5926.400000000001,-1399.808 Q 5885.952,-1354.752 5812.736,-1319.936 Q 5739.5199999999995,-1285.12 5641.216,-1268.736 Q 5609.472000000001,-1263.6160000000002 5585.408,-1261.568 Q 5561.344,-1259.52 5543.936,-1258.496 Q 5545.9839999999995,-1248.256 5553.152,-1215.488 Q 5560.32,-1182.72 5573.6320000000005,-1138.176 Q 5586.944,-1093.6319999999998 5607.936,-1044.48 Q 5628.928,-995.328 5658.624,-951.296 Q 5682.1759999999995,-916.48 5706.752,-893.952 Q 5731.328,-871.424 5758.976000000001,-871.424 Q 5776.384000000001,-871.424 5795.328,-880.64 Q 5814.272000000001,-889.856 5834.752,-910.336 Q 5859.328,-934.912 5879.808,-965.6320000000001 Q 5900.288,-996.3520000000001 5914.624,-1024.512 Q 5928.96,-1052.672 5936.128,-1069.056 Q 5942.272,-1069.056 5945.344,-1068.032 Q 5948.416,-1067.008 5948.416,-1059.84 Q 5944.320000000001,-1049.6 5934.08,-1027.584 Q 5923.84,-1005.5680000000001 5910.0160000000005,-978.432 Q 5896.192000000001,-951.296 5879.808,-924.672 Q 5863.424,-898.048 5847.04,-879.616 Q 5823.488,-854.016 5794.304,-841.216 Q 5765.12,-828.416 5738.496,-828.416 M 5500.928,-1286.144 Q 5530.624,-1291.264 5564.416,-1293.3120000000001 Q 5598.2080000000005,-1295.3600000000001 5630.976000000001,-1299.4560000000001 Q 5684.224,-1306.624 5731.328,-1327.616 Q 5778.432000000001,-1348.608 5814.784000000001,-1378.304 Q 5851.136,-1408.0 5871.616,-1441.28 Q 5892.096,-1474.56 5892.0960000000005,-1505.28 Q 5892.0960000000005,-1574.912 5798.912,-1601.536 Q 5780.4800000000005,-1606.656 5751.296,-1611.776 Q 5722.112,-1616.896 5698.56,-1620.992 Q 5649.408,-1537.024 5597.696,-1456.128 Q 5545.9839999999995,-1375.232 5500.928,-1286.144 M 6009.856,-867.328 Q 5971.968,-867.328 5941.76,-891.904 Q 5911.552000000001,-916.48 5911.552,-966.6560000000001 Q 5911.552,-1008.6400000000001 5930.496,-1055.744 Q 5949.4400000000005,-1102.848 5980.6720000000005,-1144.32 Q 6011.904,-1185.792 6050.304,-1211.904 Q 6088.704,-1238.016 6127.616,-1238.016 Q 6147.072,-1238.016 6165.504,-1226.752 Q 6183.936,-1215.488 6183.936,-1187.84 Q 6183.936,-1162.24 6164.4800000000005,-1131.52 Q 6145.024,-1100.8 6109.184,-1074.176 Q 6093.8240000000005,-1062.912 6070.272,-1052.672 Q 6046.72,-1042.432 6023.168000000001,-1035.776 Q 5999.616000000001,-1029.1200000000001 5984.256,-1029.1200000000001 Q 5979.136,-1016.8320000000001 5974.528,-996.352 Q 5969.92,-975.872 5969.92,-954.368 Q 5969.92,-928.768 5980.16,-908.288 Q 5990.4,-887.808 6018.048,-887.808 Q 6051.84,-887.808 6081.024,-907.264 Q 6110.2080000000005,-926.72 6133.2480000000005,-956.416 Q 6156.2880000000005,-986.1120000000001 6172.6720000000005,-1016.832 Q 6189.0560000000005,-1047.552 6198.272,-1069.056 Q 6210.5599999999995,-1069.056 6210.56,-1059.84 Q 6197.2480000000005,-1031.168 6180.352,-997.376 Q 6163.456,-963.584 6140.416,-934.4 Q 6117.376,-905.216 6085.12,-886.272 Q 6052.864,-867.3280000000001 6009.856,-867.3280000000001 M 5991.424,-1047.5520000000001 Q 6005.76,-1047.5520000000001 6039.552,-1058.304 Q 6073.344,-1069.056 6100.992,-1092.608 Q 6127.616,-1116.1599999999999 6141.952,-1144.32 Q 6156.2880000000005,-1172.48 6156.2880000000005,-1191.936 Q 6156.2880000000005,-1214.464 6139.904,-1214.464 Q 6127.616000000001,-1214.464 6106.112,-1198.08 Q 6084.608,-1181.696 6052.8640000000005,-1142.784 Q 6033.408,-1118.208 6016.0,-1089.536 Q 5998.592,-1060.864 5991.424,-1047.5520000000001 M 6219.776,-867.328 Q 6177.7919999999995,-867.328 6151.68,-893.44 Q 6125.568,-919.552 6125.568,-948.224 Q 6125.568,-971.7760000000001 6137.344,-991.744 Q 6149.12,-1011.712 6168.576,-1011.712 L 6169.6,-1013.76 Q 6192.128000000001,-1054.72 6213.12,-1097.2160000000001 Q 6234.112,-1139.7120000000002 6259.712,-1187.84 Q 6281.216,-1227.7759999999998 6306.304,-1253.376 Q 6331.392,-1278.9759999999999 6365.184,-1278.976 Q 6373.376,-1278.976 6387.712,-1275.392 Q 6402.048000000001,-1271.808 6402.048,-1260.544 Q 6402.048,-1252.352 6392.832,-1252.352 Q 6385.664000000001,-1252.352 6376.96,-1256.448 Q 6368.256,-1260.544 6363.136,-1260.544 Q 6343.68,-1260.544 6330.368,-1238.016 Q 6317.0560000000005,-1215.488 6317.0560000000005,-1189.888 Q 6317.0560000000005,-1162.24 6326.272,-1140.224 Q 6335.488,-1118.2079999999999 6347.776,-1097.728 Q 6360.063999999999,-1077.248 6369.28,-1056.256 Q 6378.496,-1035.2640000000001 6378.496,-1010.688 Q 6378.496,-961.536 6359.552,-931.328 Q 6340.607999999999,-901.12 6309.888,-885.76 L 6310.912,-885.76 Q 6365.184,-885.76 6400.512,-936.448 Q 6435.84,-987.136 6470.656,-1069.056 Q 6482.9439999999995,-1069.056 6482.944,-1059.84 Q 6463.488,-1013.7599999999999 6439.936,-969.7280000000001 Q 6416.384,-925.696 6384.64,-897.024 Q 6352.896000000001,-868.352 6306.816,-868.352 Q 6287.36,-868.352 6270.976000000001,-872.448 Q 6247.424000000001,-867.328 6219.776000000001,-867.328 M 6204.416,-975.8720000000001 Q 6204.416,-951.296 6215.68,-928.768 Q 6226.944,-906.24 6256.64,-894.976 Q 6283.264,-910.336 6298.112,-942.592 Q 6312.96,-974.848 6312.96,-1009.664 Q 6312.96,-1038.336 6306.816,-1068.032 Q 6300.672,-1097.7279999999998 6294.0160000000005,-1126.4 Q 6287.360000000001,-1155.0720000000001 6287.360000000001,-1177.6000000000001 Q 6287.360000000001,-1184.768 6287.872,-1190.4 Q 6288.384,-1196.0320000000002 6289.408,-1201.152 Q 6270.976000000001,-1173.5040000000001 6252.032,-1136.64 Q 6233.088,-1099.776 6215.68,-1065.984 Q 6198.272,-1032.192 6183.936,-1010.688 Q 6204.415999999999,-1007.616 6204.415999999999,-975.872 M 6170.624,-924.672 Q 6170.624,-908.288 6181.888,-896.0 Q 6193.152,-883.712 6215.68,-883.712 Q 6225.92,-883.712 6235.136,-885.76 Q 6213.6320000000005,-899.072 6200.832,-919.552 Q 6188.032,-940.032 6188.032,-966.6560000000001 Q 6178.816,-956.416 6174.72,-945.664 Q 6170.624000000001,-934.912 6170.624000000001,-924.672 M 6545.408,-867.328 Q 6507.52,-867.328 6477.312,-891.904 Q 6447.104,-916.48 6447.104,-966.6560000000001 Q 6447.104,-1008.6400000000001 6466.048,-1055.744 Q 6484.992,-1102.848 6516.224,-1144.32 Q 6547.456,-1185.792 6585.856,-1211.904 Q 6624.255999999999,-1238.016 6663.168000000001,-1238.016 Q 6682.624000000001,-1238.016 6701.0560000000005,-1226.752 Q 6719.488,-1215.488 6719.488,-1187.84 Q 6719.488,-1162.24 6700.032,-1131.52 Q 6680.576,-1100.8 6644.736,-1074.176 Q 6629.376,-1062.912 6605.8240000000005,-1052.672 Q 6582.272000000001,-1042.432 6558.72,-1035.776 Q 6535.168000000001,-1029.1200000000001 6519.808,-1029.1200000000001 Q 6514.688,-1016.8320000000001 6510.08,-996.352 Q 6505.472,-975.872 6505.472,-954.368 Q 6505.472,-928.768 6515.712,-908.288 Q 6525.952,-887.808 6553.6,-887.808 Q 6587.392000000001,-887.808 6616.576,-907.264 Q 6645.76,-926.72 6668.8,-956.416 Q 6691.84,-986.1120000000001 6708.224,-1016.832 Q 6724.608,-1047.552 6733.8240000000005,-1069.056 Q 6746.112,-1069.056 6746.112,-1059.84 Q 6732.8,-1031.168 6715.904,-997.376 Q 6699.008000000001,-963.584 6675.968,-934.4 Q 6652.928,-905.216 6620.6720000000005,-886.272 Q 6588.416,-867.3280000000001 6545.408,-867.3280000000001 M 6526.976000000001,-1047.5520000000001 Q 6541.312000000001,-1047.5520000000001 6575.104,-1058.304 Q 6608.896000000001,-1069.056 6636.544,-1092.608 Q 6663.168,-1116.1599999999999 6677.504,-1144.32 Q 6691.84,-1172.48 6691.84,-1191.936 Q 6691.84,-1214.464 6675.456,-1214.464 Q 6663.168000000001,-1214.464 6641.664,-1198.08 Q 6620.16,-1181.696 6588.416,-1142.784 Q 6568.96,-1118.208 6551.552000000001,-1089.536 Q 6534.144,-1060.864 6526.976000000001,-1047.5520000000001 M 6956.032,-868.352 Q 6932.4800000000005,-868.352 6914.56,-881.664 Q 6896.64,-894.976 6896.64,-935.936 Q 6896.64,-953.344 6899.2,-968.7040000000001 Q 6901.76,-984.0640000000001 6905.856,-1001.472 Q 6896.639999999999,-986.112 6880.256,-963.5840000000001 Q 6863.872,-941.056 6843.904,-919.552 Q 6823.936000000001,-898.048 6802.944,-883.712 Q 6781.952,-869.376 6763.52,-869.376 Q 6736.896000000001,-869.376 6720.512,-893.44 Q 6704.128,-917.504 6704.128,-956.416 Q 6704.128,-998.4000000000001 6723.584,-1046.528 Q 6743.04,-1094.656 6776.832,-1138.688 Q 6810.624000000001,-1182.72 6854.656,-1210.368 Q 6898.688,-1238.0159999999998 6946.816,-1238.016 Q 6970.3679999999995,-1238.016 6991.872,-1230.336 Q 7013.376,-1222.656 7029.76,-1205.248 Q 7036.928,-1198.0800000000002 7036.928,-1188.864 Q 7036.928,-1182.72 7031.808,-1178.624 Q 7026.688,-1174.528 7018.496,-1176.576 Q 7007.232,-1212.416 6970.368,-1212.416 Q 6952.96,-1212.416 6930.432,-1201.152 Q 6902.784,-1186.816 6871.552000000001,-1155.584 Q 6840.320000000001,-1124.352 6813.184,-1084.928 Q 6786.048,-1045.5040000000001 6768.64,-1005.568 Q 6751.232,-965.632 6751.232,-932.864 Q 6751.232,-899.072 6776.832,-899.072 Q 6799.360000000001,-899.072 6823.424,-920.576 Q 6847.488,-942.08 6869.504,-974.336 Q 6891.5199999999995,-1006.592 6909.952,-1038.336 Q 6928.384,-1070.08 6938.624,-1089.536 Q 6953.9839999999995,-1117.184 6967.296,-1135.616 Q 6980.608,-1154.048 7005.184,-1154.048 Q 7016.448,-1154.048 7027.712,-1150.976 Q 7038.976000000001,-1147.9040000000002 7051.264,-1149.952 Q 7020.544,-1119.232 6997.504,-1077.248 Q 6974.464,-1035.2640000000001 6962.176,-994.816 Q 6949.888000000001,-954.368 6949.888,-926.72 Q 6949.888,-896.0 6970.368,-896.0 Q 6986.752,-896.0 7005.696,-914.432 Q 7024.64,-932.864 7042.56,-961.024 Q 7060.4800000000005,-989.184 7075.84,-1018.368 Q 7091.2,-1047.5520000000001 7100.416,-1069.056 Q 7105.536,-1069.056 7109.12,-1068.032 Q 7112.704,-1067.008 7112.704,-1059.84 Q 7111.679999999999,-1055.744 7109.12,-1051.136 Q 7106.5599999999995,-1046.528 7101.4400000000005,-1035.2640000000001 Q 7093.2480000000005,-1018.8800000000001 7078.912,-991.232 Q 7064.576,-963.584 7045.12,-935.424 Q 7025.664,-907.264 7003.136,-887.808 Q 6980.608,-868.352 6956.032,-868.352 M 7101.4400000000005,-1072.128 Q 7109.6320000000005,-1089.5359999999998 7122.944,-1127.936 Q 7136.256,-1166.336 7150.592000000001,-1213.44 Q 7164.928000000001,-1260.544 7172.0960000000005,-1302.528 Q 7175.168000000001,-1318.912 7183.360000000001,-1326.592 Q 7191.552000000001,-1334.2720000000002 7200.768,-1334.272 Q 7214.08,-1334.272 7225.344,-1321.472 Q 7236.608,-1308.672 7236.608,-1285.1200000000001 Q 7236.608,-1256.448 7219.712,-1235.968 Q 7202.816000000001,-1215.488 7178.24,-1197.056 Q 7188.48,-1196.0320000000002 7199.744000000001,-1195.52 Q 7211.008000000001,-1195.008 7224.32,-1195.008 Q 7272.447999999999,-1195.008 7319.552000000001,-1201.152 Q 7321.6,-1195.008 7321.6,-1191.936 Q 7321.6,-1178.624 7313.92,-1158.144 Q 7306.24,-1137.664 7298.048,-1121.28 Q 7293.952,-1112.064 7281.664,-1088.0 Q 7269.376,-1063.936 7255.04,-1033.728 Q 7240.704,-1003.5200000000001 7230.976000000001,-974.336 Q 7221.2480000000005,-945.152 7221.2480000000005,-924.672 Q 7221.2480000000005,-898.048 7241.728,-898.048 Q 7261.184,-898.048 7296.0,-943.616 Q 7330.816,-989.184 7365.6320000000005,-1069.056 Q 7377.92,-1069.056 7377.92,-1059.84 Q 7366.656,-1032.192 7349.76,-999.424 Q 7332.8640000000005,-966.656 7312.384,-937.472 Q 7291.904,-908.288 7268.352,-889.344 Q 7244.8,-870.4000000000001 7219.2,-870.4 Q 7199.744,-870.4 7180.2880000000005,-886.272 Q 7160.832,-902.144 7160.832,-937.984 Q 7160.832,-969.7280000000001 7173.12,-999.936 Q 7185.407999999999,-1030.144 7200.768,-1056.768 Q 7216.128,-1083.392 7228.416,-1103.872 Q 7240.704,-1124.352 7240.704,-1136.64 Q 7240.704,-1155.0720000000001 7217.664,-1163.2640000000001 Q 7194.624,-1171.4560000000001 7157.76,-1172.48 Q 7139.328,-1125.376 7130.112,-1102.848 Q 7120.896,-1080.32 7112.704,-1059.84 Q 7096.32,-1059.84 7101.44,-1072.128 M 7453.696,-867.328 Q 7397.376,-867.328 7370.24,-897.024 Q 7343.103999999999,-926.72 7343.104,-976.8960000000001 Q 7343.104,-1000.4480000000001 7352.32,-1031.1680000000001 Q 7361.536,-1061.8880000000001 7376.896,-1093.632 Q 7392.255999999999,-1125.376 7410.688,-1149.952 Q 7440.384,-1189.888 7476.224,-1211.904 Q 7512.064,-1233.92 7548.928,-1233.92 Q 7587.84,-1233.92 7604.736,-1217.0240000000001 Q 7621.632,-1200.1280000000002 7621.6320000000005,-1177.6000000000001 Q 7621.6320000000005,-1156.0960000000002 7611.392,-1139.2 Q 7601.152,-1122.304 7588.352,-1112.064 Q 7575.552,-1101.824 7566.336,-1101.824 Q 7558.144,-1101.824 7552.0,-1107.968 Q 7560.192,-1118.208 7569.408,-1132.544 Q 7578.624000000001,-1146.88 7582.72,-1160.192 Q 7586.816,-1172.48 7586.816,-1184.768 Q 7586.816,-1211.392 7562.24,-1211.392 Q 7532.544,-1211.392 7504.384,-1186.816 Q 7476.224,-1162.24 7453.184,-1123.84 Q 7430.144,-1085.4399999999998 7416.32,-1042.944 Q 7402.496,-1000.448 7402.496,-964.6080000000001 Q 7402.496,-931.84 7416.32,-910.336 Q 7430.143999999999,-888.832 7461.888,-888.832 Q 7503.872,-888.832 7535.616,-915.9680000000001 Q 7567.36,-943.104 7591.936000000001,-984.576 Q 7616.512000000001,-1026.048 7634.944,-1069.056 Q 7639.04,-1069.056 7643.136,-1067.52 Q 7647.232,-1065.984 7647.232,-1059.84 Q 7626.752,-1008.6399999999999 7599.104,-964.6080000000001 Q 7571.456,-920.576 7536.128000000001,-893.952 Q 7500.8,-867.328 7453.696000000001,-867.328 M 7535.616,-863.232 Q 7578.624,-951.2959999999999 7625.216,-1048.064 Q 7671.808,-1144.832 7720.96,-1243.136 Q 7770.112,-1341.44 7818.24,-1430.528 Q 7835.648,-1461.248 7850.496,-1478.656 Q 7865.344,-1496.0639999999999 7889.92,-1496.064 Q 7899.136,-1496.064 7911.424,-1492.992 Q 7923.7119999999995,-1489.92 7934.976000000001,-1491.968 Q 7921.664000000001,-1477.632 7898.624,-1441.792 Q 7875.584,-1405.952 7847.424,-1355.776 Q 7819.264,-1305.6000000000001 7788.032,-1247.744 Q 7756.8,-1189.888 7726.592000000001,-1131.008 Q 7696.384000000001,-1072.128 7670.784000000001,-1020.928 Q 7691.264,-1047.552 7712.768,-1071.104 Q 7734.272,-1094.656 7754.752,-1112.064 Q 7777.280000000001,-1132.544 7811.584,-1155.0720000000001 Q 7845.888,-1177.6000000000001 7880.192,-1193.984 Q 7914.496,-1210.368 7934.976000000001,-1210.368 Q 7942.144,-1210.368 7945.216,-1209.344 Q 7945.216,-1209.344 7933.952,-1188.864 Q 7922.688,-1168.384 7905.792,-1136.64 Q 7888.896000000001,-1104.8960000000002 7870.976000000001,-1068.032 Q 7853.0560000000005,-1031.168 7839.744000000001,-997.888 Q 7826.432000000001,-964.6080000000001 7822.336,-943.104 Q 7819.264,-926.72 7819.264,-915.456 Q 7819.264,-899.072 7825.408,-893.44 Q 7831.552000000001,-887.8080000000001 7838.72,-887.808 Q 7856.128000000001,-887.808 7876.0960000000005,-905.7280000000001 Q 7896.064,-923.648 7915.52,-951.296 Q 7934.976000000001,-978.9440000000001 7951.872,-1010.176 Q 7968.768,-1041.4080000000001 7979.008,-1069.056 Q 7991.295999999999,-1069.056 7991.296,-1059.84 Q 7980.032,-1032.192 7963.136,-998.912 Q 7946.240000000001,-965.6320000000001 7924.736,-935.936 Q 7903.232,-906.24 7877.6320000000005,-886.784 Q 7852.032,-867.328 7823.360000000001,-867.328 Q 7802.880000000001,-867.328 7781.376,-881.664 Q 7759.872,-896.0 7759.872,-933.888 Q 7759.872,-945.152 7761.92,-957.952 Q 7763.968,-970.752 7769.088,-987.136 Q 7775.232,-1007.616 7789.568,-1032.704 Q 7803.904,-1057.792 7826.432,-1095.68 Q 7836.672,-1113.088 7836.6720000000005,-1123.328 Q 7836.6720000000005,-1135.616 7824.384,-1135.616 Q 7814.144,-1135.616 7796.736,-1125.376 Q 7779.3279999999995,-1115.136 7752.704,-1089.536 Q 7727.103999999999,-1064.96 7689.216,-1017.856 Q 7651.328,-970.752 7608.32,-885.76 Q 7601.152,-872.448 7592.448,-871.936 Q 7583.744000000001,-871.4240000000001 7569.408,-870.4 Q 7560.192,-869.376 7550.976000000001,-868.864 Q 7541.76,-868.3520000000001 7535.616000000001,-863.2320000000001 M 8911.872,-552.96 Q 8901.632,-552.96 8898.56,-556.544 Q 8895.488,-560.1279999999999 8895.488,-564.224 Q 8913.92,-567.296 8931.328,-591.36 Q 8948.735999999999,-615.424 8948.736,-647.168 Q 8948.736,-697.344 8915.968,-743.936 Q 8883.2,-790.528 8823.808,-829.44 Q 8764.416000000001,-868.3520000000001 8685.056,-896.5120000000001 Q 8605.696,-924.672 8511.488,-937.984 Q 8476.671999999999,-888.832 8433.152,-847.36 Q 8389.632,-805.888 8336.896,-780.8000000000001 Q 8284.16,-755.7120000000001 8222.72,-755.712 Q 8158.208,-755.712 8124.416,-785.408 Q 8090.624,-815.104 8090.624,-854.016 Q 8090.624,-889.856 8119.808,-926.208 Q 8148.992,-962.56 8208.896,-986.624 Q 8268.800000000001,-1010.688 8360.960000000001,-1010.688 Q 8431.616000000002,-1010.688 8504.32,-998.4 Q 8529.92,-1043.456 8550.4,-1088.512 Q 8570.88,-1133.568 8586.24,-1173.5040000000001 Q 8484.864,-1177.6000000000001 8426.496000000001,-1204.736 Q 8368.128,-1231.872 8343.552,-1272.832 Q 8318.976,-1313.7920000000001 8318.976,-1356.8 Q 8318.976,-1411.072 8351.744,-1459.712 Q 8384.512,-1508.352 8440.832,-1539.0720000000001 Q 8497.152,-1569.7920000000001 8566.784,-1569.7920000000001 Q 8574.975999999999,-1569.7920000000001 8577.024,-1563.6480000000001 Q 8579.072,-1557.5040000000001 8579.072,-1553.4080000000001 Q 8540.16,-1553.4080000000001 8503.808,-1536.0 Q 8467.456,-1518.592 8438.784,-1489.4080000000001 Q 8410.112,-1460.2240000000002 8393.216,-1424.384 Q 8376.32,-1388.544 8376.32,-1350.656 Q 8376.32,-1313.792 8395.776,-1278.464 Q 8415.232,-1243.136 8462.336,-1219.584 Q 8509.439999999999,-1196.0320000000002 8594.432,-1193.984 Q 8603.648000000001,-1217.5359999999998 8610.304,-1237.5040000000001 Q 8616.960000000001,-1257.4720000000002 8622.08,-1271.808 Q 8646.655999999999,-1345.536 8674.816,-1418.24 Q 8702.976,-1490.944 8739.328,-1550.336 Q 8775.68,-1609.728 8825.856,-1645.568 Q 8876.032,-1681.408 8945.664,-1681.4080000000001 Q 8990.720000000001,-1681.4080000000001 9015.808,-1655.808 Q 9040.896,-1630.208 9040.896,-1585.152 Q 9040.896,-1541.1200000000001 9020.416000000001,-1488.384 Q 8999.936000000002,-1435.648 8963.072,-1383.424 Q 8926.208,-1331.2 8876.032000000001,-1286.144 Q 8825.856000000002,-1241.088 8766.464,-1211.392 Q 8707.072,-1181.6960000000001 8641.536,-1174.528 Q 8626.176,-1141.76 8602.624,-1092.096 Q 8579.072,-1042.432 8546.304,-990.208 Q 8635.392,-969.728 8714.752,-934.912 Q 8794.112000000001,-900.096 8855.04,-855.552 Q 8915.968,-811.008 8950.784,-760.32 Q 8985.6,-709.6320000000001 8985.6,-659.456 Q 8985.6,-614.4 8963.072,-583.6800000000001 Q 8940.544,-552.96 8911.872,-552.96 M 8945.664,-1629.184 Q 8901.632000000001,-1629.184 8862.72,-1590.784 Q 8823.807999999999,-1552.384 8788.48,-1489.4080000000001 Q 8753.152,-1426.4320000000002 8719.36,-1349.632 Q 8685.568000000001,-1272.832 8651.776,-1197.056 Q 8712.192,-1205.248 8764.416000000001,-1233.92 Q 8816.640000000001,-1262.592 8859.648000000001,-1304.064 Q 8902.656,-1345.536 8933.376,-1392.64 Q 8964.096,-1439.7440000000001 8980.48,-1485.3120000000001 Q 8996.864,-1530.88 8996.864,-1566.72 Q 8996.864,-1595.392 8984.576000000001,-1612.288 Q 8972.288,-1629.184 8945.664,-1629.184 M 8116.224,-839.6800000000001 Q 8116.224,-814.08 8143.872,-795.136 Q 8171.52,-776.192 8222.72,-776.192 Q 8298.496,-776.192 8359.936,-824.832 Q 8421.376,-873.472 8469.504,-943.104 Q 8415.232,-948.224 8360.960000000001,-948.224 Q 8276.992,-948.224 8222.72,-931.328 Q 8168.447999999999,-914.432 8142.336,-889.344 Q 8116.224,-864.2560000000001 8116.224,-839.6800000000001 M 9109.504,-868.352 Q 9085.952000000001,-868.352 9068.032000000001,-881.664 Q 9050.112000000001,-894.976 9050.112000000001,-935.936 Q 9050.112000000001,-953.344 9052.672,-968.7040000000001 Q 9055.232,-984.0640000000001 9059.328,-1001.472 Q 9050.112,-986.112 9033.728000000001,-963.5840000000001 Q 9017.344000000001,-941.056 8997.376,-919.552 Q 8977.408,-898.048 8956.416000000001,-883.712 Q 8935.424,-869.376 8916.992,-869.376 Q 8890.368,-869.376 8873.984,-893.44 Q 8857.6,-917.504 8857.6,-956.416 Q 8857.6,-998.4000000000001 8877.056,-1046.528 Q 8896.512,-1094.656 8930.304,-1138.688 Q 8964.096,-1182.72 9008.128,-1210.368 Q 9052.16,-1238.0159999999998 9100.288,-1238.016 Q 9123.84,-1238.016 9145.344000000001,-1230.336 Q 9166.848000000002,-1222.656 9183.232,-1205.248 Q 9190.4,-1198.0800000000002 9190.4,-1188.864 Q 9190.4,-1182.72 9185.28,-1178.624 Q 9180.16,-1174.528 9171.968,-1176.576 Q 9160.704000000002,-1212.416 9123.84,-1212.416 Q 9106.432,-1212.416 9083.904,-1201.152 Q 9056.256000000001,-1186.816 9025.024,-1155.584 Q 8993.792,-1124.352 8966.656,-1084.928 Q 8939.52,-1045.5040000000001 8922.112000000001,-1005.568 Q 8904.704000000002,-965.632 8904.704,-932.864 Q 8904.704,-899.072 8930.304,-899.072 Q 8952.832,-899.072 8976.896,-920.576 Q 9000.960000000001,-942.08 9022.976,-974.336 Q 9044.992,-1006.592 9063.424,-1038.336 Q 9081.856000000002,-1070.08 9092.096,-1089.536 Q 9107.456,-1117.184 9120.768,-1135.616 Q 9134.08,-1154.048 9158.656,-1154.048 Q 9169.92,-1154.048 9181.184,-1150.976 Q 9192.447999999999,-1147.9040000000002 9204.736,-1149.952 Q 9174.016000000001,-1119.232 9150.976,-1077.248 Q 9127.936,-1035.2640000000001 9115.648000000001,-994.816 Q 9103.36,-954.368 9103.36,-926.72 Q 9103.36,-896.0 9123.84,-896.0 Q 9140.224,-896.0 9159.168,-914.432 Q 9178.112,-932.864 9196.032000000001,-961.024 Q 9213.952000000001,-989.184 9229.312,-1018.368 Q 9244.672,-1047.5520000000001 9253.888,-1069.056 Q 9259.008000000002,-1069.056 9262.592,-1068.032 Q 9266.176000000001,-1067.008 9266.176,-1059.84 Q 9265.152,-1055.744 9262.592,-1051.136 Q 9260.032000000001,-1046.528 9254.912,-1035.2640000000001 Q 9246.720000000001,-1018.8800000000001 9232.384,-991.232 Q 9218.048,-963.584 9198.592,-935.424 Q 9179.136,-907.264 9156.608,-887.808 Q 9134.08,-868.352 9109.504,-868.352 M 9316.352,-866.304 Q 9274.368,-866.304 9256.960000000001,-891.904 Q 9239.552000000001,-917.504 9239.552,-954.368 Q 9239.552,-979.9680000000001 9245.184,-1002.496 Q 9250.815999999999,-1025.024 9262.08,-1053.696 L 9260.032000000001,-1053.696 Q 9251.840000000002,-1053.696 9251.84,-1061.888 Q 9251.84,-1065.984 9260.544,-1085.44 Q 9269.248,-1104.896 9283.072,-1132.544 Q 9296.896,-1160.192 9311.744,-1188.864 Q 9326.592,-1217.536 9338.880000000001,-1240.064 Q 9359.36,-1277.952 9383.936,-1318.4 Q 9408.511999999999,-1358.8480000000002 9432.576000000001,-1395.712 Q 9456.640000000001,-1432.576 9473.024,-1456.128 Q 9509.887999999999,-1507.328 9541.632,-1507.328 L 9546.752,-1507.328 Q 9555.968,-1507.328 9567.744,-1504.256 Q 9579.52,-1501.1840000000002 9589.76,-1503.232 Q 9574.4,-1486.848 9543.168,-1444.352 Q 9511.936,-1401.856 9475.072,-1347.584 Q 9459.712,-1325.056 9436.672,-1287.1680000000001 Q 9413.632,-1249.2800000000002 9388.032000000001,-1202.176 Q 9362.432,-1155.072 9340.416000000001,-1106.432 Q 9318.400000000001,-1057.792 9304.064,-1012.224 Q 9289.728000000001,-966.6560000000001 9289.728000000001,-930.816 Q 9289.728000000001,-907.264 9297.92,-898.048 Q 9306.112,-888.832 9318.4,-888.832 Q 9333.76,-888.832 9354.752,-906.7520000000001 Q 9375.744,-924.672 9397.76,-953.856 Q 9419.776,-983.04 9438.208,-1018.368 Q 9456.640000000001,-1053.6960000000001 9468.416000000001,-1090.048 Q 9480.192000000001,-1126.4 9480.192000000001,-1157.1200000000001 Q 9480.192000000001,-1186.816 9469.44,-1200.128 Q 9458.688,-1213.4399999999998 9441.28,-1213.44 Q 9434.112000000001,-1213.44 9426.944,-1209.856 Q 9419.776,-1206.272 9414.656,-1206.272 Q 9409.536,-1206.272 9409.536,-1211.392 Q 9409.536,-1216.512 9420.288,-1222.656 Q 9431.04,-1228.8 9452.544,-1228.8 Q 9472.0,-1228.8 9491.968,-1218.56 Q 9511.936000000002,-1208.32 9525.248,-1185.28 Q 9538.56,-1162.24 9538.56,-1125.376 Q 9538.56,-1081.344 9518.08,-1035.776 Q 9497.6,-990.2080000000001 9464.832,-951.808 Q 9432.064,-913.408 9392.64,-889.856 Q 9353.215999999999,-866.304 9316.351999999999,-866.304" fill="none" stroke="black" stroke-linecap="round" stroke-linejoin="round" stroke-width="8" /></svg>