<?xml version="1.0" encoding="utf-8" ?>
<svg baseProfile="full" height="200px" version="1.1" viewBox="0 0 9602 200" width="9602px" xmlns="http://www.w3.org/2000/svg" xmlns:ev="http://www.w3.org/2001/xml-events" xmlns:xlink="http://www.w3.org/1999/xlink"><defs><style type="text/css"><![CDATA[#p0{animation:anim0 0.8s ease 0.0s forwards}
@keyframes anim0{to{stroke-dashoffset:0}}
#p1{animation:anim1 0.8s ease 1.0s forwards}
@keyframes anim1{to{stroke-dashoffset:0}}
#p2{animation:anim2 0.8s ease 2.0s forwards}
@keyframes anim2{to{stroke-dashoffset:0}}
#p3{animation:anim3 0.8s ease 3.0s forwards}
@keyframes anim3{to{stroke-dashoffset:0}}
#p4{animation:anim4 0.8s ease 4.0s forwards}
@keyframes anim4{to{stroke-dashoffset:0}}
#p5{animation:anim5 0.8s ease 5.0s forwards}
@keyframes anim5{to{stroke-dashoffset:0}}
#p6{animation:anim6 0.8s ease 6.0s forwards}
@keyframes anim6{to{stroke-dashoffset:0}}
#p7{animation:anim7 0.8s ease 7.0s forwards}
@keyframes anim7{to{stroke-dashoffset:0}}
#p8{animation:anim8 0.8s ease 8.0s forwards}
@keyframes anim8{to{stroke-dashoffset:0}}
#p9{animation:anim9 0.8s ease 9.0s forwards}
@keyframes anim9{to{stroke-dashoffset:0}}
#p10{animation:anim10 0.8s ease 10.0s forwards}
@keyframes anim10{to{stroke-dashoffset:0}}
#p11{animation:anim11 0.8s ease 11.0s forwards}
@keyframes anim11{to{stroke-dashoffset:0}}
#p12{animation:anim12 0.8s ease 12.0s forwards}
@keyframes anim12{to{stroke-dashoffset:0}}
#p13{animation:anim13 0.8s ease 13.0s forwards}
@keyframes anim13{to{stroke-dashoffset:0}}
#p14{animation:anim14 0.8s ease 14.0s forwards}
@keyframes anim14{to{stroke-dashoffset:0}}
#p15{animation:anim15 0.8s ease 15.0s forwards}
@keyframes anim15{to{stroke-dashoffset:0}}
#p16{animation:anim16 0.8s ease 16.0s forwards}
@keyframes anim16{to{stroke-dashoffset:0}}
#p17{animation:anim17 0.8s ease 17.0s forwards}
@keyframes anim17{to{stroke-dashoffset:0}}
#p18{animation:anim18 0.8s ease 18.0s forwards}
@keyframes anim18{to{stroke-dashoffset:0}}
#p19{animation:anim19 0.8s ease 19.0s forwards}
@keyframes anim19{to{stroke-dashoffset:0}}]]></style></defs><path d="M 1365.0,-115.0 Q 1350.0,-113.0 1324.0,-107.5 Q 1298.0,-102.0 1271.0,-86.0 Q 1244.0,-70.0 1225.0,-37.5 Q 1206.0,-5.0 1206.0,49.0 Q 1206.0,111.0 1231.5,185.5 Q 1257.0,260.0 1294.0,341.0 Q 1331.0,422.0 1365.0,501.0 Q 1392.0,564.0 1392.0,597.0 Q 1392.0,630.0 1367.0,630.0 Q 1339.0,630.0 1283.5,585.5 Q 1228.0,541.0 1155.0,451.0 Q 1136.0,427.0 1106.0,384.5 Q 1076.0,342.0 1042.0,290.5 Q 1008.0,239.0 975.5,186.5 Q 943.0,134.0 918.5,90.0 Q 894.0,46.0 883.0,20.0 Q 870.0,-11.0 853.0,-22.5 Q 836.0,-34.0 821.0,-34.0 Q 808.0,-34.0 799.0,-27.0 Q 789.0,-20.0 789.0,-10.0 Q 789.0,-4.0 792.0,0.0 Q 798.0,12.0 822.0,55.0 Q 846.0,98.0 878.0,169.0 Q 910.0,240.0 939.0,334.0 Q 948.0,363.0 957.5,401.0 Q 967.0,439.0 975.0,479.5 Q 983.0,520.0 988.5,555.5 Q 994.0,591.0 994.0,613.0 Q 994.0,648.0 982.0,664.5 Q 970.0,681.0 950.0,681.0 Q 928.0,681.0 900.0,662.0 Q 872.0,643.0 843.0,607.0 Q 793.0,544.0 755.0,490.5 Q 717.0,437.0 685.5,384.0 Q 654.0,331.0 623.5,271.0 Q 593.0,211.0 559.0,136.5 Q 525.0,62.0 481.0,-36.0 Q 474.0,-52.0 457.5,-59.0 Q 441.0,-66.0 427.0,-66.0 Q 413.0,-66.0 404.0,-60.0 Q 395.0,-54.0 398.0,-43.0 Q 420.0,-8.0 447.0,44.5 Q 474.0,97.0 502.0,161.0 Q 530.0,225.0 556.0,294.0 Q 582.0,363.0 602.5,429.0 Q 623.0,495.0 635.0,553.0 Q 647.0,611.0 647.0,652.0 Q 647.0,729.0 614.5,762.0 Q 582.0,795.0 531.0,795.0 Q 486.0,795.0 432.0,773.0 Q 378.0,751.0 323.5,713.0 Q 269.0,675.0 221.0,627.0 Q 152.0,558.0 112.5,477.0 Q 73.0,396.0 73.0,313.0 Q 73.0,257.0 94.0,218.0 Q 115.0,179.0 149.5,159.0 Q 184.0,139.0 226.0,139.0 Q 269.0,139.0 306.5,160.5 Q 344.0,182.0 372.5,216.5 Q 401.0,251.0 417.0,289.5 Q 433.0,328.0 433.0,362.0 Q 433.0,391.0 417.0,410.0 Q 401.0,429.0 366.0,429.0 Q 362.0,429.0 357.5,428.5 Q 353.0,428.0 348.0,428.0 L 345.0,428.0 Q 338.0,428.0 332.0,430.5 Q 326.0,433.0 326.0,437.0 Q 326.0,441.0 336.5,446.0 Q 347.0,451.0 375.0,451.0 Q 420.0,451.0 442.5,424.5 Q 465.0,398.0 465.0,357.0 Q 465.0,317.0 444.5,275.0 Q 424.0,233.0 389.0,197.0 Q 354.0,161.0 310.5,139.0 Q 267.0,117.0 221.0,117.0 Q 167.0,117.0 120.5,142.0 Q 74.0,167.0 46.0,214.5 Q 18.0,262.0 18.0,328.0 Q 18.0,391.0 44.0,452.5 Q 70.0,514.0 111.5,568.5 Q 153.0,623.0 200.0,665.0 Q 252.0,712.0 310.0,745.5 Q 368.0,779.0 425.5,797.5 Q 483.0,816.0 533.0,816.0 Q 607.0,816.0 655.5,772.0 Q 704.0,728.0 704.0,630.0 Q 704.0,590.0 693.0,538.5 Q 682.0,487.0 667.0,435.5 Q 652.0,384.0 638.0,344.0 L 640.0,344.0 Q 676.0,409.0 704.5,455.5 Q 733.0,502.0 762.0,542.0 Q 791.0,582.0 827.0,626.0 Q 858.0,663.0 898.0,685.0 Q 938.0,707.0 975.0,707.0 Q 1008.0,707.0 1031.0,685.0 Q 1054.0,663.0 1054.0,610.0 Q 1054.0,604.0 1054.0,600.0 Q 1054.0,596.0 1053.0,588.0 Q 1044.0,492.0 1015.0,399.5 Q 986.0,307.0 955.0,213.0 Q 986.0,261.0 1039.0,335.0 Q 1092.0,409.0 1155.0,488.0 Q 1232.0,584.0 1298.0,632.0 Q 1364.0,680.0 1407.0,680.0 Q 1461.0,680.0 1461.0,614.0 Q 1461.0,589.0 1451.5,554.0 Q 1442.0,519.0 1422.0,480.0 Q 1400.0,436.0 1373.5,378.5 Q 1347.0,321.0 1323.0,258.0 Q 1299.0,195.0 1283.5,134.5 Q 1268.0,74.0 1268.0,23.0 Q 1268.0,-32.0 1293.5,-65.5 Q 1319.0,-99.0 1382.0,-99.0 L 1388.0,-99.0 Q 1403.0,-99.0 1403.0,-105.0 Q 1403.0,-109.0 1393.0,-113.0 Q 1383.0,-117.0 1365.0,-115.0" fill="none" id="p0" stroke="#5d4037" stroke-dasharray="10924.30 10924.30" stroke-dashoffset="10924.30" stroke-linecap="round" stroke-linejoin="round" stroke-width="2" /><path d="M 1612.0,-3.0 Q 1589.0,-3.0 1571.5,10.0 Q 1554.0,23.0 1554.0,63.0 Q 1554.0,80.0 1556.5,95.0 Q 1559.0,110.0 1563.0,127.0 Q 1554.0,112.0 1538.0,90.0 Q 1522.0,68.0 1502.5,47.0 Q 1483.0,26.0 1462.5,12.0 Q 1442.0,-2.0 1424.0,-2.0 Q 1398.0,-2.0 1382.0,21.5 Q 1366.0,45.0 1366.0,83.0 Q 1366.0,124.0 1385.0,171.0 Q 1404.0,218.0 1437.0,261.0 Q 1470.0,304.0 1513.0,331.0 Q 1556.0,358.0 1603.0,358.0 Q 1626.0,358.0 1647.0,350.5 Q 1668.0,343.0 1684.0,326.0 Q 1691.0,319.0 1691.0,310.0 Q 1691.0,304.0 1686.0,300.0 Q 1681.0,296.0 1673.0,298.0 Q 1662.0,333.0 1626.0,333.0 Q 1609.0,333.0 1587.0,322.0 Q 1560.0,308.0 1529.5,277.5 Q 1499.0,247.0 1472.5,208.5 Q 1446.0,170.0 1429.0,131.0 Q 1412.0,92.0 1412.0,60.0 Q 1412.0,27.0 1437.0,27.0 Q 1459.0,27.0 1482.5,48.0 Q 1506.0,69.0 1527.5,100.5 Q 1549.0,132.0 1567.0,163.0 Q 1585.0,194.0 1595.0,213.0 Q 1610.0,240.0 1623.0,258.0 Q 1636.0,276.0 1660.0,276.0 Q 1671.0,276.0 1682.0,273.0 Q 1693.0,270.0 1705.0,272.0 Q 1675.0,242.0 1652.5,201.0 Q 1630.0,160.0 1618.0,120.5 Q 1606.0,81.0 1606.0,54.0 Q 1606.0,24.0 1626.0,24.0 Q 1642.0,24.0 1660.5,42.0 Q 1679.0,60.0 1696.5,87.5 Q 1714.0,115.0 1729.0,143.5 Q 1744.0,172.0 1753.0,193.0 Q 1758.0,193.0 1761.5,192.0 Q 1765.0,191.0 1765.0,184.0 Q 1764.0,180.0 1761.5,175.5 Q 1759.0,171.0 1754.0,160.0 Q 1746.0,144.0 1732.0,117.0 Q 1718.0,90.0 1699.0,62.5 Q 1680.0,35.0 1658.0,16.0 Q 1636.0,-3.0 1612.0,-3.0" fill="none" id="p1" stroke="#5d4037" stroke-dasharray="2645.08 2645.08" stroke-dashoffset="2645.08" stroke-linecap="round" stroke-linejoin="round" stroke-width="2" /><path d="M 1754.0,196.0 Q 1762.0,213.0 1775.0,250.5 Q 1788.0,288.0 1802.0,334.0 Q 1816.0,380.0 1823.0,421.0 Q 1826.0,437.0 1834.0,444.5 Q 1842.0,452.0 1851.0,452.0 Q 1864.0,452.0 1875.0,439.5 Q 1886.0,427.0 1886.0,404.0 Q 1886.0,376.0 1869.5,356.0 Q 1853.0,336.0 1829.0,318.0 Q 1839.0,317.0 1850.0,316.5 Q 1861.0,316.0 1874.0,316.0 Q 1921.0,316.0 1967.0,322.0 Q 1969.0,316.0 1969.0,313.0 Q 1969.0,300.0 1961.5,280.0 Q 1954.0,260.0 1946.0,244.0 Q 1942.0,235.0 1930.0,211.5 Q 1918.0,188.0 1904.0,158.5 Q 1890.0,129.0 1880.5,100.5 Q 1871.0,72.0 1871.0,52.0 Q 1871.0,26.0 1891.0,26.0 Q 1910.0,26.0 1944.0,70.5 Q 1978.0,115.0 2012.0,193.0 Q 2024.0,193.0 2024.0,184.0 Q 2013.0,157.0 1996.5,125.0 Q 1980.0,93.0 1960.0,64.5 Q 1940.0,36.0 1917.0,17.5 Q 1894.0,-1.0 1869.0,-1.0 Q 1850.0,-1.0 1831.0,14.5 Q 1812.0,30.0 1812.0,65.0 Q 1812.0,96.0 1824.0,125.5 Q 1836.0,155.0 1851.0,181.0 Q 1866.0,207.0 1878.0,227.0 Q 1890.0,247.0 1890.0,259.0 Q 1890.0,277.0 1867.5,285.0 Q 1845.0,293.0 1809.0,294.0 Q 1791.0,248.0 1782.0,226.0 Q 1773.0,204.0 1765.0,184.0 Q 1749.0,184.0 1754.0,196.0" fill="none" id="p2" stroke="#5d4037" stroke-dasharray="1946.30 1946.30" stroke-dashoffset="1946.30" stroke-linecap="round" stroke-linejoin="round" stroke-width="2" /><path d="M 2186.0,-7.0 Q 2158.0,-4.0 2140.0,14.5 Q 2122.0,33.0 2114.0,58.0 Q 2106.0,83.0 2106.0,104.0 Q 2106.0,144.0 2124.0,168.5 Q 2142.0,193.0 2157.0,194.0 Q 2173.0,193.0 2196.0,201.5 Q 2219.0,210.0 2236.0,225.0 Q 2265.0,248.0 2265.0,272.0 Q 2265.0,297.0 2236.0,297.0 Q 2220.0,297.0 2195.5,286.0 Q 2171.0,275.0 2139.0,248.0 Q 2099.0,214.0 2056.0,157.0 Q 2050.0,144.0 2042.0,118.5 Q 2034.0,93.0 2028.5,66.0 Q 2023.0,39.0 2023.0,20.0 Q 2023.0,5.0 2028.0,0.0 L 1965.0,0.0 Q 1954.0,0.0 1954.0,9.0 Q 1954.0,12.0 1955.0,14.0 Q 1956.0,16.0 1957.0,22.0 Q 1971.0,74.0 1990.5,114.0 Q 2010.0,154.0 2023.0,184.0 Q 2014.0,181.0 2013.0,185.5 Q 2012.0,190.0 2012.0,193.0 Q 2019.0,209.0 2035.5,244.5 Q 2052.0,280.0 2074.5,326.5 Q 2097.0,373.0 2123.0,424.0 Q 2149.0,475.0 2175.0,522.0 Q 2201.0,570.0 2217.5,590.0 Q 2234.0,610.0 2258.0,610.0 Q 2267.0,610.0 2279.5,607.0 Q 2292.0,604.0 2302.0,606.0 Q 2280.0,587.0 2247.0,536.5 Q 2214.0,486.0 2177.0,419.0 Q 2140.0,352.0 2106.0,282.0 Q 2096.0,262.0 2087.0,240.0 Q 2078.0,218.0 2070.0,196.0 Q 2091.0,222.0 2118.0,250.0 Q 2145.0,278.0 2174.5,301.5 Q 2204.0,325.0 2233.0,336.0 Q 2266.0,348.0 2288.0,348.0 Q 2311.0,348.0 2321.5,337.0 Q 2332.0,326.0 2332.0,309.0 Q 2332.0,290.0 2317.0,263.5 Q 2302.0,237.0 2276.0,218.0 Q 2254.0,203.0 2230.0,192.0 Q 2206.0,181.0 2173.0,178.0 Q 2167.0,164.0 2164.5,149.5 Q 2162.0,135.0 2162.0,121.0 Q 2162.0,82.0 2180.0,52.5 Q 2198.0,23.0 2227.0,23.0 Q 2241.0,23.0 2257.5,31.0 Q 2274.0,39.0 2292.0,58.0 Q 2312.0,78.0 2332.0,113.5 Q 2352.0,149.0 2372.0,193.0 Q 2384.0,193.0 2384.0,184.0 Q 2348.0,97.0 2314.0,55.0 Q 2280.0,13.0 2248.5,1.5 Q 2217.0,-10.0 2186.0,-7.0" fill="none" id="p3" stroke="#5d4037" stroke-dasharray="3442.11 3442.11" stroke-dashoffset="3442.11" stroke-linecap="round" stroke-linejoin="round" stroke-width="2" /><path d="M 2432.0,0.0 Q 2391.0,0.0 2371.5,29.5 Q 2352.0,59.0 2352.0,101.0 Q 2352.0,140.0 2367.0,182.0 Q 2383.0,228.0 2411.5,266.0 Q 2440.0,304.0 2474.5,327.5 Q 2509.0,351.0 2543.0,351.0 Q 2584.0,351.0 2603.5,323.0 Q 2623.0,295.0 2623.0,252.0 Q 2623.0,222.0 2613.0,189.0 Q 2603.0,156.0 2586.0,124.0 Q 2599.0,111.0 2623.0,111.0 Q 2651.0,111.0 2671.0,129.0 Q 2691.0,147.0 2710.0,193.0 Q 2722.0,193.0 2722.0,184.0 Q 2703.0,138.0 2678.5,116.5 Q 2654.0,95.0 2616.0,96.0 Q 2593.0,96.0 2578.0,109.0 Q 2550.0,63.0 2511.5,31.5 Q 2473.0,0.0 2432.0,0.0 M 2446.0,22.0 Q 2469.0,22.0 2492.0,41.5 Q 2515.0,61.0 2534.0,86.0 Q 2553.0,111.0 2561.0,129.0 Q 2545.0,158.0 2542.5,172.5 Q 2540.0,187.0 2540.0,194.0 Q 2540.0,213.0 2550.0,223.0 Q 2560.0,233.0 2570.0,233.0 Q 2584.0,233.0 2594.0,221.0 Q 2596.0,232.0 2597.0,241.5 Q 2598.0,251.0 2598.0,260.0 Q 2598.0,286.0 2588.5,302.5 Q 2579.0,319.0 2559.0,319.0 Q 2538.0,319.0 2515.0,301.0 Q 2492.0,283.0 2471.5,253.0 Q 2451.0,223.0 2436.0,186.0 Q 2423.0,155.0 2416.0,127.5 Q 2409.0,100.0 2409.0,77.0 Q 2409.0,52.0 2418.0,37.0 Q 2427.0,22.0 2446.0,22.0" fill="none" id="p4" stroke="#5d4037" stroke-dasharray="2140.16 2140.16" stroke-dashoffset="2140.16" stroke-linecap="round" stroke-linejoin="round" stroke-width="2" /><path d="M 2991.0,-39.0 Q 2969.0,-39.0 2948.0,-36.0 Q 2885.0,-28.0 2855.5,1.0 Q 2826.0,30.0 2826.0,64.0 Q 2826.0,101.0 2859.5,131.0 Q 2893.0,161.0 2954.0,161.0 Q 2973.0,161.0 2994.5,157.5 Q 3016.0,154.0 3040.0,146.0 Q 3052.0,142.0 3052.0,135.0 Q 3052.0,131.0 3046.0,131.0 Q 3040.0,131.0 3036.0,133.0 Q 3020.0,139.0 3005.5,141.5 Q 2991.0,144.0 2978.0,144.0 Q 2935.0,144.0 2912.5,119.5 Q 2890.0,95.0 2890.0,66.0 Q 2890.0,38.0 2913.0,15.0 Q 2936.0,-8.0 2986.0,-8.0 Q 3049.0,-8.0 3102.5,21.0 Q 3156.0,50.0 3204.0,97.0 Q 3255.0,147.0 3297.0,217.5 Q 3339.0,288.0 3380.5,368.5 Q 3422.0,449.0 3471.0,531.0 Q 3520.0,613.0 3584.0,685.0 Q 3597.0,699.0 3610.5,714.5 Q 3624.0,730.0 3637.0,741.0 Q 3603.0,746.0 3567.0,748.5 Q 3531.0,751.0 3496.0,751.0 Q 3444.0,751.0 3397.5,746.5 Q 3351.0,742.0 3305.0,734.0 Q 3258.0,725.0 3200.0,706.0 Q 3142.0,687.0 3087.5,656.5 Q 3033.0,626.0 2994.5,583.0 Q 2956.0,540.0 2947.0,484.0 Q 2946.0,479.0 2945.5,473.5 Q 2945.0,468.0 2945.0,463.0 Q 2945.0,417.0 2976.5,387.0 Q 3008.0,357.0 3050.0,357.0 Q 3081.0,357.0 3110.0,373.5 Q 3139.0,390.0 3162.0,417.5 Q 3185.0,445.0 3196.0,478.0 Q 3197.0,488.0 3204.0,488.0 Q 3210.0,488.0 3210.0,477.0 Q 3209.0,433.0 3184.5,401.0 Q 3160.0,369.0 3123.0,352.5 Q 3086.0,336.0 3048.0,336.0 Q 3009.0,336.0 2974.0,352.5 Q 2939.0,369.0 2917.0,401.5 Q 2895.0,434.0 2895.0,482.0 Q 2895.0,538.0 2922.5,581.0 Q 2950.0,624.0 2996.0,656.5 Q 3042.0,689.0 3096.0,711.5 Q 3150.0,734.0 3204.0,747.5 Q 3258.0,761.0 3302.0,768.0 Q 3347.0,775.0 3395.5,779.0 Q 3444.0,783.0 3494.0,783.0 Q 3537.0,783.0 3580.0,779.0 Q 3623.0,775.0 3664.0,767.0 Q 3681.0,780.0 3699.0,790.0 Q 3717.0,800.0 3739.0,808.0 Q 3753.0,814.0 3760.0,814.0 Q 3766.0,814.0 3766.0,810.0 Q 3766.0,803.0 3750.0,793.0 Q 3742.0,789.0 3730.0,779.0 Q 3718.0,769.0 3704.0,756.0 Q 3769.0,740.0 3821.0,708.0 Q 3878.0,674.0 3902.5,636.0 Q 3927.0,598.0 3927.0,558.0 Q 3927.0,512.0 3899.0,466.5 Q 3871.0,421.0 3826.0,382.0 Q 3781.0,343.0 3727.0,314.5 Q 3673.0,286.0 3620.0,273.0 Q 3569.0,260.0 3517.0,254.0 Q 3465.0,248.0 3424.0,248.0 Q 3417.0,248.0 3409.5,248.0 Q 3402.0,248.0 3395.0,249.0 Q 3361.0,201.0 3325.0,155.5 Q 3289.0,110.0 3244.0,67.0 Q 3189.0,15.0 3124.0,-12.0 Q 3059.0,-39.0 2991.0,-39.0 M 3409.0,271.0 Q 3447.0,270.0 3494.0,277.0 Q 3541.0,284.0 3588.0,298.0 Q 3666.0,322.0 3728.5,367.0 Q 3791.0,412.0 3827.5,467.0 Q 3864.0,522.0 3864.0,575.0 Q 3864.0,607.0 3848.5,636.0 Q 3833.0,665.0 3798.0,688.0 Q 3775.0,703.0 3746.0,714.0 Q 3717.0,725.0 3685.0,732.0 Q 3634.0,660.0 3589.5,582.0 Q 3545.0,504.0 3501.5,425.0 Q 3458.0,346.0 3409.0,271.0" fill="none" id="p5" stroke="#5d4037" stroke-dasharray="7564.39 7564.39" stroke-dashoffset="7564.39" stroke-linecap="round" stroke-linejoin="round" stroke-width="2" /><path d="M 3866.0,0.0 Q 3825.0,0.0 3805.5,29.5 Q 3786.0,59.0 3786.0,101.0 Q 3786.0,140.0 3801.0,182.0 Q 3817.0,228.0 3845.5,266.0 Q 3874.0,304.0 3908.5,327.5 Q 3943.0,351.0 3977.0,351.0 Q 4018.0,351.0 4037.5,323.0 Q 4057.0,295.0 4057.0,252.0 Q 4057.0,222.0 4047.0,189.0 Q 4037.0,156.0 4020.0,124.0 Q 4033.0,111.0 4057.0,111.0 Q 4085.0,111.0 4105.0,129.0 Q 4125.0,147.0 4144.0,193.0 Q 4156.0,193.0 4156.0,184.0 Q 4137.0,138.0 4112.5,116.5 Q 4088.0,95.0 4050.0,96.0 Q 4027.0,96.0 4012.0,109.0 Q 3984.0,63.0 3945.5,31.5 Q 3907.0,0.0 3866.0,0.0 M 3880.0,22.0 Q 3903.0,22.0 3926.0,41.5 Q 3949.0,61.0 3968.0,86.0 Q 3987.0,111.0 3995.0,129.0 Q 3979.0,158.0 3976.5,172.5 Q 3974.0,187.0 3974.0,194.0 Q 3974.0,213.0 3984.0,223.0 Q 3994.0,233.0 4004.0,233.0 Q 4018.0,233.0 4028.0,221.0 Q 4030.0,232.0 4031.0,241.5 Q 4032.0,251.0 4032.0,260.0 Q 4032.0,286.0 4022.5,302.5 Q 4013.0,319.0 3993.0,319.0 Q 3972.0,319.0 3949.0,301.0 Q 3926.0,283.0 3905.5,253.0 Q 3885.0,223.0 3870.0,186.0 Q 3857.0,155.0 3850.0,127.5 Q 3843.0,100.0 3843.0,77.0 Q 3843.0,52.0 3852.0,37.0 Q 3861.0,22.0 3880.0,22.0" fill="none" id="p6" stroke="#5d4037" stroke-dasharray="2140.16 2140.16" stroke-dashoffset="2140.16" stroke-linecap="round" stroke-linejoin="round" stroke-width="2" /><path d="M 4191.0,-3.0 Q 4154.0,-3.0 4136.5,19.5 Q 4119.0,42.0 4119.0,73.0 Q 4119.0,105.0 4128.0,139.0 Q 4137.0,173.0 4144.0,196.0 Q 4160.0,252.0 4184.5,315.5 Q 4209.0,379.0 4238.5,440.5 Q 4268.0,502.0 4297.0,551.0 Q 4320.0,590.0 4346.5,609.5 Q 4373.0,629.0 4393.0,629.0 Q 4409.0,629.0 4418.5,617.5 Q 4428.0,606.0 4428.0,583.0 Q 4428.0,567.0 4422.5,545.0 Q 4417.0,523.0 4404.0,495.0 Q 4369.0,417.0 4320.5,339.0 Q 4272.0,261.0 4198.0,193.0 Q 4186.0,165.0 4178.0,133.0 Q 4170.0,101.0 4170.0,81.0 Q 4170.0,19.0 4212.0,19.0 Q 4244.0,19.0 4283.0,65.5 Q 4322.0,112.0 4357.0,193.0 Q 4361.0,193.0 4365.0,191.5 Q 4369.0,190.0 4369.0,184.0 Q 4358.0,157.0 4341.5,124.5 Q 4325.0,92.0 4303.5,63.0 Q 4282.0,34.0 4254.0,15.5 Q 4226.0,-3.0 4191.0,-3.0 M 4206.0,225.0 Q 4242.0,262.0 4276.0,310.5 Q 4310.0,359.0 4339.5,411.5 Q 4369.0,464.0 4389.0,511.0 Q 4396.0,526.0 4400.5,544.0 Q 4405.0,562.0 4405.0,574.0 Q 4405.0,588.0 4398.0,588.0 Q 4394.0,588.0 4386.0,580.5 Q 4378.0,573.0 4365.0,555.0 Q 4346.0,530.0 4323.5,487.0 Q 4301.0,444.0 4278.0,395.0 Q 4255.0,346.0 4236.0,300.5 Q 4217.0,255.0 4206.0,225.0" fill="none" id="p7" stroke="#5d4037" stroke-dasharray="2851.75 2851.75" stroke-dashoffset="2851.75" stroke-linecap="round" stroke-linejoin="round" stroke-width="2" /><path d="M 4417.0,0.0 Q 4376.0,0.0 4356.5,29.5 Q 4337.0,59.0 4337.0,101.0 Q 4337.0,140.0 4352.0,182.0 Q 4368.0,228.0 4396.5,266.0 Q 4425.0,304.0 4459.5,327.5 Q 4494.0,351.0 4528.0,351.0 Q 4569.0,351.0 4588.5,323.0 Q 4608.0,295.0 4608.0,252.0 Q 4608.0,222.0 4598.0,189.0 Q 4588.0,156.0 4571.0,124.0 Q 4584.0,111.0 4608.0,111.0 Q 4636.0,111.0 4656.0,129.0 Q 4676.0,147.0 4695.0,193.0 Q 4707.0,193.0 4707.0,184.0 Q 4688.0,138.0 4663.5,116.5 Q 4639.0,95.0 4601.0,96.0 Q 4578.0,96.0 4563.0,109.0 Q 4535.0,63.0 4496.5,31.5 Q 4458.0,0.0 4417.0,0.0 M 4431.0,22.0 Q 4454.0,22.0 4477.0,41.5 Q 4500.0,61.0 4519.0,86.0 Q 4538.0,111.0 4546.0,129.0 Q 4530.0,158.0 4527.5,172.5 Q 4525.0,187.0 4525.0,194.0 Q 4525.0,213.0 4535.0,223.0 Q 4545.0,233.0 4555.0,233.0 Q 4569.0,233.0 4579.0,221.0 Q 4581.0,232.0 4582.0,241.5 Q 4583.0,251.0 4583.0,260.0 Q 4583.0,286.0 4573.5,302.5 Q 4564.0,319.0 4544.0,319.0 Q 4523.0,319.0 4500.0,301.0 Q 4477.0,283.0 4456.5,253.0 Q 4436.0,223.0 4421.0,186.0 Q 4408.0,155.0 4401.0,127.5 Q 4394.0,100.0 4394.0,77.0 Q 4394.0,52.0 4403.0,37.0 Q 4412.0,22.0 4431.0,22.0" fill="none" id="p8" stroke="#5d4037" stroke-dasharray="2140.16 2140.16" stroke-dashoffset="2140.16" stroke-linecap="round" stroke-linejoin="round" stroke-width="2" /><path d="M 5701.0,-42.0 Q 5673.0,-42.0 5645.5,-29.0 Q 5618.0,-16.0 5594.0,9.0 Q 5559.0,45.0 5533.5,95.5 Q 5508.0,146.0 5490.0,199.5 Q 5472.0,253.0 5462.0,297.5 Q 5452.0,342.0 5448.0,366.0 Q 5411.0,295.0 5371.5,225.5 Q 5332.0,156.0 5271.0,89.0 Q 5213.0,26.0 5144.0,-6.5 Q 5075.0,-39.0 5001.0,-39.0 Q 4978.0,-39.0 4954.0,-36.0 Q 4888.0,-28.0 4857.0,2.0 Q 4826.0,32.0 4826.0,66.0 Q 4826.0,103.0 4859.0,133.0 Q 4892.0,163.0 4953.0,163.0 Q 4973.0,163.0 4996.0,159.0 Q 5019.0,155.0 5044.0,146.0 Q 5055.0,142.0 5055.0,137.0 Q 5055.0,133.0 5047.0,133.0 Q 5042.0,133.0 5039.0,134.0 Q 5006.0,146.0 4980.0,146.0 Q 4938.0,146.0 4916.0,121.5 Q 4894.0,97.0 4894.0,68.0 Q 4894.0,40.0 4918.0,16.0 Q 4942.0,-8.0 4992.0,-8.0 Q 5055.0,-8.0 5108.0,21.5 Q 5161.0,51.0 5207.0,102.5 Q 5253.0,154.0 5295.0,219.5 Q 5337.0,285.0 5377.0,356.0 Q 5444.0,475.0 5498.5,572.5 Q 5553.0,670.0 5614.0,738.0 Q 5587.0,741.0 5559.0,742.0 Q 5531.0,743.0 5502.0,743.0 Q 5439.0,743.0 5371.5,736.5 Q 5304.0,730.0 5241.0,716.0 Q 5156.0,698.0 5095.0,662.5 Q 5034.0,627.0 4998.5,583.5 Q 4963.0,540.0 4954.0,496.0 Q 4951.0,480.0 4951.0,465.0 Q 4951.0,414.0 4985.0,386.0 Q 5019.0,358.0 5063.0,358.0 Q 5091.0,358.0 5119.5,369.5 Q 5148.0,381.0 5171.0,406.0 Q 5190.0,426.0 5199.0,443.5 Q 5208.0,461.0 5209.0,470.0 Q 5210.0,484.0 5215.0,484.0 Q 5218.0,484.0 5220.5,479.0 Q 5223.0,474.0 5222.0,469.0 Q 5218.0,446.0 5208.0,424.0 Q 5198.0,402.0 5184.0,387.0 Q 5156.0,358.0 5120.0,344.0 Q 5084.0,330.0 5051.0,330.0 Q 5012.0,330.0 4977.5,347.0 Q 4943.0,364.0 4922.0,396.5 Q 4901.0,429.0 4901.0,477.0 Q 4901.0,533.0 4940.0,591.5 Q 4979.0,650.0 5057.5,695.0 Q 5136.0,740.0 5253.0,757.0 Q 5312.0,765.0 5367.5,769.5 Q 5423.0,774.0 5475.0,774.0 Q 5517.0,774.0 5557.0,771.0 Q 5597.0,768.0 5636.0,763.0 Q 5662.0,790.0 5671.0,790.0 Q 5678.0,790.0 5678.0,779.0 Q 5678.0,775.0 5677.0,769.0 Q 5676.0,763.0 5674.0,757.0 Q 5701.0,753.0 5726.5,748.5 Q 5752.0,744.0 5772.0,738.0 Q 5851.0,716.0 5887.5,680.5 Q 5924.0,645.0 5924.0,604.0 Q 5924.0,560.0 5884.5,516.0 Q 5845.0,472.0 5773.5,438.0 Q 5702.0,404.0 5606.0,388.0 Q 5575.0,383.0 5551.5,381.0 Q 5528.0,379.0 5511.0,378.0 Q 5513.0,368.0 5520.0,336.0 Q 5527.0,304.0 5540.0,260.5 Q 5553.0,217.0 5573.5,169.0 Q 5594.0,121.0 5623.0,78.0 Q 5646.0,44.0 5670.0,22.0 Q 5694.0,0.0 5721.0,0.0 Q 5738.0,0.0 5756.5,9.0 Q 5775.0,18.0 5795.0,38.0 Q 5819.0,62.0 5839.0,92.0 Q 5859.0,122.0 5873.0,149.5 Q 5887.0,177.0 5894.0,193.0 Q 5900.0,193.0 5903.0,192.0 Q 5906.0,191.0 5906.0,184.0 Q 5902.0,174.0 5892.0,152.5 Q 5882.0,131.0 5868.5,104.5 Q 5855.0,78.0 5839.0,52.0 Q 5823.0,26.0 5807.0,8.0 Q 5784.0,-17.0 5755.5,-29.5 Q 5727.0,-42.0 5701.0,-42.0 M 5469.0,405.0 Q 5498.0,410.0 5531.0,412.0 Q 5564.0,414.0 5596.0,418.0 Q 5648.0,425.0 5694.0,445.5 Q 5740.0,466.0 5775.5,495.0 Q 5811.0,524.0 5831.0,556.5 Q 5851.0,589.0 5851.0,619.0 Q 5851.0,687.0 5760.0,713.0 Q 5742.0,718.0 5713.5,723.0 Q 5685.0,728.0 5662.0,732.0 Q 5614.0,650.0 5563.5,571.0 Q 5513.0,492.0 5469.0,405.0" fill="none" id="p9" stroke="#5d4037" stroke-dasharray="8621.02 8621.02" stroke-dashoffset="8621.02" stroke-linecap="round" stroke-linejoin="round" stroke-width="2" /><path d="M 5966.0,-4.0 Q 5929.0,-4.0 5899.5,20.0 Q 5870.0,44.0 5870.0,93.0 Q 5870.0,134.0 5888.5,180.0 Q 5907.0,226.0 5937.5,266.5 Q 5968.0,307.0 6005.5,332.5 Q 6043.0,358.0 6081.0,358.0 Q 6100.0,358.0 6118.0,347.0 Q 6136.0,336.0 6136.0,309.0 Q 6136.0,284.0 6117.0,254.0 Q 6098.0,224.0 6063.0,198.0 Q 6048.0,187.0 6025.0,177.0 Q 6002.0,167.0 5979.0,160.5 Q 5956.0,154.0 5941.0,154.0 Q 5936.0,142.0 5931.5,122.0 Q 5927.0,102.0 5927.0,81.0 Q 5927.0,56.0 5937.0,36.0 Q 5947.0,16.0 5974.0,16.0 Q 6007.0,16.0 6035.5,35.0 Q 6064.0,54.0 6086.5,83.0 Q 6109.0,112.0 6125.0,142.0 Q 6141.0,172.0 6150.0,193.0 Q 6162.0,193.0 6162.0,184.0 Q 6149.0,156.0 6132.5,123.0 Q 6116.0,90.0 6093.5,61.5 Q 6071.0,33.0 6039.5,14.5 Q 6008.0,-4.0 5966.0,-4.0 M 5948.0,172.0 Q 5962.0,172.0 5995.0,182.5 Q 6028.0,193.0 6055.0,216.0 Q 6081.0,239.0 6095.0,266.5 Q 6109.0,294.0 6109.0,313.0 Q 6109.0,335.0 6093.0,335.0 Q 6081.0,335.0 6060.0,319.0 Q 6039.0,303.0 6008.0,265.0 Q 5989.0,241.0 5972.0,213.0 Q 5955.0,185.0 5948.0,172.0" fill="none" id="p10" stroke="#5d4037" stroke-dasharray="2091.28 2091.28" stroke-dashoffset="2091.28" stroke-linecap="round" stroke-linejoin="round" stroke-width="2" /><path d="M 6171.0,-4.0 Q 6130.0,-4.0 6104.5,21.5 Q 6079.0,47.0 6079.0,75.0 Q 6079.0,98.0 6090.5,117.5 Q 6102.0,137.0 6121.0,137.0 L 6122.0,139.0 Q 6144.0,179.0 6164.5,220.5 Q 6185.0,262.0 6210.0,309.0 Q 6231.0,348.0 6255.5,373.0 Q 6280.0,398.0 6313.0,398.0 Q 6321.0,398.0 6335.0,394.5 Q 6349.0,391.0 6349.0,380.0 Q 6349.0,372.0 6340.0,372.0 Q 6333.0,372.0 6324.5,376.0 Q 6316.0,380.0 6311.0,380.0 Q 6292.0,380.0 6279.0,358.0 Q 6266.0,336.0 6266.0,311.0 Q 6266.0,284.0 6275.0,262.5 Q 6284.0,241.0 6296.0,221.0 Q 6308.0,201.0 6317.0,180.5 Q 6326.0,160.0 6326.0,136.0 Q 6326.0,88.0 6307.5,58.5 Q 6289.0,29.0 6259.0,14.0 L 6260.0,14.0 Q 6313.0,14.0 6347.5,63.5 Q 6382.0,113.0 6416.0,193.0 Q 6428.0,193.0 6428.0,184.0 Q 6409.0,139.0 6386.0,96.0 Q 6363.0,53.0 6332.0,25.0 Q 6301.0,-3.0 6256.0,-3.0 Q 6237.0,-3.0 6221.0,1.0 Q 6198.0,-4.0 6171.0,-4.0 M 6156.0,102.0 Q 6156.0,78.0 6167.0,56.0 Q 6178.0,34.0 6207.0,23.0 Q 6233.0,38.0 6247.5,69.5 Q 6262.0,101.0 6262.0,135.0 Q 6262.0,163.0 6256.0,192.0 Q 6250.0,221.0 6243.5,249.0 Q 6237.0,277.0 6237.0,299.0 Q 6237.0,306.0 6237.5,311.5 Q 6238.0,317.0 6239.0,322.0 Q 6221.0,295.0 6202.5,259.0 Q 6184.0,223.0 6167.0,190.0 Q 6150.0,157.0 6136.0,136.0 Q 6156.0,133.0 6156.0,102.0 M 6123.0,52.0 Q 6123.0,36.0 6134.0,24.0 Q 6145.0,12.0 6167.0,12.0 Q 6177.0,12.0 6186.0,14.0 Q 6165.0,27.0 6152.5,47.0 Q 6140.0,67.0 6140.0,93.0 Q 6131.0,83.0 6127.0,72.5 Q 6123.0,62.0 6123.0,52.0" fill="none" id="p11" stroke="#5d4037" stroke-dasharray="2596.88 2596.88" stroke-dashoffset="2596.88" stroke-linecap="round" stroke-linejoin="round" stroke-width="2" /><path d="M 6489.0,-4.0 Q 6452.0,-4.0 6422.5,20.0 Q 6393.0,44.0 6393.0,93.0 Q 6393.0,134.0 6411.5,180.0 Q 6430.0,226.0 6460.5,266.5 Q 6491.0,307.0 6528.5,332.5 Q 6566.0,358.0 6604.0,358.0 Q 6623.0,358.0 6641.0,347.0 Q 6659.0,336.0 6659.0,309.0 Q 6659.0,284.0 6640.0,254.0 Q 6621.0,224.0 6586.0,198.0 Q 6571.0,187.0 6548.0,177.0 Q 6525.0,167.0 6502.0,160.5 Q 6479.0,154.0 6464.0,154.0 Q 6459.0,142.0 6454.5,122.0 Q 6450.0,102.0 6450.0,81.0 Q 6450.0,56.0 6460.0,36.0 Q 6470.0,16.0 6497.0,16.0 Q 6530.0,16.0 6558.5,35.0 Q 6587.0,54.0 6609.5,83.0 Q 6632.0,112.0 6648.0,142.0 Q 6664.0,172.0 6673.0,193.0 Q 6685.0,193.0 6685.0,184.0 Q 6672.0,156.0 6655.5,123.0 Q 6639.0,90.0 6616.5,61.5 Q 6594.0,33.0 6562.5,14.5 Q 6531.0,-4.0 6489.0,-4.0 M 6471.0,172.0 Q 6485.0,172.0 6518.0,182.5 Q 6551.0,193.0 6578.0,216.0 Q 6604.0,239.0 6618.0,266.5 Q 6632.0,294.0 6632.0,313.0 Q 6632.0,335.0 6616.0,335.0 Q 6604.0,335.0 6583.0,319.0 Q 6562.0,303.0 6531.0,265.0 Q 6512.0,241.0 6495.0,213.0 Q 6478.0,185.0 6471.0,172.0" fill="none" id="p12" stroke="#5d4037" stroke-dasharray="2091.28 2091.28" stroke-dashoffset="2091.28" stroke-linecap="round" stroke-linejoin="round" stroke-width="2" /><path d="M 6890.0,-3.0 Q 6867.0,-3.0 6849.5,10.0 Q 6832.0,23.0 6832.0,63.0 Q 6832.0,80.0 6834.5,95.0 Q 6837.0,110.0 6841.0,127.0 Q 6832.0,112.0 6816.0,90.0 Q 6800.0,68.0 6780.5,47.0 Q 6761.0,26.0 6740.5,12.0 Q 6720.0,-2.0 6702.0,-2.0 Q 6676.0,-2.0 6660.0,21.5 Q 6644.0,45.0 6644.0,83.0 Q 6644.0,124.0 6663.0,171.0 Q 6682.0,218.0 6715.0,261.0 Q 6748.0,304.0 6791.0,331.0 Q 6834.0,358.0 6881.0,358.0 Q 6904.0,358.0 6925.0,350.5 Q 6946.0,343.0 6962.0,326.0 Q 6969.0,319.0 6969.0,310.0 Q 6969.0,304.0 6964.0,300.0 Q 6959.0,296.0 6951.0,298.0 Q 6940.0,333.0 6904.0,333.0 Q 6887.0,333.0 6865.0,322.0 Q 6838.0,308.0 6807.5,277.5 Q 6777.0,247.0 6750.5,208.5 Q 6724.0,170.0 6707.0,131.0 Q 6690.0,92.0 6690.0,60.0 Q 6690.0,27.0 6715.0,27.0 Q 6737.0,27.0 6760.5,48.0 Q 6784.0,69.0 6805.5,100.5 Q 6827.0,132.0 6845.0,163.0 Q 6863.0,194.0 6873.0,213.0 Q 6888.0,240.0 6901.0,258.0 Q 6914.0,276.0 6938.0,276.0 Q 6949.0,276.0 6960.0,273.0 Q 6971.0,270.0 6983.0,272.0 Q 6953.0,242.0 6930.5,201.0 Q 6908.0,160.0 6896.0,120.5 Q 6884.0,81.0 6884.0,54.0 Q 6884.0,24.0 6904.0,24.0 Q 6920.0,24.0 6938.5,42.0 Q 6957.0,60.0 6974.5,87.5 Q 6992.0,115.0 7007.0,143.5 Q 7022.0,172.0 7031.0,193.0 Q 7036.0,193.0 7039.5,192.0 Q 7043.0,191.0 7043.0,184.0 Q 7042.0,180.0 7039.5,175.5 Q 7037.0,171.0 7032.0,160.0 Q 7024.0,144.0 7010.0,117.0 Q 6996.0,90.0 6977.0,62.5 Q 6958.0,35.0 6936.0,16.0 Q 6914.0,-3.0 6890.0,-3.0" fill="none" id="p13" stroke="#5d4037" stroke-dasharray="2645.08 2645.08" stroke-dashoffset="2645.08" stroke-linecap="round" stroke-linejoin="round" stroke-width="2" /><path d="M 7032.0,196.0 Q 7040.0,213.0 7053.0,250.5 Q 7066.0,288.0 7080.0,334.0 Q 7094.0,380.0 7101.0,421.0 Q 7104.0,437.0 7112.0,444.5 Q 7120.0,452.0 7129.0,452.0 Q 7142.0,452.0 7153.0,439.5 Q 7164.0,427.0 7164.0,404.0 Q 7164.0,376.0 7147.5,356.0 Q 7131.0,336.0 7107.0,318.0 Q 7117.0,317.0 7128.0,316.5 Q 7139.0,316.0 7152.0,316.0 Q 7199.0,316.0 7245.0,322.0 Q 7247.0,316.0 7247.0,313.0 Q 7247.0,300.0 7239.5,280.0 Q 7232.0,260.0 7224.0,244.0 Q 7220.0,235.0 7208.0,211.5 Q 7196.0,188.0 7182.0,158.5 Q 7168.0,129.0 7158.5,100.5 Q 7149.0,72.0 7149.0,52.0 Q 7149.0,26.0 7169.0,26.0 Q 7188.0,26.0 7222.0,70.5 Q 7256.0,115.0 7290.0,193.0 Q 7302.0,193.0 7302.0,184.0 Q 7291.0,157.0 7274.5,125.0 Q 7258.0,93.0 7238.0,64.5 Q 7218.0,36.0 7195.0,17.5 Q 7172.0,-1.0 7147.0,-1.0 Q 7128.0,-1.0 7109.0,14.5 Q 7090.0,30.0 7090.0,65.0 Q 7090.0,96.0 7102.0,125.5 Q 7114.0,155.0 7129.0,181.0 Q 7144.0,207.0 7156.0,227.0 Q 7168.0,247.0 7168.0,259.0 Q 7168.0,277.0 7145.5,285.0 Q 7123.0,293.0 7087.0,294.0 Q 7069.0,248.0 7060.0,226.0 Q 7051.0,204.0 7043.0,184.0 Q 7027.0,184.0 7032.0,196.0" fill="none" id="p14" stroke="#5d4037" stroke-dasharray="1946.30 1946.30" stroke-dashoffset="1946.30" stroke-linecap="round" stroke-linejoin="round" stroke-width="2" /><path d="M 7376.0,-4.0 Q 7321.0,-4.0 7294.5,25.0 Q 7268.0,54.0 7268.0,103.0 Q 7268.0,126.0 7277.0,156.0 Q 7286.0,186.0 7301.0,217.0 Q 7316.0,248.0 7334.0,272.0 Q 7363.0,311.0 7398.0,332.5 Q 7433.0,354.0 7469.0,354.0 Q 7507.0,354.0 7523.5,337.5 Q 7540.0,321.0 7540.0,299.0 Q 7540.0,278.0 7530.0,261.5 Q 7520.0,245.0 7507.5,235.0 Q 7495.0,225.0 7486.0,225.0 Q 7478.0,225.0 7472.0,231.0 Q 7480.0,241.0 7489.0,255.0 Q 7498.0,269.0 7502.0,282.0 Q 7506.0,294.0 7506.0,306.0 Q 7506.0,332.0 7482.0,332.0 Q 7453.0,332.0 7425.5,308.0 Q 7398.0,284.0 7375.5,246.5 Q 7353.0,209.0 7339.5,167.5 Q 7326.0,126.0 7326.0,91.0 Q 7326.0,59.0 7339.5,38.0 Q 7353.0,17.0 7384.0,17.0 Q 7425.0,17.0 7456.0,43.5 Q 7487.0,70.0 7511.0,110.5 Q 7535.0,151.0 7553.0,193.0 Q 7557.0,193.0 7561.0,191.5 Q 7565.0,190.0 7565.0,184.0 Q 7545.0,134.0 7518.0,91.0 Q 7491.0,48.0 7456.5,22.0 Q 7422.0,-4.0 7376.0,-4.0" fill="none" id="p15" stroke="#5d4037" stroke-dasharray="1834.22 1834.22" stroke-dashoffset="1834.22" stroke-linecap="round" stroke-linejoin="round" stroke-width="2" /><path d="M 7456.0,-8.0 Q 7498.0,78.0 7543.5,172.5 Q 7589.0,267.0 7637.0,363.0 Q 7685.0,459.0 7732.0,546.0 Q 7749.0,576.0 7763.5,593.0 Q 7778.0,610.0 7802.0,610.0 Q 7811.0,610.0 7823.0,607.0 Q 7835.0,604.0 7846.0,606.0 Q 7833.0,592.0 7810.5,557.0 Q 7788.0,522.0 7760.5,473.0 Q 7733.0,424.0 7702.5,367.5 Q 7672.0,311.0 7642.5,253.5 Q 7613.0,196.0 7588.0,146.0 Q 7608.0,172.0 7629.0,195.0 Q 7650.0,218.0 7670.0,235.0 Q 7692.0,255.0 7725.5,277.0 Q 7759.0,299.0 7792.5,315.0 Q 7826.0,331.0 7846.0,331.0 Q 7853.0,331.0 7856.0,330.0 Q 7856.0,330.0 7845.0,310.0 Q 7834.0,290.0 7817.5,259.0 Q 7801.0,228.0 7783.5,192.0 Q 7766.0,156.0 7753.0,123.5 Q 7740.0,91.0 7736.0,70.0 Q 7733.0,54.0 7733.0,43.0 Q 7733.0,27.0 7739.0,21.5 Q 7745.0,16.0 7752.0,16.0 Q 7769.0,16.0 7788.5,33.5 Q 7808.0,51.0 7827.0,78.0 Q 7846.0,105.0 7862.5,135.5 Q 7879.0,166.0 7889.0,193.0 Q 7901.0,193.0 7901.0,184.0 Q 7890.0,157.0 7873.5,124.5 Q 7857.0,92.0 7836.0,63.0 Q 7815.0,34.0 7790.0,15.0 Q 7765.0,-4.0 7737.0,-4.0 Q 7717.0,-4.0 7696.0,10.0 Q 7675.0,24.0 7675.0,61.0 Q 7675.0,72.0 7677.0,84.5 Q 7679.0,97.0 7684.0,113.0 Q 7690.0,133.0 7704.0,157.5 Q 7718.0,182.0 7740.0,219.0 Q 7750.0,236.0 7750.0,246.0 Q 7750.0,258.0 7738.0,258.0 Q 7728.0,258.0 7711.0,248.0 Q 7694.0,238.0 7668.0,213.0 Q 7643.0,189.0 7606.0,143.0 Q 7569.0,97.0 7527.0,14.0 Q 7520.0,1.0 7511.5,0.5 Q 7503.0,0.0 7489.0,-1.0 Q 7480.0,-2.0 7471.0,-2.5 Q 7462.0,-3.0 7456.0,-8.0" fill="none" id="p16" stroke="#5d4037" stroke-dasharray="3219.21 3219.21" stroke-dashoffset="3219.21" stroke-linecap="round" stroke-linejoin="round" stroke-width="2" /><path d="M 8800.0,-311.0 Q 8790.0,-311.0 8787.0,-307.5 Q 8784.0,-304.0 8784.0,-300.0 Q 8802.0,-297.0 8819.0,-273.5 Q 8836.0,-250.0 8836.0,-219.0 Q 8836.0,-170.0 8804.0,-124.5 Q 8772.0,-79.0 8714.0,-41.0 Q 8656.0,-3.0 8578.5,24.5 Q 8501.0,52.0 8409.0,65.0 Q 8375.0,17.0 8332.5,-23.5 Q 8290.0,-64.0 8238.5,-88.5 Q 8187.0,-113.0 8127.0,-113.0 Q 8064.0,-113.0 8031.0,-84.0 Q 7998.0,-55.0 7998.0,-17.0 Q 7998.0,18.0 8026.5,53.5 Q 8055.0,89.0 8113.5,112.5 Q 8172.0,136.0 8262.0,136.0 Q 8331.0,136.0 8402.0,124.0 Q 8427.0,168.0 8447.0,212.0 Q 8467.0,256.0 8482.0,295.0 Q 8383.0,299.0 8326.0,325.5 Q 8269.0,352.0 8245.0,392.0 Q 8221.0,432.0 8221.0,474.0 Q 8221.0,527.0 8253.0,574.5 Q 8285.0,622.0 8340.0,652.0 Q 8395.0,682.0 8463.0,682.0 Q 8471.0,682.0 8473.0,676.0 Q 8475.0,670.0 8475.0,666.0 Q 8437.0,666.0 8401.5,649.0 Q 8366.0,632.0 8338.0,603.5 Q 8310.0,575.0 8293.5,540.0 Q 8277.0,505.0 8277.0,468.0 Q 8277.0,432.0 8296.0,397.5 Q 8315.0,363.0 8361.0,340.0 Q 8407.0,317.0 8490.0,315.0 Q 8499.0,338.0 8505.5,357.5 Q 8512.0,377.0 8517.0,391.0 Q 8541.0,463.0 8568.5,534.0 Q 8596.0,605.0 8631.5,663.0 Q 8667.0,721.0 8716.0,756.0 Q 8765.0,791.0 8833.0,791.0 Q 8877.0,791.0 8901.5,766.0 Q 8926.0,741.0 8926.0,697.0 Q 8926.0,654.0 8906.0,602.5 Q 8886.0,551.0 8850.0,500.0 Q 8814.0,449.0 8765.0,405.0 Q 8716.0,361.0 8658.0,332.0 Q 8600.0,303.0 8536.0,296.0 Q 8521.0,264.0 8498.0,215.5 Q 8475.0,167.0 8443.0,116.0 Q 8530.0,96.0 8607.5,62.0 Q 8685.0,28.0 8744.5,-15.5 Q 8804.0,-59.0 8838.0,-108.5 Q 8872.0,-158.0 8872.0,-207.0 Q 8872.0,-251.0 8850.0,-281.0 Q 8828.0,-311.0 8800.0,-311.0 M 8833.0,740.0 Q 8790.0,740.0 8752.0,702.5 Q 8714.0,665.0 8679.5,603.5 Q 8645.0,542.0 8612.0,467.0 Q 8579.0,392.0 8546.0,318.0 Q 8605.0,326.0 8656.0,354.0 Q 8707.0,382.0 8749.0,422.5 Q 8791.0,463.0 8821.0,509.0 Q 8851.0,555.0 8867.0,599.5 Q 8883.0,644.0 8883.0,679.0 Q 8883.0,707.0 8871.0,723.5 Q 8859.0,740.0 8833.0,740.0 M 8023.0,-31.0 Q 8023.0,-56.0 8050.0,-74.5 Q 8077.0,-93.0 8127.0,-93.0 Q 8201.0,-93.0 8261.0,-45.5 Q 8321.0,2.0 8368.0,70.0 Q 8315.0,75.0 8262.0,75.0 Q 8180.0,75.0 8127.0,58.5 Q 8074.0,42.0 8048.5,17.5 Q 8023.0,-7.0 8023.0,-31.0" fill="none" id="p17" stroke="#5d4037" stroke-dasharray="7458.32 7458.32" stroke-dashoffset="7458.32" stroke-linecap="round" stroke-linejoin="round" stroke-width="2" /><path d="M 8993.0,-3.0 Q 8970.0,-3.0 8952.5,10.0 Q 8935.0,23.0 8935.0,63.0 Q 8935.0,80.0 8937.5,95.0 Q 8940.0,110.0 8944.0,127.0 Q 8935.0,112.0 8919.0,90.0 Q 8903.0,68.0 8883.5,47.0 Q 8864.0,26.0 8843.5,12.0 Q 8823.0,-2.0 8805.0,-2.0 Q 8779.0,-2.0 8763.0,21.5 Q 8747.0,45.0 8747.0,83.0 Q 8747.0,124.0 8766.0,171.0 Q 8785.0,218.0 8818.0,261.0 Q 8851.0,304.0 8894.0,331.0 Q 8937.0,358.0 8984.0,358.0 Q 9007.0,358.0 9028.0,350.5 Q 9049.0,343.0 9065.0,326.0 Q 9072.0,319.0 9072.0,310.0 Q 9072.0,304.0 9067.0,300.0 Q 9062.0,296.0 9054.0,298.0 Q 9043.0,333.0 9007.0,333.0 Q 8990.0,333.0 8968.0,322.0 Q 8941.0,308.0 8910.5,277.5 Q 8880.0,247.0 8853.5,208.5 Q 8827.0,170.0 8810.0,131.0 Q 8793.0,92.0 8793.0,60.0 Q 8793.0,27.0 8818.0,27.0 Q 8840.0,27.0 8863.5,48.0 Q 8887.0,69.0 8908.5,100.5 Q 8930.0,132.0 8948.0,163.0 Q 8966.0,194.0 8976.0,213.0 Q 8991.0,240.0 9004.0,258.0 Q 9017.0,276.0 9041.0,276.0 Q 9052.0,276.0 9063.0,273.0 Q 9074.0,270.0 9086.0,272.0 Q 9056.0,242.0 9033.5,201.0 Q 9011.0,160.0 8999.0,120.5 Q 8987.0,81.0 8987.0,54.0 Q 8987.0,24.0 9007.0,24.0 Q 9023.0,24.0 9041.5,42.0 Q 9060.0,60.0 9077.5,87.5 Q 9095.0,115.0 9110.0,143.5 Q 9125.0,172.0 9134.0,193.0 Q 9139.0,193.0 9142.5,192.0 Q 9146.0,191.0 9146.0,184.0 Q 9145.0,180.0 9142.5,175.5 Q 9140.0,171.0 9135.0,160.0 Q 9127.0,144.0 9113.0,117.0 Q 9099.0,90.0 9080.0,62.5 Q 9061.0,35.0 9039.0,16.0 Q 9017.0,-3.0 8993.0,-3.0" fill="none" id="p18" stroke="#5d4037" stroke-dasharray="2645.08 2645.08" stroke-dashoffset="2645.08" stroke-linecap="round" stroke-linejoin="round" stroke-width="2" /><path d="M 9195.0,-5.0 Q 9154.0,-5.0 9137.0,20.0 Q 9120.0,45.0 9120.0,81.0 Q 9120.0,106.0 9125.5,128.0 Q 9131.0,150.0 9142.0,178.0 L 9140.0,178.0 Q 9132.0,178.0 9132.0,186.0 Q 9132.0,190.0 9140.5,209.0 Q 9149.0,228.0 9162.5,255.0 Q 9176.0,282.0 9190.5,310.0 Q 9205.0,338.0 9217.0,360.0 Q 9237.0,397.0 9261.0,436.5 Q 9285.0,476.0 9308.5,512.0 Q 9332.0,548.0 9348.0,571.0 Q 9384.0,621.0 9415.0,621.0 L 9420.0,621.0 Q 9429.0,621.0 9440.5,618.0 Q 9452.0,615.0 9462.0,617.0 Q 9447.0,601.0 9416.5,559.5 Q 9386.0,518.0 9350.0,465.0 Q 9335.0,443.0 9312.5,406.0 Q 9290.0,369.0 9265.0,323.0 Q 9240.0,277.0 9218.5,229.5 Q 9197.0,182.0 9183.0,137.5 Q 9169.0,93.0 9169.0,58.0 Q 9169.0,35.0 9177.0,26.0 Q 9185.0,17.0 9197.0,17.0 Q 9212.0,17.0 9232.5,34.5 Q 9253.0,52.0 9274.5,80.5 Q 9296.0,109.0 9314.0,143.5 Q 9332.0,178.0 9343.5,213.5 Q 9355.0,249.0 9355.0,279.0 Q 9355.0,308.0 9344.5,321.0 Q 9334.0,334.0 9317.0,334.0 Q 9310.0,334.0 9303.0,330.5 Q 9296.0,327.0 9291.0,327.0 Q 9286.0,327.0 9286.0,332.0 Q 9286.0,337.0 9296.5,343.0 Q 9307.0,349.0 9328.0,349.0 Q 9347.0,349.0 9366.5,339.0 Q 9386.0,329.0 9399.0,306.5 Q 9412.0,284.0 9412.0,248.0 Q 9412.0,205.0 9392.0,160.5 Q 9372.0,116.0 9340.0,78.5 Q 9308.0,41.0 9269.5,18.0 Q 9231.0,-5.0 9195.0,-5.0" fill="none" id="p19" stroke="#5d4037" stroke-dasharray="2503.20 2503.20" stroke-dashoffset="2503.20" stroke-linecap="round" stroke-linejoin="round" stroke-width="2" /></svg>