<?xml version="1.0" encoding="utf-8" ?>
<svg baseProfile="tiny" height="1282.048px" version="1.2" viewBox="0 0 5605.376 1282.048" width="5605.376px" xmlns="http://www.w3.org/2000/svg" xmlns:ev="http://www.w3.org/2001/xml-events" xmlns:xlink="http://www.w3.org/1999/xlink"><defs /><path d="M 422.91200000000003,-777.216 Q 322.56000000000006,-777.216 239.104,-806.912 Q 155.64800000000002,-836.6080000000001 104.44800000000001,-894.464 Q 53.248000000000005,-952.32 48.128,-1037.3120000000001 Q 46.08,-1072.1280000000002 59.392,-1114.112 Q 72.70400000000001,-1156.096 96.768,-1197.568 Q 120.832,-1239.04 154.112,-1272.32 Q 187.392,-1305.6 225.28,-1323.008 Q 228.352,-1325.056 235.008,-1326.08 Q 241.66400000000002,-1327.1039999999998 244.73600000000002,-1327.104 Q 250.88000000000002,-1327.104 250.88,-1324.032 Q 250.88,-1318.912 235.52,-1307.6480000000001 Q 192.512,-1273.8560000000002 164.864,-1229.824 Q 136.192,-1185.7920000000001 121.85600000000001,-1135.616 Q 107.52000000000001,-1085.44 107.52,-1034.24 Q 107.52,-973.824 133.632,-930.304 Q 159.744,-886.784 203.776,-858.624 Q 247.80800000000002,-830.464 304.128,-817.152 Q 360.448,-803.84 421.88800000000003,-803.84 Q 490.49600000000004,-803.84 557.568,-819.2 Q 624.64,-834.5600000000001 679.936,-863.232 Q 764.928,-908.288 814.592,-974.8480000000001 Q 864.256,-1041.4080000000001 864.256,-1106.944 Q 864.256,-1141.76 849.408,-1173.5040000000001 Q 834.5600000000001,-1205.248 801.792,-1230.848 Q 777.216,-1250.3039999999999 741.888,-1267.712 Q 706.5600000000001,-1285.12 667.136,-1301.5040000000001 Q 627.712,-1317.8880000000001 589.8240000000001,-1334.784 Q 551.936,-1351.68 523.264,-1371.136 Q 482.30400000000003,-1398.7839999999999 463.36,-1430.528 Q 444.416,-1462.272 444.416,-1494.016 Q 444.416,-1531.904 466.432,-1567.7440000000001 Q 488.44800000000004,-1603.584 526.848,-1632.768 Q 565.2479999999999,-1661.952 613.376,-1678.336 Q 655.36,-1692.672 705.024,-1700.864 Q 754.688,-1709.056 802.816,-1709.056 Q 842.7520000000001,-1709.056 879.104,-1703.424 Q 915.456,-1697.792 943.104,-1683.4560000000001 Q 977.9200000000001,-1667.0720000000001 996.352,-1639.936 Q 1014.784,-1612.8 1014.784,-1583.104 Q 1014.784,-1542.144 977.9200000000001,-1511.424 Q 964.6080000000001,-1501.184 948.224,-1492.48 Q 931.84,-1483.776 909.312,-1477.632 Q 905.216,-1476.6080000000002 900.096,-1476.608 Q 887.808,-1476.608 887.808,-1483.776 Q 887.808,-1487.872 894.464,-1492.48 Q 901.12,-1497.088 914.432,-1498.112 Q 945.152,-1502.208 961.024,-1521.664 Q 976.896,-1541.12 976.8960000000001,-1566.72 Q 976.8960000000001,-1593.344 958.976,-1619.4560000000001 Q 941.056,-1645.5680000000002 904.192,-1663.488 Q 867.328,-1681.4080000000001 809.984,-1681.4080000000001 Q 777.216,-1681.4080000000001 737.792,-1674.24 Q 698.368,-1667.0720000000001 652.288,-1650.688 Q 595.968,-1631.2320000000002 558.592,-1593.344 Q 521.216,-1555.4560000000001 521.216,-1512.448 Q 521.216,-1485.824 539.136,-1458.688 Q 557.0559999999999,-1431.5520000000001 596.992,-1406.976 Q 630.784,-1386.496 673.792,-1366.528 Q 716.8000000000001,-1346.56 760.832,-1326.592 Q 804.864,-1306.624 840.7040000000001,-1284.096 Q 897.0240000000001,-1249.28 921.6,-1209.344 Q 946.176,-1169.4080000000001 946.176,-1127.424 Q 946.176,-1078.272 916.9920000000001,-1028.608 Q 887.8080000000001,-978.944 840.7040000000001,-935.424 Q 793.6,-891.904 737.28,-858.112 Q 671.7439999999999,-819.1999999999999 589.312,-798.208 Q 506.88,-777.216 422.91200000000003,-777.216 M 1070.08,-871.424 Q 1028.096,-871.424 1008.128,-901.6320000000001 Q 988.1600000000001,-931.84 988.16,-974.8480000000001 Q 988.16,-1014.7840000000001 1003.52,-1057.792 Q 1019.904,-1104.896 1049.088,-1143.808 Q 1078.272,-1182.72 1113.6000000000001,-1206.784 Q 1148.928,-1230.8480000000002 1183.744,-1230.848 Q 1225.7279999999998,-1230.848 1245.696,-1202.176 Q 1265.664,-1173.504 1265.664,-1129.472 Q 1265.664,-1098.752 1255.424,-1064.96 Q 1245.184,-1031.1680000000001 1227.776,-998.4 Q 1241.088,-985.088 1265.664,-985.088 Q 1294.336,-985.088 1314.816,-1003.52 Q 1335.296,-1021.952 1354.752,-1069.056 Q 1367.04,-1069.056 1367.04,-1059.84 Q 1347.584,-1012.7359999999999 1322.496,-990.72 Q 1297.4080000000001,-968.7040000000001 1258.496,-969.7280000000001 Q 1234.9440000000002,-969.7280000000001 1219.584,-983.04 Q 1190.912,-935.9359999999999 1151.488,-903.6800000000001 Q 1112.064,-871.4240000000001 1070.0800000000002,-871.4240000000001 M 1084.416,-893.952 Q 1107.9679999999998,-893.952 1131.52,-913.9200000000001 Q 1155.072,-933.888 1174.528,-959.488 Q 1193.984,-985.0880000000001 1202.176,-1003.52 Q 1185.792,-1033.216 1183.232,-1048.064 Q 1180.672,-1062.912 1180.672,-1070.08 Q 1180.672,-1089.5359999999998 1190.912,-1099.776 Q 1201.152,-1110.016 1211.392,-1110.016 Q 1225.728,-1110.016 1235.968,-1097.728 Q 1238.016,-1108.992 1239.04,-1118.72 Q 1240.0639999999999,-1128.448 1240.064,-1137.664 Q 1240.064,-1164.288 1230.336,-1181.184 Q 1220.608,-1198.08 1200.128,-1198.08 Q 1178.624,-1198.08 1155.0720000000001,-1179.6480000000001 Q 1131.5200000000002,-1161.2160000000001 1110.528,-1130.496 Q 1089.536,-1099.776 1074.176,-1061.888 Q 1060.864,-1030.144 1053.696,-1001.984 Q 1046.528,-973.8240000000001 1046.528,-950.272 Q 1046.528,-924.672 1055.744,-909.312 Q 1064.9599999999998,-893.952 1084.416,-893.952 M 1442.816,-867.328 Q 1386.496,-867.328 1359.3600000000001,-897.024 Q 1332.2240000000002,-926.72 1332.224,-976.8960000000001 Q 1332.224,-1000.4480000000001 1341.44,-1031.1680000000001 Q 1350.656,-1061.8880000000001 1366.016,-1093.632 Q 1381.376,-1125.376 1399.808,-1149.952 Q 1429.504,-1189.888 1465.344,-1211.904 Q 1501.184,-1233.92 1538.048,-1233.92 Q 1576.96,-1233.92 1593.856,-1217.0240000000001 Q 1610.752,-1200.1280000000002 1610.752,-1177.6000000000001 Q 1610.752,-1156.0960000000002 1600.512,-1139.2 Q 1590.272,-1122.304 1577.472,-1112.064 Q 1564.672,-1101.824 1555.4560000000001,-1101.824 Q 1547.2640000000001,-1101.824 1541.1200000000001,-1107.968 Q 1549.3120000000001,-1118.208 1558.528,-1132.544 Q 1567.744,-1146.88 1571.8400000000001,-1160.192 Q 1575.9360000000001,-1172.48 1575.936,-1184.768 Q 1575.936,-1211.392 1551.3600000000001,-1211.392 Q 1521.6640000000002,-1211.392 1493.5040000000001,-1186.816 Q 1465.344,-1162.24 1442.304,-1123.84 Q 1419.2640000000001,-1085.4399999999998 1405.44,-1042.944 Q 1391.616,-1000.448 1391.616,-964.6080000000001 Q 1391.616,-931.84 1405.44,-910.336 Q 1419.2640000000001,-888.832 1451.008,-888.832 Q 1492.992,-888.832 1524.736,-915.9680000000001 Q 1556.48,-943.104 1581.056,-984.576 Q 1605.632,-1026.048 1624.064,-1069.056 Q 1628.16,-1069.056 1632.256,-1067.52 Q 1636.352,-1065.984 1636.352,-1059.84 Q 1615.872,-1008.6399999999999 1588.224,-964.6080000000001 Q 1560.576,-920.576 1525.248,-893.952 Q 1489.92,-867.328 1442.816,-867.328 M 1652.736,-871.424 Q 1614.8480000000002,-871.424 1599.488,-893.44 Q 1584.1280000000002,-915.456 1584.128,-944.128 Q 1584.128,-959.488 1587.712,-975.36 Q 1591.296,-991.232 1596.416,-1004.544 L 1665.0240000000001,-1179.6480000000001 Q 1668.096,-1187.8400000000001 1668.096,-1193.984 Q 1668.096,-1204.224 1662.976,-1211.904 Q 1657.8560000000002,-1219.584 1655.808,-1222.656 L 1712.128,-1224.704 Q 1727.4879999999998,-1225.7279999999998 1734.144,-1221.1200000000001 Q 1740.8,-1216.5120000000002 1740.8,-1210.368 Q 1740.8,-1204.224 1733.632,-1187.84 Q 1723.392,-1163.264 1705.984,-1126.4 Q 1688.576,-1089.536 1671.68,-1050.624 Q 1654.784,-1011.712 1643.008,-977.9200000000001 Q 1631.232,-944.128 1631.232,-925.696 Q 1631.232,-912.384 1637.8880000000001,-903.168 Q 1644.544,-893.952 1660.928,-893.952 Q 1682.432,-893.952 1703.424,-910.8480000000001 Q 1724.416,-927.744 1742.848,-954.368 Q 1761.28,-980.9920000000001 1777.152,-1011.712 Q 1793.0240000000001,-1042.432 1804.288,-1069.056 Q 1816.576,-1069.056 1816.576,-1059.84 Q 1806.336,-1034.24 1789.952,-1001.472 Q 1773.568,-968.704 1752.576,-939.52 Q 1731.584,-910.336 1706.496,-890.88 Q 1681.4080000000001,-871.424 1652.736,-871.424 M 1743.872,-1288.192 Q 1730.5600000000002,-1288.192 1720.832,-1298.432 Q 1711.104,-1308.672 1711.104,-1323.008 Q 1711.104,-1340.416 1725.44,-1354.24 Q 1739.776,-1368.064 1757.184,-1368.064 Q 1771.52,-1368.064 1781.76,-1358.848 Q 1792.0,-1349.632 1792.0,-1335.296 Q 1792.0,-1316.864 1777.664,-1302.528 Q 1763.328,-1288.192 1743.872,-1288.192 M 2026.496,-868.352 Q 2002.9440000000002,-868.352 1985.0240000000001,-881.664 Q 1967.104,-894.976 1967.104,-935.936 Q 1967.104,-953.344 1969.664,-968.7040000000001 Q 1972.224,-984.0640000000001 1976.32,-1001.472 Q 1967.104,-986.112 1950.72,-963.5840000000001 Q 1934.336,-941.056 1914.368,-919.552 Q 1894.3999999999999,-898.048 1873.4080000000001,-883.712 Q 1852.4160000000002,-869.376 1833.9840000000002,-869.376 Q 1807.3600000000001,-869.376 1790.976,-893.44 Q 1774.592,-917.504 1774.592,-956.416 Q 1774.592,-998.4000000000001 1794.048,-1046.528 Q 1813.504,-1094.656 1847.296,-1138.688 Q 1881.088,-1182.72 1925.1200000000001,-1210.368 Q 1969.152,-1238.0159999999998 2017.28,-1238.016 Q 2040.8319999999999,-1238.016 2062.3360000000002,-1230.336 Q 2083.84,-1222.656 2100.224,-1205.248 Q 2107.3920000000003,-1198.0800000000002 2107.392,-1188.864 Q 2107.392,-1182.72 2102.272,-1178.624 Q 2097.152,-1174.528 2088.96,-1176.576 Q 2077.696,-1212.416 2040.832,-1212.416 Q 2023.4240000000002,-1212.416 2000.896,-1201.152 Q 1973.248,-1186.816 1942.016,-1155.584 Q 1910.784,-1124.352 1883.6480000000001,-1084.928 Q 1856.5120000000002,-1045.5040000000001 1839.104,-1005.568 Q 1821.6960000000001,-965.632 1821.6960000000001,-932.864 Q 1821.6960000000001,-899.072 1847.296,-899.072 Q 1869.824,-899.072 1893.8880000000001,-920.576 Q 1917.9520000000002,-942.08 1939.968,-974.336 Q 1961.9840000000002,-1006.592 1980.416,-1038.336 Q 1998.848,-1070.08 2009.088,-1089.536 Q 2024.4479999999999,-1117.184 2037.76,-1135.616 Q 2051.072,-1154.048 2075.648,-1154.048 Q 2086.9120000000003,-1154.048 2098.176,-1150.976 Q 2109.44,-1147.9040000000002 2121.728,-1149.952 Q 2091.0080000000003,-1119.232 2067.968,-1077.248 Q 2044.9279999999999,-1035.2640000000001 2032.64,-994.816 Q 2020.352,-954.368 2020.352,-926.72 Q 2020.352,-896.0 2040.832,-896.0 Q 2057.216,-896.0 2076.16,-914.432 Q 2095.104,-932.864 2113.024,-961.024 Q 2130.944,-989.184 2146.304,-1018.368 Q 2161.664,-1047.5520000000001 2170.88,-1069.056 Q 2176.0,-1069.056 2179.584,-1068.032 Q 2183.1679999999997,-1067.008 2183.168,-1059.84 Q 2182.1440000000002,-1055.744 2179.584,-1051.136 Q 2177.024,-1046.528 2171.904,-1035.2640000000001 Q 2163.712,-1018.8800000000001 2149.376,-991.232 Q 2135.0400000000004,-963.584 2115.584,-935.424 Q 2096.1279999999997,-907.264 2073.6,-887.808 Q 2051.072,-868.352 2026.4959999999999,-868.352 M 2219.0080000000003,-868.352 Q 2181.1200000000003,-868.352 2163.2,-891.392 Q 2145.2799999999997,-914.432 2145.28,-946.176 Q 2145.28,-978.9440000000001 2154.496,-1013.76 Q 2163.712,-1048.576 2170.88,-1072.128 Q 2187.264,-1129.472 2212.352,-1194.496 Q 2237.44,-1259.52 2267.648,-1322.496 Q 2297.856,-1385.4720000000002 2327.552,-1435.6480000000001 Q 2351.1040000000003,-1475.584 2378.2400000000002,-1495.5520000000001 Q 2405.376,-1515.5200000000002 2425.856,-1515.52 Q 2442.2400000000002,-1515.52 2451.968,-1503.7440000000001 Q 2461.696,-1491.968 2461.696,-1468.416 Q 2461.696,-1452.032 2456.064,-1429.5040000000001 Q 2450.432,-1406.976 2437.12,-1378.304 Q 2401.2799999999997,-1298.432 2351.616,-1218.56 Q 2301.9519999999998,-1138.6879999999999 2226.176,-1069.056 Q 2213.888,-1040.384 2205.696,-1007.616 Q 2197.504,-974.848 2197.504,-954.368 Q 2197.504,-890.8800000000001 2240.512,-890.88 Q 2273.28,-890.88 2313.216,-938.496 Q 2353.152,-986.112 2388.992,-1069.056 Q 2393.088,-1069.056 2397.184,-1067.52 Q 2401.28,-1065.984 2401.28,-1059.84 Q 2390.016,-1032.192 2373.12,-998.912 Q 2356.2239999999997,-965.6320000000001 2334.208,-935.936 Q 2312.192,-906.24 2283.52,-887.296 Q 2254.848,-868.3520000000001 2219.008,-868.3520000000001 M 2234.368,-1101.824 Q 2271.232,-1139.712 2306.0480000000002,-1189.376 Q 2340.864,-1239.04 2371.072,-1292.8 Q 2401.28,-1346.56 2421.76,-1394.688 Q 2428.9280000000003,-1410.048 2433.536,-1428.48 Q 2438.1440000000002,-1446.912 2438.1440000000002,-1459.2 Q 2438.1440000000002,-1473.536 2430.976,-1473.536 Q 2426.88,-1473.536 2418.688,-1465.856 Q 2410.496,-1458.176 2397.184,-1439.7440000000001 Q 2377.728,-1414.1440000000002 2354.688,-1370.112 Q 2331.648,-1326.0800000000002 2308.096,-1275.904 Q 2284.544,-1225.728 2265.088,-1179.136 Q 2245.632,-1132.5439999999999 2234.3680000000004,-1101.824 M 2900.992,-799.744 Q 3002.3680000000004,-799.744 3086.3360000000002,-843.264 Q 3170.304,-886.784 3238.4,-962.048 Q 3306.496,-1037.312 3357.696,-1130.496 Q 3390.464,-1189.8880000000001 3419.136,-1251.328 Q 3447.808,-1312.768 3472.384,-1367.5520000000001 Q 3496.96,-1422.3360000000002 3516.416,-1462.272 Q 3535.8720000000003,-1502.2079999999999 3549.184,-1519.616 Q 3492.864,-1540.096 3419.648,-1555.968 Q 3346.4320000000002,-1571.8400000000001 3236.864,-1577.984 Q 3160.064,-1582.08 3100.16,-1560.576 Q 3040.256,-1539.0720000000001 2998.784,-1502.72 Q 2957.312,-1466.368 2935.2960000000003,-1423.3600000000001 Q 2913.28,-1380.352 2913.28,-1340.416 Q 2913.28,-1302.528 2930.688,-1278.464 Q 2948.096,-1254.3999999999999 2976.256,-1243.136 Q 3004.4159999999997,-1231.872 3034.112,-1231.872 Q 3070.976,-1231.872 3098.6240000000003,-1247.232 Q 3126.2720000000004,-1262.5919999999999 3145.216,-1284.608 Q 3164.16,-1306.624 3173.888,-1326.592 Q 3183.616,-1346.5600000000002 3183.616,-1355.776 L 3183.616,-1356.8 Q 3188.736,-1362.944 3193.856,-1362.944 Q 3204.096,-1362.944 3204.096,-1348.608 Q 3198.976,-1304.576 3172.864,-1271.808 Q 3146.752,-1239.04 3109.888,-1221.632 Q 3073.024,-1204.2240000000002 3032.064,-1204.224 Q 2990.08,-1204.224 2951.168,-1224.704 Q 2912.2560000000003,-1245.184 2887.68,-1284.096 Q 2863.104,-1323.008 2863.1040000000003,-1378.304 Q 2863.1040000000003,-1423.3600000000001 2883.072,-1467.904 Q 2903.04,-1512.448 2943.4880000000003,-1549.824 Q 2983.936,-1587.2 3046.4,-1609.728 Q 3108.864,-1632.256 3193.856,-1632.256 Q 3269.632,-1632.256 3331.5840000000003,-1617.92 Q 3393.536,-1603.584 3450.368,-1582.592 Q 3507.2,-1561.6000000000001 3565.568,-1541.1200000000001 Q 3581.952,-1561.6000000000001 3603.9680000000003,-1579.52 Q 3625.9840000000004,-1597.44 3648.512,-1597.44 Q 3668.992,-1597.44 3668.992,-1585.152 Q 3668.992,-1572.864 3654.656,-1572.864 Q 3639.296,-1572.864 3622.9120000000003,-1560.064 Q 3606.5280000000002,-1547.2640000000001 3594.2400000000002,-1531.904 Q 3666.9440000000004,-1508.352 3732.992,-1491.4560000000001 Q 3799.04,-1474.5600000000002 3847.168,-1474.56 Q 3893.248,-1474.56 3913.216,-1481.728 Q 3933.1839999999997,-1488.896 3933.184,-1505.28 Q 3933.184,-1511.424 3935.744,-1516.032 Q 3938.304,-1520.6399999999999 3945.472,-1520.64 Q 3950.592,-1520.64 3952.64,-1511.936 Q 3954.6879999999996,-1503.232 3954.688,-1498.112 Q 3954.688,-1473.536 3928.576,-1458.176 Q 3902.464,-1442.816 3863.552,-1442.816 Q 3829.76,-1442.816 3782.1440000000002,-1452.032 Q 3734.5280000000002,-1461.2479999999998 3681.28,-1476.096 Q 3628.032,-1490.944 3577.856,-1509.376 Q 3539.9680000000003,-1447.936 3513.856,-1383.936 Q 3487.744,-1319.936 3465.728,-1255.424 Q 3443.712,-1190.912 3419.136,-1128.448 Q 3368.96,-1003.5200000000001 3297.28,-925.184 Q 3225.6000000000004,-846.848 3127.808,-810.496 Q 3030.016,-774.144 2900.992,-774.144 Q 2783.232,-774.144 2700.288,-808.96 Q 2617.344,-843.7760000000001 2573.824,-903.6800000000001 Q 2530.304,-963.5840000000001 2530.304,-1037.3120000000001 Q 2530.304,-1100.8000000000002 2551.2960000000003,-1153.0240000000001 Q 2572.2880000000005,-1205.248 2609.664,-1240.064 Q 2647.0400000000004,-1274.88 2695.168,-1286.144 Q 2702.3360000000002,-1286.144 2702.3360000000002,-1281.0240000000001 Q 2702.3360000000002,-1275.9040000000002 2697.216,-1272.832 Q 2643.968,-1241.0880000000002 2615.808,-1183.232 Q 2587.648,-1125.376 2587.648,-1061.888 Q 2587.648,-977.92 2630.1440000000002,-919.552 Q 2672.6400000000003,-861.184 2743.808,-830.464 Q 2814.976,-799.744 2900.992,-799.744 M 3420.16,-863.232 Q 3463.1679999999997,-951.2959999999999 3509.76,-1048.064 Q 3556.3520000000003,-1144.832 3605.504,-1243.136 Q 3654.656,-1341.44 3702.784,-1430.528 Q 3720.192,-1461.248 3735.04,-1478.656 Q 3749.888,-1496.0639999999999 3774.464,-1496.064 Q 3783.68,-1496.064 3795.9680000000003,-1492.992 Q 3808.2560000000003,-1489.92 3819.52,-1491.968 Q 3806.208,-1477.632 3783.168,-1441.792 Q 3760.128,-1405.952 3731.9680000000003,-1355.776 Q 3703.8080000000004,-1305.6000000000001 3672.576,-1247.744 Q 3641.344,-1189.888 3611.136,-1131.008 Q 3580.928,-1072.128 3555.328,-1020.928 Q 3575.808,-1047.552 3597.312,-1071.104 Q 3618.816,-1094.656 3639.2960000000003,-1112.064 Q 3661.824,-1132.544 3696.128,-1155.0720000000001 Q 3730.4320000000002,-1177.6000000000001 3764.736,-1193.984 Q 3799.04,-1210.368 3819.52,-1210.368 Q 3826.688,-1210.368 3829.76,-1209.344 Q 3829.76,-1209.344 3818.496,-1188.864 Q 3807.232,-1168.384 3790.3360000000002,-1136.64 Q 3773.44,-1104.8960000000002 3755.52,-1068.032 Q 3737.6,-1031.168 3724.288,-997.888 Q 3710.976,-964.6080000000001 3706.88,-943.104 Q 3703.808,-926.72 3703.808,-915.456 Q 3703.808,-899.072 3709.952,-893.44 Q 3716.096,-887.8080000000001 3723.264,-887.808 Q 3740.672,-887.808 3760.64,-905.7280000000001 Q 3780.6079999999997,-923.648 3800.0640000000003,-951.296 Q 3819.5200000000004,-978.9440000000001 3836.416,-1010.176 Q 3853.3120000000004,-1041.4080000000001 3863.552,-1069.056 Q 3875.84,-1069.056 3875.84,-1059.84 Q 3864.576,-1032.192 3847.6800000000003,-998.912 Q 3830.784,-965.6320000000001 3809.28,-935.936 Q 3787.7760000000003,-906.24 3762.176,-886.784 Q 3736.576,-867.328 3707.904,-867.328 Q 3687.424,-867.328 3665.92,-881.664 Q 3644.416,-896.0 3644.416,-933.888 Q 3644.416,-945.152 3646.464,-957.952 Q 3648.5119999999997,-970.752 3653.632,-987.136 Q 3659.776,-1007.616 3674.112,-1032.704 Q 3688.448,-1057.792 3710.976,-1095.68 Q 3721.216,-1113.088 3721.216,-1123.328 Q 3721.216,-1135.616 3708.928,-1135.616 Q 3698.688,-1135.616 3681.28,-1125.376 Q 3663.8720000000003,-1115.136 3637.248,-1089.536 Q 3611.648,-1064.96 3573.76,-1017.856 Q 3535.8720000000003,-970.752 3492.864,-885.76 Q 3485.696,-872.448 3476.992,-871.936 Q 3468.288,-871.4240000000001 3453.952,-870.4 Q 3444.7360000000003,-869.376 3435.52,-868.864 Q 3426.304,-868.3520000000001 3420.16,-863.2320000000001 M 3864.576,-1072.128 Q 3872.768,-1089.5359999999998 3886.08,-1127.936 Q 3899.392,-1166.336 3913.728,-1213.44 Q 3928.064,-1260.544 3935.232,-1302.528 Q 3938.304,-1318.912 3946.496,-1326.592 Q 3954.688,-1334.2720000000002 3963.904,-1334.272 Q 3977.216,-1334.272 3988.48,-1321.472 Q 3999.744,-1308.672 3999.744,-1285.1200000000001 Q 3999.744,-1256.448 3982.848,-1235.968 Q 3965.9519999999998,-1215.488 3941.376,-1197.056 Q 3951.616,-1196.0320000000002 3962.88,-1195.52 Q 3974.1440000000002,-1195.008 3987.456,-1195.008 Q 4035.5840000000003,-1195.008 4082.688,-1201.152 Q 4084.736,-1195.008 4084.736,-1191.936 Q 4084.736,-1178.624 4077.056,-1158.144 Q 4069.376,-1137.664 4061.184,-1121.28 Q 4057.088,-1112.064 4044.8,-1088.0 Q 4032.512,-1063.936 4018.176,-1033.728 Q 4003.84,-1003.5200000000001 3994.112,-974.336 Q 3984.384,-945.152 3984.384,-924.672 Q 3984.384,-898.048 4004.864,-898.048 Q 4024.32,-898.048 4059.136,-943.616 Q 4093.9519999999998,-989.184 4128.768,-1069.056 Q 4141.056,-1069.056 4141.0560000000005,-1059.84 Q 4129.792,-1032.192 4112.896,-999.424 Q 4095.9999999999995,-966.656 4075.52,-937.472 Q 4055.04,-908.288 4031.4880000000003,-889.344 Q 4007.936,-870.4000000000001 3982.3360000000002,-870.4 Q 3962.88,-870.4 3943.424,-886.272 Q 3923.968,-902.144 3923.9680000000003,-937.984 Q 3923.9680000000003,-969.7280000000001 3936.256,-999.936 Q 3948.544,-1030.144 3963.904,-1056.768 Q 3979.264,-1083.392 3991.552,-1103.872 Q 4003.84,-1124.352 4003.84,-1136.64 Q 4003.84,-1155.0720000000001 3980.8,-1163.2640000000001 Q 3957.76,-1171.4560000000001 3920.896,-1172.48 Q 3902.4640000000004,-1125.376 3893.248,-1102.848 Q 3884.032,-1080.32 3875.84,-1059.84 Q 3859.456,-1059.84 3864.576,-1072.128 M 4202.496,-867.328 Q 4164.608,-867.328 4134.4,-891.904 Q 4104.192,-916.48 4104.192,-966.6560000000001 Q 4104.192,-1008.6400000000001 4123.136,-1055.744 Q 4142.080000000001,-1102.848 4173.312,-1144.32 Q 4204.544,-1185.792 4242.944,-1211.904 Q 4281.344,-1238.016 4320.256,-1238.016 Q 4339.712,-1238.016 4358.144,-1226.752 Q 4376.576,-1215.488 4376.576,-1187.84 Q 4376.576,-1162.24 4357.12,-1131.52 Q 4337.664,-1100.8 4301.8240000000005,-1074.176 Q 4286.464000000001,-1062.912 4262.912,-1052.672 Q 4239.360000000001,-1042.432 4215.808,-1035.776 Q 4192.256,-1029.1200000000001 4176.896,-1029.1200000000001 Q 4171.776,-1016.8320000000001 4167.168,-996.352 Q 4162.5599999999995,-975.872 4162.56,-954.368 Q 4162.56,-928.768 4172.8,-908.288 Q 4183.04,-887.808 4210.688,-887.808 Q 4244.4800000000005,-887.808 4273.664,-907.264 Q 4302.848,-926.72 4325.888,-956.416 Q 4348.928,-986.1120000000001 4365.312,-1016.832 Q 4381.696,-1047.552 4390.912,-1069.056 Q 4403.2,-1069.056 4403.2,-1059.84 Q 4389.888,-1031.168 4372.992,-997.376 Q 4356.0960000000005,-963.584 4333.0560000000005,-934.4 Q 4310.0160000000005,-905.216 4277.76,-886.272 Q 4245.504,-867.3280000000001 4202.496,-867.3280000000001 M 4184.064,-1047.5520000000001 Q 4198.400000000001,-1047.5520000000001 4232.192,-1058.304 Q 4265.984,-1069.056 4293.6320000000005,-1092.608 Q 4320.256,-1116.1599999999999 4334.592,-1144.32 Q 4348.928,-1172.48 4348.928,-1191.936 Q 4348.928,-1214.464 4332.544,-1214.464 Q 4320.256,-1214.464 4298.752,-1198.08 Q 4277.2480000000005,-1181.696 4245.504,-1142.784 Q 4226.048,-1118.208 4208.64,-1089.536 Q 4191.232,-1060.864 4184.064,-1047.5520000000001 M 4613.12,-868.352 Q 4589.568,-868.352 4571.648,-881.664 Q 4553.728,-894.976 4553.728,-935.936 Q 4553.728,-953.344 4556.2880000000005,-968.7040000000001 Q 4558.848000000001,-984.0640000000001 4562.944,-1001.472 Q 4553.728,-986.112 4537.344,-963.5840000000001 Q 4520.96,-941.056 4500.992,-919.552 Q 4481.024,-898.048 4460.032,-883.712 Q 4439.04,-869.376 4420.608,-869.376 Q 4393.984,-869.376 4377.6,-893.44 Q 4361.216,-917.504 4361.216,-956.416 Q 4361.216,-998.4000000000001 4380.6720000000005,-1046.528 Q 4400.128000000001,-1094.656 4433.92,-1138.688 Q 4467.712,-1182.72 4511.744,-1210.368 Q 4555.776,-1238.0159999999998 4603.904,-1238.016 Q 4627.456,-1238.016 4648.96,-1230.336 Q 4670.464,-1222.656 4686.848,-1205.248 Q 4694.016,-1198.0800000000002 4694.0160000000005,-1188.864 Q 4694.0160000000005,-1182.72 4688.896,-1178.624 Q 4683.776,-1174.528 4675.584,-1176.576 Q 4664.32,-1212.416 4627.456,-1212.416 Q 4610.048,-1212.416 4587.52,-1201.152 Q 4559.872,-1186.816 4528.64,-1155.584 Q 4497.408,-1124.352 4470.272,-1084.928 Q 4443.1359999999995,-1045.5040000000001 4425.728,-1005.568 Q 4408.32,-965.632 4408.32,-932.864 Q 4408.32,-899.072 4433.92,-899.072 Q 4456.448,-899.072 4480.512,-920.576 Q 4504.576,-942.08 4526.592,-974.336 Q 4548.607999999999,-1006.592 4567.04,-1038.336 Q 4585.472,-1070.08 4595.712,-1089.536 Q 4611.072,-1117.184 4624.384,-1135.616 Q 4637.696,-1154.048 4662.272,-1154.048 Q 4673.536,-1154.048 4684.8,-1150.976 Q 4696.064,-1147.9040000000002 4708.352,-1149.952 Q 4677.632,-1119.232 4654.592,-1077.248 Q 4631.552,-1035.2640000000001 4619.264,-994.816 Q 4606.976000000001,-954.368 4606.976,-926.72 Q 4606.976,-896.0 4627.456,-896.0 Q 4643.84,-896.0 4662.784,-914.432 Q 4681.728,-932.864 4699.648,-961.024 Q 4717.568,-989.184 4732.928,-1018.368 Q 4748.288,-1047.5520000000001 4757.504,-1069.056 Q 4762.624,-1069.056 4766.2080000000005,-1068.032 Q 4769.792,-1067.008 4769.792,-1059.84 Q 4768.768,-1055.744 4766.2080000000005,-1051.136 Q 4763.648,-1046.528 4758.528,-1035.2640000000001 Q 4750.336,-1018.8800000000001 4736.0,-991.232 Q 4721.664,-963.584 4702.2080000000005,-935.424 Q 4682.752,-907.264 4660.224,-887.808 Q 4637.696,-868.352 4613.12,-868.352 M 4992.0,-871.424 Q 4957.184,-871.424 4940.8,-894.976 Q 4924.416,-918.528 4924.416,-950.272 Q 4924.416,-959.488 4925.4400000000005,-969.216 Q 4926.464000000001,-978.944 4929.536,-989.184 Q 4915.2,-966.656 4896.256,-939.52 Q 4877.312,-912.384 4853.2480000000005,-892.416 Q 4829.184,-872.4480000000001 4799.488,-872.448 Q 4786.176,-872.448 4769.28,-878.592 Q 4752.384,-884.736 4739.584,-902.144 Q 4726.784,-919.552 4726.784,-953.344 Q 4726.784,-997.3760000000001 4746.24,-1046.528 Q 4765.696,-1095.68 4799.488,-1139.2 Q 4833.280000000001,-1182.72 4876.2880000000005,-1209.856 Q 4919.296,-1236.992 4965.376,-1236.992 Q 5002.24,-1236.992 5035.008,-1217.536 Q 5050.3679999999995,-1246.208 5067.776,-1281.536 Q 5085.184,-1316.864 5102.592000000001,-1351.68 Q 5120.000000000001,-1386.496 5133.312,-1415.68 Q 5146.624,-1444.864 5153.792,-1460.224 Q 5169.152,-1496.0639999999999 5182.976,-1505.7920000000001 Q 5196.799999999999,-1515.5200000000002 5216.256,-1515.52 Q 5227.52,-1515.52 5241.344,-1512.96 Q 5255.168,-1510.4 5268.4800000000005,-1511.424 Q 5263.360000000001,-1506.304 5244.928,-1477.632 Q 5226.496,-1448.96 5199.872,-1403.392 Q 5173.2480000000005,-1357.824 5143.04,-1303.5520000000001 Q 5112.832,-1249.2800000000002 5083.648,-1192.448 Q 5054.464,-1135.616 5029.888,-1083.392 Q 5005.312,-1031.1680000000001 4990.976,-991.232 Q 4976.639999999999,-951.2959999999999 4976.64,-930.816 Q 4976.64,-917.504 4982.784,-907.7760000000001 Q 4988.928,-898.0480000000001 5003.264,-898.048 Q 5022.72,-898.048 5043.2,-917.504 Q 5063.679999999999,-936.96 5082.624,-966.144 Q 5101.568,-995.328 5116.416,-1023.488 Q 5131.264,-1051.6480000000001 5138.432,-1069.056 Q 5150.719999999999,-1069.056 5150.72,-1059.84 Q 5141.504,-1038.336 5126.144,-1006.592 Q 5110.784000000001,-974.848 5090.304,-944.128 Q 5069.8240000000005,-913.408 5044.736,-892.416 Q 5019.648,-871.4240000000001 4992.0,-871.4240000000001 M 4806.656,-902.144 Q 4820.992,-902.144 4842.496,-918.016 Q 4864.0,-933.8879999999999 4888.576,-968.7040000000001 Q 4917.248,-1009.6640000000001 4954.112,-1071.104 Q 4990.976,-1132.544 5026.816,-1201.152 Q 5019.648,-1207.296 5011.456,-1210.368 Q 5003.264,-1213.4399999999998 4988.928,-1213.44 Q 4965.376,-1213.44 4937.216,-1193.472 Q 4909.0560000000005,-1173.504 4880.896,-1141.76 Q 4852.736,-1110.016 4829.696,-1073.152 Q 4806.656,-1036.288 4792.832,-1001.984 Q 4779.008000000001,-967.6800000000001 4779.008,-943.104 Q 4779.008,-902.144 4806.656,-902.144 M 5212.16,-867.328 Q 5174.272,-867.328 5144.064,-891.904 Q 5113.856000000001,-916.48 5113.856,-966.6560000000001 Q 5113.856,-1008.6400000000001 5132.8,-1055.744 Q 5151.744000000001,-1102.848 5182.976,-1144.32 Q 5214.208,-1185.792 5252.608,-1211.904 Q 5291.008,-1238.016 5329.92,-1238.016 Q 5349.376,-1238.016 5367.808,-1226.752 Q 5386.24,-1215.488 5386.24,-1187.84 Q 5386.24,-1162.24 5366.784000000001,-1131.52 Q 5347.328,-1100.8 5311.488,-1074.176 Q 5296.128000000001,-1062.912 5272.576,-1052.672 Q 5249.024,-1042.432 5225.472,-1035.776 Q 5201.92,-1029.1200000000001 5186.56,-1029.1200000000001 Q 5181.4400000000005,-1016.8320000000001 5176.832,-996.352 Q 5172.224,-975.872 5172.224,-954.368 Q 5172.224,-928.768 5182.464,-908.288 Q 5192.704,-887.808 5220.352,-887.808 Q 5254.144,-887.808 5283.328,-907.264 Q 5312.512000000001,-926.72 5335.552,-956.416 Q 5358.592,-986.1120000000001 5374.976,-1016.832 Q 5391.36,-1047.552 5400.576,-1069.056 Q 5412.864,-1069.056 5412.8640000000005,-1059.84 Q 5399.552000000001,-1031.168 5382.656,-997.376 Q 5365.76,-963.584 5342.72,-934.4 Q 5319.68,-905.216 5287.424,-886.272 Q 5255.168,-867.3280000000001 5212.16,-867.3280000000001 M 5193.728,-1047.5520000000001 Q 5208.064,-1047.5520000000001 5241.856,-1058.304 Q 5275.648,-1069.056 5303.296,-1092.608 Q 5329.92,-1116.1599999999999 5344.256,-1144.32 Q 5358.592000000001,-1172.48 5358.592000000001,-1191.936 Q 5358.592000000001,-1214.464 5342.2080000000005,-1214.464 Q 5329.920000000001,-1214.464 5308.416,-1198.08 Q 5286.912,-1181.696 5255.168,-1142.784 Q 5235.7119999999995,-1118.208 5218.304,-1089.536 Q 5200.896,-1060.864 5193.728,-1047.5520000000001 M 5401.6,-1072.128 Q 5409.792,-1089.5359999999998 5423.104,-1127.936 Q 5436.416,-1166.336 5450.752,-1213.44 Q 5465.088000000001,-1260.544 5472.256,-1302.528 Q 5475.328,-1318.912 5483.52,-1326.592 Q 5491.712,-1334.2720000000002 5500.928,-1334.272 Q 5514.24,-1334.272 5525.504,-1321.472 Q 5536.768,-1308.672 5536.768,-1285.1200000000001 Q 5536.768,-1256.448 5519.872,-1235.968 Q 5502.976000000001,-1215.488 5478.400000000001,-1197.056 Q 5488.64,-1196.0320000000002 5499.904,-1195.52 Q 5511.168000000001,-1195.008 5524.4800000000005,-1195.008 Q 5572.608,-1195.008 5619.712,-1201.152 Q 5621.76,-1195.008 5621.76,-1191.936 Q 5621.76,-1178.624 5614.08,-1158.144 Q 5606.4,-1137.664 5598.2080000000005,-1121.28 Q 5594.112000000001,-1112.064 5581.8240000000005,-1088.0 Q 5569.536000000001,-1063.936 5555.2,-1033.728 Q 5540.864,-1003.5200000000001 5531.136,-974.336 Q 5521.408,-945.152 5521.408,-924.672 Q 5521.408,-898.048 5541.888,-898.048 Q 5561.344,-898.048 5596.16,-943.616 Q 5630.976,-989.184 5665.792,-1069.056 Q 5678.08,-1069.056 5678.08,-1059.84 Q 5666.816,-1032.192 5649.92,-999.424 Q 5633.024,-966.656 5612.544,-937.472 Q 5592.064,-908.288 5568.512,-889.344 Q 5544.96,-870.4000000000001 5519.36,-870.4 Q 5499.9039999999995,-870.4 5480.448,-886.272 Q 5460.992,-902.144 5460.992,-937.984 Q 5460.992,-969.7280000000001 5473.28,-999.936 Q 5485.567999999999,-1030.144 5500.928,-1056.768 Q 5516.288,-1083.392 5528.576,-1103.872 Q 5540.864,-1124.352 5540.8640000000005,-1136.64 Q 5540.8640000000005,-1155.0720000000001 5517.8240000000005,-1163.2640000000001 Q 5494.784000000001,-1171.4560000000001 5457.92,-1172.48 Q 5439.488,-1125.376 5430.272,-1102.848 Q 5421.056,-1080.32 5412.8640000000005,-1059.84 Q 5396.4800000000005,-1059.84 5401.6,-1072.128" fill="none" stroke="black" stroke-linecap="round" stroke-linejoin="round" stroke-width="8" /></svg>