<?xml version="1.0" encoding="utf-8" ?>
<svg baseProfile="tiny" height="1282.048px" version="1.2" viewBox="0 0 3951.616 1282.048" width="3951.616px" xmlns="http://www.w3.org/2000/svg" xmlns:ev="http://www.w3.org/2001/xml-events" xmlns:xlink="http://www.w3.org/1999/xlink"><defs /><path d="M 915.456,-828.416 Q 886.784,-828.416 858.624,-841.7280000000001 Q 830.464,-855.0400000000001 805.888,-880.64 Q 770.048,-917.504 743.936,-969.216 Q 717.8240000000001,-1020.928 699.392,-1075.712 Q 680.96,-1130.496 670.72,-1176.064 Q 660.48,-1221.632 656.384,-1246.208 Q 618.496,-1173.5040000000001 578.048,-1102.336 Q 537.6,-1031.1680000000001 475.136,-962.5600000000001 Q 415.744,-898.048 345.088,-864.768 Q 274.432,-831.488 198.656,-831.488 Q 175.104,-831.488 150.528,-834.5600000000001 Q 82.94399999999999,-842.7520000000001 51.2,-873.472 Q 19.456000000000003,-904.192 19.456,-939.008 Q 19.456,-976.8960000000001 53.248000000000005,-1007.616 Q 87.04,-1038.336 149.504,-1038.336 Q 169.98399999999998,-1038.336 193.536,-1034.24 Q 217.088,-1030.144 242.68800000000002,-1020.928 Q 253.95200000000003,-1016.832 253.952,-1011.712 Q 253.952,-1007.616 245.76,-1007.616 Q 240.64,-1007.616 237.568,-1008.64 Q 203.776,-1020.928 177.15200000000002,-1020.928 Q 134.144,-1020.928 111.616,-995.84 Q 89.088,-970.7520000000001 89.08800000000001,-941.056 Q 89.08800000000001,-912.384 113.664,-887.808 Q 138.24,-863.232 189.44,-863.232 Q 253.952,-863.232 308.224,-893.44 Q 362.496,-923.648 409.6,-976.384 Q 456.704,-1029.1200000000001 499.712,-1096.192 Q 542.72,-1163.2640000000001 583.6800000000001,-1235.968 Q 652.288,-1357.824 708.096,-1457.664 Q 763.904,-1557.504 826.368,-1627.136 Q 798.72,-1630.2079999999999 770.048,-1631.232 Q 741.376,-1632.2559999999999 711.6800000000001,-1632.256 Q 647.1680000000001,-1632.256 578.048,-1625.6000000000001 Q 508.928,-1618.9440000000002 444.416,-1604.608 Q 357.376,-1586.176 294.91200000000003,-1549.824 Q 232.44800000000004,-1513.472 196.096,-1468.928 Q 159.744,-1424.384 150.528,-1379.328 Q 147.456,-1362.944 147.45600000000002,-1347.584 Q 147.45600000000002,-1295.3600000000001 182.272,-1266.688 Q 217.088,-1238.016 262.144,-1238.016 Q 290.81600000000003,-1238.016 320.0,-1249.792 Q 349.184,-1261.568 372.736,-1287.1680000000001 Q 392.192,-1307.6480000000001 401.408,-1325.568 Q 410.624,-1343.488 411.648,-1352.704 Q 412.672,-1367.04 417.79200000000003,-1367.04 Q 420.86400000000003,-1367.04 423.42400000000004,-1361.92 Q 425.98400000000004,-1356.8000000000002 424.96000000000004,-1351.68 Q 420.86400000000003,-1328.1280000000002 410.624,-1305.6000000000001 Q 400.384,-1283.0720000000001 386.048,-1267.712 Q 357.376,-1238.016 320.512,-1223.68 Q 283.648,-1209.344 249.856,-1209.344 Q 209.92,-1209.344 174.592,-1226.752 Q 139.264,-1244.1599999999999 117.76,-1277.44 Q 96.256,-1310.72 96.256,-1359.872 Q 96.256,-1417.2160000000001 136.192,-1477.1200000000001 Q 176.12800000000001,-1537.0240000000001 256.512,-1583.104 Q 336.896,-1629.184 456.704,-1646.592 Q 517.12,-1654.784 573.952,-1659.392 Q 630.784,-1664.0 684.032,-1664.0 Q 727.0400000000001,-1664.0 768.0,-1660.928 Q 808.96,-1657.8560000000002 848.8960000000001,-1652.736 Q 875.5200000000001,-1680.384 884.736,-1680.384 Q 891.904,-1680.384 891.904,-1669.1200000000001 Q 891.904,-1665.0240000000001 890.88,-1658.88 Q 889.856,-1652.736 887.808,-1646.592 Q 915.456,-1642.496 941.568,-1637.8880000000001 Q 967.68,-1633.2800000000002 988.16,-1627.136 Q 1069.056,-1604.608 1106.432,-1568.256 Q 1143.808,-1531.904 1143.808,-1489.92 Q 1143.808,-1444.864 1103.3600000000001,-1399.808 Q 1062.912,-1354.752 989.696,-1319.936 Q 916.48,-1285.12 818.176,-1268.736 Q 786.432,-1263.6160000000002 762.368,-1261.568 Q 738.3040000000001,-1259.52 720.896,-1258.496 Q 722.944,-1248.256 730.112,-1215.488 Q 737.28,-1182.72 750.592,-1138.176 Q 763.904,-1093.6319999999998 784.8960000000001,-1044.48 Q 805.888,-995.328 835.5840000000001,-951.296 Q 859.1360000000001,-916.48 883.712,-893.952 Q 908.288,-871.424 935.936,-871.424 Q 953.344,-871.424 972.288,-880.64 Q 991.232,-889.856 1011.712,-910.336 Q 1036.288,-934.912 1056.768,-965.6320000000001 Q 1077.248,-996.3520000000001 1091.584,-1024.512 Q 1105.92,-1052.672 1113.088,-1069.056 Q 1119.232,-1069.056 1122.304,-1068.032 Q 1125.376,-1067.008 1125.376,-1059.84 Q 1121.28,-1049.6 1111.04,-1027.584 Q 1100.8,-1005.5680000000001 1086.976,-978.432 Q 1073.152,-951.296 1056.768,-924.672 Q 1040.384,-898.048 1024.0,-879.616 Q 1000.448,-854.016 971.264,-841.216 Q 942.08,-828.416 915.456,-828.416 M 677.888,-1286.144 Q 707.5840000000001,-1291.264 741.376,-1293.3120000000001 Q 775.168,-1295.3600000000001 807.936,-1299.4560000000001 Q 861.1840000000001,-1306.624 908.288,-1327.616 Q 955.392,-1348.608 991.744,-1378.304 Q 1028.096,-1408.0 1048.576,-1441.28 Q 1069.056,-1474.56 1069.056,-1505.28 Q 1069.056,-1574.912 975.8720000000001,-1601.536 Q 957.44,-1606.656 928.256,-1611.776 Q 899.072,-1616.896 875.52,-1620.992 Q 826.3679999999999,-1537.024 774.6560000000001,-1456.128 Q 722.9440000000001,-1375.232 677.888,-1286.144 M 1475.584,-777.216 Q 1375.232,-777.216 1291.776,-806.912 Q 1208.3200000000002,-836.6080000000001 1157.1200000000001,-894.464 Q 1105.92,-952.32 1100.8,-1037.3120000000001 Q 1098.752,-1072.1280000000002 1112.064,-1114.112 Q 1125.376,-1156.096 1149.44,-1197.568 Q 1173.5040000000001,-1239.04 1206.784,-1272.32 Q 1240.064,-1305.6 1277.952,-1323.008 Q 1281.024,-1325.056 1287.68,-1326.08 Q 1294.336,-1327.1039999999998 1297.4080000000001,-1327.104 Q 1303.5520000000001,-1327.104 1303.5520000000001,-1324.032 Q 1303.5520000000001,-1318.912 1288.192,-1307.6480000000001 Q 1245.184,-1273.8560000000002 1217.536,-1229.824 Q 1188.864,-1185.7920000000001 1174.528,-1135.616 Q 1160.192,-1085.44 1160.192,-1034.24 Q 1160.192,-973.824 1186.304,-930.304 Q 1212.4160000000002,-886.784 1256.448,-858.624 Q 1300.48,-830.464 1356.8,-817.152 Q 1413.12,-803.84 1474.56,-803.84 Q 1543.168,-803.84 1610.24,-819.2 Q 1677.312,-834.5600000000001 1732.608,-863.232 Q 1817.6,-908.288 1867.2640000000001,-974.8480000000001 Q 1916.928,-1041.4080000000001 1916.928,-1106.944 Q 1916.928,-1141.76 1902.08,-1173.5040000000001 Q 1887.232,-1205.248 1854.464,-1230.848 Q 1829.888,-1250.3039999999999 1794.56,-1267.712 Q 1759.232,-1285.12 1719.808,-1301.5040000000001 Q 1680.384,-1317.8880000000001 1642.496,-1334.784 Q 1604.6080000000002,-1351.68 1575.936,-1371.136 Q 1534.9759999999999,-1398.7839999999999 1516.032,-1430.528 Q 1497.088,-1462.272 1497.088,-1494.016 Q 1497.088,-1531.904 1519.104,-1567.7440000000001 Q 1541.1200000000001,-1603.584 1579.52,-1632.768 Q 1617.92,-1661.952 1666.048,-1678.336 Q 1708.032,-1692.672 1757.6960000000001,-1700.864 Q 1807.3600000000001,-1709.056 1855.488,-1709.056 Q 1895.424,-1709.056 1931.776,-1703.424 Q 1968.1280000000002,-1697.792 1995.776,-1683.4560000000001 Q 2030.592,-1667.0720000000001 2049.024,-1639.936 Q 2067.4559999999997,-1612.8 2067.456,-1583.104 Q 2067.456,-1542.144 2030.592,-1511.424 Q 2017.2800000000002,-1501.184 2000.896,-1492.48 Q 1984.512,-1483.776 1961.9840000000002,-1477.632 Q 1957.8880000000001,-1476.6080000000002 1952.768,-1476.608 Q 1940.48,-1476.608 1940.48,-1483.776 Q 1940.48,-1487.872 1947.136,-1492.48 Q 1953.792,-1497.088 1967.104,-1498.112 Q 1997.824,-1502.208 2013.6960000000001,-1521.664 Q 2029.5680000000002,-1541.12 2029.568,-1566.72 Q 2029.568,-1593.344 2011.6480000000001,-1619.4560000000001 Q 1993.728,-1645.5680000000002 1956.864,-1663.488 Q 1920.0,-1681.4080000000001 1862.656,-1681.4080000000001 Q 1829.888,-1681.4080000000001 1790.464,-1674.24 Q 1751.04,-1667.0720000000001 1704.96,-1650.688 Q 1648.64,-1631.2320000000002 1611.2640000000001,-1593.344 Q 1573.8880000000001,-1555.4560000000001 1573.888,-1512.448 Q 1573.888,-1485.824 1591.808,-1458.688 Q 1609.728,-1431.5520000000001 1649.664,-1406.976 Q 1683.456,-1386.496 1726.464,-1366.528 Q 1769.472,-1346.56 1813.5040000000001,-1326.592 Q 1857.536,-1306.624 1893.376,-1284.096 Q 1949.696,-1249.28 1974.272,-1209.344 Q 1998.848,-1169.4080000000001 1998.848,-1127.424 Q 1998.848,-1078.272 1969.664,-1028.608 Q 1940.48,-978.944 1893.376,-935.424 Q 1846.272,-891.904 1789.952,-858.112 Q 1724.416,-819.1999999999999 1641.984,-798.208 Q 1559.552,-777.216 1475.5839999999998,-777.216 M 2765.824,-1546.24 Q 2765.824,-1507.328 2750.976,-1450.496 Q 2736.128,-1393.664 2712.064,-1326.592 Q 2688.0,-1259.52 2661.376,-1189.888 Q 2634.7520000000004,-1120.2559999999999 2610.688,-1055.232 Q 2586.6240000000003,-990.208 2571.776,-937.472 Q 2556.928,-884.736 2556.928,-852.992 Q 2556.928,-804.8639999999999 2588.672,-804.864 Q 2619.392,-804.864 2663.424,-833.024 Q 2707.456,-861.184 2757.12,-908.8000000000001 Q 2806.784,-956.416 2854.9120000000003,-1017.344 Q 2903.0400000000004,-1078.2720000000002 2942.464,-1143.808 Q 2981.888,-1209.344 3005.44,-1273.344 Q 3028.992,-1337.344 3028.992,-1390.592 Q 3028.992,-1426.432 3019.264,-1455.104 Q 3009.536,-1483.776 2978.8160000000003,-1483.776 Q 2965.5040000000004,-1483.776 2957.824,-1489.4080000000001 Q 2950.1440000000002,-1495.0400000000002 2950.1440000000002,-1500.16 Q 2950.1440000000002,-1510.4 2967.552,-1510.4 Q 2979.84,-1510.4 2998.784,-1501.6960000000001 Q 3017.728,-1492.9920000000002 3036.672,-1475.0720000000001 Q 3055.616,-1457.152 3068.928,-1429.5040000000001 Q 3082.24,-1401.8560000000002 3082.2400000000002,-1363.968 Q 3082.2400000000002,-1316.864 3057.152,-1254.912 Q 3032.064,-1192.96 2989.568,-1126.912 Q 2947.072,-1060.864 2893.312,-997.888 Q 2839.5519999999997,-934.912 2781.184,-884.224 Q 2722.8160000000003,-833.5360000000001 2667.0080000000003,-803.328 Q 2611.2000000000003,-773.12 2564.096,-773.12 Q 2524.16,-773.12 2510.848,-797.696 Q 2497.536,-822.272 2497.536,-862.208 Q 2497.536,-924.672 2518.5280000000002,-998.4 Q 2539.5200000000004,-1072.128 2570.752,-1151.488 Q 2601.984,-1230.848 2633.216,-1309.6960000000001 Q 2664.448,-1388.544 2685.44,-1461.248 Q 2706.4320000000002,-1533.952 2706.4320000000002,-1595.392 Q 2706.4320000000002,-1665.0240000000001 2667.0080000000003,-1689.6000000000001 Q 2627.5840000000003,-1714.1760000000002 2564.096,-1714.176 Q 2501.632,-1714.176 2431.488,-1690.624 Q 2361.344,-1667.0720000000001 2294.272,-1624.064 Q 2227.2,-1581.056 2172.928,-1521.152 Q 2118.656,-1461.248 2086.4,-1388.032 Q 2054.1440000000002,-1314.8159999999998 2054.1440000000002,-1230.848 Q 2054.1440000000002,-1181.696 2071.04,-1139.2 Q 2087.936,-1096.704 2125.824,-1070.592 Q 2163.712,-1044.48 2225.152,-1044.48 Q 2271.232,-1044.48 2313.728,-1063.936 Q 2356.224,-1083.3919999999998 2388.992,-1116.672 Q 2421.76,-1149.952 2441.216,-1190.912 Q 2460.672,-1231.872 2460.672,-1274.88 Q 2460.672,-1309.6960000000001 2446.3360000000002,-1335.808 Q 2432.0000000000005,-1361.92 2398.208,-1361.92 Q 2384.896,-1361.92 2370.56,-1357.824 Q 2356.224,-1353.728 2351.1040000000003,-1353.728 Q 2345.9840000000004,-1353.728 2345.984,-1359.872 Q 2345.984,-1361.92 2348.032,-1364.992 Q 2350.08,-1368.0639999999999 2355.2000000000003,-1371.136 Q 2366.4640000000004,-1377.28 2382.848,-1380.864 Q 2399.232,-1384.448 2411.52,-1384.448 Q 2456.576,-1384.448 2481.152,-1352.704 Q 2505.728,-1320.96 2505.728,-1275.904 Q 2505.728,-1226.752 2480.128,-1180.672 Q 2454.5280000000002,-1134.592 2412.032,-1097.728 Q 2369.536,-1060.864 2316.8,-1039.3600000000001 Q 2264.0640000000003,-1017.8560000000001 2208.768,-1017.856 Q 2140.16,-1017.856 2092.544,-1051.648 Q 2044.9279999999999,-1085.4399999999998 2020.864,-1140.224 Q 1996.8,-1195.008 1996.8,-1257.472 Q 1996.8,-1338.368 2029.056,-1411.584 Q 2061.312,-1484.8000000000002 2117.632,-1544.704 Q 2173.952,-1604.608 2245.632,-1648.64 Q 2317.312,-1692.672 2396.672,-1716.736 Q 2476.032,-1740.8000000000002 2554.88,-1740.8 Q 2614.272,-1740.8 2661.888,-1721.344 Q 2709.504,-1701.8880000000001 2737.664,-1659.392 Q 2765.824,-1616.896 2765.824,-1546.24 M 3177.472,-831.488 Q 3154.9440000000004,-831.488 3133.44,-834.5600000000001 Q 3068.928,-842.7520000000001 3038.7200000000003,-872.448 Q 3008.512,-902.144 3008.512,-936.96 Q 3008.512,-974.8480000000001 3042.8160000000003,-1005.568 Q 3077.1200000000003,-1036.288 3139.5840000000003,-1036.288 Q 3159.0400000000004,-1036.288 3181.056,-1032.704 Q 3203.072,-1029.12 3227.648,-1020.928 Q 3239.936,-1016.832 3239.936,-1009.664 Q 3239.936,-1005.568 3233.792,-1005.568 Q 3227.648,-1005.568 3223.552,-1007.616 Q 3207.168,-1013.76 3192.32,-1016.32 Q 3177.472,-1018.88 3164.16,-1018.88 Q 3120.1279999999997,-1018.88 3097.088,-993.792 Q 3074.0480000000002,-968.7040000000001 3074.0480000000002,-939.008 Q 3074.0480000000002,-910.336 3097.6,-886.784 Q 3121.152,-863.232 3172.352,-863.232 Q 3236.864,-863.232 3291.648,-892.928 Q 3346.4320000000002,-922.624 3395.5840000000003,-970.7520000000001 Q 3447.8080000000004,-1021.9520000000001 3490.8160000000003,-1094.144 Q 3533.824,-1166.336 3576.32,-1248.768 Q 3618.8160000000003,-1331.2 3668.992,-1415.1680000000001 Q 3719.168,-1499.1360000000002 3784.704,-1572.864 Q 3798.016,-1587.2 3811.84,-1603.0720000000001 Q 3825.664,-1618.9440000000002 3838.976,-1630.208 Q 3804.1600000000003,-1635.328 3767.2960000000003,-1637.8880000000001 Q 3730.4320000000002,-1640.448 3694.592,-1640.448 Q 3641.344,-1640.448 3593.728,-1635.8400000000001 Q 3546.112,-1631.2320000000002 3499.0080000000003,-1623.04 Q 3450.88,-1613.824 3391.4880000000003,-1594.368 Q 3332.0960000000005,-1574.912 3276.288,-1543.68 Q 3220.48,-1512.448 3181.056,-1468.416 Q 3141.632,-1424.384 3132.416,-1367.04 Q 3131.3920000000003,-1361.92 3130.88,-1356.288 Q 3130.368,-1350.656 3130.368,-1345.536 Q 3130.368,-1298.432 3162.6240000000003,-1267.712 Q 3194.88,-1236.992 3237.888,-1236.992 Q 3269.632,-1236.992 3299.328,-1253.888 Q 3329.024,-1270.7839999999999 3352.576,-1298.944 Q 3376.128,-1327.104 3387.3920000000003,-1360.896 Q 3388.416,-1371.136 3395.5840000000003,-1371.136 Q 3401.728,-1371.136 3401.728,-1359.872 Q 3400.704,-1314.816 3375.616,-1282.048 Q 3350.528,-1249.28 3312.64,-1232.384 Q 3274.752,-1215.488 3235.84,-1215.488 Q 3195.904,-1215.488 3160.064,-1232.384 Q 3124.2239999999997,-1249.28 3101.696,-1282.56 Q 3079.168,-1315.84 3079.168,-1364.992 Q 3079.168,-1422.336 3107.328,-1466.368 Q 3135.488,-1510.3999999999999 3182.592,-1543.68 Q 3229.696,-1576.96 3284.992,-1600.0 Q 3340.288,-1623.04 3395.5840000000003,-1636.864 Q 3450.88,-1650.688 3495.936,-1657.856 Q 3542.016,-1665.024 3591.6800000000003,-1669.1200000000001 Q 3641.3440000000005,-1673.2160000000001 3692.544,-1673.2160000000001 Q 3736.576,-1673.2160000000001 3780.608,-1669.1200000000001 Q 3824.6400000000003,-1665.0240000000001 3866.6240000000003,-1656.832 Q 3884.032,-1670.144 3902.464,-1680.384 Q 3920.8959999999997,-1690.624 3943.424,-1698.816 Q 3957.7599999999998,-1704.96 3964.928,-1704.96 Q 3971.0719999999997,-1704.96 3971.072,-1700.864 Q 3971.072,-1693.6960000000001 3954.688,-1683.4560000000001 Q 3946.496,-1679.3600000000001 3934.208,-1669.1200000000001 Q 3921.92,-1658.88 3907.5840000000003,-1645.568 Q 3974.1440000000002,-1629.184 4027.3920000000003,-1596.416 Q 4085.76,-1561.6 4110.848,-1522.688 Q 4135.936,-1483.776 4135.936,-1442.816 Q 4135.936,-1395.712 4107.264,-1349.1200000000001 Q 4078.592,-1302.528 4032.512,-1262.592 Q 3986.4320000000002,-1222.6560000000002 3931.136,-1193.472 Q 3875.84,-1164.288 3821.568,-1150.976 Q 3769.344,-1137.6640000000002 3716.096,-1131.52 Q 3662.848,-1125.376 3620.864,-1125.376 Q 3613.696,-1125.376 3606.016,-1125.376 Q 3598.3360000000002,-1125.376 3591.168,-1126.4 Q 3556.3520000000003,-1077.248 3519.4880000000003,-1030.656 Q 3482.6240000000003,-984.064 3436.544,-940.032 Q 3380.2239999999997,-886.784 3313.664,-859.136 Q 3247.1040000000003,-831.4879999999999 3177.472,-831.4879999999999 M 3605.504,-1148.928 Q 3644.4159999999997,-1147.9040000000002 3692.544,-1155.0720000000001 Q 3740.672,-1162.24 3788.8,-1176.576 Q 3868.672,-1201.152 3932.672,-1247.232 Q 3996.672,-1293.312 4034.0480000000002,-1349.632 Q 4071.4240000000004,-1405.952 4071.424,-1460.224 Q 4071.424,-1492.992 4055.552,-1522.688 Q 4039.6800000000003,-1552.384 4003.84,-1575.936 Q 3980.288,-1591.2959999999998 3950.592,-1602.56 Q 3920.896,-1613.8239999999998 3888.128,-1620.992 Q 3835.904,-1547.264 3790.3360000000002,-1467.392 Q 3744.768,-1387.52 3700.224,-1306.624 Q 3655.6800000000003,-1225.728 3605.5040000000004,-1148.928" fill="none" stroke="black" stroke-linecap="round" stroke-linejoin="round" stroke-width="8" /></svg>