<?xml version="1.0" encoding="utf-8" ?>
<svg baseProfile="tiny" height="1282.048px" version="1.2" viewBox="0 0 5452.8 1282.048" width="5452.8px" xmlns="http://www.w3.org/2000/svg" xmlns:ev="http://www.w3.org/2001/xml-events" xmlns:xlink="http://www.w3.org/1999/xlink"><defs /><path d="M 323.584,-808.96 Q 219.136,-808.96 160.256,-873.472 Q 101.376,-937.9839999999999 101.376,-1056.768 Q 101.376,-1131.52 132.096,-1211.392 Q 89.088,-1241.088 70.144,-1278.464 Q 51.2,-1315.84 51.2,-1369.088 Q 51.2,-1439.744 83.456,-1495.04 Q 115.712,-1550.336 169.984,-1589.76 Q 224.256,-1629.184 291.84000000000003,-1649.664 Q 359.42400000000004,-1670.144 429.056,-1670.144 Q 497.664,-1670.144 562.176,-1649.152 Q 626.6880000000001,-1628.16 677.376,-1584.64 Q 728.064,-1541.1200000000001 756.224,-1474.56 Q 784.384,-1408.0 780.288,-1315.84 Q 828.416,-1345.5359999999998 863.744,-1380.864 Q 899.072,-1416.192 915.456,-1445.888 Q 920.576,-1455.1039999999998 925.696,-1455.104 Q 930.816,-1455.104 932.352,-1446.912 Q 933.8879999999999,-1438.72 926.72,-1427.4560000000001 Q 901.12,-1387.5200000000002 863.744,-1348.608 Q 826.368,-1309.696 776.192,-1278.976 Q 775.168,-1256.448 769.5360000000001,-1228.288 Q 763.9040000000001,-1200.128 753.664,-1169.4080000000001 Q 734.208,-1106.9440000000002 691.712,-1043.4560000000001 Q 649.216,-979.9680000000001 590.848,-926.72 Q 532.4799999999999,-873.472 463.872,-841.216 Q 395.264,-808.96 323.584,-808.96 M 357.37600000000003,-1188.864 Q 443.39200000000005,-1188.864 539.136,-1213.952 Q 634.88,-1239.04 718.8480000000001,-1283.0720000000001 Q 720.8960000000001,-1296.384 720.896,-1309.184 Q 720.896,-1321.984 720.896,-1334.272 Q 720.896,-1438.72 684.544,-1508.352 Q 648.192,-1577.9840000000002 583.6800000000001,-1612.8 Q 519.1680000000001,-1647.616 433.152,-1647.616 Q 366.592,-1647.616 307.712,-1627.136 Q 248.832,-1606.656 203.264,-1569.7920000000001 Q 157.69600000000003,-1532.928 132.096,-1482.752 Q 106.49600000000001,-1432.576 106.49600000000001,-1372.16 Q 106.49600000000001,-1344.5120000000002 114.176,-1312.256 Q 121.856,-1280.0 150.528,-1254.4 Q 164.864,-1285.1200000000001 189.44,-1323.52 Q 214.016,-1361.92 246.272,-1401.344 Q 278.528,-1440.768 315.904,-1473.536 Q 353.28,-1506.304 393.728,-1526.272 Q 434.176,-1546.24 475.136,-1546.24 Q 492.54400000000004,-1546.24 510.464,-1542.144 Q 528.384,-1538.048 544.768,-1527.808 Q 552.96,-1522.688 552.96,-1518.592 Q 552.96,-1515.5200000000002 548.352,-1513.472 Q 543.744,-1511.424 536.576,-1513.472 Q 523.264,-1517.568 506.88,-1517.568 Q 470.01599999999996,-1517.568 432.128,-1495.5520000000001 Q 394.24,-1473.536 358.40000000000003,-1438.208 Q 322.56000000000006,-1402.88 291.84000000000003,-1362.432 Q 261.12,-1321.984 238.08,-1283.584 Q 215.04000000000002,-1245.184 202.752,-1218.56 Q 265.216,-1188.864 357.376,-1188.864 M 331.776,-833.5360000000001 Q 389.12,-833.5360000000001 443.904,-862.208 Q 498.688,-890.88 547.328,-940.032 Q 595.968,-989.1840000000001 633.856,-1049.6 Q 671.744,-1110.0159999999998 694.272,-1173.5040000000001 Q 700.416,-1190.912 705.5360000000001,-1209.856 Q 710.6560000000001,-1228.8 711.6800000000001,-1246.208 Q 628.7360000000001,-1202.1760000000002 534.528,-1178.624 Q 440.32000000000005,-1155.0720000000001 354.30400000000003,-1155.0720000000001 Q 259.072,-1155.0720000000001 188.416,-1182.72 Q 156.672,-1101.824 156.672,-1024.0 Q 156.672,-928.768 206.336,-881.152 Q 256.0,-833.5360000000001 331.776,-833.5360000000001 M 856.064,-868.352 Q 818.1759999999999,-868.352 800.256,-891.392 Q 782.336,-914.432 782.336,-946.176 Q 782.336,-978.9440000000001 791.552,-1013.76 Q 800.768,-1048.576 807.936,-1072.128 Q 824.32,-1129.472 849.408,-1194.496 Q 874.496,-1259.52 904.7040000000001,-1322.496 Q 934.912,-1385.4720000000002 964.6080000000001,-1435.6480000000001 Q 988.1600000000001,-1475.584 1015.296,-1495.5520000000001 Q 1042.432,-1515.5200000000002 1062.912,-1515.52 Q 1079.296,-1515.52 1089.0240000000001,-1503.7440000000001 Q 1098.7520000000002,-1491.968 1098.752,-1468.416 Q 1098.752,-1452.032 1093.1200000000001,-1429.5040000000001 Q 1087.488,-1406.976 1074.176,-1378.304 Q 1038.336,-1298.432 988.672,-1218.56 Q 939.008,-1138.6879999999999 863.232,-1069.056 Q 850.944,-1040.384 842.7520000000001,-1007.616 Q 834.5600000000001,-974.848 834.5600000000001,-954.368 Q 834.5600000000001,-890.8800000000001 877.568,-890.88 Q 910.336,-890.88 950.272,-938.496 Q 990.2080000000001,-986.112 1026.048,-1069.056 Q 1030.144,-1069.056 1034.24,-1067.52 Q 1038.336,-1065.984 1038.336,-1059.84 Q 1027.0720000000001,-1032.192 1010.176,-998.912 Q 993.2800000000001,-965.6320000000001 971.264,-935.936 Q 949.248,-906.24 920.576,-887.296 Q 891.904,-868.3520000000001 856.0640000000001,-868.3520000000001 M 871.424,-1101.824 Q 908.288,-1139.712 943.104,-1189.376 Q 977.9200000000001,-1239.04 1008.128,-1292.8 Q 1038.336,-1346.56 1058.816,-1394.688 Q 1065.984,-1410.048 1070.592,-1428.48 Q 1075.2,-1446.912 1075.2,-1459.2 Q 1075.2,-1473.536 1068.032,-1473.536 Q 1063.936,-1473.536 1055.744,-1465.856 Q 1047.552,-1458.176 1034.24,-1439.7440000000001 Q 1014.784,-1414.1440000000002 991.744,-1370.112 Q 968.7040000000001,-1326.0800000000002 945.152,-1275.904 Q 921.6,-1225.728 902.144,-1179.136 Q 882.688,-1132.5439999999999 871.424,-1101.824 M 1260.544,-871.424 Q 1225.728,-871.424 1209.344,-894.976 Q 1192.96,-918.528 1192.96,-950.272 Q 1192.96,-959.488 1193.984,-969.216 Q 1195.0079999999998,-978.944 1198.08,-989.184 Q 1183.744,-966.656 1164.8,-939.52 Q 1145.856,-912.384 1121.792,-892.416 Q 1097.7279999999998,-872.4480000000001 1068.032,-872.448 Q 1054.72,-872.448 1037.824,-878.592 Q 1020.9280000000001,-884.736 1008.128,-902.144 Q 995.3280000000001,-919.552 995.328,-953.344 Q 995.328,-997.3760000000001 1014.784,-1046.528 Q 1034.24,-1095.68 1068.032,-1139.2 Q 1101.8239999999998,-1182.72 1144.832,-1209.856 Q 1187.8400000000001,-1236.992 1233.92,-1236.992 Q 1270.784,-1236.992 1303.5520000000001,-1217.536 Q 1318.912,-1246.208 1336.32,-1281.536 Q 1353.7279999999998,-1316.864 1371.136,-1351.68 Q 1388.5439999999999,-1386.496 1401.856,-1415.68 Q 1415.168,-1444.864 1422.336,-1460.224 Q 1437.696,-1496.0639999999999 1451.52,-1505.7920000000001 Q 1465.344,-1515.5200000000002 1484.8,-1515.52 Q 1496.0639999999999,-1515.52 1509.888,-1512.96 Q 1523.712,-1510.4 1537.0240000000001,-1511.424 Q 1531.9040000000002,-1506.304 1513.472,-1477.632 Q 1495.04,-1448.96 1468.416,-1403.392 Q 1441.792,-1357.824 1411.584,-1303.5520000000001 Q 1381.376,-1249.2800000000002 1352.192,-1192.448 Q 1323.008,-1135.616 1298.432,-1083.392 Q 1273.856,-1031.1680000000001 1259.52,-991.232 Q 1245.184,-951.2959999999999 1245.184,-930.816 Q 1245.184,-917.504 1251.328,-907.7760000000001 Q 1257.472,-898.0480000000001 1271.808,-898.048 Q 1291.264,-898.048 1311.744,-917.504 Q 1332.224,-936.96 1351.1680000000001,-966.144 Q 1370.112,-995.328 1384.96,-1023.488 Q 1399.808,-1051.6480000000001 1406.976,-1069.056 Q 1419.2640000000001,-1069.056 1419.2640000000001,-1059.84 Q 1410.0480000000002,-1038.336 1394.688,-1006.592 Q 1379.3280000000002,-974.848 1358.848,-944.128 Q 1338.368,-913.408 1313.28,-892.416 Q 1288.192,-871.4240000000001 1260.5439999999999,-871.4240000000001 M 1075.2,-902.144 Q 1089.536,-902.144 1111.04,-918.016 Q 1132.5439999999999,-933.8879999999999 1157.1200000000001,-968.7040000000001 Q 1185.7920000000001,-1009.6640000000001 1222.656,-1071.104 Q 1259.52,-1132.544 1295.3600000000001,-1201.152 Q 1288.1920000000002,-1207.296 1280.0,-1210.368 Q 1271.808,-1213.4399999999998 1257.472,-1213.44 Q 1233.92,-1213.44 1205.76,-1193.472 Q 1177.6,-1173.504 1149.44,-1141.76 Q 1121.28,-1110.016 1098.24,-1073.152 Q 1075.2,-1036.288 1061.376,-1001.984 Q 1047.552,-967.6800000000001 1047.5520000000001,-943.104 Q 1047.5520000000001,-902.144 1075.2,-902.144 M 2919.424,-753.664 Q 2904.064,-755.712 2877.44,-761.344 Q 2850.8160000000003,-766.976 2823.168,-783.36 Q 2795.52,-799.744 2776.064,-833.024 Q 2756.6079999999997,-866.304 2756.608,-921.6 Q 2756.608,-985.088 2782.7200000000003,-1061.376 Q 2808.8320000000003,-1137.664 2846.7200000000003,-1220.608 Q 2884.608,-1303.552 2919.424,-1384.448 Q 2947.072,-1448.96 2947.072,-1482.752 Q 2947.072,-1516.5439999999999 2921.472,-1516.544 Q 2892.8,-1516.544 2835.968,-1470.976 Q 2779.136,-1425.4080000000001 2704.384,-1333.248 Q 2684.928,-1308.672 2654.208,-1265.152 Q 2623.4880000000003,-1221.632 2588.672,-1168.896 Q 2553.856,-1116.1599999999999 2520.576,-1062.4 Q 2487.296,-1008.6400000000001 2462.208,-963.5840000000001 Q 2437.12,-918.528 2425.856,-891.904 Q 2412.5440000000003,-860.16 2395.136,-848.384 Q 2377.728,-836.6080000000001 2362.368,-836.6080000000001 Q 2349.056,-836.6080000000001 2339.84,-843.7760000000001 Q 2329.6000000000004,-850.9440000000001 2329.6,-861.184 Q 2329.6,-867.328 2332.672,-871.424 Q 2338.816,-883.712 2363.392,-927.744 Q 2387.968,-971.7760000000001 2420.736,-1044.48 Q 2453.504,-1117.184 2483.2000000000003,-1213.44 Q 2492.416,-1243.136 2502.1440000000002,-1282.048 Q 2511.8720000000003,-1320.96 2520.064,-1362.432 Q 2528.256,-1403.904 2533.888,-1440.256 Q 2539.52,-1476.6080000000002 2539.52,-1499.136 Q 2539.52,-1534.9759999999999 2527.232,-1551.872 Q 2514.944,-1568.768 2494.464,-1568.768 Q 2471.936,-1568.768 2443.264,-1549.3120000000001 Q 2414.592,-1529.8560000000002 2384.896,-1492.992 Q 2333.6960000000004,-1428.48 2294.784,-1373.6960000000001 Q 2255.8720000000003,-1318.912 2223.616,-1264.64 Q 2191.36,-1210.3680000000002 2160.128,-1148.928 Q 2128.896,-1087.488 2094.08,-1011.2 Q 2059.264,-934.912 2014.208,-834.5600000000001 Q 2007.0400000000002,-818.176 1990.144,-811.008 Q 1973.248,-803.84 1958.912,-803.84 Q 1944.576,-803.84 1935.3600000000001,-809.984 Q 1926.1440000000002,-816.128 1929.2160000000001,-827.392 Q 1951.7440000000001,-863.2320000000001 1979.392,-916.9920000000001 Q 2007.04,-970.7520000000001 2035.712,-1036.288 Q 2064.384,-1101.824 2091.0080000000003,-1172.48 Q 2117.632,-1243.136 2138.6240000000003,-1310.72 Q 2159.6160000000004,-1378.304 2171.904,-1437.6960000000001 Q 2184.192,-1497.0880000000002 2184.192,-1539.0720000000001 Q 2184.192,-1617.92 2150.9120000000003,-1651.712 Q 2117.632,-1685.504 2065.408,-1685.5040000000001 Q 2019.328,-1685.5040000000001 1964.0320000000002,-1662.976 Q 1908.736,-1640.448 1852.928,-1601.536 Q 1797.1200000000001,-1562.624 1747.968,-1513.472 Q 1677.3120000000001,-1442.816 1636.864,-1359.872 Q 1596.416,-1276.928 1596.416,-1191.936 Q 1596.416,-1134.5919999999999 1617.92,-1094.656 Q 1639.424,-1054.72 1674.752,-1034.24 Q 1710.08,-1013.76 1753.088,-1013.76 Q 1797.12,-1013.76 1835.52,-1035.776 Q 1873.92,-1057.7920000000001 1903.104,-1093.1200000000001 Q 1932.288,-1128.448 1948.672,-1167.872 Q 1965.056,-1207.296 1965.056,-1242.112 Q 1965.056,-1271.808 1948.672,-1291.2640000000001 Q 1932.288,-1310.72 1896.448,-1310.72 Q 1892.352,-1310.72 1887.7440000000001,-1310.208 Q 1883.1360000000002,-1309.6960000000001 1878.016,-1309.6960000000001 L 1874.944,-1309.6960000000001 Q 1867.776,-1309.6960000000001 1861.632,-1312.256 Q 1855.488,-1314.816 1855.488,-1318.912 Q 1855.488,-1323.008 1866.24,-1328.128 Q 1876.992,-1333.2479999999998 1905.664,-1333.248 Q 1951.744,-1333.248 1974.784,-1306.112 Q 1997.824,-1278.976 1997.824,-1236.992 Q 1997.824,-1196.032 1976.832,-1153.0240000000001 Q 1955.8400000000001,-1110.016 1920.0,-1073.152 Q 1884.16,-1036.288 1839.616,-1013.76 Q 1795.072,-991.232 1747.968,-991.232 Q 1692.672,-991.232 1645.056,-1016.832 Q 1597.44,-1042.432 1568.768,-1091.0720000000001 Q 1540.096,-1139.7120000000002 1540.096,-1207.296 Q 1540.096,-1271.808 1566.72,-1334.784 Q 1593.344,-1397.7600000000002 1635.8400000000001,-1453.568 Q 1678.3360000000002,-1509.376 1726.464,-1552.384 Q 1779.712,-1600.512 1839.104,-1634.816 Q 1898.496,-1669.1200000000001 1957.376,-1688.064 Q 2016.256,-1707.008 2067.456,-1707.008 Q 2143.232,-1707.008 2192.896,-1661.952 Q 2242.5600000000004,-1616.896 2242.56,-1516.544 Q 2242.56,-1475.584 2231.296,-1422.848 Q 2220.0319999999997,-1370.1119999999999 2204.672,-1317.376 Q 2189.312,-1264.6399999999999 2174.976,-1223.68 L 2177.024,-1223.68 Q 2213.888,-1290.24 2243.072,-1337.856 Q 2272.2560000000003,-1385.472 2301.952,-1426.432 Q 2331.648,-1467.392 2368.512,-1512.448 Q 2400.2560000000003,-1550.336 2441.216,-1572.864 Q 2482.176,-1595.392 2520.064,-1595.392 Q 2553.8559999999998,-1595.392 2577.408,-1572.864 Q 2600.96,-1550.336 2600.96,-1496.064 Q 2600.96,-1489.92 2600.96,-1485.824 Q 2600.96,-1481.728 2599.936,-1473.536 Q 2590.7200000000003,-1375.232 2561.024,-1280.512 Q 2531.328,-1185.792 2499.584,-1089.536 Q 2531.328,-1138.688 2585.6,-1214.464 Q 2639.872,-1290.24 2704.384,-1371.136 Q 2783.232,-1469.44 2850.8160000000003,-1518.592 Q 2918.4,-1567.7440000000001 2962.4320000000002,-1567.7440000000001 Q 3017.728,-1567.7440000000001 3017.728,-1500.16 Q 3017.728,-1474.5600000000002 3008.0,-1438.72 Q 2998.272,-1402.88 2977.792,-1362.944 Q 2955.264,-1317.888 2928.128,-1259.008 Q 2900.992,-1200.128 2876.416,-1135.616 Q 2851.84,-1071.104 2835.968,-1009.152 Q 2820.096,-947.2 2820.096,-894.976 Q 2820.096,-838.656 2846.208,-804.352 Q 2872.32,-770.048 2936.832,-770.048 L 2942.976,-770.048 Q 2958.3360000000002,-770.048 2958.3360000000002,-763.904 Q 2958.3360000000002,-759.808 2948.096,-755.712 Q 2937.856,-751.616 2919.424,-753.664 M 2978.8160000000003,-871.424 Q 2940.9280000000003,-871.424 2925.568,-893.44 Q 2910.208,-915.456 2910.208,-944.128 Q 2910.208,-959.488 2913.792,-975.36 Q 2917.3759999999997,-991.232 2922.496,-1004.544 L 2991.1040000000003,-1179.6480000000001 Q 2994.1760000000004,-1187.8400000000001 2994.176,-1193.984 Q 2994.176,-1204.224 2989.056,-1211.904 Q 2983.936,-1219.584 2981.888,-1222.656 L 3038.208,-1224.704 Q 3053.568,-1225.7279999999998 3060.224,-1221.1200000000001 Q 3066.88,-1216.5120000000002 3066.88,-1210.368 Q 3066.88,-1204.224 3059.712,-1187.84 Q 3049.472,-1163.264 3032.064,-1126.4 Q 3014.656,-1089.536 2997.76,-1050.624 Q 2980.864,-1011.712 2969.088,-977.9200000000001 Q 2957.3120000000004,-944.128 2957.312,-925.696 Q 2957.312,-912.384 2963.968,-903.168 Q 2970.624,-893.952 2987.0080000000003,-893.952 Q 3008.512,-893.952 3029.504,-910.8480000000001 Q 3050.496,-927.744 3068.928,-954.368 Q 3087.3599999999997,-980.9920000000001 3103.232,-1011.712 Q 3119.104,-1042.432 3130.368,-1069.056 Q 3142.656,-1069.056 3142.656,-1059.84 Q 3132.416,-1034.24 3116.032,-1001.472 Q 3099.648,-968.704 3078.656,-939.52 Q 3057.6639999999998,-910.336 3032.576,-890.88 Q 3007.488,-871.424 2978.816,-871.424 M 3069.952,-1288.192 Q 3056.6400000000003,-1288.192 3046.9120000000003,-1298.432 Q 3037.184,-1308.672 3037.184,-1323.008 Q 3037.184,-1340.416 3051.52,-1354.24 Q 3065.8559999999998,-1368.064 3083.264,-1368.064 Q 3097.6,-1368.064 3107.84,-1358.848 Q 3118.08,-1349.632 3118.08,-1335.296 Q 3118.08,-1316.864 3103.744,-1302.528 Q 3089.4080000000004,-1288.192 3069.952,-1288.192 M 3178.496,-868.352 Q 3140.608,-868.352 3122.688,-891.392 Q 3104.768,-914.432 3104.768,-946.176 Q 3104.768,-978.9440000000001 3113.984,-1013.76 Q 3123.2,-1048.576 3130.368,-1072.128 Q 3146.752,-1129.472 3171.84,-1194.496 Q 3196.9280000000003,-1259.52 3227.136,-1322.496 Q 3257.344,-1385.4720000000002 3287.04,-1435.6480000000001 Q 3310.592,-1475.584 3337.728,-1495.5520000000001 Q 3364.864,-1515.5200000000002 3385.344,-1515.52 Q 3401.728,-1515.52 3411.456,-1503.7440000000001 Q 3421.184,-1491.968 3421.184,-1468.416 Q 3421.184,-1452.032 3415.552,-1429.5040000000001 Q 3409.92,-1406.976 3396.608,-1378.304 Q 3360.768,-1298.432 3311.1040000000003,-1218.56 Q 3261.44,-1138.6879999999999 3185.664,-1069.056 Q 3173.376,-1040.384 3165.184,-1007.616 Q 3156.992,-974.848 3156.992,-954.368 Q 3156.992,-890.8800000000001 3200.0,-890.88 Q 3232.768,-890.88 3272.704,-938.496 Q 3312.6400000000003,-986.112 3348.48,-1069.056 Q 3352.576,-1069.056 3356.672,-1067.52 Q 3360.768,-1065.984 3360.768,-1059.84 Q 3349.504,-1032.192 3332.608,-998.912 Q 3315.712,-965.6320000000001 3293.696,-935.936 Q 3271.68,-906.24 3243.0080000000003,-887.296 Q 3214.3360000000002,-868.3520000000001 3178.496,-868.3520000000001 M 3193.856,-1101.824 Q 3230.7200000000003,-1139.712 3265.536,-1189.376 Q 3300.352,-1239.04 3330.56,-1292.8 Q 3360.768,-1346.56 3381.248,-1394.688 Q 3388.416,-1410.048 3393.024,-1428.48 Q 3397.632,-1446.912 3397.632,-1459.2 Q 3397.632,-1473.536 3390.464,-1473.536 Q 3386.368,-1473.536 3378.176,-1465.856 Q 3369.984,-1458.176 3356.672,-1439.7440000000001 Q 3337.216,-1414.1440000000002 3314.176,-1370.112 Q 3291.136,-1326.0800000000002 3267.5840000000003,-1275.904 Q 3244.032,-1225.728 3224.576,-1179.136 Q 3205.12,-1132.5439999999999 3193.856,-1101.824 M 3396.608,-868.352 Q 3358.7200000000003,-868.352 3340.8,-891.392 Q 3322.88,-914.432 3322.88,-946.176 Q 3322.88,-978.9440000000001 3332.096,-1013.76 Q 3341.312,-1048.576 3348.48,-1072.128 Q 3364.864,-1129.472 3389.952,-1194.496 Q 3415.0400000000004,-1259.52 3445.248,-1322.496 Q 3475.456,-1385.4720000000002 3505.152,-1435.6480000000001 Q 3528.704,-1475.584 3555.84,-1495.5520000000001 Q 3582.976,-1515.5200000000002 3603.456,-1515.52 Q 3619.84,-1515.52 3629.568,-1503.7440000000001 Q 3639.2960000000003,-1491.968 3639.2960000000003,-1468.416 Q 3639.2960000000003,-1452.032 3633.664,-1429.5040000000001 Q 3628.032,-1406.976 3614.7200000000003,-1378.304 Q 3578.88,-1298.432 3529.216,-1218.56 Q 3479.5519999999997,-1138.6879999999999 3403.7760000000003,-1069.056 Q 3391.4880000000003,-1040.384 3383.2960000000003,-1007.616 Q 3375.1040000000003,-974.848 3375.1040000000003,-954.368 Q 3375.1040000000003,-890.8800000000001 3418.112,-890.88 Q 3450.88,-890.88 3490.8160000000003,-938.496 Q 3530.7520000000004,-986.112 3566.592,-1069.056 Q 3570.688,-1069.056 3574.784,-1067.52 Q 3578.88,-1065.984 3578.88,-1059.84 Q 3567.616,-1032.192 3550.7200000000003,-998.912 Q 3533.824,-965.6320000000001 3511.808,-935.936 Q 3489.792,-906.24 3461.12,-887.296 Q 3432.448,-868.3520000000001 3396.6079999999997,-868.3520000000001 M 3411.968,-1101.824 Q 3448.832,-1139.712 3483.648,-1189.376 Q 3518.464,-1239.04 3548.672,-1292.8 Q 3578.88,-1346.56 3599.36,-1394.688 Q 3606.5280000000002,-1410.048 3611.136,-1428.48 Q 3615.744,-1446.912 3615.744,-1459.2 Q 3615.744,-1473.536 3608.576,-1473.536 Q 3604.48,-1473.536 3596.288,-1465.856 Q 3588.096,-1458.176 3574.784,-1439.7440000000001 Q 3555.328,-1414.1440000000002 3532.288,-1370.112 Q 3509.248,-1326.0800000000002 3485.696,-1275.904 Q 3462.144,-1225.728 3442.688,-1179.136 Q 3423.232,-1132.5439999999999 3411.9680000000003,-1101.824 M 3595.264,-871.424 Q 3557.376,-871.424 3542.016,-893.44 Q 3526.656,-915.456 3526.656,-944.128 Q 3526.656,-959.488 3530.2400000000002,-975.36 Q 3533.824,-991.232 3538.944,-1004.544 L 3607.552,-1179.6480000000001 Q 3610.6240000000003,-1187.8400000000001 3610.6240000000003,-1193.984 Q 3610.6240000000003,-1204.224 3605.504,-1211.904 Q 3600.384,-1219.584 3598.3360000000002,-1222.656 L 3654.656,-1224.704 Q 3670.016,-1225.7279999999998 3676.672,-1221.1200000000001 Q 3683.328,-1216.5120000000002 3683.328,-1210.368 Q 3683.328,-1204.224 3676.16,-1187.84 Q 3665.92,-1163.264 3648.512,-1126.4 Q 3631.1040000000003,-1089.536 3614.208,-1050.624 Q 3597.312,-1011.712 3585.536,-977.9200000000001 Q 3573.76,-944.128 3573.76,-925.696 Q 3573.76,-912.384 3580.416,-903.168 Q 3587.072,-893.952 3603.456,-893.952 Q 3624.96,-893.952 3645.952,-910.8480000000001 Q 3666.9440000000004,-927.744 3685.376,-954.368 Q 3703.808,-980.9920000000001 3719.6800000000003,-1011.712 Q 3735.552,-1042.432 3746.8160000000003,-1069.056 Q 3759.1040000000003,-1069.056 3759.1040000000003,-1059.84 Q 3748.8640000000005,-1034.24 3732.48,-1001.472 Q 3716.096,-968.704 3695.1040000000003,-939.52 Q 3674.112,-910.336 3649.024,-890.88 Q 3623.9359999999997,-871.424 3595.2639999999997,-871.424 M 3686.4,-1288.192 Q 3673.088,-1288.192 3663.36,-1298.432 Q 3653.632,-1308.672 3653.632,-1323.008 Q 3653.632,-1340.416 3667.9680000000003,-1354.24 Q 3682.304,-1368.064 3699.712,-1368.064 Q 3714.048,-1368.064 3724.288,-1358.848 Q 3734.528,-1349.632 3734.5280000000002,-1335.296 Q 3734.5280000000002,-1316.864 3720.192,-1302.528 Q 3705.856,-1288.192 3686.4,-1288.192 M 3808.256,-871.424 Q 3766.272,-871.424 3746.304,-901.6320000000001 Q 3726.3360000000002,-931.84 3726.3360000000002,-974.8480000000001 Q 3726.3360000000002,-1014.7840000000001 3741.696,-1057.792 Q 3758.08,-1104.896 3787.264,-1143.808 Q 3816.4480000000003,-1182.72 3851.7760000000003,-1206.784 Q 3887.1040000000003,-1230.8480000000002 3921.92,-1230.848 Q 3963.904,-1230.848 3983.8720000000003,-1202.176 Q 4003.84,-1173.504 4003.84,-1129.472 Q 4003.84,-1098.752 3993.6,-1064.96 Q 3983.36,-1031.1680000000001 3965.952,-998.4 Q 3979.264,-985.088 4003.84,-985.088 Q 4032.512,-985.088 4052.992,-1003.52 Q 4073.472,-1021.952 4092.928,-1069.056 Q 4105.215999999999,-1069.056 4105.216,-1059.84 Q 4085.76,-1012.7359999999999 4060.672,-990.72 Q 4035.584,-968.7040000000001 3996.672,-969.7280000000001 Q 3973.12,-969.7280000000001 3957.76,-983.04 Q 3929.088,-935.9359999999999 3889.664,-903.6800000000001 Q 3850.2400000000002,-871.4240000000001 3808.2560000000003,-871.4240000000001 M 3822.592,-893.952 Q 3846.1440000000002,-893.952 3869.696,-913.9200000000001 Q 3893.248,-933.888 3912.704,-959.488 Q 3932.1600000000003,-985.0880000000001 3940.352,-1003.52 Q 3923.968,-1033.216 3921.408,-1048.064 Q 3918.848,-1062.912 3918.848,-1070.08 Q 3918.848,-1089.5359999999998 3929.088,-1099.776 Q 3939.328,-1110.016 3949.568,-1110.016 Q 3963.904,-1110.016 3974.1440000000002,-1097.728 Q 3976.192,-1108.992 3977.216,-1118.72 Q 3978.24,-1128.448 3978.2400000000002,-1137.664 Q 3978.2400000000002,-1164.288 3968.512,-1181.184 Q 3958.784,-1198.08 3938.304,-1198.08 Q 3916.8,-1198.08 3893.248,-1179.6480000000001 Q 3869.696,-1161.2160000000001 3848.704,-1130.496 Q 3827.712,-1099.776 3812.352,-1061.888 Q 3799.04,-1030.144 3791.8720000000003,-1001.984 Q 3784.704,-973.8240000000001 3784.704,-950.272 Q 3784.704,-924.672 3793.92,-909.312 Q 3803.136,-893.952 3822.592,-893.952 M 3994.6240000000003,-863.232 Q 4031.4880000000003,-937.9839999999999 4065.28,-1011.2 Q 4099.072,-1084.4160000000002 4134.912,-1150.976 Q 4155.392,-1187.8400000000001 4169.728,-1202.688 Q 4184.064,-1217.536 4207.616,-1217.536 Q 4215.808,-1217.536 4225.024,-1214.976 Q 4234.240000000001,-1212.4160000000002 4243.456,-1212.416 Q 4249.6,-1212.416 4252.6720000000005,-1213.44 Q 4238.336,-1205.248 4215.296,-1172.992 Q 4192.256,-1140.7359999999999 4168.704,-1098.752 Q 4145.152,-1056.768 4126.72,-1019.904 Q 4146.176,-1043.456 4167.68,-1067.008 Q 4189.184,-1090.56 4214.784,-1112.064 Q 4239.36,-1133.568 4273.664,-1156.608 Q 4307.968,-1179.648 4340.736,-1195.008 Q 4373.504,-1210.368 4392.96,-1210.368 Q 4400.128,-1210.368 4403.2,-1209.344 Q 4403.2,-1209.344 4391.936,-1189.376 Q 4380.672,-1169.408 4363.776,-1137.152 Q 4346.88,-1104.896 4329.472,-1068.544 Q 4312.063999999999,-1032.192 4298.24,-998.912 Q 4284.416,-965.6320000000001 4280.32,-943.104 Q 4277.248,-929.792 4277.2480000000005,-918.528 Q 4277.2480000000005,-902.144 4283.392,-897.024 Q 4289.536,-891.904 4296.704,-891.904 Q 4316.16,-891.904 4336.64,-909.312 Q 4357.12,-926.72 4376.064,-953.856 Q 4395.008000000001,-980.992 4411.392,-1011.712 Q 4427.776,-1042.432 4439.04,-1069.056 Q 4451.3279999999995,-1069.056 4451.328,-1059.84 Q 4440.064,-1032.192 4423.168,-998.912 Q 4406.272,-965.6320000000001 4385.28,-935.936 Q 4364.288,-906.24 4338.688,-886.784 Q 4313.088,-867.328 4283.392,-867.328 Q 4262.912,-867.328 4240.896,-881.664 Q 4218.88,-896.0 4218.88,-934.912 Q 4218.88,-946.176 4220.928,-958.976 Q 4222.976,-971.776 4228.0960000000005,-987.136 Q 4236.2880000000005,-1007.616 4247.552,-1031.1680000000001 Q 4258.816,-1054.72 4284.416,-1095.68 Q 4291.584,-1106.944 4293.12,-1113.088 Q 4294.656,-1119.232 4294.656,-1123.328 Q 4294.656,-1135.616 4283.392,-1135.616 Q 4274.1759999999995,-1135.616 4256.256,-1125.376 Q 4238.336,-1115.136 4211.712,-1089.536 Q 4186.112,-1064.96 4150.784,-1019.904 Q 4115.455999999999,-974.848 4069.376,-886.784 Q 4062.208,-873.472 4053.504,-872.448 Q 4044.7999999999997,-871.424 4029.44,-870.4 Q 4019.2000000000003,-869.376 4009.984,-868.864 Q 4000.768,-868.3520000000001 3994.624,-863.2320000000001 M 4661.2480000000005,-868.352 Q 4637.696000000001,-868.352 4619.776,-881.664 Q 4601.856,-894.976 4601.856,-935.936 Q 4601.856,-953.344 4604.416,-968.7040000000001 Q 4606.976000000001,-984.0640000000001 4611.072,-1001.472 Q 4601.856,-986.112 4585.472,-963.5840000000001 Q 4569.088,-941.056 4549.12,-919.552 Q 4529.152,-898.048 4508.16,-883.712 Q 4487.168,-869.376 4468.736,-869.376 Q 4442.112,-869.376 4425.728,-893.44 Q 4409.344,-917.504 4409.344,-956.416 Q 4409.344,-998.4000000000001 4428.8,-1046.528 Q 4448.256,-1094.656 4482.048,-1138.688 Q 4515.84,-1182.72 4559.872,-1210.368 Q 4603.904,-1238.0159999999998 4652.032,-1238.016 Q 4675.584,-1238.016 4697.088,-1230.336 Q 4718.592,-1222.656 4734.976,-1205.248 Q 4742.143999999999,-1198.0800000000002 4742.144,-1188.864 Q 4742.144,-1182.72 4737.024,-1178.624 Q 4731.904,-1174.528 4723.712,-1176.576 Q 4712.448,-1212.416 4675.584,-1212.416 Q 4658.1759999999995,-1212.416 4635.648,-1201.152 Q 4608.0,-1186.816 4576.768,-1155.584 Q 4545.536,-1124.352 4518.400000000001,-1084.928 Q 4491.264,-1045.5040000000001 4473.856,-1005.568 Q 4456.447999999999,-965.632 4456.448,-932.864 Q 4456.448,-899.072 4482.048,-899.072 Q 4504.576,-899.072 4528.64,-920.576 Q 4552.704000000001,-942.08 4574.72,-974.336 Q 4596.736,-1006.592 4615.168,-1038.336 Q 4633.599999999999,-1070.08 4643.84,-1089.536 Q 4659.2,-1117.184 4672.512,-1135.616 Q 4685.824,-1154.048 4710.400000000001,-1154.048 Q 4721.664000000001,-1154.048 4732.928,-1150.976 Q 4744.192,-1147.9040000000002 4756.4800000000005,-1149.952 Q 4725.76,-1119.232 4702.72,-1077.248 Q 4679.68,-1035.2640000000001 4667.392,-994.816 Q 4655.104,-954.368 4655.104,-926.72 Q 4655.104,-896.0 4675.584,-896.0 Q 4691.968,-896.0 4710.912,-914.432 Q 4729.856000000001,-932.864 4747.776,-961.024 Q 4765.696,-989.184 4781.0560000000005,-1018.368 Q 4796.416,-1047.5520000000001 4805.6320000000005,-1069.056 Q 4810.752,-1069.056 4814.336,-1068.032 Q 4817.92,-1067.008 4817.92,-1059.84 Q 4816.896,-1055.744 4814.336,-1051.136 Q 4811.776,-1046.528 4806.656,-1035.2640000000001 Q 4798.464,-1018.8800000000001 4784.128,-991.232 Q 4769.7919999999995,-963.584 4750.336,-935.424 Q 4730.88,-907.264 4708.352,-887.808 Q 4685.824,-868.352 4661.248,-868.352 M 4834.304,-871.424 Q 4796.416,-871.424 4781.0560000000005,-893.44 Q 4765.696000000001,-915.456 4765.696,-944.128 Q 4765.696,-959.488 4769.28,-975.36 Q 4772.864,-991.232 4777.984,-1004.544 L 4846.592000000001,-1179.6480000000001 Q 4849.664000000001,-1187.8400000000001 4849.664,-1193.984 Q 4849.664,-1204.224 4844.544,-1211.904 Q 4839.424,-1219.584 4837.376,-1222.656 L 4893.696,-1224.704 Q 4909.056,-1225.7279999999998 4915.712,-1221.1200000000001 Q 4922.368,-1216.5120000000002 4922.368,-1210.368 Q 4922.368,-1204.224 4915.2,-1187.84 Q 4904.96,-1163.264 4887.552,-1126.4 Q 4870.143999999999,-1089.536 4853.2480000000005,-1050.624 Q 4836.352000000001,-1011.712 4824.576,-977.9200000000001 Q 4812.8,-944.128 4812.8,-925.696 Q 4812.8,-912.384 4819.456,-903.168 Q 4826.112,-893.952 4842.496,-893.952 Q 4864.0,-893.952 4884.992,-910.8480000000001 Q 4905.984,-927.744 4924.416,-954.368 Q 4942.848,-980.9920000000001 4958.72,-1011.712 Q 4974.592000000001,-1042.432 4985.856,-1069.056 Q 4998.143999999999,-1069.056 4998.144,-1059.84 Q 4987.904,-1034.24 4971.52,-1001.472 Q 4955.136,-968.704 4934.144,-939.52 Q 4913.152,-910.336 4888.064,-890.88 Q 4862.976000000001,-871.424 4834.304,-871.424 M 4925.4400000000005,-1288.192 Q 4912.128000000001,-1288.192 4902.400000000001,-1298.432 Q 4892.6720000000005,-1308.672 4892.6720000000005,-1323.008 Q 4892.6720000000005,-1340.416 4907.008,-1354.24 Q 4921.344,-1368.064 4938.752,-1368.064 Q 4953.088000000001,-1368.064 4963.328,-1358.848 Q 4973.568,-1349.632 4973.568,-1335.296 Q 4973.568,-1316.864 4959.232,-1302.528 Q 4944.896,-1288.192 4925.44,-1288.192 M 4986.88,-1072.128 Q 4995.072,-1089.5359999999998 5008.384,-1127.936 Q 5021.696,-1166.336 5036.032,-1213.44 Q 5050.368,-1260.544 5057.536,-1302.528 Q 5060.608,-1318.912 5068.8,-1326.592 Q 5076.992,-1334.2720000000002 5086.2080000000005,-1334.272 Q 5099.52,-1334.272 5110.784000000001,-1321.472 Q 5122.048000000001,-1308.672 5122.048,-1285.1200000000001 Q 5122.048,-1256.448 5105.152,-1235.968 Q 5088.256,-1215.488 5063.68,-1197.056 Q 5073.92,-1196.0320000000002 5085.184,-1195.52 Q 5096.448,-1195.008 5109.76,-1195.008 Q 5157.888,-1195.008 5204.992,-1201.152 Q 5207.04,-1195.008 5207.04,-1191.936 Q 5207.04,-1178.624 5199.36,-1158.144 Q 5191.679999999999,-1137.664 5183.488,-1121.28 Q 5179.392000000001,-1112.064 5167.104,-1088.0 Q 5154.816000000001,-1063.936 5140.4800000000005,-1033.728 Q 5126.144,-1003.5200000000001 5116.416,-974.336 Q 5106.688,-945.152 5106.688,-924.672 Q 5106.688,-898.048 5127.168,-898.048 Q 5146.624,-898.048 5181.4400000000005,-943.616 Q 5216.256,-989.184 5251.072,-1069.056 Q 5263.36,-1069.056 5263.36,-1059.84 Q 5252.096,-1032.192 5235.2,-999.424 Q 5218.304,-966.656 5197.8240000000005,-937.472 Q 5177.344000000001,-908.288 5153.792,-889.344 Q 5130.240000000001,-870.4000000000001 5104.64,-870.4 Q 5085.184,-870.4 5065.728,-886.272 Q 5046.272,-902.144 5046.272,-937.984 Q 5046.272,-969.7280000000001 5058.56,-999.936 Q 5070.848,-1030.144 5086.2080000000005,-1056.768 Q 5101.568,-1083.392 5113.856,-1103.872 Q 5126.143999999999,-1124.352 5126.144,-1136.64 Q 5126.144,-1155.0720000000001 5103.104,-1163.2640000000001 Q 5080.064,-1171.4560000000001 5043.2,-1172.48 Q 5024.768,-1125.376 5015.552,-1102.848 Q 5006.335999999999,-1080.32 4998.144,-1059.84 Q 4981.76,-1059.84 4986.88,-1072.128 M 5324.8,-867.328 Q 5286.912,-867.328 5256.704,-891.904 Q 5226.496,-916.48 5226.496,-966.6560000000001 Q 5226.496,-1008.6400000000001 5245.4400000000005,-1055.744 Q 5264.384000000001,-1102.848 5295.616,-1144.32 Q 5326.848,-1185.792 5365.2480000000005,-1211.904 Q 5403.648,-1238.016 5442.56,-1238.016 Q 5462.0160000000005,-1238.016 5480.448,-1226.752 Q 5498.88,-1215.488 5498.88,-1187.84 Q 5498.88,-1162.24 5479.424,-1131.52 Q 5459.968,-1100.8 5424.128,-1074.176 Q 5408.768,-1062.912 5385.216,-1052.672 Q 5361.664000000001,-1042.432 5338.112,-1035.776 Q 5314.56,-1029.1200000000001 5299.2,-1029.1200000000001 Q 5294.08,-1016.8320000000001 5289.472,-996.352 Q 5284.864,-975.872 5284.8640000000005,-954.368 Q 5284.8640000000005,-928.768 5295.104,-908.288 Q 5305.344,-887.808 5332.992,-887.808 Q 5366.784000000001,-887.808 5395.968,-907.264 Q 5425.152,-926.72 5448.192,-956.416 Q 5471.232,-986.1120000000001 5487.616,-1016.832 Q 5504.0,-1047.552 5513.216,-1069.056 Q 5525.504,-1069.056 5525.504,-1059.84 Q 5512.192,-1031.168 5495.296,-997.376 Q 5478.400000000001,-963.584 5455.36,-934.4 Q 5432.32,-905.216 5400.064,-886.272 Q 5367.808,-867.3280000000001 5324.8,-867.3280000000001 M 5306.368,-1047.5520000000001 Q 5320.704000000001,-1047.5520000000001 5354.496,-1058.304 Q 5388.2880000000005,-1069.056 5415.936,-1092.608 Q 5442.5599999999995,-1116.1599999999999 5456.896,-1144.32 Q 5471.232,-1172.48 5471.232,-1191.936 Q 5471.232,-1214.464 5454.848,-1214.464 Q 5442.56,-1214.464 5421.0560000000005,-1198.08 Q 5399.552000000001,-1181.696 5367.808,-1142.784 Q 5348.352,-1118.208 5330.944,-1089.536 Q 5313.536,-1060.864 5306.368,-1047.5520000000001" fill="none" stroke="black" stroke-linecap="round" stroke-linejoin="round" stroke-width="8" /></svg>